<svg xmlns="http://www.w3.org/2000/svg" width="40.5" height="38.834" viewBox="0 0 40.5 38.834">
    <g data-name="user (3)">
        <path data-name="Union 7" d="M-6428.75-4253.833a1.25 1.25 0 0 1-1.25-1.249v-5.833a7.926 7.926 0 0 1 7.917-7.917h14.167a7.886 7.886 0 0 1 4.4 1.341 6.591 6.591 0 0 0-.652 2.826v.416a5.425 5.425 0 0 0-3.334 5v5.416zm5.416-26.667a8.335 8.335 0 0 1 8.335-8.333 8.333 8.333 0 0 1 8.333 8.333 8.333 8.333 0 0 1-8.333 8.333 8.335 8.335 0 0 1-8.335-8.333z" transform="translate(6430.5 4289.333)" style="fill:#c8efc5;stroke:#a0d89b"/>
        <path data-name="Path 2716" d="M37.083 26.667h-9.166A2.92 2.92 0 0 0 25 29.583v5.833a2.92 2.92 0 0 0 2.917 2.917h9.167A2.92 2.92 0 0 0 40 35.417v-5.834a2.92 2.92 0 0 0-2.917-2.916zm0 0" style="fill:#047600" transform="translate(.5 .5)"/>
        <path data-name="Path 2717" d="M32.5 20a4.171 4.171 0 0 0-4.167 4.167v2.5h2.5v-2.5a1.667 1.667 0 0 1 3.333 0v2.5h2.5v-2.5A4.171 4.171 0 0 0 32.5 20zm0 0" style="fill:#047600" transform="translate(.5 .5)"/>
    </g>
</svg>
