<svg xmlns="http://www.w3.org/2000/svg" width="24" height="24" viewBox="0 0 24 24">
    <defs>
        <clipPath id="2b0w4g8toa">
            <path data-name="Rectangle 4856" style="stroke:#02ad02;stroke-width:2px;fill:#fff" d="M0 0h24v24H0z"/>
        </clipPath>
    </defs>
    <g data-name="Mask Group 405" style="clip-path:url(#2b0w4g8toa)">
        <path data-name="Path 1534" d="m17.953 11.94 4.28 4.375c1.287 1.315 1.93 1.973 2.018 2.775a2.349 2.349 0 0 1 0 .51c-.088.8-.731 1.46-2.018 2.775l-.164.168a7.347 7.347 0 0 1-1.441 1.289 3.4 3.4 0 0 1-.758.32 7.211 7.211 0 0 1-1.917.13 7.211 7.211 0 0 1-1.917-.13 3.4 3.4 0 0 1-.758-.32 7.345 7.345 0 0 1-1.441-1.289l-3.129-3.2m7.245-7.405-3.94-4.023c-1.525-1.557-2.288-2.336-3.237-2.335s-1.711.781-3.236 2.339l-.817.836c-1.505 1.539-2.258 2.308-2.258 3.262s.753 1.723 2.26 3.261l3.984 4.067m7.245-7.405-7.245 7.405" transform="translate(-3.465 -1.281)" style="stroke-linecap:round;fill:none;stroke-linejoin:round;stroke:#02ad02;stroke-width:2px"/>
        <path data-name="Path 1535" d="M6.083 2.233 5.8 3a5.078 5.078 0 0 1-.925 1.875A5.078 5.078 0 0 1 3 5.8l-.767.284.767.282a5.078 5.078 0 0 1 1.875.925A5.078 5.078 0 0 1 5.8 9.166l.284.767.284-.767a5.078 5.078 0 0 1 .925-1.875 5.078 5.078 0 0 1 1.875-.925l.767-.284-.769-.282a5.078 5.078 0 0 1-1.875-.925A5.078 5.078 0 0 1 6.366 3z" transform="translate(13.067 -1.233)" style="fill:none;stroke-linejoin:round;stroke:#02ad02;stroke-width:2px"/>
    </g>
</svg>
