<svg xmlns="http://www.w3.org/2000/svg" width="24" height="24" viewBox="0 0 24 24">
    <defs>
        <clipPath id="y3u939ebfa">
            <path data-name="Rectangle 4863" transform="translate(72 584)" style="stroke:#02ad02;stroke-width:2px;fill:#fff" d="M0 0h24v24H0z"/>
        </clipPath>
    </defs>
    <g data-name="Mask Group 412" transform="translate(-72 -584)" style="clip-path:url(#y3u939ebfa)">
        <g data-name="google-doc-stroke-rounded (1)">
            <path data-name="Path 1551" d="M16.744 2.791v1.65c0 1.556 0 2.333.483 2.817s1.261.483 2.817.483h1.65" transform="translate(70.556 582.759)" style="fill:none;stroke-linecap:round;stroke-linejoin:round;stroke:#02ad02;stroke-width:2px"/>
            <path data-name="Path 1552" d="M4.465 17.633v-8.8c0-3.111 0-4.667.967-5.633s2.522-.967 5.633-.967h4.589a2.341 2.341 0 0 1 .877.084 2.341 2.341 0 0 1 .679.561l4.211 4.211a2.341 2.341 0 0 1 .561.679 2.341 2.341 0 0 1 .084.877v8.989c0 3.111 0 4.667-.967 5.633s-2.522.967-5.633.967h-4.4c-3.111 0-4.667 0-5.633-.967s-.968-2.523-.968-5.634z" style="fill:none;stroke-linecap:round;stroke-linejoin:round;stroke:#02ad02;stroke-width:2px" transform="translate(70.735 582.767)"/>
            <path data-name="Path 1553" d="M8.93 12.279h8.8m-8.8 3.3h8.8m-8.8 3.3h4.588" transform="translate(70.67 582.62)" style="fill:none;stroke-linecap:round;stroke-linejoin:round;stroke:#02ad02;stroke-width:2px"/>
        </g>
    </g>
</svg>
