<svg xmlns="http://www.w3.org/2000/svg" width="14" height="15" viewBox="0 0 14 15">
    <g data-name="Group 1335">
        <g data-name="Union 3" style="fill:#f2ffcc">
            <path d="m7 14.83-1.21-.648-5.64-2.988V3.842l.18-.091-.008-.004 1.402-.75L7 .171l.01.006.002-.001L13.85 3.84v7.32L7 14.83z" style="stroke:none"/>
            <path d="m7 14.66 6.7-3.59V3.93L7.012.347 7.01.349 6.997.342.645 3.744l.014.007-.358.183v7.17l5.56 2.946 1.14.61m.014.34-.007-.004L7 15l-1.28-.686L0 11.284V9.417L.004 3.75 0 3.748l1.654-.883L7 0l.009.005L7.018 0l.008.014L14 3.751v7.5l-6.989 3.743.004.006z" style="fill:#027600;stroke:none"/>
        </g>
        <path data-name="check (1)" d="M9.945 5.5a.416.416 0 0 1 .035.6l-4.369 4.844a.416.416 0 0 1-.594.024L2.49 8.589a.419.419 0 0 1 .567-.617l1.961 1.764A.416.416 0 0 0 5.6 9.7l3.763-4.161a.416.416 0 0 1 .582-.039z" transform="translate(.537 -.515)" style="fill:#027600;fill-rule:evenodd"/>
    </g>
</svg>
