<svg xmlns="http://www.w3.org/2000/svg" width="14" height="14" viewBox="0 0 14 14">
    <defs>
        <clipPath id="ku3j2vsvja">
            <path data-name="Rectangle 4895" transform="translate(181 343)" style="fill:#fff" d="M0 0h14v14H0z"/>
        </clipPath>
    </defs>
    <g data-name="Mask Group 350" transform="translate(-181 -343)" style="clip-path:url(#ku3j2vsvja)">
        <path data-name="Path 3068" d="M14 7a7 7 0 0 1-5.922 6.917 5.68 5.68 0 0 1-.228.031A6.982 6.982 0 0 1 7.1 14h-.2a6.982 6.982 0 0 1-.75-.05q-.115-.014-.229-.031A7 7 0 1 1 14 7z" style="fill:#f2f2f2" transform="translate(181 343)"/>
        <g data-name="Group 2214">
            <path data-name="Path 3069" d="M195 350a7.039 7.039 0 0 1-.043.78.629.629 0 0 1-.01.086q-.027.218-.067.431l-.016.084a7.009 7.009 0 0 1-4.647 5.26c-.355.069-.481-.149-.481-.336 0-.231.008-.984.008-1.921a1.674 1.674 0 0 0-.475-1.3 3.136 3.136 0 0 0 2.973-1.954l.029-.085q.042-.131.075-.273l.019-.086a5.112 5.112 0 0 0 .1-1.055 2.7 2.7 0 0 0-.721-1.879 2.511 2.511 0 0 0-.067-1.852s-.587-.188-1.923.718a6.636 6.636 0 0 0-3.506 0c-1.338-.903-1.926-.718-1.926-.718a2.516 2.516 0 0 0-.068 1.853 2.71 2.71 0 0 0-.721 1.879 5.091 5.091 0 0 0 .1 1.055l.019.086q.033.142.075.273l.029.085a3.142 3.142 0 0 0 2.965 1.96 1.491 1.491 0 0 0-.445.936 1.49 1.49 0 0 1-2.037-.582 1.472 1.472 0 0 0-1.073-.721s-.683-.009-.048.425a1.856 1.856 0 0 1 .782 1.027s.411 1.249 2.358.826c0 .585.009 1.136.009 1.3 0 .185-.128.4-.478.337a7.01 7.01 0 0 1-4.653-5.257l-.016-.082q-.04-.216-.067-.434a.839.839 0 0 0-.01-.086A7 7 0 1 1 195 350z"/>
            <path data-name="Path 3070" d="M183.589 352.945c-.051-.024-.105-.014-.121.022s.012.082.063.1a.09.09 0 0 0 .12-.021c.02-.03-.011-.078-.062-.101z"/>
            <path data-name="Path 3071" d="M183.915 353.221c-.046-.049-.109-.063-.143-.032a.107.107 0 0 0 .02.145c.044.049.11.063.143.033a.108.108 0 0 0-.02-.146z"/>
            <path data-name="Path 3072" d="M184.212 353.6c-.044-.062-.113-.089-.156-.059s-.044.1 0 .167.113.09.157.06.042-.103-.001-.168z"/>
            <path data-name="Path 3073" d="M184.551 353.981c-.06-.057-.143-.069-.181-.027a.135.135 0 0 0 .04.179c.06.058.142.069.18.027a.136.136 0 0 0-.039-.179z"/>
            <path data-name="Path 3074" d="M185 354.242c-.08-.025-.159 0-.175.056s.036.12.115.144.158 0 .175-.057-.04-.119-.115-.143z"/>
            <path data-name="Path 3075" d="M185.532 354.325c-.084 0-.149.049-.149.107s.069.1.152.1.151-.049.149-.107-.069-.101-.152-.1z"/>
            <path data-name="Path 3076" d="M186.217 354.337c-.011-.057-.085-.091-.167-.077s-.14.073-.13.131.085.091.167.076.139-.074.13-.13z"/>
        </g>
    </g>
</svg>
