<svg xmlns="http://www.w3.org/2000/svg" width="20" height="20" viewBox="0 0 20 20">
    <g data-name="Group 2374" transform="translate(-12 -229)">
        <rect data-name="Rectangle 5022" width="20" height="20" rx="10" transform="translate(12 229)" style="fill:#197a38"/>
        <g transform="translate(15.074 231.005)">
            <g style="fill-rule:evenodd;fill:none">
                <path d="m6.926 0 6.925 4v8l-6.925 4L0 12V4z" style="stroke:none"/>
                <path d="M6.926.346.3 4.172v7.651l6.626 3.826 6.625-3.826V4.172L6.926.346m0-.346 6.925 3.999v7.997l-6.925 4-6.926-4V4L6.926 0z" style="fill:#fff;stroke:none"/>
            </g>
            <circle cx=".635" cy=".635" r=".635" transform="translate(3.893 12.356)" style="fill:#fff"/>
            <circle cx=".635" cy=".635" r=".635" transform="translate(9.225 12.356)" style="fill:#fff"/>
            <path d="M15.106 21.007a.434.434 0 0 0 .15-.026.307.307 0 0 0 .123-.085l-.1-.1a.254.254 0 0 1-.076.06.219.219 0 0 1-.1.021.233.233 0 0 1-.1-.019.217.217 0 0 1-.073-.052.24.24 0 0 1-.047-.078.27.27 0 0 1-.017-.1.323.323 0 0 1 .014-.1.253.253 0 0 1 .043-.082A.2.2 0 0 1 15 20.4a.221.221 0 0 1 .1-.021.224.224 0 0 1 .1.021.288.288 0 0 1 .08.06l.1-.094a.333.333 0 0 0-.124-.085.414.414 0 0 0-.151-.028.407.407 0 0 0-.155.028.343.343 0 0 0-.2.2.419.419 0 0 0-.027.154.413.413 0 0 0 .027.153.34.34 0 0 0 .078.119.354.354 0 0 0 .12.077.413.413 0 0 0 .158.023zm.741 0a.382.382 0 0 0 .151-.03.387.387 0 0 0 .122-.081.375.375 0 0 0 .111-.269.368.368 0 0 0-.03-.148.387.387 0 0 0-.71 0 .368.368 0 0 0-.03.148.375.375 0 0 0 .111.269.387.387 0 0 0 .122.081.382.382 0 0 0 .152.03zm0-.128a.247.247 0 0 1-.1-.019.219.219 0 0 1-.075-.052.228.228 0 0 1-.047-.079.315.315 0 0 1 0-.2.228.228 0 0 1 .047-.079.219.219 0 0 1 .075-.052.268.268 0 0 1 .2 0 .219.219 0 0 1 .075.052.228.228 0 0 1 .047.079.315.315 0 0 1 0 .2.228.228 0 0 1-.047.079.219.219 0 0 1-.075.052.247.247 0 0 1-.1.019zm.693.11v-.375a.331.331 0 0 1 .015-.106.211.211 0 0 1 .041-.074.168.168 0 0 1 .06-.043.18.18 0 0 1 .071-.014.157.157 0 0 1 .08.017.118.118 0 0 1 .046.049.221.221 0 0 1 .021.074.765.765 0 0 1 .005.094v.378h.137v-.395a.268.268 0 0 1 .043-.157.2.2 0 0 1 .222-.043.126.126 0 0 1 .047.047.183.183 0 0 1 .022.067.571.571 0 0 1 .005.079v.4h.137v-.42a.6.6 0 0 0-.012-.118.276.276 0 0 0-.041-.1.221.221 0 0 0-.084-.072.3.3 0 0 0-.137-.027.276.276 0 0 0-.129.034.231.231 0 0 0-.1.1.249.249 0 0 0-.09-.1.256.256 0 0 0-.136-.034.262.262 0 0 0-.089.014.3.3 0 0 0-.07.035.243.243 0 0 0-.049.043.119.119 0 0 0-.024.038v-.113H16.4v.723zm1.3 0v-.375a.331.331 0 0 1 .015-.106.211.211 0 0 1 .041-.074.168.168 0 0 1 .06-.043.181.181 0 0 1 .071-.014.157.157 0 0 1 .08.017.118.118 0 0 1 .046.049.221.221 0 0 1 .021.074.765.765 0 0 1 .005.094v.378h.137v-.395a.268.268 0 0 1 .043-.157.2.2 0 0 1 .222-.043.126.126 0 0 1 .047.047.183.183 0 0 1 .022.067.571.571 0 0 1 .005.079v.4h.137v-.42a.6.6 0 0 0-.012-.118.276.276 0 0 0-.041-.1.221.221 0 0 0-.084-.072.3.3 0 0 0-.137-.027.276.276 0 0 0-.129.034.231.231 0 0 0-.1.1.249.249 0 0 0-.09-.1.256.256 0 0 0-.136-.034.262.262 0 0 0-.089.014.3.3 0 0 0-.07.035.243.243 0 0 0-.049.043.119.119 0 0 0-.024.038v-.113H17.7v.723zm1.49.018a.381.381 0 0 0 .32-.148l-.1-.079a.358.358 0 0 1-.087.078.2.2 0 0 1-.111.03.278.278 0 0 1-.091-.015.25.25 0 0 1-.078-.043.214.214 0 0 1-.054-.066.181.181 0 0 1-.021-.086h.579v-.049a.508.508 0 0 0-.019-.138.346.346 0 0 0-.062-.122.321.321 0 0 0-.109-.088.357.357 0 0 0-.162-.034.38.38 0 0 0-.149.029.355.355 0 0 0-.118.08.372.372 0 0 0-.078.12.394.394 0 0 0-.028.15.425.425 0 0 0 .026.15.355.355 0 0 0 .074.12.337.337 0 0 0 .117.08.4.4 0 0 0 .153.029zm.207-.439H19.1a.186.186 0 0 1 .016-.074.229.229 0 0 1 .045-.068.225.225 0 0 1 .071-.05.22.22 0 0 1 .092-.019.237.237 0 0 1 .091.016.179.179 0 0 1 .065.044.185.185 0 0 1 .039.066.289.289 0 0 1 .014.084zm.448.42v-.362a.247.247 0 0 1 .053-.175.2.2 0 0 1 .154-.056.187.187 0 0 1 .034 0l.034.008.006-.148a.192.192 0 0 0-.062-.009.235.235 0 0 0-.067.01.27.27 0 0 0-.062.027.245.245 0 0 0-.051.041.2.2 0 0 0-.037.052v-.111h-.137v.721zm.741.018a.434.434 0 0 0 .15-.026.307.307 0 0 0 .124-.08l-.1-.1a.254.254 0 0 1-.076.06.219.219 0 0 1-.1.021.233.233 0 0 1-.1-.019.217.217 0 0 1-.073-.052.24.24 0 0 1-.047-.078.27.27 0 0 1-.017-.1.323.323 0 0 1 .014-.1.253.253 0 0 1 .043-.082.2.2 0 0 1 .07-.056.221.221 0 0 1 .1-.021.224.224 0 0 1 .1.021.288.288 0 0 1 .08.06l.1-.094a.333.333 0 0 0-.126-.086.414.414 0 0 0-.151-.028.407.407 0 0 0-.155.028.343.343 0 0 0-.2.2.419.419 0 0 0-.027.154.413.413 0 0 0 .027.153.34.34 0 0 0 .078.119.354.354 0 0 0 .12.077.413.413 0 0 0 .155.028zm.72 0a.381.381 0 0 0 .32-.148l-.1-.079a.358.358 0 0 1-.087.078.2.2 0 0 1-.111.03.278.278 0 0 1-.092-.015.25.25 0 0 1-.078-.043.214.214 0 0 1-.054-.066.181.181 0 0 1-.021-.086h.577v-.049a.508.508 0 0 0-.019-.138.346.346 0 0 0-.062-.122.321.321 0 0 0-.109-.088.357.357 0 0 0-.162-.034.38.38 0 0 0-.149.029.355.355 0 0 0-.118.08.372.372 0 0 0-.078.12.4.4 0 0 0-.028.15.425.425 0 0 0 .026.15.355.355 0 0 0 .074.12.337.337 0 0 0 .117.08.4.4 0 0 0 .155.029zm.207-.439h-.432a.186.186 0 0 1 .016-.074.229.229 0 0 1 .045-.068.225.225 0 0 1 .071-.05.22.22 0 0 1 .092-.019.237.237 0 0 1 .091.016.179.179 0 0 1 .065.044.185.185 0 0 1 .039.066.288.288 0 0 1 .014.084z" transform="translate(-11.105 -11.256)" style="fill:#fff"/>
            <g data-name="Group 2040">
                <path style="stroke:#fff;stroke-linecap:square;stroke-width:.3px;fill:none" d="M0 0h1.523" transform="translate(.635 4.951)"/>
                <path transform="translate(2.158 4.951)" style="stroke:#fff;stroke-linecap:square;stroke-width:.3px;fill:none" d="m0 0 1.439 7.024"/>
                <path transform="translate(3.343 10.283)" style="stroke:#fff;stroke-linecap:square;stroke-width:.3px;fill:none" d="M0 0h7.536"/>
                <path data-name="Line-3" transform="translate(3.681 11.975)" style="stroke:#fff;stroke-linecap:square;stroke-width:.3px;fill:none" d="M0 0h7.536"/>
                <path data-name="Line-3" transform="translate(7.827 10.917)" style="stroke:#fff;stroke-linecap:square;stroke-width:.3px;fill:none" d="M0 0h2.968"/>
                <path transform="translate(5.498 11.425)" style="stroke:#fff;stroke-linecap:square;stroke-width:.3px;fill:none" d="M0 0h4.873"/>
                <path transform="translate(10.96 5.374)" style="stroke:#fff;stroke-linecap:square;stroke-width:.3px;fill:none" d="M0 4.824 1.523 0"/>
            </g>
            <path d="M12.954 6.325a1.114 1.114 0 0 0 .309-.043.79.79 0 0 0 .265-.131.641.641 0 0 0 .185-.224.7.7 0 0 0 .069-.321.522.522 0 0 0-.064-.27.616.616 0 0 0-.162-.181.855.855 0 0 0-.216-.117q-.119-.044-.228-.081-.076-.024-.137-.047a.6.6 0 0 1-.105-.05.2.2 0 0 1-.07-.06.17.17 0 0 1-.023-.091.178.178 0 0 1 .029-.105.237.237 0 0 1 .072-.067.271.271 0 0 1 .1-.035.621.621 0 0 1 .105-.009.494.494 0 0 1 .209.05.47.47 0 0 1 .175.136l.332-.35a.961.961 0 0 0-.334-.2 1.12 1.12 0 0 0-.373-.067 1.215 1.215 0 0 0-.3.038.825.825 0 0 0-.268.12.636.636 0 0 0-.192.21.611.611 0 0 0-.073.309.589.589 0 0 0 .047.248.543.543 0 0 0 .125.174.679.679 0 0 0 .177.117 1.82 1.82 0 0 0 .2.079l.19.062a.7.7 0 0 1 .14.064.3.3 0 0 1 .087.078.174.174 0 0 1 .03.1.23.23 0 0 1-.024.11.2.2 0 0 1-.065.073.281.281 0 0 1-.1.04.518.518 0 0 1-.113.012.566.566 0 0 1-.253-.066.631.631 0 0 1-.209-.163l-.344.347a.949.949 0 0 0 .36.23 1.271 1.271 0 0 0 .447.081zm1.71.675v-.9h.006a.473.473 0 0 0 .195.154.638.638 0 0 0 .265.056.672.672 0 0 0 .3-.067.7.7 0 0 0 .226-.178.783.783 0 0 0 .144-.255.957.957 0 0 0 .049-.3.917.917 0 0 0-.05-.3.791.791 0 0 0-.144-.254.674.674 0 0 0-.226-.174.684.684 0 0 0-.3-.064.59.59 0 0 0-.291.069.616.616 0 0 0-.193.16h-.009v-.193h-.474V7zm.347-1.1a.336.336 0 0 1-.152-.034.363.363 0 0 1-.114-.088.4.4 0 0 1-.073-.125.409.409 0 0 1 0-.286.4.4 0 0 1 .073-.125.363.363 0 0 1 .114-.088.336.336 0 0 1 .152-.034.343.343 0 0 1 .155.034.339.339 0 0 1 .111.087.372.372 0 0 1 .067.123.459.459 0 0 1 .023.144.473.473 0 0 1-.023.144.387.387 0 0 1-.067.126.329.329 0 0 1-.111.088.343.343 0 0 1-.155.034zm1.759.414a.525.525 0 0 0 .151-.021.634.634 0 0 0 .131-.055.451.451 0 0 0 .1-.079.43.43 0 0 0 .072-.1h.006v.211h.482V4.753h-.5v.82a.387.387 0 0 1-.069.228.229.229 0 0 1-.2.1.215.215 0 0 1-.113-.026.194.194 0 0 1-.069-.072.3.3 0 0 1-.035-.1.782.782 0 0 1-.009-.122v-.828h-.5v.938a.9.9 0 0 0 .029.226.559.559 0 0 0 .094.2.5.5 0 0 0 .171.142.551.551 0 0 0 .259.054zm1.9-.043V5.49a.378.378 0 0 1 .018-.107.335.335 0 0 1 .059-.113.344.344 0 0 1 .11-.088.356.356 0 0 1 .169-.037h.062a.389.389 0 0 1 .065.012l.021-.439a.229.229 0 0 0-.047-.009.567.567 0 0 0-.059 0 .426.426 0 0 0-.247.073.492.492 0 0 0-.165.189h-.006v-.218h-.48V6.27zm1.369.037a.927.927 0 0 0 .158-.014.825.825 0 0 0 .131-.032l-.004-.362a.268.268 0 0 1-.069.018.531.531 0 0 1-.078.006.177.177 0 0 1-.148-.053.26.26 0 0 1-.041-.16v-.583h.356v-.375h-.356v-.4H19.5v.4h-.24v.375h.24v.64a.827.827 0 0 0 .027.221.43.43 0 0 0 .09.171.4.4 0 0 0 .166.11.747.747 0 0 0 .256.038z" transform="translate(-9.054 1.6)" style="fill:#fff"/>
        </g>
    </g>
</svg>
