<svg xmlns="http://www.w3.org/2000/svg" width="39.998" height="37.924" viewBox="0 0 39.998 37.924">
    <g data-name="Group 2329">
        <path data-name="Path 2671" d="M10.652.755h18.694A1.155 1.155 0 0 1 30.5 1.906v26.148a1.155 1.155 0 0 1-1.151 1.151H10.652A1.155 1.155 0 0 1 9.5 28.054V1.906A1.155 1.155 0 0 1 10.652.755z" style="fill-rule:evenodd;stroke:#a0d89b;fill:#c8efc5" transform="translate(-.002 -.255)"/>
        <g data-name="Path 2673" style="fill-rule:evenodd;fill:#c8efc5">
            <path d="M20.465 37.678c-2.99 0-5.398-1.204-7.946-2.479-2.195-1.097-4.464-2.232-7.123-2.52l-1.62-.345 2.242-10.008 1.546.331 2.197.47.125.026.123-.036c.575-.172 1.168-.357 1.74-.537 2.897-.908 5.893-1.846 9.16-1.846 2.973 0 5.786.79 8.6 2.416l.167.097.188-.04 3.614-.773 1.951 10.068-4.542.971-.105.022-.086.063c-3.798 2.773-7.145 4.12-10.23 4.12z" style="stroke:none" transform="translate(-.002 -.255)"/>
            <path d="M20.465 37.178c2.976 0 6.226-1.316 9.937-4.024l.172-.125 4.271-.913-1.76-9.086-3.492.746-.333-.193c-2.737-1.58-5.468-2.35-8.35-2.35-3.191 0-6.15.928-9.011 1.824-.575.18-1.168.366-1.747.539l-.245.073-3.509-.75-2.023 9.031 1.1.235c2.738.302 5.04 1.453 7.267 2.567 2.495 1.248 4.85 2.426 7.723 2.426m0 1c-5.807 0-9.595-4.416-15.148-5.004l-2.14-.456L5.64 21.734l4.227.904c5.75-1.717 12.037-4.46 19.894.08l4.112-.88 2.142 11.05-5.023 1.074c-4.304 3.141-7.66 4.217-10.526 4.216z" style="fill:#a0d89b;stroke:none" transform="translate(-.002 -.255)"/>
        </g>
        <g data-name="Path 2674" style="fill-rule:evenodd;fill:#c8efc5">
            <path d="M31.19 33.41c-1.686-2.047-3.97-3.197-6.183-4.31-2.572-1.294-5.002-2.516-6.317-5.029l-.315-.602-.48.48a8.715 8.715 0 0 1-2.618 1.791c-.825.363-1.645.563-2.309.563-.544 0-.802-.142-.837-.231-.035-.09.034-.474.77-1.154l4.03-3.76a21.132 21.132 0 0 1 4-.402c3.115 0 5.918.781 8.57 2.389l.17.103.193-.042 3.614-.772 1.951 10.068-4.24.907z" style="stroke:none" transform="translate(-.002 -.255)"/>
            <path d="M20.932 21.256c-1.2 0-2.465.123-3.765.367l-3.927 3.662c-.233.216-.38.385-.47.51.057.005.123.008.198.008 1.137 0 3.052-.69 4.573-2.208l.962-.96.63 1.205c1.24 2.37 3.6 3.556 6.098 4.813 2.176 1.095 4.42 2.224 6.146 4.205l3.468-.742-1.76-9.086-3.504.748-.34-.205c-2.571-1.56-5.29-2.317-8.31-2.317m0-1c3.44 0 6.32.941 8.829 2.461l4.112-.878 2.142 11.05-5.023 1.074c-3.505-4.54-10.144-4.693-12.744-9.66-3.471 3.463-8.793 3.12-5.686.248l4.134-3.855c1.503-.3 2.911-.44 4.237-.44z" style="fill:#a0d89b;stroke:none" transform="translate(-.002 -.255)"/>
        </g>
        <path data-name="Path 2679" d="M16.055 11.444A4.135 4.135 0 1 0 11.92 7.31a4.143 4.143 0 0 0 4.135 4.134z" style="fill:#047600;fill-rule:evenodd" transform="translate(-.002 -.255)"/>
    </g>
    <path data-name="Path 2680" d="M22.621 3.819a.646.646 0 1 1 0-1.291h5.443a.646.646 0 0 1 0 1.291z" style="fill:#047600" transform="translate(-.002 -.255)"/>
    <path data-name="Path 2681" d="M22.621 7.4a.646.646 0 1 1 0-1.291h5.443a.646.646 0 0 1 0 1.291z" style="fill:#047600" transform="translate(-.002 -.255)"/>
    <path data-name="Path 2682" d="M22.621 10.988a.646.646 0 1 1 0-1.291h5.443a.646.646 0 0 1 0 1.291z" style="fill:#047600" transform="translate(-.002 -.255)"/>
    <path data-name="Path 2683" d="M11.92 14.571a.644.644 0 1 1 0-1.289h16.144a.644.644 0 0 1 0 1.289z" style="fill:#047600" transform="translate(-.002 -.255)"/>
    <path data-name="Path 2684" d="M11.92 18.156a.646.646 0 1 1 0-1.291h16.144a.646.646 0 0 1 0 1.291z" style="fill:#047600" transform="translate(-.002 -.255)"/>
    <path data-name="Path 2685" d="M17.479 5.793a.645.645 0 1 1 .912.912l-2.122 2.119a.645.645 0 0 1-.912 0l-1.639-1.638a.645.645 0 0 1 .912-.912l1.183 1.185z" style="fill:#edf6ff" transform="translate(-.002 -.255)"/>
    <path data-name="Path 2686" d="M-1.793 24.387H9.462v5.438H-1.793z" transform="rotate(-77.937 3.676 26.978)" style="fill:#bae5b6;fill-rule:evenodd"/>
    <path data-name="Path 2687" d="M33.449 21.478h5.435v11.255h-5.435z" transform="rotate(-12.063 34.964 26.992)" style="fill:#bae5b6;fill-rule:evenodd"/>
    <path data-name="Path 2693" d="m3.178 32.718 2.139.456z" style="fill:#e7635e;fill-rule:evenodd" transform="translate(-.002 -.255)"/>
</svg>
