<svg xmlns="http://www.w3.org/2000/svg" width="40.999" height="40.5" viewBox="0 0 40.999 40.5">
    <g data-name="Group 2306">
        <g data-name="Group 2305">
            <path data-name="Path 2579" d="M.772 14.74 19.1 26.406a1.67 1.67 0 0 0 1.79 0L39.228 14.74a1.666 1.666 0 0 0 0-2.812L20.895.26a1.671 1.671 0 0 0-1.79 0L.772 11.928a1.666 1.666 0 0 0 0 2.812z" style="fill:#047600" transform="translate(.499)"/>
            <path data-name="Path 2580" d="m39.228 25.26-5.162-3.285-11.381 7.244a5 5 0 0 1-5.365 0L5.934 21.975.772 25.26a1.666 1.666 0 0 0 0 2.812L19.105 39.74a1.67 1.67 0 0 0 1.79 0l18.333-11.668a1.666 1.666 0 0 0 0-2.812z" style="fill:#c8efc5;stroke:#a0d89b" transform="translate(.499)"/>
        </g>
    </g>
</svg>
