<svg xmlns="http://www.w3.org/2000/svg" width="34.033" height="39.047" viewBox="0 0 34.033 39.047">
    <g transform="translate(-5.44 .5)">
        <path data-name="Path 2694" d="M5.94 1.032V36.24a1.032 1.032 0 0 0 1.032 1.032h26.779a1.032 1.032 0 0 0 1.032-1.032V1.032A1.032 1.032 0 0 0 33.751 0H6.972A1.032 1.032 0 0 0 5.94 1.032z" style="fill:#c8efc5;stroke:#a0d89b"/>
        <g data-name="Group 2330">
            <path data-name="Path 2696" d="M29.026 13.881H10.974a.6.6 0 0 1 0-1.207h18.052a.6.6 0 1 1 0 1.207z" style="fill:#047600"/>
            <path data-name="Path 2697" d="M25.472 20.306h-14.5a.6.6 0 1 1 0-1.207h14.5a.6.6 0 1 1 0 1.207z" style="fill:#047600"/>
            <path data-name="Path 2698" d="M25.472 26.732h-14.5a.6.6 0 0 1 0-1.207h14.5a.6.6 0 0 1 0 1.207z" style="fill:#047600"/>
            <path data-name="Path 2699" d="M32.549 32.226a.6.6 0 0 1-.427-.177L25.076 25a.6.6 0 0 1 .854-.854l7.045 7.054a.6.6 0 0 1-.427 1.031z" style="fill:#047600"/>
        </g>
        <path data-name="Path 2700" d="m30.89 32.13 5.969 5.97a1.531 1.531 0 0 0 2.165-2.165l-5.969-5.969a.493.493 0 0 0-.7 0l-1.465 1.467a.493.493 0 0 0 0 .697z" style="fill:#047600"/>
        <circle data-name="Ellipse 388" cx="6.616" cy="6.616" r="6.616" transform="rotate(-45 36.7 -6.765)" style="fill:#047600"/>
        <circle data-name="Ellipse 389" cx="4.04" cy="4.04" r="4.04" transform="rotate(-45 38.521 -11.163)" style="fill:#c8efc4"/>
        <g data-name="Group 2331">
            <path data-name="Path 2701" d="m12.272 3.808-.006-.016a.712.712 0 0 0-1.317 0l-.005.014L9.154 8.5a.6.6 0 1 0 1.128.43l.134-.351h2.368l.132.349a.6.6 0 1 0 1.129-.426zm-1.4 3.568.729-1.915.723 1.915z" style="fill:#047600"/>
            <path data-name="Path 2702" d="M26.287 3.35a.6.6 0 0 0-.6.6v4.769a.6.6 0 0 0 1.207 0V3.954a.6.6 0 0 0-.6-.6z" style="fill:#047600"/>
            <path data-name="Path 2703" d="M22.238 3.421h-1.3a.611.611 0 0 0-.608.608v4.544a.617.617 0 0 0 .608.679s.981 0 1.354-.01a2.635 2.635 0 0 0 2.422-2.905c0-1.744-.993-2.916-2.471-2.916zm.028 4.614c-.167 0-.46.005-.729.007V4.628h.7c1.173 0 1.264 1.308 1.264 1.708-.001 1.159-.62 1.688-1.235 1.699z" style="fill:#047600"/>
            <path data-name="Path 2704" d="M18.74 3.35a.6.6 0 0 0-.6.6v3.279c0 .56-.6.886-1.079.886a1 1 0 0 1-.554-.156.8.8 0 0 1-.469-.726V3.954a.6.6 0 1 0-1.207 0v3.279a2.187 2.187 0 0 0 2.229 2.09 2.2 2.2 0 0 0 2.286-2.093V3.954a.6.6 0 0 0-.6-.6z" style="fill:#047600"/>
            <path data-name="Path 2705" d="M31.005 3.35h-2.631a.6.6 0 1 0 0 1.207h.707v4.162a.6.6 0 0 0 1.207 0V4.558h.717a.6.6 0 0 0 0-1.207z" style="fill:#047600"/>
        </g>
    </g>
</svg>
