<svg xmlns="http://www.w3.org/2000/svg" width="72.186" height="72" viewBox="0 0 72.186 72">
    <g data-name="Group 13830">
        <g data-name="Group 13828" transform="translate(-23410.907 -2634)">
            <path data-name="Path 3280" d="M49.5 130.973A34.761 34.761 0 0 1 32 126.3v14.854a1.456 1.456 0 0 0 1.458 1.455h32.084A1.456 1.456 0 0 0 67 141.154V126.3a34.944 34.944 0 0 1-17.5 4.673z" transform="translate(23380 2524.391)" style="fill:#c8efc4"/>
            <rect data-name="Rectangle 5130" width="35.001" height="26.182" rx="1" transform="translate(23412 2640.818)" style="stroke:#a0d89b;fill:none;stroke-linecap:round;stroke-linejoin:round;stroke-width:1.6px"/>
            <path data-name="Path 3281" d="M102.584 45.818v-2.909A2.913 2.913 0 0 0 99.667 40h-8.75A2.913 2.913 0 0 0 88 42.909v2.909" transform="translate(23334.211 2595)" style="stroke:#a0d89b;fill:none;stroke-linecap:round;stroke-linejoin:round;stroke-width:1.6px"/>
            <path data-name="Path 3282" d="M67 126.3a35.108 35.108 0 0 1-35 0" transform="translate(23380 2524.391)" style="stroke:#a0d89b;fill:none;stroke-linecap:round;stroke-linejoin:round;stroke-width:1.6px"/>
            <path data-name="Line 524" transform="translate(23427.314 2649.545)" style="stroke:#047600;fill:none;stroke-linecap:round;stroke-linejoin:round;stroke-width:1.6px" d="M0 0h4.375"/>
        </g>
        <g data-name="Group 13829" transform="translate(-23375.907 -2596)">
            <path data-name="Path 3280" d="M49.5 130.973A34.761 34.761 0 0 1 32 126.3v14.854a1.456 1.456 0 0 0 1.458 1.455h32.084A1.456 1.456 0 0 0 67 141.154V126.3a34.944 34.944 0 0 1-17.5 4.673z" transform="translate(23380 2524.391)" style="fill:#c8efc4"/>
            <rect data-name="Rectangle 5130" width="35.001" height="26.182" rx="1" transform="translate(23412 2640.818)" style="stroke:#a0d89b;fill:none;stroke-linecap:round;stroke-linejoin:round;stroke-width:1.6px"/>
            <path data-name="Path 3281" d="M102.584 45.818v-2.909A2.913 2.913 0 0 0 99.667 40h-8.75A2.913 2.913 0 0 0 88 42.909v2.909" transform="translate(23334.211 2595)" style="stroke:#a0d89b;fill:none;stroke-linecap:round;stroke-linejoin:round;stroke-width:1.6px"/>
            <path data-name="Path 3282" d="M67 126.3a35.108 35.108 0 0 1-35 0" transform="translate(23380 2524.391)" style="stroke:#a0d89b;fill:none;stroke-linecap:round;stroke-linejoin:round;stroke-width:1.6px"/>
            <path data-name="Line 524" transform="translate(23427.314 2649.545)" style="stroke:#047600;fill:none;stroke-linecap:round;stroke-linejoin:round;stroke-width:1.6px" d="M0 0h4.375"/>
        </g>
        <g data-name="b2b (2)">
            <path data-name="Path 3265" d="M70.763 32.868a1.161 1.161 0 0 0-1.638-1.647L67.1 33.232v-5.064a8.306 8.306 0 0 0-8.3-8.3h-8.405a1.161 1.161 0 1 0 0 2.323h8.411a5.981 5.981 0 0 1 5.974 5.974v5.041l-1.994-2a1.161 1.161 0 0 0-1.647 1.638l3.979 4a1.161 1.161 0 0 0 1.642 0zm-54.806 22.4a1.161 1.161 0 1 0 1.643 1.639l2-2.007v4.932a8.306 8.306 0 0 0 8.3 8.3h8.411a1.161 1.161 0 1 0 0-2.323H27.9a5.981 5.981 0 0 1-5.974-5.974v-4.954l2.019 2.009a1.161 1.161 0 0 0 1.638-1.647l-4-3.979a1.161 1.161 0 0 0-1.642 0z" transform="translate(-7.271 -8)" style="fill:#a1d89c"/>
        </g>
    </g>
</svg>
