<svg xmlns="http://www.w3.org/2000/svg" width="40.5" height="39.635" viewBox="0 0 40.5 39.635">
    <g data-name="Group 2293">
        <g data-name="Group 2290">
            <path data-name="Path 2546" d="M18.355 1.56 33.7 10.421a1.539 1.539 0 0 1 .788 1.365v17.72a1.539 1.539 0 0 1-.788 1.364l-15.345 8.86a1.539 1.539 0 0 1-1.576 0L1.433 30.87a1.539 1.539 0 0 1-.788-1.365v-17.72a1.539 1.539 0 0 1 .788-1.365l15.346-8.86a1.539 1.539 0 0 1 1.576 0z" style="fill-rule:evenodd;fill:#c8efc5;stroke:#a1d89c" transform="translate(-.145 -.828)"/>
            <path data-name="Path 2549" d="m6.653 14.344 4.907 2.833 16.922-9.77-4.908-2.833z" style="fill:#047600;fill-rule:evenodd" transform="translate(-.145 -.828)"/>
            <path data-name="Path 2550" d="m10.969 24.53-3.923-2.265a.769.769 0 0 1-.394-.682v-7.239l4.907 2.833v7.012a.394.394 0 0 1-.591.341z" style="fill:#047600;fill-rule:evenodd" transform="translate(-.145 -.828)"/>
        </g>
        <g data-name="Group 2291">
            <path data-name="Path 2551" d="M28.785 27.427v2.035a.4.4 0 0 1-.642.325l-5.988-4.393a.806.806 0 0 1-.041-1.269l6.009-5.025a.4.4 0 0 1 .662.309v1.859c14.646 0 15.45 15.149 3.95 17.978a.081.081 0 0 1-.057-.15c6.921-3.617 4.533-11.666-3.893-11.666z" style="fill:#047600;fill-rule:evenodd" transform="translate(-.145 -.828)"/>
            <path data-name="Path 2552" d="M23.776 22.735c13.314-1.521 18.939 5.34 13.4 14.417 6.48-5.055 3.992-15.887-8.392-15.887v-1.858a.4.4 0 0 0-.662-.309z" style="fill:#047600;fill-rule:evenodd" transform="translate(-.145 -.828)"/>
        </g>
    </g>
</svg>
