<svg xmlns="http://www.w3.org/2000/svg" width="40" height="38" viewBox="0 0 40 38">
    <path data-name="Path 28" d="M2.667 32.917H4v-1.361H2.667a1.347 1.347 0 0 1-1.333-1.361V2.972a1.347 1.347 0 0 1 1.333-1.361H32a1.347 1.347 0 0 1 1.333 1.361v1.361h1.333V2.972A2.7 2.7 0 0 0 32 .25H2.667A2.7 2.7 0 0 0 0 2.972v27.222a2.7 2.7 0 0 0 2.667 2.723zm0 0" style="fill:#6d6d6d" transform="translate(0 -.25)"/>
    <path data-name="Path 29" d="M62.5 62.75h1.333v1.333H62.5zm0 0" transform="translate(-59.833 -60.083)" style="fill:#6d6d6d"/>
    <path data-name="Path 30" d="M125 62.75h1.333v1.333H125zm0 0" transform="translate(-119.667 -60.083)" style="fill:#6d6d6d"/>
    <path data-name="Path 31" d="M187.5 62.75h1.333v1.333H187.5zm0 0" transform="translate(-179.5 -60.083)" style="fill:#6d6d6d"/>
    <path data-name="Path 32" d="M125 155.194a2.7 2.7 0 0 0 2.667 2.722H157a2.7 2.7 0 0 0 2.667-2.722v-27.222A2.7 2.7 0 0 0 157 125.25h-29.333a2.7 2.7 0 0 0-2.667 2.722zm1.333-27.222a1.347 1.347 0 0 1 1.333-1.361H157a1.347 1.347 0 0 1 1.333 1.361v27.222a1.347 1.347 0 0 1-1.333 1.362h-29.333a1.347 1.347 0 0 1-1.333-1.361zm0 0" transform="translate(-119.667 -119.917)" style="fill:#6d6d6d"/>
    <path data-name="Path 33" d="M187.5 187.75h1.333v1.333H187.5zm0 0" transform="translate(-179.5 -179.602)" style="fill:#6d6d6d"/>
    <path data-name="Path 34" d="M250 187.75h1.333v1.333H250zm0 0" transform="translate(-239.333 -179.602)" style="fill:#6d6d6d"/>
    <path data-name="Path 35" d="M312.5 187.75h1.333v1.333H312.5zm0 0" transform="translate(-299.167 -179.602)" style="fill:#6d6d6d"/>
    <path data-name="Path 36" d="M187.5 250.25h29.333v1.333H187.5zm0 0" transform="translate(-179.5 -239.386)" style="fill:#6d6d6d"/>
    <path data-name="Path 37" d="M187.5 328.375h5.333v1.333H187.5zm0 0" transform="translate(-179.5 -314.116)" style="fill:#6d6d6d"/>
    <path data-name="Path 38" d="M187.5 390.875h4v1.333h-4zm0 0" transform="translate(-179.5 -373.9)" style="fill:#6d6d6d"/>
    <path data-name="Path 39" d="M426.542 453.375a4.667 4.667 0 1 0 4.667 4.667 4.666 4.666 0 0 0-4.667-4.667zm0 8a3.333 3.333 0 1 1 3.333-3.333 3.333 3.333 0 0 1-3.333 3.333zm0 0" transform="translate(-403.875 -433.581)" style="fill:#6d6d6d"/>
    <path data-name="Path 40" d="M302.583 321.417a.666.666 0 0 0-.667-.667h-1.762a8.473 8.473 0 0 0-.527-1.273l1.246-1.245a.667.667 0 0 0 0-.943l-2.829-2.829a.667.667 0 0 0-.943 0l-1.245 1.245a8.624 8.624 0 0 0-1.273-.527v-1.762a.666.666 0 0 0-.667-.667h-4a.666.666 0 0 0-.667.667v1.762a8.622 8.622 0 0 0-1.273.527l-1.245-1.245a.667.667 0 0 0-.943 0l-2.829 2.829a.667.667 0 0 0 0 .943l1.245 1.245a9.043 9.043 0 0 0-.16.329 8.627 8.627 0 0 0-.367.944h-1.762a.666.666 0 0 0-.667.667v4a.666.666 0 0 0 .667.667h1.762a8.476 8.476 0 0 0 .527 1.273l-1.244 1.243a.667.667 0 0 0 0 .943l2.829 2.829a.667.667 0 0 0 .943 0l1.245-1.245a8.625 8.625 0 0 0 1.273.527v1.762a.666.666 0 0 0 .667.667h4a.666.666 0 0 0 .667-.667v-1.762a8.627 8.627 0 0 0 1.273-.527l1.245 1.245a.667.667 0 0 0 .943 0l2.829-2.829a.667.667 0 0 0 0-.943l-1.246-1.245a8.473 8.473 0 0 0 .527-1.273h1.762a.666.666 0 0 0 .667-.667zm-1.333 3.333h-1.6a.667.667 0 0 0-.645.5 7.291 7.291 0 0 1-.78 1.885.667.667 0 0 0 .1.81l1.127 1.128-1.885 1.886-1.128-1.128a.667.667 0 0 0-.81-.1 7.283 7.283 0 0 1-1.885.78.667.667 0 0 0-.5.645v1.6h-2.667v-1.6a.667.667 0 0 0-.5-.645 7.283 7.283 0 0 1-1.885-.78.667.667 0 0 0-.81.1l-1.128 1.128-1.885-1.886 1.127-1.128a.667.667 0 0 0 .1-.81 7.289 7.289 0 0 1-.78-1.885.667.667 0 0 0-.645-.5h-1.6v-2.667h1.6a.667.667 0 0 0 .645-.5 7.241 7.241 0 0 1 .434-1.222 7.367 7.367 0 0 1 .347-.667.667.667 0 0 0-.1-.81l-1.127-1.128 1.885-1.886 1.133 1.13a.667.667 0 0 0 .81.1 7.292 7.292 0 0 1 1.885-.78.667.667 0 0 0 .5-.645v-1.594h2.667v1.6a.667.667 0 0 0 .5.645 7.282 7.282 0 0 1 1.885.78.667.667 0 0 0 .81-.1l1.128-1.128 1.885 1.886-1.127 1.128a.667.667 0 0 0-.1.81 7.291 7.291 0 0 1 .78 1.885.667.667 0 0 0 .645.5h1.6zm0 0" transform="translate(-269.25 -298.75)" style="fill:#6d6d6d"/>
    <path data-name="Path 41" d="M781.25 781.5h4v1.333h-4zm0 0" transform="translate(-747.917 -747.5)" style="fill:#6d6d6d"/>
</svg>
