<svg xmlns="http://www.w3.org/2000/svg" width="33.469" height="41.101" viewBox="0 0 33.469 41.101">
    <path data-name="Path 2553" d="M23.766 40a1.168 1.168 0 0 1-.829-.343L20 36.72l-2.937 2.937a1.172 1.172 0 0 1-1.657 0l-2.937-2.937-2.937 2.937a1.172 1.172 0 0 1-1.657 0l-3.766-3.766a1.172 1.172 0 0 1-.343-.829V4.937a1.172 1.172 0 0 1 .343-.829L7.874.343a1.172 1.172 0 0 1 1.657 0l2.938 2.937L15.406.343a1.172 1.172 0 0 1 1.657 0L20 3.28 22.937.343a1.172 1.172 0 0 1 1.657 0l2.937 2.937L30.468.343a1.172 1.172 0 0 1 1.657 0l3.766 3.766a1.172 1.172 0 0 1 .343.829v30.1a1.172 1.172 0 0 1-.341.826l-3.766 3.786a1.172 1.172 0 0 1-.827.35 1.171 1.171 0 0 1-.829-.343l-2.94-2.937-2.937 2.937a1.168 1.168 0 0 1-.829.343z" transform="translate(-3.266 .601)" style="fill:#c8efc5;stroke:#a0d89b"/>
    <path data-name="Path 2555" d="M25.892 22.238c0-2.274-3.391-2.965-5.765-3.559-.375-.094-3.442-.791-4.031-1.415.071-1.367 2.083-2.456 3.754-2.456a4.566 4.566 0 0 1 3.244 1.163 1.143 1.143 0 1 0 1.691-1.54 6.594 6.594 0 0 0-3.792-1.831v-.164a1.143 1.143 0 1 0-2.287 0v.177c-2.716.453-4.9 2.465-4.9 4.722 0 2.274 3.391 2.965 5.765 3.559.375.094 3.442.791 4.031 1.415-.071 1.367-2.083 2.456-3.754 2.456a4.566 4.566 0 0 1-3.244-1.163 1.143 1.143 0 1 0-1.691 1.54 6.6 6.6 0 0 0 3.791 1.828v.164a1.143 1.143 0 1 0 2.287 0v-.174c2.716-.453 4.9-2.465 4.9-4.722z" transform="translate(-3.116 .812)" style="fill:#047600"/>
    <g data-name="Group 2292">
        <path data-name="Path 2556" d="M20.277 18.861 20 18.794v2.353c.863.209 3.242.806 3.754 1.348-.071 1.367-2.083 2.456-3.754 2.456v3.512a1.143 1.143 0 0 0 1.143-1.143v-.177c2.716-.453 4.9-2.465 4.9-4.722 0-2.274-3.391-2.965-5.765-3.559z" transform="translate(-3.173 .63)" style="fill:#047600"/>
        <path data-name="Path 2557" d="M23.244 15.972a1.143 1.143 0 1 0 1.691-1.54 6.594 6.594 0 0 0-3.792-1.832v-.164A1.143 1.143 0 0 0 20 11.3v3.512a4.566 4.566 0 0 1 3.244 1.16z" transform="translate(-3.173 .812)" style="fill:#047600"/>
    </g>
</svg>
