<svg xmlns="http://www.w3.org/2000/svg" width="60" height="48" viewBox="0 0 60 48">
  <defs>
    <style>
      .cls-1 {
        fill: #efefef;
      }
    </style>
  </defs>
  <path id="Path_2897" data-name="Path 2897" class="cls-1" d="M60.343-75.6A10.55,10.55,0,0,0,70.629-86.121c0-5.479-4.286-10.521-9.643-10.74,1.286-8.329,4.5-13.589,12.214-22.137l-4.5-4.6c-13.286,8.329-19.714,24.548-19.714,34.192S54.771-75.6,60.343-75.6Zm-35.786,0A10.55,10.55,0,0,0,34.843-86.121c0-5.479-4.286-10.521-9.643-10.74,1.286-8.329,4.5-13.589,12.214-22.137l-4.5-4.6C19.629-115.271,13.2-99.052,13.2-89.408S18.986-75.6,24.557-75.6Z" transform="translate(-13.2 123.6)"/>
</svg>
