<svg xmlns="http://www.w3.org/2000/svg" width="41" height="40.999" viewBox="0 0 41 40.999">
    <path data-name="Rectangle 4672" transform="translate(23.405 24.499)" style="fill:#047401" d="M0 0h10.279v8.827H0z"/>
    <path data-name="Rectangle 4673" transform="translate(7.316 24.632)" style="fill:#047401" d="M0 0h12.066v1.341H0z"/>
    <path data-name="Rectangle 4674" transform="translate(7.316 31.851)" style="fill:#047401" d="M0 0h12.066v1.341H0z"/>
    <path data-name="Rectangle 4675" transform="translate(7.316 28.242)" style="fill:#047401" d="M0 0h12.066v1.341H0z"/>
    <path data-name="Path 2651" d="M32.533 0H7.467A7.468 7.468 0 0 0 0 7.467v23.725A8.809 8.809 0 0 0 8.808 40h22.385A8.808 8.808 0 0 0 40 31.192V7.467A7.467 7.467 0 0 0 32.533 0zm3.779 31.192a5.121 5.121 0 0 1-5.12 5.12H8.808a5.121 5.121 0 0 1-5.121-5.12V9.273h32.626v21.919z" style="fill:#c8efc5;stroke:#a0d89b" transform="translate(.5 .5)"/>
    <path data-name="Path 2652" d="M6.95 20.93h2.7c1.54 0 2.472-.67 2.472-2.074a1.684 1.684 0 0 0-.953-1.613v-.021A1.623 1.623 0 0 0 12 15.7c0-1.132-.723-1.9-2.272-1.9H6.95a.1.1 0 0 0-.1.1v6.912a.1.1 0 0 0 .1.118zm1.436-5.814a.055.055 0 0 1 .063-.063h1.089c.586 0 .932.3.932.827a.815.815 0 0 1-.932.839H8.449a.055.055 0 0 1-.063-.063zm0 2.848a.055.055 0 0 1 .063-.062H9.62a.893.893 0 1 1 0 1.781H8.449a.055.055 0 0 1-.063-.063z" style="fill:#047401" transform="translate(.5 .5)"/>
    <path data-name="Path 2653" d="M14.181 20.93h4.641a.1.1 0 0 0 .1-.105v-1.162a.1.1 0 0 0-.1-.1h-3.143a.055.055 0 0 1-.063-.063v-5.587a.1.1 0 0 0-.1-.1h-1.335a.1.1 0 0 0-.1.1v6.912a.1.1 0 0 0 .1.105z" style="fill:#047401" transform="translate(.5 .5)"/>
    <path data-name="Path 2654" d="M22.868 21.045a2.513 2.513 0 0 0 2.6-1.728 5.766 5.766 0 0 0 .2-1.948 5.767 5.767 0 0 0-.2-1.948 2.513 2.513 0 0 0-2.6-1.728 2.513 2.513 0 0 0-2.6 1.728 5.74 5.74 0 0 0-.2 1.948 5.739 5.739 0 0 0 .2 1.948 2.512 2.512 0 0 0 2.6 1.728zm-1.121-5.205a1.192 1.192 0 0 1 2.242 0 5.222 5.222 0 0 1 .115 1.529 5.219 5.219 0 0 1-.115 1.529 1.192 1.192 0 0 1-2.242 0 5.242 5.242 0 0 1-.115-1.529 5.247 5.247 0 0 1 .115-1.529z" style="fill:#047401" transform="translate(.5 .5)"/>
    <path data-name="Path 2655" d="M30.309 21.045a2.55 2.55 0 0 0 2.6-1.781 5.709 5.709 0 0 0 .177-1.6v-.587a.1.1 0 0 0-.1-.1h-2.45a.1.1 0 0 0-.105.1v1.007a.1.1 0 0 0 .105.1h.963a.056.056 0 0 1 .063.063 2.475 2.475 0 0 1-.084.7 1.126 1.126 0 0 1-1.142.733 1.109 1.109 0 0 1-1.163-.787 5.253 5.253 0 0 1-.115-1.529 5.163 5.163 0 0 1 .115-1.519 1.1 1.1 0 0 1 1.143-.8 1.3 1.3 0 0 1 1.225.733c.021.052.073.073.147.052l1.12-.471a.108.108 0 0 0 .042-.158 2.545 2.545 0 0 0-2.534-1.518 2.523 2.523 0 0 0-2.626 1.737 5.756 5.756 0 0 0-.2 1.948 5.757 5.757 0 0 0 .2 1.948 2.523 2.523 0 0 0 2.619 1.729z" style="fill:#047401" transform="translate(.5 .5)"/>
</svg>
