<svg xmlns="http://www.w3.org/2000/svg" width="15" height="15" viewBox="0 0 15 15">
    <defs>
        <clipPath id="zvl7077iwa">
            <path data-name="Rectangle 4369" transform="translate(337 474)" style="fill:#fff;stroke:#707070" d="M0 0h15v15H0z"/>
        </clipPath>
    </defs>
    <g data-name="Mask Group 291" transform="translate(-337 -474)" style="clip-path:url(#zvl7077iwa)">
        <path data-name="Path 2524" d="M10.825 1.172A4.631 4.631 0 0 0 7.269.041H2.607A.668.668 0 0 0 1.948.6L.007 12.914a.4.4 0 0 0 .4.463H3.28L4 8.792l-.022.144a.665.665 0 0 1 .657-.563H6c2.687 0 4.79-1.091 5.4-4.248q.027-.14.048-.273a2.98 2.98 0 0 0-.632-2.68" style="fill:#27346a" transform="translate(338.143 473.959)"/>
        <path data-name="Path 2525" d="M5.1 3.431a.585.585 0 0 1 .252-.057H9.01a7.631 7.631 0 0 1 1.205.088q.159.026.308.059t.29.074l.138.043a3.3 3.3 0 0 1 .505.214 2.979 2.979 0 0 0-.632-2.68A4.632 4.632 0 0 0 7.269.041H2.607A.667.667 0 0 0 1.948.6L.007 12.913a.4.4 0 0 0 .395.463H3.28l1.5-9.509a.584.584 0 0 1 .32-.436z" style="fill:#27346a" transform="translate(338.143 473.959)"/>
        <path data-name="Path 2526" d="M11.409 4.125C10.8 7.281 8.691 8.373 6 8.373H4.637a.665.665 0 0 0-.656.563l-.9 5.7a.35.35 0 0 0 .346.4h2.426a.584.584 0 0 0 .576-.493l.024-.124.457-2.9.029-.16a.584.584 0 0 1 .576-.493h.363c2.35 0 4.19-.955 4.728-3.716a3.165 3.165 0 0 0-.485-2.794 2.317 2.317 0 0 0-.664-.512c-.014.089-.029.18-.048.273z" style="fill:#2790c3" transform="translate(338.143 473.959)"/>
        <path data-name="Path 2527" d="M10.814 3.6q-.141-.041-.29-.074c-.1-.022-.2-.041-.308-.059a7.586 7.586 0 0 0-1.206-.092H5.356a.584.584 0 0 0-.576.493L4 8.792l-.022.144a.665.665 0 0 1 .656-.563h1.371c2.687 0 4.79-1.091 5.4-4.248.018-.093.034-.184.048-.273a3.318 3.318 0 0 0-.505-.213l-.134-.039" style="fill:#1f264f" transform="translate(338.143 473.959)"/>
    </g>
</svg>
