<svg xmlns="http://www.w3.org/2000/svg" width="20" height="20" viewBox="0 0 20 20">
    <g data-name="buy (3)">
        <path data-name="Path 1509" d="M21.565 7.138a2.13 2.13 0 0 0-1.714-.852H6.9l-.416-2.5A2.137 2.137 0 0 0 4.365 2h-1.65a.714.714 0 1 0 0 1.429h1.65a.712.712 0 0 1 .705.6l.514 3.081L6.83 15.9a2.134 2.134 0 0 0 2.121 1.816h8.856a2.155 2.155 0 0 0 2.064-1.554l2.044-7.143a2.125 2.125 0 0 0-.351-1.879zM20.54 8.625l-2.04 7.143a.718.718 0 0 1-.688.519h-8.86a.709.709 0 0 1-.705-.6l-1.13-7.972h12.735a.714.714 0 0 1 .688.91z" transform="translate(-2 -2)" style="fill:#fff"/>
        <path data-name="Path 1510" d="M10 27.429a1.431 1.431 0 1 1 1.431 1.429A1.429 1.429 0 0 1 10 27.429zm10.017 1.429a1.429 1.429 0 1 0-1.431-1.429 1.429 1.429 0 0 0 1.431 1.428z" transform="translate(-4.276 -8.857)" style="fill:#fff"/>
    </g>
</svg>
