<svg xmlns="http://www.w3.org/2000/svg" width="72" height="20" viewBox="0 0 72 20">
    <defs>
        <clipPath id="ztrwboavfa">
            <path data-name="Rectangle 5071" transform="translate(994 783)" style="fill:#fff;stroke:#707070" d="M0 0h72v20H0z"/>
        </clipPath>
    </defs>
    <g data-name="Mask Group 426" transform="translate(-994 -783)" style="clip-path:url(#ztrwboavfa)">
        <path data-name="Path 29715" d="M-176.16 8.447a.3.3 0 0 0-.3.254l-1.715 10.878a.278.278 0 0 0 .063.224.279.279 0 0 0 .212.1h2.034a.3.3 0 0 0 .3-.254l.5-3.194a.3.3 0 0 1 .3-.254h1.849a4.386 4.386 0 0 0 4.33-3.713 3.559 3.559 0 0 0-3.731-4.038zm1.977 2.428h1.48c1.218 0 1.615.719 1.489 1.514a1.7 1.7 0 0 1-1.92 1.383h-1.506zm9.734.739a4.627 4.627 0 0 0-1.768.384 4.62 4.62 0 0 0-2.563 2.9s-.988 2.916 1.244 4.518a3.811 3.811 0 0 0 4.4-.1l-.04.256a.279.279 0 0 0 .063.224.278.278 0 0 0 .211.1h1.931a.3.3 0 0 0 .3-.254l1.171-7.442a.278.278 0 0 0-.063-.224.279.279 0 0 0-.212-.1h-1.925a.3.3 0 0 0-.3.254l-.063.4a3.353 3.353 0 0 0-2.385-.915zm.063 2.353a1.978 1.978 0 0 1 .607.089 1.708 1.708 0 0 1 1.169 1.935 2.163 2.163 0 0 1-2.168 1.855 1.98 1.98 0 0 1-.607-.089 1.71 1.71 0 0 1-1.172-1.935 2.166 2.166 0 0 1 2.171-1.855z" style="fill:#003087" transform="translate(1193.183 778.826)"/>
        <path data-name="Path 29716" d="M-148.352 8.447a.3.3 0 0 0-.3.254l-1.715 10.878a.278.278 0 0 0 .063.224.278.278 0 0 0 .212.1h2.034a.3.3 0 0 0 .3-.254l.5-3.194a.3.3 0 0 1 .3-.254h1.849a4.386 4.386 0 0 0 4.33-3.713 3.558 3.558 0 0 0-3.73-4.038zm1.977 2.428h1.48c1.218 0 1.615.719 1.489 1.514a1.7 1.7 0 0 1-1.92 1.383h-1.506zm9.734.739a4.627 4.627 0 0 0-1.768.384 4.62 4.62 0 0 0-2.563 2.9s-.988 2.916 1.245 4.518a3.81 3.81 0 0 0 4.4-.1l-.04.256a.278.278 0 0 0 .063.224.279.279 0 0 0 .212.1h1.931a.3.3 0 0 0 .3-.254l1.175-7.449a.279.279 0 0 0-.063-.224.279.279 0 0 0-.212-.1h-1.939a.3.3 0 0 0-.3.254l-.063.4a3.353 3.353 0 0 0-2.385-.915zm.063 2.353a1.978 1.978 0 0 1 .607.089 1.708 1.708 0 0 1 1.169 1.935 2.163 2.163 0 0 1-2.168 1.855 1.98 1.98 0 0 1-.607-.089 1.71 1.71 0 0 1-1.172-1.935 2.166 2.166 0 0 1 2.171-1.855z" style="fill:#0070e0" transform="translate(1193.183 778.826)"/>
        <path data-name="Path 29717" d="M-158.581 11.876a.226.226 0 0 0-.215.3l2.117 6.569-1.914 3.1a.226.226 0 0 0 .192.344h2.262a.376.376 0 0 0 .322-.182l5.913-9.781a.226.226 0 0 0-.193-.342h-2.262a.376.376 0 0 0-.324.185l-2.327 3.929-1.181-3.9a.3.3 0 0 0-.288-.214z" style="fill:#003087" transform="translate(1193.183 778.826)"/>
        <path data-name="Path 29718" d="M-129.5 8.447a.3.3 0 0 0-.3.254l-1.716 10.877a.278.278 0 0 0 .063.224.279.279 0 0 0 .212.1h2.034a.3.3 0 0 0 .3-.254l1.715-10.878a.278.278 0 0 0-.063-.224.279.279 0 0 0-.211-.1z" style="fill:#0070e0" transform="translate(1193.183 778.826)"/>
        <path data-name="Path 29719" d="M-193.118 8.447a.551.551 0 0 0-.543.465l-.9 5.727a.55.55 0 0 1 .543-.465h2.646A5.4 5.4 0 0 0-186.04 9.6a4.413 4.413 0 0 0 .052-.594 5.022 5.022 0 0 0-2.343-.558z" style="fill:#001c64" transform="translate(1193.183 778.826)"/>
        <path data-name="Path 29720" d="M-185.988 9.005a4.416 4.416 0 0 1-.052.594 5.4 5.4 0 0 1-5.335 4.575h-2.646a.55.55 0 0 0-.543.465l-.83 5.262-.52 3.3a.446.446 0 0 0 .1.36.446.446 0 0 0 .34.157h2.872a.551.551 0 0 0 .543-.465l.756-4.8a.551.551 0 0 1 .544-.465h1.691a5.4 5.4 0 0 0 5.335-4.575 4.194 4.194 0 0 0-2.256-4.411z" style="fill:#0070e0" transform="translate(1193.183 778.826)"/>
        <path data-name="Path 29721" d="M-196.38 4.63a.55.55 0 0 0-.543.464l-2.254 14.29a.447.447 0 0 0 .442.517h3.342l.83-5.262.9-5.727a.551.551 0 0 1 .543-.465h4.788a5.024 5.024 0 0 1 2.343.558 4.411 4.411 0 0 0-4.65-4.375z" style="fill:#003087" transform="translate(1193.183 778.826)"/>
    </g>
</svg>
