<svg xmlns="http://www.w3.org/2000/svg" xmlns:xlink="http://www.w3.org/1999/xlink" width="32" height="32" viewBox="0 0 32 32">
  <defs>
    <clipPath id="clip-path">
      <rect id="Rectangle_3989" data-name="Rectangle 3989" width="32" height="32" transform="translate(1239 1688)" fill="#fff"/>
    </clipPath>
  </defs>
  <g id="Mask_Group_240" data-name="Mask Group 240" transform="translate(-1239 -1688)" clip-path="url(#clip-path)">
    <g id="content-management-system" transform="translate(1238.446 1687.446)">
      <path id="Path_2431" data-name="Path 2431" d="M32.476,15.054a.986.986,0,0,0-.828-.85l-2.127-.348A13.161,13.161,0,0,0,27.63,9.3l1.255-1.755a.993.993,0,0,0-.01-1.19,13.138,13.138,0,0,0-1.01-1.11,14.873,14.873,0,0,0-1.11-1.01.993.993,0,0,0-1.19-.01L23.811,5.478a13.161,13.161,0,0,0-4.558-1.891L18.9,1.462a.986.986,0,0,0-.85-.828,14.107,14.107,0,0,0-3,0,.986.986,0,0,0-.85.828l-.348,2.125A13.161,13.161,0,0,0,9.3,5.478L7.543,4.222a.993.993,0,0,0-1.19.01,14.873,14.873,0,0,0-1.11,1.01,13.137,13.137,0,0,0-1.01,1.11.993.993,0,0,0-.01,1.19L5.478,9.3a13.161,13.161,0,0,0-1.891,4.558L1.462,14.2a.986.986,0,0,0-.828.85,14.107,14.107,0,0,0,0,3,1,1,0,0,0,.828.85l2.125.348a13.162,13.162,0,0,0,1.891,4.558L4.222,25.565a.99.99,0,0,0,.01,1.19,14.77,14.77,0,0,0,1.01,1.111,13.884,13.884,0,0,0,1.11,1.01.979.979,0,0,0,1.19.01L9.3,27.631a13.162,13.162,0,0,0,4.559,1.89l.348,2.125a.986.986,0,0,0,.85.828,14.107,14.107,0,0,0,3,0,.986.986,0,0,0,.85-.828l.348-2.125a13.162,13.162,0,0,0,4.558-1.891l1.755,1.255a.979.979,0,0,0,1.19-.01,13.884,13.884,0,0,0,1.11-1.01,14.772,14.772,0,0,0,1.01-1.11.99.99,0,0,0,.01-1.19l-1.255-1.755a13.162,13.162,0,0,0,1.89-4.559l2.125-.348a1,1,0,0,0,.828-.85,14.107,14.107,0,0,0,0-3Z" fill="rgba(2,118,0,0.75)"/>
      <circle id="Ellipse_343" data-name="Ellipse 343" cx="10.484" cy="10.484" r="10.484" transform="translate(6.07 6.07)" fill="#027600"/>
      <g id="Group_1808" data-name="Group 1808">
        <path id="Path_2432" data-name="Path 2432" d="M11.036,20.417a2.207,2.207,0,0,1-2.207-2.207V14.9a2.207,2.207,0,0,1,4.414,0,.552.552,0,1,1-1.1,0,1.1,1.1,0,0,0-2.207,0v3.311a1.1,1.1,0,0,0,2.207,0,.552.552,0,0,1,1.1,0A2.207,2.207,0,0,1,11.036,20.417Z" fill="#eaffe9"/>
        <path id="Path_2433" data-name="Path 2433" d="M18.209,20.417a.552.552,0,0,1-.552-.552V16.286l-.587,1.565a.552.552,0,0,1-1.034,0l-.587-1.565v3.578a.552.552,0,0,1-1.1,0V13.243a.552.552,0,0,1,1.069-.194l1.138,3.037,1.138-3.035a.552.552,0,0,1,1.069.192v6.622a.552.552,0,0,1-.552.552Z" fill="#eaffe9"/>
        <path id="Path_2434" data-name="Path 2434" d="M22.072,20.417a2.207,2.207,0,0,1-2.207-2.207.552.552,0,0,1,1.1,0,1.1,1.1,0,1,0,1.1-1.1A2.207,2.207,0,1,1,24.279,14.9a.552.552,0,1,1-1.1,0,1.1,1.1,0,1,0-1.1,1.1,2.207,2.207,0,1,1,0,4.414Z" fill="#eaffe9"/>
      </g>
    </g>
  </g>
</svg>
