<svg data-name="图层 2" xmlns="http://www.w3.org/2000/svg" width="19.25" height="14" viewBox="0 0 19.25 14">
    <g data-name="Discord Logos">
        <g data-name="Discord Logo - Large - White">
            <path data-name="Path 1488" d="M16.307 1.172A16.416 16.416 0 0 0 12.335 0a10.3 10.3 0 0 0-.509.992 15.405 15.405 0 0 0-4.407 0A10.344 10.344 0 0 0 6.91 0a16.531 16.531 0 0 0-3.974 1.175A14.926 14.926 0 0 0 .082 11.654 16.279 16.279 0 0 0 4.953 14 11.224 11.224 0 0 0 6 12.386a10.557 10.557 0 0 1-1.643-.753c.138-.1.273-.195.4-.291a11.879 11.879 0 0 0 9.739 0c.132.1.266.2.4.291a10.6 10.6 0 0 1-1.646.754A11.123 11.123 0 0 0 14.294 14a16.206 16.206 0 0 0 4.874-2.345 14.926 14.926 0 0 0-2.861-10.483zm-9.88 8.372A1.8 1.8 0 0 1 4.694 7.7a1.786 1.786 0 0 1 1.73-1.851A1.779 1.779 0 0 1 8.159 7.7a1.8 1.8 0 0 1-1.732 1.844zm6.4 0A1.8 1.8 0 0 1 11.091 7.7a1.735 1.735 0 1 1 3.463 0 1.794 1.794 0 0 1-1.731 1.844z" style="fill:#fff"/>
        </g>
    </g>
</svg>
