<svg xmlns="http://www.w3.org/2000/svg" width="22" height="22.025" viewBox="0 0 22 22.025">
    <g data-name="Group 2379">
        <path d="M15.053 4A11.032 11.032 0 0 0 4.04 15.028c.6 14.631 21.423 14.627 22.025 0A11.032 11.032 0 0 0 15.053 4z" transform="rotate(90 15.02 10.98)" style="fill:#edeef0"/>
        <path data-name="up-arrow" d="M13.064 15.708a.6.6 0 0 1 .028-.839l3.4-3.167H4.005a.591.591 0 0 1 0-1.182h12.533l-3.454-3.375a.59.59 0 0 1 .823-.843l4.494 4.384a.6.6 0 0 1-.008.855l-4.494 4.195a.6.6 0 0 1-.835-.028z"/>
    </g>
</svg>
