<svg xmlns="http://www.w3.org/2000/svg" width="24" height="21.144" viewBox="0 0 24 21.144">
    <path data-name="Path 779" d="M20.15 13.318h-5.628c.1-5.6 1.2-6.528 4.644-8.568a.84.84 0 0 0-.866-1.44c-4.056 2.4-5.472 3.864-5.472 10.848v6.468a3.71 3.71 0 0 0 3.708 3.708h3.6a3.629 3.629 0 0 0 3.708-3.708v-3.6a3.612 3.612 0 0 0-3.7-3.708z" transform="translate(-12.83 -3.19)" style="fill:#196c2e"/>
    <path data-name="Path 780" d="M9.33 13.318H3.7c.1-5.6 1.2-6.528 4.644-8.568a.84.84 0 0 0-.864-1.44c-4.054 2.4-5.47 3.864-5.47 10.848v6.468a3.71 3.71 0 0 0 3.708 3.708h3.6a3.629 3.629 0 0 0 3.708-3.708v-3.6a3.612 3.612 0 0 0-3.696-3.708z" transform="translate(10.974 -3.19)" style="fill:#196c2e"/>
</svg>
