<svg xmlns="http://www.w3.org/2000/svg" width="128" height="33.907" viewBox="0 0 128 33.907">
    <defs>
        <clipPath id="2hhxf0v07a">
            <path data-name="Rectangle 4830" style="fill:#fff" d="M0 0h128v33.907H0z"/>
        </clipPath>
    </defs>
    <g data-name="logo (2)" style="clip-path:url(#2hhxf0v07a)">
        <path data-name="Path 2880" d="M11.313 29.751a9.3 9.3 0 0 1-3.721.643c-5.011 0-7.585-3.129-7.585-7.247 0-4.932 3.527-7.676 7.915-7.676a8.54 8.54 0 0 1 3.571.645l-.667 2.592a7.139 7.139 0 0 0-2.754-.535c-2.6 0-4.625 1.565-4.625 4.78 0 2.894 1.723 4.716 4.647 4.716a8.2 8.2 0 0 0 2.732-.473z" transform="translate(.001 2.015)" style="fill:#2e398e"/>
        <path data-name="Path 2881" d="M21.918 24.34a5.27 5.27 0 0 1-5.55 5.6 5.144 5.144 0 0 1-5.444-5.4 5.246 5.246 0 0 1 5.614-5.552 5.1 5.1 0 0 1 5.38 5.352zm-7.615.108c0 1.8.751 3.151 2.151 3.151 1.268 0 2.085-1.266 2.085-3.151 0-1.565-.6-3.149-2.085-3.149-1.571.001-2.154 1.606-2.154 3.149z" transform="translate(1.423 2.473)" style="fill:#2e398e"/>
        <path data-name="Path 2882" d="M22.446 22.563c0-1.307-.044-2.423-.086-3.345h2.84l.15 1.437h.064a3.856 3.856 0 0 1 3.249-1.673c2.151 0 3.763 1.415 3.763 4.5V29.7H29.16v-5.81c0-1.351-.473-2.273-1.656-2.273a1.744 1.744 0 0 0-1.656 1.226 2.309 2.309 0 0 0-.13.814V29.7h-3.272z" transform="translate(2.912 2.472)" style="fill:#2e398e"/>
        <path data-name="Path 2883" d="m35.789 19.189 1.42 4.868a23.894 23.894 0 0 1 .6 2.551h.066c.17-.858.342-1.651.581-2.551l1.354-4.868h3.446l-3.915 10.485H36.07l-3.835-10.485z" transform="translate(4.198 2.499)" style="fill:#2e398e"/>
        <path data-name="Path 2884" d="M45.616 25.5c.108 1.349 1.44 1.991 2.968 1.991a9.26 9.26 0 0 0 2.9-.429l.431 2.207a10.4 10.4 0 0 1-3.808.665c-3.571 0-5.614-2.08-5.614-5.359 0-2.658 1.656-5.6 5.314-5.6 3.4 0 4.676 2.636 4.676 5.231a7.6 7.6 0 0 1-.103 1.294zm3.849-2.232a1.892 1.892 0 0 0-1.848-2.121 2.142 2.142 0 0 0-2.023 2.121z" transform="translate(5.535 2.472)" style="fill:#2e398e"/>
        <path data-name="Path 2885" d="m55.489 19.191 1.031 1.736c.3.537.581 1.074.861 1.567h.044c.278-.559.537-1.094.817-1.609l.925-1.695h3.549l-3.465 5 3.507 5.488h-3.69l-1.056-1.888c-.3-.513-.559-1.05-.817-1.584h-.064c-.258.557-.537 1.072-.795 1.584l-.985 1.888h-3.605l3.571-5.339-3.485-5.15z" transform="translate(6.739 2.499)" style="fill:#2e398e"/>
        <path data-name="Path 2886" d="M65.193 18.426H61.3v-2.742h11.143v2.742h-3.957v11.705h-3.293z" transform="translate(7.984 2.043)" style="fill:#25abe2"/>
        <path data-name="Path 2887" d="M73.651 25.5c.106 1.349 1.44 1.991 2.968 1.991a9.257 9.257 0 0 0 2.9-.429l.431 2.207a10.391 10.391 0 0 1-3.807.665c-3.571 0-5.617-2.08-5.617-5.359 0-2.658 1.659-5.6 5.314-5.6 3.4 0 4.691 2.636 4.691 5.231a7.708 7.708 0 0 1-.109 1.288zm3.85-2.232a1.894 1.894 0 0 0-1.849-2.121 2.142 2.142 0 0 0-2.023 2.121z" transform="translate(9.186 2.472)" style="fill:#25abe2"/>
        <path data-name="Path 2888" d="M89.078 29.445a7.937 7.937 0 0 1-2.926.49c-3.4 0-5.573-2.08-5.573-5.381 0-3.066 2.11-5.574 6.025-5.574a7.65 7.65 0 0 1 2.493.407l-.516 2.423a4.482 4.482 0 0 0-1.827-.321 2.72 2.72 0 0 0-2.818 2.943 2.737 2.737 0 0 0 2.882 2.943 4.6 4.6 0 0 0 1.87-.343z" transform="translate(10.495 2.472)" style="fill:#25abe2"/>
        <path data-name="Path 2889" d="M89.7 15h3.27v5.979h.042a3.689 3.689 0 0 1 1.288-1.072A3.769 3.769 0 0 1 96 19.5c2.088 0 3.68 1.437 3.68 4.589v6.131h-3.273v-5.768c0-1.371-.472-2.315-1.7-2.315a1.739 1.739 0 0 0-1.634 1.138 2.028 2.028 0 0 0-.108.736v6.217H89.7z" transform="translate(11.682 1.954)" style="fill:#25abe2"/>
        <path data-name="Path 2890" d="M73.125 14.254s-7.354-6.048-3.884-9.92c0 0 4.509-5.886 29 7.191 0 0 15.124 7.742 20.049 16.036 0 0 6.035 10.232-14.767 3.872 0 0 12.695 3.593 10.753-3.043 0 0-1.248-8.017-25.252-18.526a45.247 45.247 0 0 0-12.107-3.63c-.012.001-11.424-1.451-3.792 8.02z" transform="translate(8.897 .392)" style="fill:#25abe2"/>
        <path data-name="Path 2891" d="M69.839 3.376s6.416-9.92 42.49 16.765c0 .005-29.551-21.457-42.49-16.765z" transform="translate(9.096 .205)" style="fill:#3a3f98"/>
        <path data-name="Path 2892" d="M70.156 1.783s6.153-9.319 39.45 14.648c0 .001-28.118-19.202-39.45-14.648z" transform="translate(9.137)" style="fill:#8284bf"/>
    </g>
</svg>
