<svg xmlns="http://www.w3.org/2000/svg" xmlns:xlink="http://www.w3.org/1999/xlink" width="148" height="32" viewBox="0 0 148 32">
  <defs>
    <style>
      .cls-1, .cls-2 {
        fill: #fff;
      }

      .cls-2 {
        stroke: #707070;
        opacity: 0;
      }

      .cls-3 {
        clip-path: url(#clip-path);
      }

      .cls-4 {
        fill: #2e398e;
      }

      .cls-5 {
        fill: #25abe2;
      }

      .cls-6 {
        fill: #3a3f98;
      }

      .cls-7 {
        fill: #8284bf;
      }

      .cls-8 {
        stroke: none;
      }

      .cls-9 {
        fill: none;
      }
    </style>
    <clipPath id="clip-path">
      <rect id="Rectangle_4830" data-name="Rectangle 4830" class="cls-1" width="116" height="32" transform="translate(0.353 -0.397)"/>
    </clipPath>
  </defs>
  <g id="Group_2378" data-name="Group 2378" transform="translate(-204 -3120)">
    <g id="Rectangle_4842" data-name="Rectangle 4842" class="cls-2" transform="translate(204 3120)">
      <rect class="cls-8" width="148" height="32"/>
      <rect class="cls-9" x="0.5" y="0.5" width="147" height="31"/>
    </g>
    <g id="logo_2_" data-name="logo (2)" class="cls-3" transform="translate(219.647 3120.397)">
      <path id="Path_2880" data-name="Path 2880" class="cls-4" d="M10.316,28.491a8.479,8.479,0,0,1-3.393.586c-4.569,0-6.916-2.853-6.916-6.607,0-4.5,3.216-7,7.217-7a7.786,7.786,0,0,1,3.256.588l-.608,2.363a6.509,6.509,0,0,0-2.511-.487,3.97,3.97,0,0,0-4.217,4.358,3.942,3.942,0,0,0,4.237,4.3,7.481,7.481,0,0,0,2.491-.432Z" transform="translate(0 0.388)"/>
      <path id="Path_2881" data-name="Path 2881" class="cls-4" d="M20.947,23.868a4.8,4.8,0,0,1-5.06,5.1,4.69,4.69,0,0,1-4.964-4.919,4.783,4.783,0,0,1,5.119-5.062A4.648,4.648,0,0,1,20.947,23.868Zm-6.943.1c0,1.641.684,2.873,1.961,2.873,1.156,0,1.9-1.154,1.9-2.873,0-1.427-.548-2.871-1.9-2.871C14.534,21.1,14,22.56,14,23.966Z" transform="translate(0.333 0.495)"/>
      <path id="Path_2882" data-name="Path 2882" class="cls-4" d="M22.438,22.247c0-1.192-.04-2.209-.079-3.05h2.592l.137,1.31h.058a3.516,3.516,0,0,1,2.962-1.525c1.961,0,3.431,1.29,3.431,4.105v5.668H28.56v-5.3c0-1.232-.431-2.073-1.51-2.073a1.59,1.59,0,0,0-1.51,1.118,2.105,2.105,0,0,0-.119.742v5.512H22.438Z" transform="translate(0.682 0.495)"/>
      <path id="Path_2883" data-name="Path 2883" class="cls-4" d="M35.476,19.189l1.295,4.439a21.785,21.785,0,0,1,.548,2.326h.061c.155-.783.312-1.5.53-2.326l1.234-4.439h3.142l-3.57,9.559H35.732l-3.5-9.559Z" transform="translate(0.984 0.502)"/>
      <path id="Path_2884" data-name="Path 2884" class="cls-4" d="M45.341,24.924c.1,1.23,1.313,1.816,2.706,1.816a8.443,8.443,0,0,0,2.648-.391l.393,2.012a9.477,9.477,0,0,1-3.472.606c-3.256,0-5.119-1.9-5.119-4.886,0-2.424,1.51-5.1,4.845-5.1,3.1,0,4.264,2.4,4.264,4.769a6.933,6.933,0,0,1-.1,1.174Zm3.51-2.035a1.725,1.725,0,0,0-1.685-1.934,1.953,1.953,0,0,0-1.845,1.934Z" transform="translate(1.297 0.495)"/>
      <path id="Path_2885" data-name="Path 2885" class="cls-4" d="M55.159,19.191l.94,1.583c.276.49.53.979.785,1.429h.04c.254-.51.489-1,.745-1.467l.844-1.545H61.75l-3.16,4.555,3.2,5H58.422l-.963-1.722c-.274-.467-.509-.957-.745-1.444h-.058c-.236.508-.489.977-.725,1.444l-.9,1.722H51.746L55,23.882l-3.178-4.7Z" transform="translate(1.579 0.502)"/>
      <path id="Path_2886" data-name="Path 2886" class="cls-5" d="M64.849,18.184H61.3v-2.5H71.46v2.5H67.852V28.857h-3Z" transform="translate(1.871 0.395)"/>
      <path id="Path_2887" data-name="Path 2887" class="cls-5" d="M73.375,24.924c.1,1.23,1.313,1.816,2.706,1.816a8.44,8.44,0,0,0,2.648-.391l.393,2.012a9.474,9.474,0,0,1-3.471.606c-3.256,0-5.121-1.9-5.121-4.886,0-2.424,1.513-5.1,4.845-5.1,3.1,0,4.277,2.4,4.277,4.769a7.028,7.028,0,0,1-.1,1.174Zm3.51-2.035A1.727,1.727,0,0,0,75.2,20.955a1.953,1.953,0,0,0-1.844,1.934Z" transform="translate(2.152 0.495)"/>
      <path id="Path_2888" data-name="Path 2888" class="cls-5" d="M88.328,28.521a7.237,7.237,0,0,1-2.668.447c-3.1,0-5.081-1.9-5.081-4.906,0-2.8,1.924-5.083,5.494-5.083a6.975,6.975,0,0,1,2.273.371l-.471,2.209a4.086,4.086,0,0,0-1.666-.293,2.48,2.48,0,0,0-2.569,2.683,2.5,2.5,0,0,0,2.628,2.683,4.2,4.2,0,0,0,1.7-.313Z" transform="translate(2.459 0.495)"/>
      <path id="Path_2889" data-name="Path 2889" class="cls-5" d="M89.7,15h2.982v5.451h.039a3.363,3.363,0,0,1,1.178-.977,3.437,3.437,0,0,1,1.548-.371c1.9,0,3.355,1.31,3.355,4.184v5.59H95.814V23.618c0-1.25-.43-2.111-1.548-2.111a1.585,1.585,0,0,0-1.49,1.038,1.849,1.849,0,0,0-.1.671v5.668H89.7Z" transform="translate(2.737 0.374)"/>
      <path id="Path_2890" data-name="Path 2890" class="cls-5" d="M72.7,13.262S66,7.748,69.159,4.218c0,0,4.111-5.367,26.439,6.556,0,0,13.79,7.059,18.28,14.621,0,0,5.5,9.329-13.464,3.531,0,0,11.575,3.276,9.8-2.775,0,0-1.138-7.31-23.024-16.891A41.255,41.255,0,0,0,76.156,5.951C76.147,5.951,65.742,4.627,72.7,13.262Z" transform="translate(2.085 0.008)"/>
      <path id="Path_2891" data-name="Path 2891" class="cls-6" d="M69.839,3.217S75.689-5.828,108.58,18.5C108.58,18.507,81.637-1.061,69.839,3.217Z" transform="translate(2.131 -0.036)"/>
      <path id="Path_2892" data-name="Path 2892" class="cls-7" d="M70.156,1.626s5.61-8.5,35.969,13.356C106.125,14.982,80.488-2.526,70.156,1.626Z" transform="translate(2.141 -0.084)"/>
    </g>
  </g>
</svg>
