<svg xmlns="http://www.w3.org/2000/svg" width="40" height="40" viewBox="0 0 40 40">
    <defs>
        <clipPath id="zetj24x9ua">
            <path data-name="Rectangle 4814" transform="translate(236 2114)" style="fill:#fff;stroke:#707070" d="M0 0h40v40H0z"/>
        </clipPath>
    </defs>
    <g data-name="Mask Group 311" transform="translate(-236 -2114)" style="clip-path:url(#zetj24x9ua)">
        <g data-name="coupon (2)">
            <path data-name="Path 2785" d="M38.71 8.387H9.032v.645a.645.645 0 0 1-1.29 0v-.645H1.29A1.29 1.29 0 0 0 0 9.677v5.679a.943.943 0 0 0 .436.805A4.506 4.506 0 0 1 2.581 20a4.506 4.506 0 0 1-2.145 3.838.943.943 0 0 0-.436.805v5.679a1.29 1.29 0 0 0 1.29 1.29h6.452v-.645a.645.645 0 0 1 1.29 0v.645H38.71A1.29 1.29 0 0 0 40 30.323V9.677a1.29 1.29 0 0 0-1.29-1.29zm-29.677 20a.645.645 0 1 1-1.29 0V27.1a.645.645 0 0 1 1.29 0zm0-3.871a.645.645 0 0 1-1.29 0v-1.29a.645.645 0 1 1 1.29 0zm0-3.871a.645.645 0 0 1-1.29 0v-1.29a.645.645 0 1 1 1.29 0zm0-3.871a.645.645 0 0 1-1.29 0v-1.29a.645.645 0 0 1 1.29 0zm0-3.871a.645.645 0 0 1-1.29 0v-1.29a.645.645 0 1 1 1.29 0z" style="fill:#a1d89c" transform="translate(236 2114)"/>
            <path data-name="Path 2786" d="M38.065 30.323h-27.1a.645.645 0 0 1-.645-.645V10.323a.645.645 0 0 1 .645-.645h27.1a.645.645 0 0 1 .645.645v19.354a.645.645 0 0 1-.645.646z" style="fill:#c8efc5;stroke:#a0d89b" transform="translate(236 2114)"/>
            <path data-name="Path 2787" d="m23.982 24.458-3.344 2.1a.965.965 0 0 1-1.45-1.053l.963-3.829-3.03-2.532a.965.965 0 0 1 .554-1.7l3.939-.267 1.471-3.664a.965.965 0 0 1 1.792 0l1.471 3.664 3.939.267a.965.965 0 0 1 .554 1.7l-3.03 2.532.963 3.829a.965.965 0 0 1-1.45 1.053z" style="fill:#047600" transform="translate(236 2114)"/>
        </g>
    </g>
</svg>
