<svg xmlns="http://www.w3.org/2000/svg" xmlns:xlink="http://www.w3.org/1999/xlink" width="32" height="32" viewBox="0 0 32 32">
  <defs>
    <clipPath id="clip-path">
      <rect id="Rectangle_3979" data-name="Rectangle 3979" width="32" height="32" transform="translate(811 1688)" fill="#fff"/>
    </clipPath>
  </defs>
  <g id="Mask_Group_234" data-name="Mask Group 234" transform="translate(-811 -1688)" clip-path="url(#clip-path)">
    <g id="crm" transform="translate(811 1688)">
      <path id="Union_23" data-name="Union 23" d="M16724.328-5414.692H16705V-5438h17.729l2.4,1.948h1.777v20.3a1.06,1.06,0,0,1-1.059,1.062Z" transform="translate(-16697.191 5441.218)" fill="rgba(85,85,85,0.5)"/>
      <path id="Union_24" data-name="Union 24" d="M16733.2-5434.1H16705v-2.843a1.059,1.059,0,0,1,1.059-1.059h27.6a1.059,1.059,0,0,1,1.059,1.059v2.843Z" transform="translate(-16705 5439.268)" fill="#555"/>
      <g id="Group_1793" data-name="Group 1793">
        <g id="Group_1790" data-name="Group 1790">
          <path id="Path_2399" data-name="Path 2399" d="M2.321,3.7H1.7a.483.483,0,1,1,0-.966h.623a.483.483,0,0,1,0,.966Z" fill="#f0efef"/>
        </g>
        <g id="Group_1791" data-name="Group 1791">
          <path id="Path_2400" data-name="Path 2400" d="M4.992,3.7H4.369a.483.483,0,1,1,0-.966h.623a.483.483,0,1,1,0,.966Z" fill="#f0efef"/>
        </g>
        <g id="Group_1792" data-name="Group 1792">
          <path id="Path_2401" data-name="Path 2401" d="M7.663,3.7H7.039a.483.483,0,0,1,0-.966h.623a.483.483,0,1,1,0,.966Z" fill="#f0efef"/>
        </g>
      </g>
      <g id="Group_1798" data-name="Group 1798">
        <g id="Group_1795" data-name="Group 1795">
          <g id="Group_1794" data-name="Group 1794">
            <path id="Path_2402" data-name="Path 2402" d="M24.254,15.134a.6.6,0,0,1-.572-.411l-.006-.017-1.091-3.7-.666,3.688a.483.483,0,0,1-.95-.172l.938-5.194a.6.6,0,0,1,1.165-.084l.006.017,1.17,3.967,1.129-3.961.005-.017a.6.6,0,0,1,1.165.066l.994,5.2a.483.483,0,1,1-.949.181L25.887,11l-1.054,3.7-.005.017a.6.6,0,0,1-.571.417h0Z" fill="#555"/>
          </g>
        </g>
        <g id="Group_1797" data-name="Group 1797">
          <g id="Group_1796" data-name="Group 1796">
            <path id="Path_2403" data-name="Path 2403" d="M13.12,15.134a3.15,3.15,0,1,1,1.761-5.762.483.483,0,1,1-.541.8,2.184,2.184,0,1,0-1.221,4,1.618,1.618,0,0,0,1.31-.58.483.483,0,1,1,.74.621,2.582,2.582,0,0,1-2.05.925Z" fill="#555"/>
          </g>
        </g>
        <path id="Path_2404" data-name="Path 2404" d="M18.282,12.555a1.866,1.866,0,0,0-.263-3.721H16.6a.483.483,0,0,0-.483.483v5.334a.483.483,0,0,0,.966,0v-2l2.039,2.316a.483.483,0,0,0,.725-.638ZM18.019,9.8a.958.958,0,0,1,.982.9.958.958,0,0,1-.982.9l-.928,0c0-.314,0-1.483-.006-1.81Z" fill="#555"/>
      </g>
      <path id="Union_25" data-name="Union 25" d="M16714.326-5424.982a3.851,3.851,0,0,1-.385-.21h0a1.229,1.229,0,0,0-.555-.2h-2.635c-.543.013-1.07.78-1.633.415l-1.172-.675c-.6-.306-.191-1.146-.453-1.62l-1.316-2.283c-.281-.461-1.213-.537-1.18-1.2v-1.351c-.033-.671.9-.743,1.18-1.208l1.316-2.278c.262-.474-.143-1.318.453-1.624l1.172-.675c.563-.365,1.09.407,1.633.415h2.635a1.219,1.219,0,0,0,.557-.2l0,0a3.215,3.215,0,0,1,.443-.235.7.7,0,0,1,.479-.049.532.532,0,0,1,.156.074l1.172.675c.334.172.355.515.355.865v.146a1.285,1.285,0,0,0,.1.612l1.313,2.278a.832.832,0,0,0,.09.121,1.305,1.305,0,0,0,.184.146l.354.213c.086.048.16.092.213.128a.688.688,0,0,1,.34.6v1.351c0,.01,0,.021,0,.031,0,.639-.9.719-1.182,1.173l-1.312,2.283-.012.022a1.357,1.357,0,0,0-.09.589v.146c0,.351-.02.692-.355.862l-1.172.675a.531.531,0,0,1-.154.074.556.556,0,0,1-.164.025A.9.9,0,0,1,16714.326-5424.982Z" transform="translate(-16687.143 5455.617)" fill="#555"/>
      <path id="Union_26" data-name="Union 26" d="M16708.268-5430.083h.008a3.991,3.991,0,0,1-3.273-3.925,3.991,3.991,0,0,1,3.273-3.925h-.008a4.038,4.038,0,0,1,.607-.061h.119a3.992,3.992,0,0,1,3.887,3.088,4.023,4.023,0,0,1,.1.9,3.991,3.991,0,0,1-3.988,3.993A4.111,4.111,0,0,1,16708.268-5430.083Z" transform="translate(-16684.063 5458.184)" fill="#f0efef"/>
      <path id="Path_2408" data-name="Path 2408" d="M7.808,26.524H1.059A1.059,1.059,0,0,1,0,25.466V5.169H7.808Z" fill="rgba(85,85,85,0.75)"/>
      <g id="Group_1805" data-name="Group 1805">
        <g id="Group_1800" data-name="Group 1800">
          <path id="Path_2409" data-name="Path 2409" d="M5.074,8.618H2.734a.483.483,0,1,1,0-.966H5.074a.483.483,0,1,1,0,.966Z" fill="#555"/>
        </g>
        <g id="Group_1801" data-name="Group 1801">
          <path id="Path_2410" data-name="Path 2410" d="M5.074,11.583H2.734a.483.483,0,1,1,0-.966H5.074a.483.483,0,1,1,0,.966Z" fill="#555"/>
        </g>
        <g id="Group_1802" data-name="Group 1802">
          <path id="Path_2411" data-name="Path 2411" d="M5.074,14.548H2.734a.483.483,0,0,1,0-.966H5.074a.483.483,0,0,1,0,.966Z" fill="#555"/>
        </g>
        <g id="Group_1803" data-name="Group 1803">
          <path id="Path_2412" data-name="Path 2412" d="M5.074,17.513H2.734a.483.483,0,0,1,0-.966H5.074a.483.483,0,0,1,0,.966Z" fill="#555"/>
        </g>
        <g id="Group_1804" data-name="Group 1804">
          <path id="Path_2413" data-name="Path 2413" d="M5.074,20.479H2.734a.483.483,0,0,1,0-.966H5.074a.483.483,0,0,1,0,.966Z" fill="#555"/>
        </g>
      </g>
    </g>
  </g>
</svg>
