<svg xmlns="http://www.w3.org/2000/svg" xmlns:xlink="http://www.w3.org/1999/xlink" width="32" height="32" viewBox="0 0 32 32">
  <defs>
    <clipPath id="clip-path">
      <rect id="Rectangle_3978" data-name="Rectangle 3978" width="32" height="32" transform="translate(811 1688)" fill="#fff"/>
    </clipPath>
  </defs>
  <g id="Mask_Group_233" data-name="Mask Group 233" transform="translate(-811 -1688)" clip-path="url(#clip-path)">
    <g id="crm" transform="translate(811 1688)">
      <path id="Union_20" data-name="Union 20" d="M16724.328-5414.692H16705V-5438h17.729l2.4,1.948h1.777v20.3a1.06,1.06,0,0,1-1.059,1.062Z" transform="translate(-16697.191 5441.218)" fill="rgba(2,118,0,0.5)"/>
      <path id="Union_19" data-name="Union 19" d="M16733.2-5434.1H16705v-2.843a1.059,1.059,0,0,1,1.059-1.059h27.6a1.059,1.059,0,0,1,1.059,1.059v2.843Z" transform="translate(-16705 5439.268)" fill="#027600"/>
      <g id="Group_1777" data-name="Group 1777">
        <g id="Group_1774" data-name="Group 1774">
          <path id="Path_2380" data-name="Path 2380" d="M2.321,3.7H1.7a.483.483,0,1,1,0-.966h.623a.483.483,0,0,1,0,.966Z" fill="#eaffe9"/>
        </g>
        <g id="Group_1775" data-name="Group 1775">
          <path id="Path_2381" data-name="Path 2381" d="M4.992,3.7H4.369a.483.483,0,1,1,0-.966h.623a.483.483,0,1,1,0,.966Z" fill="#eaffe9"/>
        </g>
        <g id="Group_1776" data-name="Group 1776">
          <path id="Path_2382" data-name="Path 2382" d="M7.663,3.7H7.039a.483.483,0,0,1,0-.966h.623a.483.483,0,1,1,0,.966Z" fill="#eaffe9"/>
        </g>
      </g>
      <g id="Group_1782" data-name="Group 1782">
        <g id="Group_1779" data-name="Group 1779">
          <g id="Group_1778" data-name="Group 1778">
            <path id="Path_2383" data-name="Path 2383" d="M24.254,15.134a.6.6,0,0,1-.572-.411l-.006-.017-1.091-3.7-.666,3.688a.483.483,0,0,1-.95-.172l.938-5.194a.6.6,0,0,1,1.165-.084l.006.017,1.17,3.967,1.129-3.961.005-.017a.6.6,0,0,1,1.165.066l.994,5.2a.483.483,0,1,1-.949.181L25.887,11l-1.054,3.7-.005.017a.6.6,0,0,1-.571.417h0Z" fill="#027600"/>
          </g>
        </g>
        <g id="Group_1781" data-name="Group 1781">
          <g id="Group_1780" data-name="Group 1780">
            <path id="Path_2384" data-name="Path 2384" d="M13.12,15.134a3.15,3.15,0,1,1,1.761-5.762.483.483,0,1,1-.541.8,2.184,2.184,0,1,0-1.221,4,1.618,1.618,0,0,0,1.31-.58.483.483,0,1,1,.74.621,2.582,2.582,0,0,1-2.05.925Z" fill="#027600"/>
          </g>
        </g>
        <path id="Path_2385" data-name="Path 2385" d="M18.282,12.555a1.866,1.866,0,0,0-.263-3.721H16.6a.483.483,0,0,0-.483.483v5.334a.483.483,0,0,0,.966,0v-2l2.039,2.316a.483.483,0,0,0,.725-.638ZM18.019,9.8a.958.958,0,0,1,.982.9.958.958,0,0,1-.982.9l-.928,0c0-.314,0-1.483-.006-1.81Z" fill="#027600"/>
      </g>
      <path id="Union_22" data-name="Union 22" d="M16714.326-5424.982a3.851,3.851,0,0,1-.385-.21h0a1.229,1.229,0,0,0-.555-.2h-2.635c-.543.013-1.07.78-1.633.415l-1.172-.675c-.6-.306-.191-1.146-.453-1.62l-1.316-2.283c-.281-.461-1.213-.537-1.18-1.2v-1.351c-.033-.671.9-.743,1.18-1.208l1.316-2.278c.262-.474-.143-1.318.453-1.624l1.172-.675c.563-.365,1.09.407,1.633.415h2.635a1.219,1.219,0,0,0,.557-.2l0,0a3.215,3.215,0,0,1,.443-.235.7.7,0,0,1,.479-.049.532.532,0,0,1,.156.074l1.172.675c.334.172.355.515.355.865v.146a1.285,1.285,0,0,0,.1.612l1.313,2.278a.832.832,0,0,0,.09.121,1.305,1.305,0,0,0,.184.146l.354.213c.086.048.16.092.213.128a.688.688,0,0,1,.34.6v1.351c0,.01,0,.021,0,.031,0,.639-.9.719-1.182,1.173l-1.312,2.283-.012.022a1.357,1.357,0,0,0-.09.589v.146c0,.351-.02.692-.355.862l-1.172.675a.531.531,0,0,1-.154.074.556.556,0,0,1-.164.025A.9.9,0,0,1,16714.326-5424.982Z" transform="translate(-16687.143 5455.617)" fill="#027600"/>
      <path id="Union_21" data-name="Union 21" d="M16708.268-5430.083h.008a3.991,3.991,0,0,1-3.273-3.925,3.991,3.991,0,0,1,3.273-3.925h-.008a4.038,4.038,0,0,1,.607-.061h.119a3.992,3.992,0,0,1,3.887,3.088,4.023,4.023,0,0,1,.1.9,3.991,3.991,0,0,1-3.988,3.993A4.111,4.111,0,0,1,16708.268-5430.083Z" transform="translate(-16684.063 5458.184)" fill="#eaffe9"/>
      <path id="Path_2389" data-name="Path 2389" d="M7.808,26.524H1.059A1.059,1.059,0,0,1,0,25.466V5.169H7.808Z" fill="rgba(2,118,0,0.75)"/>
      <g id="Group_1789" data-name="Group 1789">
        <g id="Group_1784" data-name="Group 1784">
          <path id="Path_2390" data-name="Path 2390" d="M5.074,8.618H2.734a.483.483,0,1,1,0-.966H5.074a.483.483,0,1,1,0,.966Z" fill="#027600"/>
        </g>
        <g id="Group_1785" data-name="Group 1785">
          <path id="Path_2391" data-name="Path 2391" d="M5.074,11.583H2.734a.483.483,0,1,1,0-.966H5.074a.483.483,0,1,1,0,.966Z" fill="#027600"/>
        </g>
        <g id="Group_1786" data-name="Group 1786">
          <path id="Path_2392" data-name="Path 2392" d="M5.074,14.548H2.734a.483.483,0,0,1,0-.966H5.074a.483.483,0,0,1,0,.966Z" fill="#027600"/>
        </g>
        <g id="Group_1787" data-name="Group 1787">
          <path id="Path_2393" data-name="Path 2393" d="M5.074,17.513H2.734a.483.483,0,0,1,0-.966H5.074a.483.483,0,0,1,0,.966Z" fill="#027600"/>
        </g>
        <g id="Group_1788" data-name="Group 1788">
          <path id="Path_2394" data-name="Path 2394" d="M5.074,20.479H2.734a.483.483,0,0,1,0-.966H5.074a.483.483,0,0,1,0,.966Z" fill="#027600"/>
        </g>
      </g>
    </g>
  </g>
</svg>
