<svg xmlns="http://www.w3.org/2000/svg" width="37.169" height="40" viewBox="0 0 37.169 40">
    <g data-name="Group 2325">
        <path data-name="Union 5" d="M-5652.724-4125.53a3.5 3.5 0 0 1-2.48-1.032 3.5 3.5 0 0 1-1.029-2.48 3.506 3.506 0 0 1 1.029-2.48 3.527 3.527 0 0 1 1.644-.929l-1.042-4.057c0-.009-.005-.019-.008-.029l-3.662-14.258h-4.646a1 1 0 0 1-1-1 1 1 0 0 1 1-1h5.416a.993.993 0 0 1 .962.749l1.15 4.477h26.646a1 1 0 0 1 1 1 .986.986 0 0 1-.054.324l-2.921 12.126a4.647 4.647 0 0 1-1.633 2.571 4.637 4.637 0 0 1-2.878.988h-17.491a1.513 1.513 0 0 0-1.069.445 1.513 1.513 0 0 0-.445 1.069 1.509 1.509 0 0 0 .445 1.069 1.509 1.509 0 0 0 1.07.446h21.514a1 1 0 0 1 1 1 1 1 0 0 1-1 1z" transform="translate(5664.416 4159.585)" style="fill:#c8efc5;stroke:#a0d89b"/>
        <path data-name="Path 2641" d="M38.052 23.469a2.886 2.886 0 1 1-2.886 2.886 2.886 2.886 0 0 1 2.886-2.886zm-16.934 0a2.886 2.886 0 1 1-2.886 2.886 2.886 2.886 0 0 1 2.886-2.886z" transform="translate(-7.872 10.759)" style="fill-rule:evenodd;fill:#a0d89b"/>
        <path data-name="Path 2642" d="M37.453 24.617a1.139 1.139 0 1 0 1.139 1.139 1.139 1.139 0 0 0-1.139-1.139zm-16.934 0a1.139 1.139 0 1 0 1.139 1.139 1.139 1.139 0 0 0-1.139-1.139z" transform="translate(-7.273 11.358)" style="fill:#c8efc4;fill-rule:evenodd"/>
    </g>
    <path data-name="Path 2643" d="M35.088 4.832a19.913 19.913 0 0 0-11.13 15.134 1 1 0 0 1-1.973-.273A21.907 21.907 0 0 1 34.024 3.138l-.763-.191a1 1 0 0 1 .483-1.934l3.729.935a1 1 0 0 1 .617 1.474l-1.778 3.354a1 1 0 1 1-1.762-.928z" transform="translate(-5.918 -.983)" style="fill:#047600;fill-rule:evenodd"/>
    <path data-name="Path 2644" d="M23.262 3.139A21.906 21.906 0 0 1 35.3 19.693a1 1 0 0 1-1.973.273A19.912 19.912 0 0 0 22.2 4.832l.539 1.016a1 1 0 1 1-1.762.928L19.2 3.422a1 1 0 0 1 .617-1.474l3.729-.935a1 1 0 1 1 .483 1.934z" transform="translate(-7.442 -.983)" style="fill:#047600;fill-rule:evenodd"/>
</svg>
