<svg xmlns="http://www.w3.org/2000/svg" width="35.406" height="40.5" viewBox="0 0 35.406 40.5">
    <g transform="translate(-2.297)">
        <path data-name="Path 2609" d="M20 22.82a12.642 12.642 0 0 0 6.867-1.961 3.87 3.87 0 0 1 4.7.391A17.183 17.183 0 0 1 37.2 34.016V36.1a3.9 3.9 0 0 1-3.9 3.9H6.7a3.9 3.9 0 0 1-3.9-3.9v-2.084a17.13 17.13 0 0 1 5.63-12.758 3.871 3.871 0 0 1 4.7-.391A12.731 12.731 0 0 0 20 22.82z" style="fill:#c8efc5;stroke:#a0d89b"/>
        <circle data-name="Ellipse 387" cx="9.672" cy="9.672" r="9.672" transform="translate(10.328)" style="fill:#047600"/>
    </g>
</svg>
