<svg xmlns="http://www.w3.org/2000/svg" width="40" height="40" viewBox="0 0 40 40">
    <defs>
        <clipPath id="zhrumfp1ba">
            <path data-name="Rectangle 4469" transform="translate(236 756)" style="fill:#fff;stroke:#707070" d="M0 0h40v40H0z"/>
        </clipPath>
    </defs>
    <g data-name="Mask Group 299" transform="translate(-236 -756)" style="clip-path:url(#zhrumfp1ba)">
        <g data-name="Group 2310">
            <g data-name="Path 2610" style="fill:#c8efc5">
                <path d="M12.472 30.015H5.165a.975.975 0 0 1-.974-.972 9.27 9.27 0 0 1 2.64-6.503 9.257 9.257 0 0 1 5.068-2.678 11.376 11.376 0 0 0-.232 2.313c0 2.399.746 4.728 2.117 6.662-.451.36-.89.755-1.312 1.178z" style="stroke:none" transform="translate(232.777 752.777)"/>
                <path d="M12.077 29.048c.141-.136.284-.268.429-.397a12.5 12.5 0 0 1-1.767-7.491 8.316 8.316 0 0 0-3.215 2.055 8.31 8.31 0 0 0-2.367 5.825.022.022 0 0 0 .008.008h6.912m.803 1.935H5.165a1.945 1.945 0 0 1-1.942-1.94 10.279 10.279 0 0 1 9.99-10.282 9.991 9.991 0 0 0-.579 3.414c0 2.62.945 5.005 2.521 6.849a14.338 14.338 0 0 0-2.275 1.959z" style="fill:#a0d89b;stroke:none" transform="translate(232.777 752.777)"/>
            </g>
            <g data-name="Path 2611" style="fill:#c8efc5">
                <path d="M13.526 16.28c-3.17 0-5.75-2.577-5.75-5.744a5.754 5.754 0 0 1 5.75-5.745 5.75 5.75 0 0 1 5.743 5.745 5.75 5.75 0 0 1-5.743 5.744z" style="stroke:none" transform="translate(232.777 752.777)"/>
                <path d="M13.526 15.312a4.782 4.782 0 0 0 4.775-4.776 4.782 4.782 0 0 0-4.775-4.777 4.785 4.785 0 0 0-4.783 4.777 4.785 4.785 0 0 0 4.783 4.776m0 1.936c-3.705 0-6.718-3.007-6.718-6.712a6.714 6.714 0 0 1 13.429 0 6.713 6.713 0 0 1-6.711 6.712z" style="fill:#a0d89b;stroke:none" transform="translate(232.777 752.777)"/>
            </g>
            <g data-name="Path 2612" style="fill:#c8efc5">
                <path d="M41.281 30.015h-7.307a15.675 15.675 0 0 0-1.312-1.178 11.52 11.52 0 0 0 2.117-6.662c0-.794-.078-1.567-.232-2.313a9.257 9.257 0 0 1 5.068 2.678 9.27 9.27 0 0 1 2.64 6.503.975.975 0 0 1-.974.972z" style="stroke:none" transform="translate(232.777 752.777)"/>
                <path d="M41.28 29.048c.003 0 .008-.006.008-.005 0-2.191-.84-4.26-2.366-5.828a8.316 8.316 0 0 0-3.215-2.055 12.5 12.5 0 0 1-1.766 7.492c.144.128.287.26.428.396h6.912m0 1.935h-7.715a14.338 14.338 0 0 0-2.275-1.96 10.482 10.482 0 0 0 2.52-6.848 9.991 9.991 0 0 0-.578-3.414 10.279 10.279 0 0 1 9.99 10.282c0 1.067-.871 1.94-1.942 1.94z" style="fill:#a0d89b;stroke:none" transform="translate(232.777 752.777)"/>
            </g>
            <g data-name="Path 2613" style="fill:#c8efc5">
                <path d="M32.92 16.28a5.75 5.75 0 0 1-5.743-5.744A5.75 5.75 0 0 1 32.92 4.79c3.171 0 5.75 2.577 5.75 5.745 0 3.167-2.579 5.744-5.75 5.744z" style="stroke:none" transform="translate(232.777 752.777)"/>
                <path d="M32.92 15.312a4.785 4.785 0 0 0 4.783-4.776 4.785 4.785 0 0 0-4.783-4.777 4.782 4.782 0 0 0-4.775 4.777 4.782 4.782 0 0 0 4.775 4.776m0 1.936a6.713 6.713 0 0 1-6.71-6.712 6.714 6.714 0 0 1 13.428 0c0 3.705-3.013 6.712-6.718 6.712z" style="fill:#a0d89b;stroke:none" transform="translate(232.777 752.777)"/>
            </g>
        </g>
        <path data-name="Path 2614" d="M23.223 30.382a10.307 10.307 0 0 0-10.3 10.3 1.945 1.945 0 0 0 1.942 1.94h16.719a1.95 1.95 0 0 0 1.942-1.94 10.307 10.307 0 0 0-10.303-10.3zm0 8.361a1.94 1.94 0 1 1 1.942-1.94 1.943 1.943 0 0 1-1.942 1.94z" style="fill:#047600" transform="translate(232.777 752.777)"/>
        <path data-name="Path 2615" d="M29.934 22.175a6.711 6.711 0 1 1-6.711-6.712 6.713 6.713 0 0 1 6.711 6.712z" style="fill:#047600" transform="translate(232.777 752.777)"/>
    </g>
</svg>
