<svg xmlns="http://www.w3.org/2000/svg" width="40" height="40" viewBox="0 0 40 40">
    <g data-name="Group 9">
        <g data-name="Group 8">
            <path data-name="Path 42" d="M158 322.5a2.5 2.5 0 0 0-2.5-2.5h-25a2.5 2.5 0 0 0-2.5 2.5v3.333a2.481 2.481 0 0 0 .65 1.667 2.482 2.482 0 0 0-.65 1.667v3.333a2.5 2.5 0 0 0 2.5 2.5h25a2.5 2.5 0 0 0 2.5-2.5v-3.333a2.481 2.481 0 0 0-.65-1.667 2.482 2.482 0 0 0 .65-1.667zm-1.667 10a.834.834 0 0 1-.833.833h-25a.834.834 0 0 1-.833-.833v-3.333a.834.834 0 0 1 .833-.833h25a.834.834 0 0 1 .833.833zm0-6.667a.834.834 0 0 1-.833.833h-25a.834.834 0 0 1-.833-.833V322.5a.834.834 0 0 1 .833-.833h25a.834.834 0 0 1 .833.833z" transform="translate(-118 -295)" style="fill:#6d6d6d"/>
            <path data-name="Path 43" d="M7.782 37.145c-3.772-1.123-6.115-2.9-6.115-4.645v-5.008a14.108 14.108 0 0 0 5.593 2.9.861.861 0 0 0 .24.035.833.833 0 0 0 .24-1.627c-3.747-1.123-6.073-2.9-6.073-4.63v-5.03c2.672 2.5 8.308 4.2 15 4.2s12.328-1.693 15-4.2v3.36a.833.833 0 0 0 1.667 0v-15C33.333 3.3 26.012 0 16.667 0S0 3.3 0 7.5v25c0 2.585 2.663 4.858 7.307 6.242a.85.85 0 0 0 .238.035.833.833 0 0 0 .237-1.632zm8.885-35.478c8.84 0 15 3.075 15 5.833s-6.16 5.833-15 5.833-15-3.075-15-5.833 6.16-5.833 15-5.833zm-15 9.137c2.672 2.5 8.308 4.2 15 4.2s12.328-1.693 15-4.2v5.03c0 2.758-6.16 5.833-15 5.833s-15-3.075-15-5.833V10.8z" style="fill:#6d6d6d"/>
            <path data-name="Path 44" d="M370.167 448H363.5a.833.833 0 0 0 0 1.667h6.667a.833.833 0 0 0 0-1.667z" transform="translate(-334.334 -413)" style="fill:#6d6d6d"/>
            <path data-name="Path 45" d="M171.5 362.667a.833.833 0 1 0 .833.833.834.834 0 0 0-.833-.833z" transform="translate(-157.333 -334.334)" style="fill:#6d6d6d"/>
            <path data-name="Path 46" d="M171.5 448a.833.833 0 1 0 .833.833.834.834 0 0 0-.833-.833z" transform="translate(-157.333 -413)" style="fill:#6d6d6d"/>
            <path data-name="Path 47" d="M370.167 362.667H363.5a.833.833 0 0 0 0 1.667h6.667a.833.833 0 0 0 0-1.667z" transform="translate(-334.334 -334.334)" style="fill:#6d6d6d"/>
        </g>
    </g>
</svg>
