<svg xmlns="http://www.w3.org/2000/svg" width="24" height="24" viewBox="0 0 24 24">
    <defs>
        <clipPath id="84zx5rr93a">
            <path data-name="Rectangle 4825" transform="translate(72 232)" style="stroke-width:2px;fill:#fff;stroke:#707070" d="M0 0h24v24H0z"/>
        </clipPath>
    </defs>
    <g data-name="Mask Group 388" transform="translate(-72 -232)" style="clip-path:url(#84zx5rr93a)">
        <path data-name="Path 1489" d="m20.669 8.127 1.9-1.9a2.693 2.693 0 1 1 3.809 3.809l-1.9 1.9m-3.809-3.809L9.483 19.314a14.933 14.933 0 0 0-2.614 3 25.743 25.743 0 0 0-1.435 4.862 25.743 25.743 0 0 0 4.866-1.44 14.932 14.932 0 0 0 3-2.614l11.178-11.186m-3.809-3.809 3.809 3.809" style="stroke-linejoin:round;fill:none;stroke:#000;stroke-linecap:round;stroke-width:2px" transform="translate(67.585 227.81)"/>
        <path data-name="Path 1490" d="M14.944 27.171H23.1" style="fill:none;stroke:#000;stroke-linecap:round;stroke-width:2px" transform="translate(67.585 227.81)"/>
    </g>
</svg>
