<svg xmlns="http://www.w3.org/2000/svg" width="24" height="24" viewBox="0 0 24 24">
    <defs>
        <clipPath id="h3h76f2sna">
            <path data-name="Rectangle 4833" transform="translate(72 364)" style="stroke-width:2px;fill:#fff;stroke:#707070" d="M0 0h24v24H0z"/>
        </clipPath>
    </defs>
    <g data-name="Mask Group 390" transform="translate(-72 -364)" style="clip-path:url(#h3h76f2sna)">
        <path data-name="filter-stroke-rounded (1)" d="M10.848 15.308a38.551 38.551 0 0 1-6.392-6.182A2.186 2.186 0 0 1 3.9 7.811c-.247-1.921-.371-2.882.193-3.5s1.56-.62 3.552-.62h14.091c1.993 0 2.989 0 3.552.62s.44 1.581.193 3.5a2.186 2.186 0 0 1-.559 1.315 38.562 38.562 0 0 1-6.4 6.19 1.284 1.284 0 0 0-.491.914c-.3 3.337-.58 5.165-.754 6.09-.28 1.493-2.4 2.391-3.53 3.193a1.04 1.04 0 0 1-1.581-.829 237.78 237.78 0 0 1-.823-8.453 1.282 1.282 0 0 0-.495-.923z" transform="translate(69.311 361.311)" style="fill:none;stroke:#000;stroke-linecap:round;stroke-linejoin:round;stroke-width:2px"/>
    </g>
</svg>
