<svg xmlns="http://www.w3.org/2000/svg" width="16" height="16" viewBox="0 0 16 16">
    <defs>
        <clipPath id="d1gpu4z9va">
            <path data-name="Rectangle 5061" transform="translate(656 339)" style="stroke:#707070" d="M0 0h16v16H0z"/>
        </clipPath>
    </defs>
    <g data-name="Mask Group 419" transform="translate(-656 -339)" style="clip-path:url(#d1gpu4z9va)">
        <g data-name="delete (3)">
            <path data-name="Path 29686" d="M4.693 6.523a.617.617 0 0 1 .6.63l-.619-.015-.619-.015a.618.618 0 0 1 .638-.6zm-.015.615-.619-.015v.135c0 .086 0 .212-.007.368-.006.313-.013.75-.017 1.248-.009.992-.009 2.235.028 3.211.041 1.067.151 2.449.242 3.477A2.246 2.246 0 0 0 6.55 17.6h6.1a2.246 2.246 0 0 0 2.25-2.038c.091-1.029.2-2.41.242-3.477.037-.976.037-2.219.028-3.211 0-.5-.012-.935-.017-1.248 0-.156-.006-.282-.007-.368v-.134a.619.619 0 0 0-1.238.029l.395-.01-.395.01v.133a111.26 111.26 0 0 1 .024 1.601c.009.989.009 2.208-.027 3.153a75.9 75.9 0 0 1-.238 3.416 1.01 1.01 0 0 1-1.015.915H6.55a1.01 1.01 0 0 1-1.015-.915 73.166 73.166 0 0 1-.238-3.416 73.037 73.037 0 0 1-.027-3.153c0-.493.011-.926.017-1.237 0-.155.005-.279.007-.364v-.133z" style="fill-rule:evenodd" transform="translate(654.4 337.4)"/>
            <path data-name="Path 29687" d="M3.2 4.677a.617.617 0 0 1 .619-.615h11.562a.615.615 0 1 1 0 1.231H3.819a.617.617 0 0 1-.619-.616z" style="fill-rule:evenodd" transform="translate(654.4 337.4)"/>
            <path data-name="Path 29688" d="M6.605 2.795a2.273 2.273 0 0 1 2-1.195h1.982a2.273 2.273 0 0 1 2 1.195l.855 1.593a.613.613 0 0 1-.255.833.621.621 0 0 1-.838-.253L11.5 3.374a1.033 1.033 0 0 0-.911-.543h-1.98a1.033 1.033 0 0 0-.911.543l-.855 1.593a.621.621 0 0 1-.838.253.613.613 0 0 1-.255-.833z" style="fill-rule:evenodd" transform="translate(654.4 337.4)"/>
        </g>
    </g>
</svg>
