<svg xmlns="http://www.w3.org/2000/svg" width="155" height="23.775" viewBox="0 0 155 23.775">
  <defs>
    <style>
      .cls-1 {
        mix-blend-mode: luminosity;
        isolation: isolate;
      }

      .cls-2 {
        fill: #3550a0;
        fill-rule: evenodd;
      }
    </style>
  </defs>
  <g id="kellton" class="cls-1">
    <path id="Path_3032" data-name="Path 3032" class="cls-2" d="M46.262,8.185c-.974-4.662-5.285-6.36-7.944-6.843a13.126,13.126,0,0,0-7.2.866c-2.84,1.214-6.342,5.061-6.342,5.061-.192-.149-.378-.305-.566-.465-.086-.071-.172-.145-.259-.218a20.647,20.647,0,0,0-2.858-2.148A18.419,18.419,0,0,0,12.4,1.609,10.7,10.7,0,0,0,2.278,7.053c-.2.366-.446.833-.677,1.365-.115.25-.231.532-.346.816A20.059,20.059,0,0,0,.4,11.8v-.005A10.764,10.764,0,0,0,.043,13.7a8.637,8.637,0,0,0,.188,2.773c.957,4.646,5.285,6.36,7.944,6.828a12.829,12.829,0,0,0,7.186-.882C18.2,21.2,21.7,17.359,21.7,17.359c.192.148.376.3.564.463.087.073.172.145.261.218a20.646,20.646,0,0,0,2.858,2.148,18.406,18.406,0,0,0,8.687,2.829A10.691,10.691,0,0,0,44.2,17.573c.2-.366.448-.833.678-1.365.115-.249.231-.532.346-.815a18.96,18.96,0,0,0,1.012-3.334A9.342,9.342,0,0,0,46.262,8.185ZM34.52,4.638c1.949-.417,5.615-.55,6.953,2.281,1.32,2.847-1.619,5.194-4.559,5.478a12.254,12.254,0,0,1-6.987-1.633,14.9,14.9,0,0,1-2.215-1.422l-.08-.059-.049-.034A13.38,13.38,0,0,1,34.52,4.638ZM11.957,20.006c-1.949.433-5.617.566-6.953-2.281s1.619-5.194,4.559-5.478a12.267,12.267,0,0,1,6.987,1.631A15.627,15.627,0,0,1,18.8,15.327l.045.034.049.034A13.414,13.414,0,0,1,11.957,20.006Zm31.663-3.181a10.832,10.832,0,0,1-4.328,3.481c-1.008.465-4.213,1.53-9.4-1.232a33.134,33.134,0,0,1-7.7-5.695c-1.3-1.2-2.743-2.514-4.708-4.045C13.3,6.072,7.432,5.455,4.424,7.353A10.314,10.314,0,0,0,1.286,10.3,17.61,17.61,0,0,1,2.871,7.8,10.841,10.841,0,0,1,7.2,4.323c1.008-.467,4.194-1.516,9.4,1.248a33.027,33.027,0,0,1,7.7,5.695c1.3,1.2,2.743,2.514,4.708,4.045,4.194,3.263,10.06,3.879,13.065,1.981A10.338,10.338,0,0,0,45.1,14.505,16.7,16.7,0,0,1,43.621,16.825Z" transform="translate(0 -0.24)"/>
    <path id="Path_3033" data-name="Path 3033" class="cls-2" d="M88.1,23.734,78.45,11.7,87.227,0H82L73.887,11.317V0h-4.53V23.734H73.9V12.717l8.679,11.017H88.1Zm8.53-17.993a8.681,8.681,0,0,0-8.713,9.017c0,5.217,3.736,9.017,9.39,9.017a8.955,8.955,0,0,0,7.24-3.483l-3.438-2.033a4.961,4.961,0,0,1-3.8,1.7,4.683,4.683,0,0,1-4.844-3.534h12.646C105.891,9.641,101.791,5.741,96.634,5.741Zm-4.166,7.743A4.263,4.263,0,0,1,96.7,9.95a4.024,4.024,0,0,1,4.232,3.533Zm15.109,10.25V0h4.282V23.734ZM115.216,0V23.734H119.5V0Zm16.647,6.314v3.917H128.21v6.284c0,1.966.281,3.117,2.629,3.117.3,0,.71-.033,1.009-.067V23.5a5.626,5.626,0,0,1-1.786.233c-4.364,0-6.117-2.934-6.117-6.5V10.248h-2.429V6.315h2.429v-3.6h4.282v3.6Zm10.5-.574a8.872,8.872,0,0,0-8.992,9.017,9.009,9.009,0,1,0,18.019,0A8.871,8.871,0,0,0,142.36,5.741Zm0,14.293a4.589,4.589,0,0,1-4.612-4.883,4.635,4.635,0,1,1,9.257,0A4.6,4.6,0,0,1,142.36,20.034Zm15.606-11.4a5.658,5.658,0,0,1,4.976-2.5c4.314,0,6.266,3.534,6.266,7.15v10.45h-4.265V14.167c0-2.2-.91-3.866-3.34-3.866-2.529,0-3.637,1.9-3.637,3.866v9.567h-4.249V6.55h4.249Z" transform="translate(-14.208)"/>
  </g>
</svg>
