<svg xmlns="http://www.w3.org/2000/svg" width="154.326" height="16.076" viewBox="0 0 154.326 16.076">
  <defs>
    <style>
      .cls-1 {
        isolation: isolate;
      }

      .cls-2 {
        fill: #0d2234;
      }

      .cls-3 {
        fill: #ee2737;
      }
    </style>
  </defs>
  <g id="venturedive-logo" class="cls-1">
    <path id="Path_2834" data-name="Path 2834" class="cls-2" d="M56.684,9.814h2.809a.424.424,0,0,1,.409.294L63.873,21.75l3.944-11.641a.439.439,0,0,1,.409-.294h2.8a.428.428,0,0,1,.409.575l-5.606,14.9a.442.442,0,0,1-.409.281h-3.14a.432.432,0,0,1-.409-.281l-5.606-14.9A.434.434,0,0,1,56.684,9.814Z" transform="translate(-22.207 -9.744)"/>
    <path id="Path_2835" data-name="Path 2835" class="cls-2" d="M80.1,22.821A2.914,2.914,0,0,0,83.2,25a7.841,7.841,0,0,0,3.355-.748.431.431,0,0,1,.623.383V26.68a.434.434,0,0,1-.26.39,9.8,9.8,0,0,1-3.977.78A5.793,5.793,0,0,1,76.9,21.824a5.8,5.8,0,0,1,5.859-6,5.3,5.3,0,0,1,5.483,5.488,6.966,6.966,0,0,1-.117,1.156.43.43,0,0,1-.428.351Zm.584-2.383h3.957a.428.428,0,0,0,.409-.569,2.309,2.309,0,0,0-2.316-1.425,2.67,2.67,0,0,0-2.446,1.387A.428.428,0,0,0,80.681,20.437Z" transform="translate(-29.18 -11.773)"/>
    <path id="Path_2836" data-name="Path 2836" class="cls-2" d="M99.051,17.52a3.448,3.448,0,0,1,2.965-1.687,4.185,4.185,0,0,1,4.256,4.185v7.156a.432.432,0,0,1-.435.428h-2.355a.431.431,0,0,1-.435-.428V21.047a1.949,1.949,0,0,0-2-2.134,1.92,1.92,0,0,0-2,1.994v6.268a.432.432,0,0,1-.435.428H96.281a.431.431,0,0,1-.435-.428V16.485a.431.431,0,0,1,.435-.428h2.336a.432.432,0,0,1,.435.428Z" transform="translate(-35.578 -11.776)"/>
    <path id="Path_2837" data-name="Path 2837" class="cls-2" d="M114.626,25.107V16.679H113.27a.431.431,0,0,1-.435-.428V14.417a.431.431,0,0,1,.435-.428h1.544V10.124a.432.432,0,0,1,.337-.415l2.148.013a.442.442,0,0,1,.532.415v3.853h1.544a.431.431,0,0,1,.435.428v1.834a.431.431,0,0,1-.435.428h-1.544V25.1a.432.432,0,0,1-.435.428h-2.336A.43.43,0,0,1,114.626,25.107Z" transform="translate(-41.315 -9.708)"/>
    <path id="Path_2838" data-name="Path 2838" class="cls-2" d="M132.365,26.27a3.4,3.4,0,0,1-3.082,1.693,4.04,4.04,0,0,1-4.094-4.332V16.6a.431.431,0,0,1,.435-.428h2.336a.431.431,0,0,1,.435.428v6.127a1.992,1.992,0,1,0,3.977.16V16.59a.431.431,0,0,1,.435-.428h2.335a.431.431,0,0,1,.435.428V27.273a.431.431,0,0,1-.435.428h-2.335a.431.431,0,0,1-.435-.428v-1Z" transform="translate(-45.486 -11.887)"/>
    <path id="Path_2839" data-name="Path 2839" class="cls-2" d="M146.6,17.307a3.174,3.174,0,0,1,2.776-1.482c.143,0,.338.006.519.019a.428.428,0,0,1,.4.428v2.37a.428.428,0,0,1-.544.409,4.3,4.3,0,0,0-1.174-.147A1.931,1.931,0,0,0,146.6,20.9v6.268a.431.431,0,0,1-.434.428h-2.336a.431.431,0,0,1-.435-.428V16.482a.431.431,0,0,1,.435-.428h2.336a.431.431,0,0,1,.434.428v.824Z" transform="translate(-51.632 -11.773)"/>
    <path id="Path_2840" data-name="Path 2840" class="cls-2" d="M157.665,22.821A2.914,2.914,0,0,0,160.772,25a7.84,7.84,0,0,0,3.354-.748.431.431,0,0,1,.623.383V26.68a.434.434,0,0,1-.26.39,9.8,9.8,0,0,1-3.977.78,5.793,5.793,0,0,1-6.047-6.025,5.8,5.8,0,0,1,5.859-6,5.3,5.3,0,0,1,5.483,5.488,6.964,6.964,0,0,1-.117,1.156.43.43,0,0,1-.428.351Zm.584-2.383h3.958a.427.427,0,0,0,.408-.569,2.309,2.309,0,0,0-2.316-1.425,2.668,2.668,0,0,0-2.446,1.387A.43.43,0,0,0,158.248,20.437Z" transform="translate(-55.371 -11.773)"/>
    <path id="Path_2841" data-name="Path 2841" class="cls-2" d="M173.422,10.233a.431.431,0,0,1,.435-.428h5.5c4.872,0,7.9,3.265,7.9,7.878s-3.037,7.878-7.9,7.878h-5.5a.431.431,0,0,1-.435-.428Zm3.341,2.747v9.405h2.562c2.894,0,4.471-2.013,4.471-4.7,0-2.664-1.577-4.7-4.471-4.7Z" transform="translate(-61.772 -9.741)"/>
    <path id="Path_2842" data-name="Path 2842" class="cls-2" d="M197.64,9.814a1.754,1.754,0,1,1-1.772,1.763A1.728,1.728,0,0,1,197.64,9.814Zm1.167,15.756h-2.335a.431.431,0,0,1-.435-.428V14.459a.431.431,0,0,1,.435-.428h2.335a.432.432,0,0,1,.436.428V25.142A.432.432,0,0,1,198.807,25.571Z" transform="translate(-69.351 -9.744)"/>
    <path id="Path_2843" data-name="Path 2843" class="cls-2" d="M206.353,16.459l2.628,7.335,2.647-7.341a.427.427,0,0,1,.409-.281h2.452a.423.423,0,0,1,.4.575l-4.113,10.689a.435.435,0,0,1-.4.275h-2.763a.422.422,0,0,1-.4-.275l-4.094-10.683a.427.427,0,0,1,.4-.575h2.433A.432.432,0,0,1,206.353,16.459Z" transform="translate(-71.789 -11.891)"/>
    <path id="Path_2844" data-name="Path 2844" class="cls-2" d="M223.931,22.821A2.914,2.914,0,0,0,227.038,25a7.841,7.841,0,0,0,3.354-.748.431.431,0,0,1,.623.383V26.68a.434.434,0,0,1-.26.39,9.8,9.8,0,0,1-3.976.78,5.793,5.793,0,0,1-6.047-6.025,5.8,5.8,0,0,1,5.858-6,5.3,5.3,0,0,1,5.483,5.488,7.052,7.052,0,0,1-.117,1.156.431.431,0,0,1-.428.351Zm.59-2.383h3.958a.428.428,0,0,0,.409-.569,2.31,2.31,0,0,0-2.316-1.425,2.668,2.668,0,0,0-2.446,1.387A.426.426,0,0,0,224.521,20.437Z" transform="translate(-77.747 -11.773)"/>
    <path id="Path_2845" data-name="Path 2845" class="cls-3" d="M22.711,9.779H16.557A1.88,1.88,0,0,0,14.9,12.6l2.4,4.087a2.051,2.051,0,0,0,1.771,1.006h3.22l-2.441-4.168h2.864a4.234,4.234,0,0,1,4.46,4.168,4.323,4.323,0,0,1-4.6,4.328H19.228a4.58,4.58,0,0,1-4.134-2.265l-5.269-8.99a2.006,2.006,0,0,0-1.733-.985H4.854l6.427,11c2.508,4.3,5.648,4.891,7.769,4.988H22.83a8.122,8.122,0,0,0,8.155-7.618A8.141,8.141,0,0,0,22.711,9.779Z" transform="translate(-4.854 -9.73)"/>
  </g>
</svg>
