<svg xmlns="http://www.w3.org/2000/svg" width="154.325" height="36.625" viewBox="0 0 154.325 36.625">
  <defs>
    <style>
      .cls-1 {
        mix-blend-mode: luminosity;
        isolation: isolate;
      }

      .cls-2 {
        fill: #a7a5a6;
      }

      .cls-3 {
        fill: #e90810;
      }
    </style>
  </defs>
  <g id="g939" class="cls-1" transform="translate(-0.001)">
    <g id="g931" transform="translate(1.168 0) rotate(1.885)">
      <g id="g926" transform="translate(0 0)">
        <path id="path31718" class="cls-2" d="M0,12.917l12.709-3.57,8.354.441,5.445,14.745-1.357,10.95L30.871,24.55,27.825,10.405l3.957-.046,3.2,4.159L31.748,4.98l-5.257-.188L25.523.916,17.4,0l1.468,4.4-5.719-.128Z" transform="translate(0)"/>
        <path id="path31206-9" class="cls-3" d="M0,2.748,2.8,5.666l4.707.112L6.338,1.5,12.945,0l2.023,6.158,7.287.131,11.91-1.83L22.973,12.806l-5.755-.548,2.148,7.1,5.088,5.71L12.612,19.444,9.845,11.459l-7.128-.387Z" transform="translate(0.291 10.445)"/>
      </g>
    </g>
    <g id="text868" transform="translate(37.553 16.28)">
      <path id="path870" d="M40.844,32.752h3.314l2.37-12.612h4.143l.552-2.9H39.693l-.575,2.9h4.1Z" transform="translate(-39.118 -16.988)"/>
      <path id="path872" d="M61.442,23.385H55.919l.644-3.314h5.846l.552-2.831H53.778L50.832,32.752h9.5l.529-2.831H54.676l.713-3.751h5.523Z" transform="translate(-39.809 -16.988)"/>
      <path id="path874" d="M63.477,32.752h9.275l.552-2.9H67.343l2.393-12.612H66.422Z" transform="translate(-40.555 -16.988)"/>
      <path id="path876" d="M75.387,32.752h3.268l.99-5.178L81.3,26.009l2.6,6.743h3.59L83.9,23.938l6.283-6.7H86.043l-4.3,5.155c-.437.552-.921,1.1-1.381,1.772h-.069L81.6,17.241H78.333Z" transform="translate(-41.257 -16.988)"/>
      <path id="path878" d="M97.94,16.972a8.126,8.126,0,0,0-5.661,2.209,10.332,10.332,0,0,0-2.854,7.341c0,3.613,2.255,6.467,6.283,6.467a8.051,8.051,0,0,0,5.73-2.232,10.368,10.368,0,0,0,2.762-7.318C104.2,19.733,102.037,16.972,97.94,16.972Zm-.391,2.762c2.439,0,3.13,1.864,3.13,3.8,0,1.8-.667,4.35-1.887,5.569a3.785,3.785,0,0,1-2.6,1.128c-2.255,0-3.245-1.634-3.245-3.82a8.429,8.429,0,0,1,1.933-5.5A3.677,3.677,0,0,1,97.549,19.733Z" transform="translate(-42.085 -16.972)"/>
      <path id="path880" d="M122.114,32.752l2.094-15.511H119.72l-2.877,5.892a50.832,50.832,0,0,0-2.094,4.948h-.092c-.023-1.726-.184-3.5-.276-4.948l-.483-5.892h-4.442l-3.889,15.511H108.6l1.542-6.4c.391-1.68.852-4,1.289-6.053h.046c.092,2.071.207,4.212.345,5.915l.552,6.283h2.578l3.176-6.352c.852-1.7,1.818-3.843,2.67-5.846h.069c-.437,2.232-.782,4.373-1.036,6.053l-.944,6.4Z" transform="translate(-43.038 -16.988)"/>
      <path id="path882" d="M137.278,29.629a8.128,8.128,0,0,1-2.946.506,3.765,3.765,0,0,1-4.12-4.12,6.279,6.279,0,0,1,2.14-4.994,5.543,5.543,0,0,1,3.544-1.2,6.857,6.857,0,0,1,2.808.506l.9-2.693a7.36,7.36,0,0,0-3.383-.667,9.694,9.694,0,0,0-5.707,1.657,9.039,9.039,0,0,0-3.912,7.756c0,4.1,2.762,6.582,6.858,6.582a10.613,10.613,0,0,0,4.1-.667Z" transform="translate(-44.278 -16.972)"/>
      <path id="path884" d="M150.734,23.385H145.21l.644-3.314H151.7l.552-2.831H143.07l-2.946,15.511h9.5l.529-2.831h-6.191l.713-3.751H150.2Z" transform="translate(-45.076 -16.988)"/>
      <path id="path886" d="M152.768,32.752h9.275l.552-2.9h-5.961l2.393-12.612h-3.314Z" transform="translate(-45.822 -16.988)"/>
    </g>
  </g>
</svg>
