<svg xmlns="http://www.w3.org/2000/svg" width="41.053" height="41.057" viewBox="0 0 41.053 41.057">
    <path data-name="Path 2667" d="m38.162 20 1.755-4.577a1.251 1.251 0 0 0-.38-1.42l-3.8-3.085-.77-4.842a1.25 1.25 0 0 0-1.04-1.037L29.08 4.27 26 .463a1.252 1.252 0 0 0-1.42-.38L20 1.84 15.423.085a1.247 1.247 0 0 0-1.417.38l-3.085 3.807-4.842.77A1.252 1.252 0 0 0 5.041 6.08l-.77 4.842-3.807 3.085a1.251 1.251 0 0 0-.38 1.417L1.839 20 .084 24.579A1.247 1.247 0 0 0 .464 26l3.807 3.082.77 4.842a1.25 1.25 0 0 0 1.037 1.04l4.842.77 3.085 3.8a1.244 1.244 0 0 0 1.42.38L20 38.163l4.577 1.755A1.251 1.251 0 0 0 26 39.535l3.082-3.8 4.842-.77a1.252 1.252 0 0 0 1.04-1.04l.77-4.842L39.536 26a1.248 1.248 0 0 0 .38-1.417z" style="fill:#c8efc5;stroke:#a0d89b" transform="translate(.527 .531)"/>
    <g data-name="Group 2328">
        <path data-name="Path 2668" d="M16.251 17.5A3.75 3.75 0 1 1 20 13.752a3.754 3.754 0 0 1-3.749 3.748zm0-5a1.25 1.25 0 1 0 1.25 1.25 1.25 1.25 0 0 0-1.25-1.25z" style="fill:#047600" transform="translate(.527 .531)"/>
        <path data-name="Path 2669" d="M23.75 30a3.75 3.75 0 1 1 3.75-3.75A3.754 3.754 0 0 1 23.75 30zm0-5A1.25 1.25 0 1 0 25 26.251 1.254 1.254 0 0 0 23.75 25z" style="fill:#047600" transform="translate(.527 .531)"/>
        <path data-name="Path 2670" d="M13.751 30a1.25 1.25 0 0 1-1.015-1.977l12.5-17.5a1.25 1.25 0 0 1 2.035 1.452l-12.5 17.5a1.255 1.255 0 0 1-1.02.525z" style="fill:#047600" transform="translate(.527 .531)"/>
    </g>
</svg>
