<svg xmlns="http://www.w3.org/2000/svg" width="31.28" height="41" viewBox="0 0 31.28 41">
    <path data-name="Path 2645" d="M30.28 10.79v.02h-6.81a4 4 0 0 1-4-4V.02h.02zm0 0" style="fill:#047600" transform="translate(.5 .5)"/>
    <path data-name="Path 2646" d="M30.28 10.97V36a4 4 0 0 1-4 4H4a4 4 0 0 1-4-4V4a4 4 0 0 1 4-4h15.26l.2.02v6.79a4 4 0 0 0 4 4h6.81v.16zm0 0" style="fill:#c8efc5;stroke:#a0d89b" transform="translate(.5 .5)"/>
    <g data-name="Group 2326">
        <path data-name="Path 2648" d="M16.22 18.3H7.41a1 1 0 0 1 0-2h8.81a1 1 0 0 1 0 2zm0 0" style="fill:#047600" transform="translate(.5 .5)"/>
        <path data-name="Path 2649" d="M24.87 25.87H7.41a1 1 0 0 1 0-2h17.46a1 1 0 0 1 0 2zm0 0" style="fill:#047600" transform="translate(.5 .5)"/>
        <path data-name="Path 2650" d="M24.87 33.43H7.41a1 1 0 0 1 0-2h17.46a1 1 0 0 1 0 2zm0 0" style="fill:#047600" transform="translate(.5 .5)"/>
    </g>
</svg>
