<svg xmlns="http://www.w3.org/2000/svg" width="18" height="18" viewBox="0 0 18 18">
    <defs>
        <clipPath id="m94dt5a5ta">
            <path data-name="Rectangle 4823" style="fill:#fff" d="M0 0h18v18H0z"/>
        </clipPath>
    </defs>
    <g style="clip-path:url(#m94dt5a5ta)">
        <path d="M8.848 0a8.848 8.848 0 0 0-2.8 17.243c.442.077.608-.188.608-.42 0-.21-.011-.907-.011-1.648-2.223.409-2.8-.542-2.975-1.04a3.217 3.217 0 0 0-.907-1.25c-.31-.166-.752-.575-.011-.586a1.771 1.771 0 0 1 1.36.907 1.891 1.891 0 0 0 2.577.73 1.861 1.861 0 0 1 .564-1.183c-1.969-.221-4.026-.984-4.026-4.369a3.443 3.443 0 0 1 .907-2.378 3.179 3.179 0 0 1 .088-2.345s.741-.232 2.433.907a8.342 8.342 0 0 1 4.424 0c1.692-1.15 2.433-.907 2.433-.907a3.179 3.179 0 0 1 .088 2.345 3.423 3.423 0 0 1 .907 2.378c0 3.4-2.068 4.148-4.037 4.369a2.1 2.1 0 0 1 .6 1.637c0 1.183-.011 2.135-.011 2.433 0 .232.166.509.608.42A8.853 8.853 0 0 0 8.848 0z" transform="translate(.304 .032)" style="fill-rule:evenodd;fill:#fff" data-name="Mask Group 388"/>
    </g>
</svg>
