<svg xmlns="http://www.w3.org/2000/svg" width="40" height="40" viewBox="0 0 40 40">
    <defs>
        <clipPath id="0b8vz3l3za">
            <path data-name="Rectangle 4816" transform="translate(860 2186)" style="fill:#fff;stroke:#707070" d="M0 0h40v40H0z"/>
        </clipPath>
    </defs>
    <g data-name="Mask Group 312" transform="translate(-860 -2186)" style="clip-path:url(#0b8vz3l3za)">
        <g data-name="Group 2397">
            <g data-name="Group 2379">
                <g data-name="Group 2374">
                    <g data-name="Group 2372">
                        <path data-name="Path 2788" d="M19.434 8.052a.715.715 0 0 1-.578-.292 3.879 3.879 0 0 0-3.636-1.706 7.2 7.2 0 0 1-4.7-1.069.717.717 0 0 1 .772-1.207 5.778 5.778 0 0 0 3.78.851 5.33 5.33 0 0 1 4.939 2.281.717.717 0 0 1-.577 1.141z" transform="translate(855.568 2186.686)" style="fill:#a1d89c"/>
                    </g>
                    <g data-name="Group 2373">
                        <path data-name="Path 2789" d="M11.77 11.245a.717.717 0 0 1-.61-1.092 7.056 7.056 0 0 1 4.867-2.973 12.993 12.993 0 0 1 3.1-.234.717.717 0 0 1-.1 1.43c-.05 0-4.915-.292-6.646 2.528a.716.716 0 0 1-.611.342z" transform="translate(855.73 2187.297)" style="fill:#a1d89c"/>
                    </g>
                </g>
                <g data-name="Group 2378">
                    <g data-name="Group 2377">
                        <g data-name="Union 9" style="fill:#c8efc5">
                            <path d="M-10318.98-5317.5h-9.555c-2.372 0-4.594-.74-6.424-2.144-1.8-1.38-3.128-3.319-3.84-5.608-.49-1.58-.672-3.27-.538-5.026.143-1.874.643-3.78 1.486-5.662.913-2.037 2.222-4.034 3.893-5.935 1.813-2.064 4.062-4.024 6.685-5.827l.062-.043h.001l.003-.003c.139-.094.278-.189.419-.283l.013-.008.002-.002.085-.058.141-.093.066-.042.445-.294-.322-.426c-.011-.015-1.15-1.526-2.109-3.221-1.674-2.96-1.314-3.817-1.165-4.01l.009-.01c.057.02.142.063.209.096.28.14.663.33 1.19.33.707 0 1.086-.248 1.391-.447.251-.165.433-.284.842-.284s.59.119.843.284c.273.179.613.402 1.2.442l.534.035v-.051c.495-.064.797-.262 1.048-.426.25-.165.432-.284.842-.284.407 0 .588.119.84.283.304.2.684.448 1.393.448.524 0 .905-.187 1.184-.323.067-.033.153-.075.21-.096a.132.132 0 0 1 .01.012c.15.194.505 1.055-1.202 4.014a33.145 33.145 0 0 1-2.139 3.205l-.328.427.45.296c2.775 1.824 5.162 3.815 7.094 5.917 1.779 1.934 3.18 3.97 4.167 6.051.911 1.921 1.464 3.868 1.644 5.785.169 1.793.009 3.521-.475 5.136-1.426 4.766-5.47 7.845-10.303 7.845z" style="stroke:none" transform="translate(11203.758 7543)"/>
                            <path d="M-10318.98-5318c4.608 0 8.463-2.939 9.825-7.488.466-1.554.619-3.218.457-4.947-.175-1.858-.713-3.749-1.599-5.617-.965-2.035-2.339-4.03-4.083-5.927-1.904-2.072-4.26-4.036-7-5.837l-.901-.592.658-.854c.01-.014 1.12-1.46 2.073-3.102.993-1.712 1.244-2.645 1.29-3.11a2.737 2.737 0 0 1-1.031.205c-.858 0-1.346-.318-1.668-.53-.23-.15-.308-.201-.565-.201-.26 0-.337.05-.569.202-.196.129-.454.298-.821.41v.184l-1.067-.072c-.718-.048-1.154-.333-1.442-.522-.23-.152-.308-.202-.568-.202-.26 0-.337.05-.568.202-.322.21-.808.53-1.665.53a2.72 2.72 0 0 1-1.039-.21c.043.464.286 1.394 1.254 3.098a32.447 32.447 0 0 0 2.05 3.125l.644.85-.956.631c-.047.03-.094.061-.136.09l-.077.052-.026.017c-.14.093-.277.186-.414.28l-.008.005-.053.037-.005.003c-2.588 1.78-4.806 3.712-6.592 5.745-1.638 1.863-2.92 3.818-3.813 5.81-.819 1.83-1.305 3.678-1.443 5.494-.129 1.693.045 3.321.517 4.84.68 2.19 1.948 4.044 3.666 5.36 1.742 1.336 3.858 2.041 6.12 2.041h9.556m0 1h-9.556c-11.884 0-18.448-17.757.978-31.114l.068-.046c.14-.096.281-.192.424-.287l.006-.005c.032-.02.062-.04.092-.061l.21-.139s-4.62-6.105-3.27-7.84c.464-.596.853.224 1.803.223 1.117 0 1.117-.731 2.233-.731 1.062 0 1.114.662 2.077.727v-.003c.05.003.102.007.156.007 1.117 0 1.117-.731 2.234-.731 1.114 0 1.114.731 2.233.731.694 0 1.089-.432 1.43-.432.128 0 .246.059.37.22 1.347 1.745-3.34 7.83-3.34 7.83 20.47 13.456 13.932 31.651 1.852 31.651z" style="fill:#a0d89b;stroke:none" transform="translate(11203.758 7543)"/>
                        </g>
                        <g data-name="Group 2376">
                            <path data-name="Path 2792" d="M26.866 9.394a16.309 16.309 0 0 1-8.14 0 1.738 1.738 0 0 1-1.145-2.275l.011-.033a1.6 1.6 0 0 1 1.893-1.069 13.252 13.252 0 0 0 6.62 0A1.6 1.6 0 0 1 28 7.086l.011.033a1.738 1.738 0 0 1-1.145 2.275z" transform="translate(856.933 2187.117)" style="fill:#a1d89c"/>
                        </g>
                    </g>
                </g>
            </g>
        </g>
        <path data-name="Path 2799" d="M24.381 19.98c-.328-.116-.63-.227-.909-.334v-4.569a2.944 2.944 0 0 1 1.394.612.717.717 0 0 0 .968-1.057 4.437 4.437 0 0 0-2.361-1v-1.021a.717.717 0 0 0-1.433 0v1.077a5.3 5.3 0 0 0-.532.13 3.465 3.465 0 0 0-2.371 2.72 3.03 3.03 0 0 0 .985 2.987 8.682 8.682 0 0 0 1.918 1.084v5.667a3.8 3.8 0 0 1-2.23-.776.717.717 0 0 0-.784 1.2 5.248 5.248 0 0 0 3.013 1.006v1.137a.717.717 0 0 0 1.433 0v-1.185a4.2 4.2 0 0 0 3.441-3.473 3.675 3.675 0 0 0-2.532-4.2zm-3.376-1.58a1.615 1.615 0 0 1-.461-1.594 2.05 2.05 0 0 1 1.376-1.613l.118-.033v3.871a6.039 6.039 0 0 1-1.033-.631zm4.495 5.547a2.791 2.791 0 0 1-2.027 2.246v-5.017c.139.051.282.1.431.155a2.255 2.255 0 0 1 1.6 2.615z" transform="translate(857.161 2188.226)" style="fill:#047600"/>
    </g>
</svg>
