<svg xmlns="http://www.w3.org/2000/svg" width="41" height="40.5" viewBox="0 0 41 40.5">
    <g data-name="email (2)">
        <path data-name="Union 8" d="M-6282.521-4396.956a3.5 3.5 0 0 1-2.461-1.018 3.5 3.5 0 0 1-1.018-2.461v-24.347l5.217-5.219v8.62l11.548 7.528 3.236 2.112 3.234-2.112 11.548-7.53V-4430l5.217 5.219v24.347a3.5 3.5 0 0 1-1.018 2.461 3.5 3.5 0 0 1-2.461 1.018z" transform="translate(6286.5 4436.957)" style="fill:#c8efc5;stroke:#a0d89b"/>
        <path data-name="Path 2736" d="M34.783 15.652 20 25.218 5.217 15.652V.87A.851.851 0 0 1 6.05 0h27.863a.851.851 0 0 1 .87.833V.87z" style="fill:#047600" transform="translate(.5)"/>
    </g>
</svg>
