<svg xmlns="http://www.w3.org/2000/svg" width="13" height="13" viewBox="0 0 13 13">
    <defs>
        <clipPath id="srbst34fha">
            <path data-name="Rectangle 11" transform="translate(288 296)" style="fill:#fff;stroke:#707070" d="M0 0h13v13H0z"/>
        </clipPath>
    </defs>
    <g data-name="Mask Group 1" transform="translate(-288 -296)" style="clip-path:url(#srbst34fha)">
        <path data-name="expressjs-icon (2)" d="M301.368 306.361a.852.852 0 0 1-1.057-.4l-1.919-2.655-.277-.368-2.242 3.035a.817.817 0 0 1-1 .394l2.87-3.853-2.674-3.482a.888.888 0 0 1 1.059.368l1.991 2.688 2.005-2.674a.8.8 0 0 1 .994-.369l-1.036 1.374-1.4 1.828a.379.379 0 0 0 .01.554zM288 302.447l.238-1.154a3.219 3.219 0 0 1 5.062-1.82 3.711 3.711 0 0 1 1.269 3.318h-5.951c-.089 2.369 1.615 3.8 3.789 3.069a2.253 2.253 0 0 0 1.436-1.6c.114-.374.3-.433.655-.326a3 3 0 0 1-1.441 2.2 3.492 3.492 0 0 1-4.067-.518 3.616 3.616 0 0 1-.915-2.135c-.017-.132-.05-.258-.075-.385v-.648zm.626-.159h5.38a2.715 2.715 0 0 0-2.559-2.94 2.8 2.8 0 0 0-2.818 2.941z"/>
    </g>
</svg>
