<svg xmlns="http://www.w3.org/2000/svg" width="24" height="24" viewBox="0 0 24 24">
    <defs>
        <clipPath id="dpmaxndl3a">
            <path data-name="Rectangle 4437" transform="translate(713 395)" style="fill:#fff;stroke:#707070" d="M0 0h24v24H0z"/>
        </clipPath>
    </defs>
    <g data-name="Mask Group 298" transform="translate(-713 -395)" style="clip-path:url(#dpmaxndl3a)">
        <path data-name="Path 2572" d="M31.587 15.714a2.571 2.571 0 1 0 0-1.714h-1.016V6.286h1.015a2.571 2.571 0 1 0 0-1.714h-1.872a.857.857 0 0 0-.857.857V14h-1.714v1.714h1.714v8.571a.857.857 0 0 0 .857.857h1.872a2.571 2.571 0 1 0 0-1.714h-1.015v-7.714z" transform="translate(700.429 392.143)" style="fill:#047600"/>
        <g data-name="Union 3" style="fill:#c8efc5">
            <path d="M7.786 12.943V6.604l5.428-2.413v6.095a.356.356 0 0 1-.216.328l-.003.001-.004.002-5.205 2.326zm-1.857 0L.724 10.617l-.004-.002-.004-.001a.356.356 0 0 1-.216-.328V4.191l5.429 2.413v6.34zm.929-7.959L1.697 2.69 6.717.53a.346.346 0 0 1 .279-.002l5.022 2.162-5.16 2.294z" style="stroke:none" transform="translate(713 400.143)"/>
            <path d="M6.858 1.013 2.944 2.698l3.914 1.74 3.913-1.74-3.913-1.685M1 4.96v5.233l4.429 1.98V6.928L.999 4.96m11.715 0L8.286 6.93v5.243l4.428-1.979V4.96M6.857 0c.115 0 .23.023.338.07 0 0 6.045 2.6 6.07 2.614L6.857 5.53.45 2.684C.475 2.67 6.52.07 6.52.07A.845.845 0 0 1 6.856 0zM.001 3.422 6.43 6.279v7.435l-5.91-2.64a.857.857 0 0 1-.52-.788V3.428l.002-.006zm13.712 0 .001.006v6.858a.856.856 0 0 1-.519.787l-5.909 2.641V6.28l6.427-2.857z" style="fill:#a0d89b;stroke:none" transform="translate(713 400.143)"/>
        </g>
    </g>
</svg>
