<svg xmlns="http://www.w3.org/2000/svg" width="24" height="24" viewBox="0 0 24 24">
    <g data-name="Group 2454">
        <g data-name="Group 2308">
            <path data-name="Path 2600" d="M20.834 23.283h-11.3a2.331 2.331 0 0 1-2.314-2.314V9.668a2.331 2.331 0 0 1 2.314-2.314h11.3a2.331 2.331 0 0 1 2.314 2.314v11.3a2.331 2.331 0 0 1-2.314 2.315z" transform="translate(-3.157 -3.305)" style="fill:#c8efc5"/>
            <path data-name="Path 2601" d="M20.493 23.453h-11.3a2.825 2.825 0 0 1-2.825-2.825V9.327A2.825 2.825 0 0 1 9.193 6.5h11.3a2.825 2.825 0 0 1 2.825 2.825v11.3a2.86 2.86 0 0 1-2.825 2.828zM9.166 7.5a1.831 1.831 0 0 0-1.83 1.83v11.3a1.831 1.831 0 0 0 1.83 1.83h11.3a1.831 1.831 0 0 0 1.83-1.83V9.327a1.831 1.831 0 0 0-1.83-1.83z" transform="translate(-2.816 -2.964)" style="fill:#c8efc5"/>
        </g>
        <g data-name="Group 2309">
            <path data-name="Path 2602" d="M1.973 8.96a.666.666 0 0 1-.673-.673V3.525A2.044 2.044 0 0 1 3.345 1.48h5.112a.666.666 0 0 1 .673.673.644.644 0 0 1-.646.673H3.372a.7.7 0 0 0-.7.7v4.761a.708.708 0 0 1-.699.673z" transform="translate(-.788 -.955)" style="stroke:#a0d89b;fill:#c8efc5"/>
            <path data-name="Path 2603" d="M8.5 35.067H3.39a2.044 2.044 0 0 1-2.045-2.045v-4.278a.673.673 0 0 1 1.345 0v4.278a.712.712 0 0 0 .7.7H8.5a.673.673 0 0 1 0 1.345z" transform="translate(-.806 -11.592)" style="stroke:#a0d89b;fill:#c8efc5"/>
            <path data-name="Path 2604" d="M32.43 34.906h-4.9a.673.673 0 0 1 0-1.345h4.924a.712.712 0 0 0 .7-.7v-4.52a.673.673 0 1 1 1.345 0v4.52a2.067 2.067 0 0 1-2.069 2.045z" transform="translate(-11.013 -11.43)" style="stroke:#a0d89b;fill:#c8efc5"/>
            <path data-name="Path 2605" d="M33.83 8.96a.666.666 0 0 1-.673-.673V3.525a.712.712 0 0 0-.7-.7h-4.923a.673.673 0 0 1 0-1.345h4.924A2.044 2.044 0 0 1 34.5 3.525v4.762a.7.7 0 0 1-.67.673z" transform="translate(-11.013 -.955)" style="stroke:#a0d89b;fill:#c8efc5"/>
        </g>
        <path data-name="Path 2606" d="M23.776 20.807H1.121a.673.673 0 1 1 0-1.345h22.655a.673.673 0 1 1 0 1.345z" transform="translate(-.448 -8.148)" style="fill:#047600"/>
    </g>
</svg>
