<svg xmlns="http://www.w3.org/2000/svg" width="24" height="24" viewBox="0 0 24 24">
    <g data-name="Group 2453">
        <g data-name="Group 2306">
            <g data-name="Group 2305">
                <path data-name="Path 2579" d="m.444 8.475 10.542 6.708a.96.96 0 0 0 1.029 0l10.541-6.708a.958.958 0 0 0 0-1.617L12.015.15a.961.961 0 0 0-1.029 0L.444 6.859a.958.958 0 0 0 0 1.617z" transform="translate(.5 .5)" style="fill:#047600"/>
                <path data-name="Path 2580" d="m22.557 23.864-2.968-1.889-6.545 4.165a2.874 2.874 0 0 1-3.085 0l-6.547-4.165-2.968 1.889a.958.958 0 0 0 0 1.617l10.542 6.709a.96.96 0 0 0 1.029 0l10.542-6.709a.958.958 0 0 0 0-1.617z" transform="translate(.5 -8.839)" style="fill:#c8efc5;stroke:#a0d89b"/>
            </g>
        </g>
    </g>
</svg>
