<svg xmlns="http://www.w3.org/2000/svg" width="24" height="24.1" viewBox="0 0 24 24.1">
    <g transform="translate(1.85)" data-name="Group 2457">
        <path data-name="Path 2609" d="M12.947 21.764A7.459 7.459 0 0 0 17 20.607a2.283 2.283 0 0 1 2.77.23 10.138 10.138 0 0 1 3.33 7.533v1.23a2.3 2.3 0 0 1-2.3 2.3H5.1a2.3 2.3 0 0 1-2.3-2.3v-1.23a10.107 10.107 0 0 1 3.32-7.528 2.284 2.284 0 0 1 2.77-.23 7.511 7.511 0 0 0 4.057 1.152z" transform="translate(-2.797 -8.3)" style="fill:#c8efc5;stroke:#a0d89b"/>
        <circle data-name="Ellipse 387" cx="5.706" cy="5.706" r="5.706" transform="translate(4.443)" style="fill:#047600"/>
    </g>
</svg>
