<svg xmlns="http://www.w3.org/2000/svg" width="24.032" height="24" viewBox="0 0 24.032 24">
    <g data-name="Group 2455">
        <g data-name="Group 2352">
            <path d="M22.862 27.786 21.083 24.7a.36.36 0 0 0-.311-.18H2.239a.36.36 0 0 0-.311.18L.147 27.786a1.065 1.065 0 0 0 .922 1.6h20.872a1.065 1.065 0 0 0 .922-1.6zm-19.274-4.88h15.834a.359.359 0 0 0 .311-.539l-2.243-3.886a.359.359 0 0 0-.311-.18H5.831a.359.359 0 0 0-.311.18l-2.244 3.886a.359.359 0 0 0 .311.539z" transform="translate(.511 -6.582)" style="fill-rule:evenodd;fill:#c8efc5;stroke:#a0d89b"/>
            <path data-name="pyramid" d="M12.218 9.941h8.65a.359.359 0 0 0 .311-.539l-3.715-6.434a1.064 1.064 0 0 0-1.844 0L11.906 9.4a.359.359 0 0 0 .311.539z" transform="translate(-4.527 -1.237)" style="fill:#047600;fill-rule:evenodd"/>
        </g>
    </g>
</svg>
