<svg xmlns="http://www.w3.org/2000/svg" width="24" height="24" viewBox="0 0 24 24">
    <g data-name="Group 2452">
        <g data-name="Rectangle 4869" style="stroke:#707070;opacity:.003;fill:#fff">
            <path style="stroke:none" d="M0 0h24v24H0z"/>
            <path style="fill:none" d="M.5.5h23v23H.5z"/>
        </g>
        <path data-name="Path 2581" d="M6.035 24.189v2.7a.674.674 0 1 1-1.348 0v-2.7a.674.674 0 1 1 1.348 0zm0 0" transform="translate(-1.492 -9.494)" style="fill:#047600"/>
        <path data-name="Path 2583" d="M6.035 10.049v2.74a.674.674 0 0 1-1.348 0v-2.74a.674.674 0 0 1 1.348 0zm0 0" transform="translate(-1.492 -3.484)" style="fill:#047600"/>
        <path data-name="Path 2585" d="m5.664 15.4-2.4-1.2a.61.61 0 0 0-.528 0l-2.4 1.2a.614.614 0 0 0-.336.54v2.4a.614.614 0 0 0 .336.54l2.4 1.2a.61.61 0 0 0 .528 0l2.4-1.2A.614.614 0 0 0 6 18.341v-2.4a.614.614 0 0 0-.336-.541zm0 0" transform="translate(.87 -5.141)" style="fill:#c8efc5;stroke:#a0d89b"/>
        <path data-name="Path 2587" d="m5.664 1.26-2.4-1.2a.61.61 0 0 0-.528 0l-2.4 1.2A.614.614 0 0 0 0 1.8v2.4a.614.614 0 0 0 .336.54l2.4 1.2a.61.61 0 0 0 .528 0l2.4-1.2A.614.614 0 0 0 6 4.2V1.8a.614.614 0 0 0-.336-.54zm0 0" transform="translate(.87 .501)" style="fill:#c8efc5;stroke:#a0d89b"/>
        <path data-name="Path 2589" d="m5.664 29.455-2.4-1.192a.614.614 0 0 0-.528 0l-2.4 1.192a.61.61 0 0 0-.336.536v2.424a.61.61 0 0 0 .336.536l2.4 1.192a.614.614 0 0 0 .528 0l2.4-1.192A.61.61 0 0 0 6 32.415v-2.424a.61.61 0 0 0-.336-.536zm0 0" transform="translate(.87 -10.703)" style="fill:#c8efc5;stroke:#a0d89b"/>
        <g data-name="Group 2307">
            <path data-name="Path 2591" d="M28.776 3.691H14.759a.674.674 0 1 1 0-1.348h14.017a.674.674 0 1 1 0 1.348zm0 0" transform="translate(-5.476 -.496)" style="fill:#047600"/>
            <path data-name="Path 2592" d="M21.767 8.379h-7.008a.674.674 0 1 1 0-1.348h7.009a.674.674 0 1 1 0 1.348zm0 0" transform="translate(-5.476 -2.488)" style="fill:#047600"/>
            <path data-name="Path 2593" d="M21.767 22.52h-7.008a.674.674 0 1 1 0-1.348h7.009a.674.674 0 1 1 0 1.348zm0 0" transform="translate(-5.476 -8.498)" style="fill:#047600"/>
            <path data-name="Path 2594" d="M21.767 36.582h-7.008a.674.674 0 1 1 0-1.348h7.009a.674.674 0 1 1 0 1.348zm0 0" transform="translate(-5.476 -14.475)" style="fill:#047600"/>
            <path data-name="Path 2595" d="M28.776 17.832H14.759a.674.674 0 1 1 0-1.348h14.017a.674.674 0 1 1 0 1.348zm0 0" transform="translate(-5.476 -6.506)" style="fill:#047600"/>
            <path data-name="Path 2596" d="M28.776 31.895H14.759a.674.674 0 1 1 0-1.348h14.017a.674.674 0 1 1 0 1.348zm0 0" transform="translate(-5.476 -12.482)" style="fill:#047600"/>
        </g>
        <path data-name="Path 2597" d="M6.287 5.488a.8.8 0 1 1-.8-.8.792.792 0 0 1 .8.8zm0 0" transform="translate(-1.588 -1.948)" style="fill:#fff"/>
        <path data-name="Path 2598" d="M6.287 19.628a.8.8 0 1 1-.8-.8.792.792 0 0 1 .8.8zm0 0" transform="translate(-1.618 -7.628)" style="fill:#fff"/>
        <path data-name="Path 2599" d="M6.287 33.691a.8.8 0 1 1-.8-.8.792.792 0 0 1 .8.8zm0 0" transform="translate(-1.618 -13.191)" style="fill:#fff"/>
    </g>
</svg>
