<svg xmlns="http://www.w3.org/2000/svg" width="24" height="24.111" viewBox="0 0 24 24.111">
    <g data-name="Group 2449">
        <path data-name="Path 2553" d="M15.286 23.04a.673.673 0 0 1-.477-.2l-1.692-1.692-1.692 1.692a.675.675 0 0 1-.955 0l-1.691-1.689-1.692 1.691a.675.675 0 0 1-.955 0l-2.169-2.169a.675.675 0 0 1-.2-.477V2.844a.675.675 0 0 1 .2-.477L6.132.2a.675.675 0 0 1 .955 0l1.692 1.689L10.47.2a.675.675 0 0 1 .955 0l1.692 1.692L14.808.2a.675.675 0 0 1 .955 0l1.692 1.692L19.146.2a.675.675 0 0 1 .954 0l2.17 2.167a.675.675 0 0 1 .2.477v17.34a.675.675 0 0 1-.2.476l-2.17 2.181a.675.675 0 0 1-.478.2.675.675 0 0 1-.477-.2l-1.692-1.692-1.692 1.692a.673.673 0 0 1-.477.2z" transform="translate(-1.117 .571)" style="fill:#c8efc5;stroke:#a0d89b"/>
        <path data-name="Path 2555" d="M20.768 17.6c0-1.31-1.953-1.708-3.321-2.05a8.173 8.173 0 0 1-2.322-.815c.041-.787 1.2-1.415 2.162-1.415a2.63 2.63 0 0 1 1.868.67.659.659 0 1 0 .974-.887 3.8 3.8 0 0 0-2.184-1.053v-.094a.659.659 0 0 0-1.317 0v.1a3.123 3.123 0 0 0-2.822 2.72c0 1.31 1.953 1.708 3.321 2.05a8.173 8.173 0 0 1 2.322.815c-.041.787-1.2 1.415-2.162 1.415a2.63 2.63 0 0 1-1.868-.67.659.659 0 1 0-.974.887 3.8 3.8 0 0 0 2.184 1.053v.094a.659.659 0 0 0 1.317 0v-.1a3.123 3.123 0 0 0 2.822-2.72z" transform="translate(-5.288 -4.097)" style="fill:#047600"/>
        <g data-name="Group 2292">
            <path data-name="Path 2556" d="m20.16 18.833-.16-.039v1.356a7.109 7.109 0 0 1 2.162.776c-.041.787-1.2 1.415-2.162 1.415v2.023a.659.659 0 0 0 .659-.659v-.1a3.123 3.123 0 0 0 2.822-2.72c0-1.31-1.953-1.708-3.321-2.05z" transform="translate(-7.947 -7.381)" style="fill:#047600"/>
            <path data-name="Path 2557" d="M21.868 13.99a.659.659 0 1 0 .974-.887 3.8 3.8 0 0 0-2.184-1.053v-.094A.659.659 0 0 0 20 11.3v2.02a2.63 2.63 0 0 1 1.868.67z" transform="translate(-7.947 -4.097)" style="fill:#047600"/>
        </g>
    </g>
</svg>
