<svg xmlns="http://www.w3.org/2000/svg" width="20" height="14" viewBox="0 0 20 14">
    <defs>
        <clipPath id="m7lz7s1qma">
            <rect data-name="Rectangle 4918" width="20" height="14" rx="1" transform="translate(80 728)" style="stroke:#707070;fill:#fff"/>
        </clipPath>
    </defs>
    <g data-name="Mask Group 398" transform="translate(-80 -728)" style="clip-path:url(#m7lz7s1qma)">
        <path data-name="Path 3064" d="M0 0h20v14H0z" style="fill:#d50032" transform="translate(80 728)"/>
        <path data-name="Path 3065" d="M0 0h13.6v14H0z" style="fill:#fedd00" transform="translate(80 728)"/>
        <path data-name="Path 3066" d="M0 0h6.4v14H0z" style="fill:#10069f" transform="translate(80 728)"/>
        <path data-name="Path 3067" d="M9.387 3.77c.241 0 .34.207.581.207a.669.669 0 0 0 .365-.122.449.449 0 0 1 .252-.079.23.23 0 0 1 .226.123.353.353 0 0 1 .043.211 1.25 1.25 0 0 1-.085.259.3.3 0 0 0-.041.131c0 .128.174.172.292.174a.549.549 0 0 0 .376-.131.155.155 0 0 1-.153-.132.17.17 0 0 1 .136-.161c.015 0 .04.009.054 0s.01-.031.027-.045a.164.164 0 0 1 .114-.05.115.115 0 0 1 .078.023c.014.01.019.022.036.022.036 0 .053-.023.089-.023a.138.138 0 0 1 .072.017c.021.011.021.047.045.047A.833.833 0 0 1 12 4.217a.176.176 0 0 1 .15.077c.012.014.02.043.032.043a.194.194 0 0 1 .117.051.2.2 0 0 1 .034.041c.008.013.021.045.035.051a.2.2 0 0 1 .053.019.186.186 0 0 1 .088.152.318.318 0 0 1-.015.066c-.059.206-.2.271-.34.448a.355.355 0 0 0-.108.232.231.231 0 0 0 .041.085c-.008-.045.013-.1.061-.1a.122.122 0 0 1 .125.111.141.141 0 0 1-.01.057.3.3 0 0 1 .124-.044.388.388 0 0 1 .06 0 .514.514 0 0 1 .291.121.657.657 0 0 1 .229.524.555.555 0 0 1-.431.582.187.187 0 0 1 .131.164.142.142 0 0 1-.139.146.137.137 0 0 1-.106-.043.375.375 0 0 0-.1.3.386.386 0 0 0 .045.185.413.413 0 0 0 .116.164.144.144 0 0 1 .122-.082.123.123 0 0 1 .124.068c.007.015 0 .028.008.042s.027.023.037.042 0 .054.014.085.028.023.037.042a.183.183 0 0 1 .017.085.171.171 0 0 1-.18.161.627.627 0 0 0-.072-.008.778.778 0 0 1 .136.141.554.554 0 0 1 .088.269.386.386 0 0 1 0 .054.683.683 0 0 1-.085.351.627.627 0 0 1-.221.266 1.089 1.089 0 0 1-.5.2 2.323 2.323 0 0 1-.342.045l-.441.023a.734.734 0 0 0-.54.206.242.242 0 0 1 .127.2.2.2 0 0 1-.15.194c-.021.007-.037 0-.057.011s-.023.04-.045.054a.194.194 0 0 1-.119.031.253.253 0 0 1-.2-.079c-.069.057-.092.109-.17.153-.025.014-.039.034-.068.034-.046 0-.068-.029-.1-.057a.718.718 0 0 1-.139-.127.346.346 0 0 1-.2.076.2.2 0 0 1-.124-.034c-.022-.014-.026-.034-.048-.048s-.043-.009-.068-.02a.227.227 0 0 1-.155-.213.2.2 0 0 1 .139-.185.717.717 0 0 0-.532-.2L8.337 9.4a3.085 3.085 0 0 1-.345-.045.832.832 0 0 1-.254-.065.857.857 0 0 1-.565-.7.57.57 0 0 1 0-.078.55.55 0 0 1 .2-.423c-.033-.008-.055 0-.088-.008a.183.183 0 0 1-.139-.171.143.143 0 0 1 .017-.081c.011-.019.032-.023.037-.045s0-.049.011-.076.025-.022.034-.04c.028-.058.063-.1.127-.1a.132.132 0 0 1 .119.076c.054-.025.069-.065.1-.116a.416.416 0 0 0 .073-.242.477.477 0 0 0-.028-.174A.242.242 0 0 0 7.577 7a.137.137 0 0 1-.107.042.163.163 0 0 1-.158-.167.15.15 0 0 1 .088-.149.966.966 0 0 0-.144-.079.521.521 0 0 1-.156-.186.473.473 0 0 1-.062-.15A.587.587 0 0 1 7 6.119a.35.35 0 0 1 0-.051.651.651 0 0 1 .144-.37.513.513 0 0 1 .375-.206.433.433 0 0 1 .061 0 .215.215 0 0 1 .09.025c.012.007.034.027.034.013S7.7 5.507 7.7 5.491a.119.119 0 0 1 .112-.124c.047 0 .066.041.089.082a.122.122 0 0 0 .023-.071c0-.107-.058-.162-.124-.246-.146-.182-.328-.267-.328-.5a.168.168 0 0 1 .093-.153c.017-.01.041 0 .058-.011s.013-.028.022-.043a.208.208 0 0 1 .047-.05c.033-.029.062-.02.1-.046.018-.013.023-.029.037-.046a.166.166 0 0 1 .142-.073.185.185 0 0 1 .081.012c.01 0 .029.019.032.016a.147.147 0 0 1 .042-.038.127.127 0 0 1 .069-.018c.035 0 .057.019.092.019.013 0 .016-.013.026-.019a.133.133 0 0 1 .087-.031.143.143 0 0 1 .086.031c.029.018.033.042.062.059s.03.005.048.011a.178.178 0 0 1 .141.165.13.13 0 0 1-.045.109c-.027.024-.053.02-.088.031a.5.5 0 0 0 .354.112c.131 0 .292-.054.292-.185 0-.061-.034-.094-.058-.15a.585.585 0 0 1-.067-.268.307.307 0 0 1 .06-.209.218.218 0 0 1 .2-.089z" style="fill:#c6aa76" transform="translate(80 728)"/>
        <g data-name="Group 13839">
            <path data-name="Path 3068" d="M8.512 4.469a.111.111 0 0 0 .076.076.118.118 0 0 0 .12-.044.138.138 0 0 0 .017-.126.146.146 0 0 0-.054-.069l-.159.161z" style="stroke-width:.021px;stroke-linejoin:round;stroke:#713f2a;fill:none" transform="translate(80 728)"/>
            <path data-name="Path 3069" d="M12.532 6.879a.072.072 0 0 0-.14 0 .119.119 0 0 0 .158.131.124.124 0 0 0 .078-.061.151.151 0 0 0 .012-.116.168.168 0 0 0-.066-.089.183.183 0 0 0-.1-.019c-.174 0-.327.206-.378.42a.921.921 0 0 0-.008.376.7.7 0 0 0 .183.352.784.784 0 0 0 .18.129.775.775 0 0 0 .13.054.248.248 0 0 0 .123 0 .142.142 0 0 0 .1-.217.129.129 0 0 0-.227-.022.1.1 0 0 0-.013.048.093.093 0 0 0 .031.073c.045.029.117.02.113-.059" style="stroke-width:.021px;stroke-linecap:round;stroke:#713f2a;fill:none" transform="translate(80 728)"/>
            <path data-name="Path 3070" d="M11.994 8.061a.353.353 0 0 1 .207-.114.418.418 0 0 1 .257.06.579.579 0 0 1 .311.353.538.538 0 0 1 .026.18.786.786 0 0 1-.062.294.778.778 0 0 1-.479.437 2.643 2.643 0 0 1-.8.122c-.325.013-.625.025-.8.239" style="stroke-width:.026px;stroke:#713f2a;fill:none" transform="translate(80 728)"/>
            <g data-name="Group 13838">
                <path data-name="Path 3071" d="M12.075 8.429a.117.117 0 0 1 .026-.1.141.141 0 0 1 .183-.028.232.232 0 0 1 .079.065l.036.05a.387.387 0 0 1 .034.078.483.483 0 0 1-.205.55 1.119 1.119 0 0 1-.449.127c-.08.009-.125.009-.205.012h-.299a2.209 2.209 0 0 0-.225 0c-.091.007-.159.009-.236.022-.05.008-.109.016-.171.03-.019 0-.037.008-.056.013l-.038.012a1.246 1.246 0 0 0-.305.13.546.546 0 0 0-.078.054l-.042.038a.4.4 0 0 0-.135.209.309.309 0 0 0 0 .05c0 .056.046.132.168.157m.173-5.316a.138.138 0 0 1 .025.123.112.112 0 0 1-.11.087.166.166 0 0 1-.142-.241c.1-.166.291-.073.468.009a.349.349 0 0 1-.022-.109c0-.131.1-.191.14-.312.023-.072.032-.135-.021-.186a.137.137 0 0 0-.16-.02 1.168 1.168 0 0 1-.519.187 1.174 1.174 0 0 1-.521-.187.137.137 0 0 0-.16.02c-.053.051-.044.114-.021.186.039.121.136.181.14.312a.35.35 0 0 1-.022.109c.177-.082.376-.184.468-.009a.167.167 0 0 1-.142.241.114.114 0 0 1-.11-.087.134.134 0 0 1 .025-.123" style="stroke-width:.022px;stroke:#713f2a;fill:none" transform="translate(80 728)"/>
                <path data-name="Path 3072" d="M9.83 4.5a.167.167 0 0 1 .076.155.15.15 0 0 1-.088.141m.075-.119a.1.1 0 0 1-.071.1" style="stroke-width:.022px;stroke-linecap:round;stroke:#713f2a;fill:none" transform="translate(80 728)"/>
            </g>
        </g>
        <path data-name="Path 3073" d="m8.648 4.29.022.016.023.025.016.031.008.026v.057l-.008.026-.016.019-.019.02-.026.014-.034.008h-.03l-.031-.014-.028-.018-.017-.025-.008-.028v-.013l.152-.145z" style="fill:#c6aa76" transform="translate(80 728)"/>
        <g data-name="Group 13842">
            <path data-name="Path 3074" d="M8.6 4.411a.055.055 0 0 0-.093-.032.1.1 0 0 0 .064.148.118.118 0 0 0 .12-.044.136.136 0 0 0-.033-.183h-.006a.174.174 0 0 0-.267.059c-.058.14.068.246.185.325a.76.76 0 0 0 .44.117 1.324 1.324 0 0 0 .645-.218.066.066 0 0 1 .084.006.062.062 0 0 1-.008.086" style="stroke-linecap:round;stroke-width:.021px;stroke:#713f2a;fill:none" transform="translate(80 728)"/>
            <path data-name="Path 3075" d="m7.752 8.287-.064.023-.065.05-.028.04-.036.062-.016.047-.012.058-.006.044m.594-.316v.056l-.019.037-.028.067-.044.058-.047.037-.034.017-.047.011" style="stroke-width:.021px;stroke:#713f2a;fill:none" transform="translate(80 728)"/>
            <path data-name="Path 3076" d="M9.992 9.785a.192.192 0 0 1-.166.132h-.02" style="stroke-width:.024px;stroke:#713f2a;fill:none" transform="translate(80 728)"/>
            <path data-name="Path 3077" d="M12.632 8.131a.569.569 0 0 1 .15.242.538.538 0 0 1 .026.18.786.786 0 0 1-.062.294.778.778 0 0 1-.479.437 2.642 2.642 0 0 1-.8.122 1.039 1.039 0 0 0-.792.23" style="stroke-width:.027px;stroke:#713f2a;fill:none" transform="translate(80 728)"/>
            <path data-name="Path 3078" d="M12.109 8.339a.156.156 0 0 1 .18-.035.194.194 0 0 1 .074.065" style="stroke-width:.019px;stroke:#713f2a;fill:none" transform="translate(80 728)"/>
            <path data-name="Path 3079" d="m12.55 8.056.045.015a.219.219 0 0 0 .123 0 .15.15 0 0 0 .1-.217.177.177 0 0 0-.054-.067" style="stroke-width:.027px;stroke:#713f2a;fill:none" transform="translate(80 728)"/>
            <path data-name="Path 3080" d="M7.509 5.743a.511.511 0 0 0-.15.1.879.879 0 0 0-.082.213m1.441-1.617a.1.1 0 0 1-.093.1" style="stroke-linecap:round;stroke-width:.021px;stroke:#713f2a;fill:none" transform="translate(80 728)"/>
            <path data-name="Path 3081" d="M12.41 5.5a.592.592 0 0 1 .58.618.539.539 0 0 1-.432.613" style="stroke-width:.02px;stroke:#713f2a;fill:none" transform="translate(80 728)"/>
            <path data-name="Path 3082" d="M12.449 5.5c.255-.011.518.177.529.645a.553.553 0 0 1-.375.565" style="stroke-width:.021px;stroke:#713f2a;fill:none" transform="translate(80 728)"/>
            <path data-name="Path 3083" d="M12.307 7.263v-.05l.017-.079.024-.062.026-.051.034-.041m.243-.106v.049l-.014.033-.022.032-.025.019-.038.014h-.058m-.447-1.65.011-.053.023-.049.03-.049.052-.067.037-.053.067-.068.058-.058.037-.042.048-.058.043-.065.026-.053.014-.068v-.085l-.008-.025m-.384 4.005.051-.01.038-.02.021-.021.015-.024.01-.039v-.022M7.3 8.068H7.385l.048-.017m.156-1.142-.006.044-.01.019-.015.019L7.537 7l-.023.01h-.05m.309-.488-.009.078-.013.03-.027.037-.037.033-.037.019-.072.018m.477-1.247-.014.04-.017.03L8 5.592l-.033.03-.039.019-.028.007h-.02m.012-.194v.031" style="stroke-width:.018px;stroke:#713f2a;fill:none" transform="translate(80 728)"/>
            <g data-name="Group 13841">
                <path data-name="Path 3084" d="M7.946 6.5a.214.214 0 0 1-.065.041m4.7 1.4s.012 0 .015.006c.044.026.132-.007.106-.075" style="stroke-width:.02px;stroke-linecap:round;stroke:#713f2a;fill:none" transform="translate(80 728)"/>
                <path data-name="Path 3085" d="M12.431 6.988a.134.134 0 0 0 .138.04.124.124 0 0 0 .078-.061.151.151 0 0 0 .012-.116.153.153 0 0 0-.026-.052.212.212 0 0 0-.043-.045l-.01-.008m.2 1.063a.125.125 0 0 0-.038-.114.149.149 0 0 0-.027-.025m.015.015a.12.12 0 0 0-.108-.11m-.13.089a.415.415 0 0 1-.041-.034.491.491 0 0 1-.135-.334.447.447 0 0 1 .112-.313m-1.767 2.646.056-.051.039-.03.073-.045.071-.033.048-.012.1-.022.112-.017m-.922.605a.551.551 0 0 1-.238.193.551.551 0 0 1-.238-.193" style="stroke-width:.02px;stroke:#713f2a;fill:none" transform="translate(80 728)"/>
                <path data-name="Path 3086" d="M9.826 9.895a.309.309 0 0 1-.069.129" style="stroke-width:.02px;stroke-linecap:round;stroke:#713f2a;fill:none" transform="translate(80 728)"/>
                <path data-name="Path 3087" d="m9.836 9.829-.014.071m-.073.131-.03.03-.053.03-.061.019m-.176-5.561a.2.2 0 0 0 .014-.08c0-.131-.1-.191-.14-.312-.023-.072-.032-.135.021-.186a.137.137 0 0 1 .16-.02 1.173 1.173 0 0 0 .516.185 1.174 1.174 0 0 1-.521-.187.144.144 0 0 0-.165.014c-.053.051-.039.12-.016.193.039.121.131.181.135.312a.192.192 0 0 1-.017.08M10 4.127a1.648 1.648 0 0 0 .534-.2.137.137 0 0 1 .141.034.137.137 0 0 0-.155-.017 1.168 1.168 0 0 1-.52.192m2.487 3.528a.486.486 0 0 1-.194-.385.447.447 0 0 1 .112-.313m-2.186 3.049a.551.551 0 0 1-.238.193.551.551 0 0 1-.238-.193" style="stroke-width:.02px;stroke:#713f2a;fill:none" transform="translate(80 728)"/>
                <path data-name="Path 3088" d="m9.583 4.615.072-.04a.074.074 0 0 1 .09.006.065.065 0 0 1 0 .088" style="stroke-width:.02px;stroke-linecap:round;stroke:#713f2a;fill:none" transform="translate(80 728)"/>
                <path data-name="Path 3089" d="M9.21 4.79a1.453 1.453 0 0 0 .417-.172m1.009 5.131a.083.083 0 0 1 .023.03.138.138 0 0 1 .01.027.067.067 0 0 1-.051.08h-.011a.105.105 0 0 1-.11-.063M9.2 4.781a1.453 1.453 0 0 0 .417-.172m3.051 3.341a.1.1 0 0 1-.091-.007c-.017-.007-.036-.019-.058-.032a.648.648 0 0 1-.263-.283.588.588 0 0 1-.053-.14.518.518 0 0 1-.016-.1.8.8 0 0 1 .019-.194.632.632 0 0 1 .128-.283.154.154 0 0 1 .134-.081M7.977 5.6a.222.222 0 0 1 .082.179.357.357 0 0 1-.28.311.259.259 0 0 1-.2-.024m.428-.138a.108.108 0 0 1 .05.1.2.2 0 0 1-.057.116.386.386 0 0 1-.274.125.32.32 0 0 1-.188-.055.283.283 0 0 1-.12-.168" style="stroke-width:.02px;stroke:#713f2a;fill:none" transform="translate(80 728)"/>
                <path data-name="Path 3090" d="M8.006 6.134a.178.178 0 0 1 .053.143.28.28 0 0 1-.115.222.394.394 0 0 1-.061.044m4.045-.69v.11m-.009-.138v.155m.009-.492v.2m-.009-.249v.278m-.059 2.566a.585.585 0 0 1-.131.177.613.613 0 0 1-.182.127.769.769 0 0 1-.205.068 1.049 1.049 0 0 1-.215.026 1.477 1.477 0 0 1-.2-.005c-.083-.006-.128-.017-.211-.024a1.662 1.662 0 0 0-.175-.011.9.9 0 0 0-.18.013.688.688 0 0 0-.161.046.663.663 0 0 0-.2.12.663.663 0 0 0-.2-.12.688.688 0 0 0-.162-.045.9.9 0 0 0-.18-.013 1.656 1.656 0 0 0-.175.011c-.082.007-.128.019-.211.024a1.484 1.484 0 0 1-.2.005 1.043 1.043 0 0 1-.215-.026.773.773 0 0 1-.205-.068.611.611 0 0 1-.182-.128l-.019-.019m1.318 1.668.056-.007m.946-.074.057-.005.06-.023.038-.023.051-.061.011-.023.008-.052v-.024m1.466-4.272c.024-.083-.005-.17-.085-.167M8.056 6.835a.256.256 0 0 1-.112.146m.114-1.46a.2.2 0 0 1-.114.125.166.166 0 0 1-.16-.026" style="stroke-width:.02px;stroke:#713f2a;fill:none" transform="translate(80 728)"/>
                <path data-name="Path 3091" d="M7.619 5.824c.048.025.1-.012.086-.074a.089.089 0 0 0-.079-.069" style="stroke-width:.02px;stroke-linecap:round;stroke:#713f2a;fill:none" transform="translate(80 728)"/>
                <path data-name="Path 3092" d="M7.817 8.457c.01.01.013.022.026.025s.037.012.058-.016a.106.106 0 0 0-.015-.122.154.154 0 0 0-.186-.029.232.232 0 0 0-.079.065l-.036.05a.387.387 0 0 0-.034.078.481.481 0 0 0 .13.49" style="stroke-width:.02px;stroke:#713f2a;fill:none" transform="translate(80 728)"/>
                <path data-name="Path 3093" d="M10.632 9.745a.184.184 0 0 1 .02.025.124.124 0 0 1 .009.027.067.067 0 0 1-.051.08h-.011a.1.1 0 0 1-.105-.063" style="stroke-width:.02px;stroke-linecap:round;stroke:#713f2a;fill:none" transform="translate(80 728)"/>
                <path data-name="Path 3094" d="M12.17 4.336a.231.231 0 0 1 .2.22.411.411 0 0 1-.119.289c-.078.106-.333.3-.333.521 0 .134.037.219.134.263a.167.167 0 0 0 .168-.032.125.125 0 0 0-.036-.217c-.1-.019-.122.143-.022.132m.557 2.158a.114.114 0 0 0-.228.02.118.118 0 0 0 .032.082M12 5.6a.222.222 0 0 0-.082.179.357.357 0 0 0 .28.311.258.258 0 0 0 .195-.008m-4.881-.326a.293.293 0 0 0-.151.108.529.529 0 0 0-.072.19.62.62 0 0 0 .005.208.492.492 0 0 0 .072.176.248.248 0 0 0 .032.039.347.347 0 0 0 .035.027m2 2.876a.682.682 0 0 1 .357.266.309.309 0 0 1 .037.152.317.317 0 0 1-.1.238.259.259 0 0 1-.208.064.16.16 0 0 1-.126-.081M7.938 6.5a.269.269 0 0 1 .121.235.261.261 0 0 1-.124.233" style="stroke-width:.02px;stroke:#713f2a;fill:none" transform="translate(80 728)"/>
                <path data-name="Path 3095" d="M7.86 6.888a.648.648 0 0 1 .2.442.6.6 0 0 1-.159.426" style="stroke-width:.02px;stroke-linecap:round;stroke:#713f2a;fill:none" transform="translate(80 728)"/>
                <path data-name="Path 3096" d="M10.3 4.791a.128.128 0 0 0 .05-.07.13.13 0 0 0-.009-.122.138.138 0 0 1 .025.123.122.122 0 0 1-.05.07m1.608 2.692v.5a.771.771 0 0 1 0 .078l-.009.054" style="stroke-width:.02px;stroke:#713f2a;fill:none" transform="translate(80 728)"/>
                <path data-name="Path 3097" d="M11.919 7.436v.544a.76.76 0 0 1 0 .078l-.015.082m.015-1.34v.454m.009-.418V7.2m0-.839v.277m-.009-.309v.341m.009-.592v.107m-.009-.129v.156m-.058 2.037-.011.022a.585.585 0 0 1-.131.177.613.613 0 0 1-.182.128.769.769 0 0 1-.205.068 1.046 1.046 0 0 1-.215.026 1.489 1.489 0 0 1-.2-.005c-.083-.006-.128-.017-.211-.024a1.664 1.664 0 0 0-.175-.011.9.9 0 0 0-.18.013.688.688 0 0 0-.162.045.663.663 0 0 0-.2.12.663.663 0 0 0-.2-.12.687.687 0 0 0-.162-.045.894.894 0 0 0-.18-.013 1.654 1.654 0 0 0-.175.011c-.082.007-.128.019-.211.024a1.484 1.484 0 0 1-.2.005 1.045 1.045 0 0 1-.215-.026.774.774 0 0 1-.205-.068.611.611 0 0 1-.182-.128.684.684 0 0 1-.077-.087m-.063-.1a.316.316 0 0 1-.07.241.235.235 0 0 1-.156.082.156.156 0 0 1-.161-.1m.246-.275a.321.321 0 0 1 .058.079.243.243 0 0 1 0 .193l-.003.019m-.633.564a.968.968 0 0 0 .34.221 2.642 2.642 0 0 0 .8.122 1.063 1.063 0 0 1 .78.22m.546-.127a.455.455 0 0 1 .127.176m-.23.358a.274.274 0 0 1-.23.084.193.193 0 0 1-.134-.081m-.167-.091.009.012a.238.238 0 0 0 .16.077m.84 0a.551.551 0 0 1-.238.193.551.551 0 0 1-.238-.193l-.009-.015m.487.014.023.022a.259.259 0 0 0 .208.064.171.171 0 0 0 .127-.081.068.068 0 0 0 .014-.023" style="stroke-width:.02px;stroke:#713f2a;fill:none" transform="translate(80 728)"/>
                <path data-name="Path 3098" d="m10.595 10.02-.023.037-.035.029-.053.022h-.048" style="stroke-width:.02px;stroke:#713f2a;fill:none" transform="translate(80 728)"/>
                <path data-name="Path 3099" d="M10.721 9.664a.241.241 0 0 1 .072.091.216.216 0 0 1 .016.074.183.183 0 0 1-.044.129.235.235 0 0 1-.169.077h-.015m.006-.009a.213.213 0 0 1-.162-.068m1.99-2.121a.742.742 0 0 1-.15-.2.588.588 0 0 1-.053-.14.517.517 0 0 1-.016-.1.8.8 0 0 1 .019-.194.653.653 0 0 1 .128-.283.344.344 0 0 1 .065-.07m-.043-2.369a.182.182 0 0 1 .152.175c0 .122-.042.172-.138.291-.082.1-.33.283-.323.456a.17.17 0 0 0 .036.088m-.1.108a.217.217 0 0 0 .064.043.157.157 0 0 0 .133-.009m-.662-1.351a.189.189 0 0 1 .068.081c.058.14-.068.246-.185.325a.667.667 0 0 1-.259.1m.243-.238a.131.131 0 0 1-.1-.047.1.1 0 0 1-.022-.031m-.464.153a.145.145 0 0 1-.041-.03.128.128 0 0 1-.025-.137 1.321 1.321 0 0 0 .12-.341.293.293 0 0 0-.162-.317" style="stroke-width:.02px;stroke:#713f2a;fill:none" transform="translate(80 728)"/>
                <path data-name="Path 3100" d="M10.854 4.077v.066l-.018.067-.036.09-.026.059-.028.059-.014.041-.006.03v.029m1.188 3.946a.1.1 0 0 0 .019.026.243.243 0 0 0 .17.094.135.135 0 0 0 .149-.1c.015-.09-.016-.115-.062-.14a.105.105 0 0 0-.06-.009" style="stroke-width:.02px;stroke-linecap:round;stroke:#713f2a;fill:none" transform="translate(80 728)"/>
                <path data-name="Path 3101" d="M7.4 8.073a.215.215 0 0 1-.115 0 .168.168 0 0 1-.124-.217m.418-.994A.056.056 0 0 1 7.6 6.9a.118.118 0 0 1-.158.129.176.176 0 0 1-.094-.071.147.147 0 0 1-.019-.072m.689-.74a.151.151 0 0 1 .039.055m-.035-.266a.12.12 0 0 1 .036.041" style="stroke-width:.02px;stroke:#713f2a;fill:none" transform="translate(80 728)"/>
                <path data-name="Path 3102" d="M8.058 6.079a.265.265 0 0 1-.049.074.386.386 0 0 1-.274.125.32.32 0 0 1-.188-.055.3.3 0 0 1-.128-.174" style="stroke-width:.02px;stroke-linecap:round;stroke:#713f2a;fill:none" transform="translate(80 728)"/>
                <path data-name="Path 3103" d="M7.982 5.6a.242.242 0 0 1 .074.106" style="stroke-width:.02px;stroke:#713f2a;fill:none" transform="translate(80 728)"/>
                <path data-name="Path 3104" d="M8.057 5.851a.368.368 0 0 1-.269.245.279.279 0 0 1-.207-.033" style="stroke-width:.02px;stroke-linecap:round;stroke:#713f2a;fill:none" transform="translate(80 728)"/>
                <path data-name="Path 3105" d="M7.5 5.83a.156.156 0 0 0 .168.146c.147 0 .236-.211.106-.362" style="stroke-width:.02px;stroke:#713f2a;fill:none" transform="translate(80 728)"/>
                <path data-name="Path 3106" d="M7.17 6.548a.508.508 0 0 0 .073.073.525.525 0 0 0 .185.1m.165.015a.2.2 0 0 0 .191-.228.189.189 0 0 0-.146-.158" style="stroke-width:.02px;stroke-linecap:round;stroke:#713f2a;fill:none" transform="translate(80 728)"/>
                <path data-name="Path 3107" d="M7.808 5.378a.089.089 0 0 1 .089.09" style="stroke-width:.02px;stroke:#713f2a;fill:none" transform="translate(80 728)"/>
                <path data-name="Path 3108" d="M7.794 4.6a.359.359 0 0 0 .157.182m4.506.968a.143.143 0 0 1-.128.221.162.162 0 0 1-.139-.078" style="stroke-width:.02px;stroke-linecap:round;stroke:#713f2a;fill:none" transform="translate(80 728)"/>
                <path data-name="Path 3109" d="M11.928 4.785v.494" style="stroke-width:.02px;stroke:#713f2a;fill:none" transform="translate(80 728)"/>
                <path data-name="Path 3110" d="M7.617 5.823c.045.033.1-.022.081-.081a.092.092 0 0 0-.149-.029.14.14 0 0 0 .1.246c.147 0 .236-.211.106-.362a.371.371 0 0 0-.5.008.669.669 0 0 0-.221.363.686.686 0 0 0-.018.159.709.709 0 0 0 .111.366.364.364 0 0 0 .041.051.783.783 0 0 0 .059.061.473.473 0 0 0 .327.12.2.2 0 0 0 .215-.23.143.143 0 0 0-.211-.121.1.1 0 0 0 .022.18c.053.016.1-.051.062-.09m4.049-2.248c.084-.046.149-.037.2.029a.309.309 0 0 1 .048.226.279.279 0 0 1-.108.18m.066-.4a.179.179 0 0 1 .258.048.284.284 0 0 1 .05.191.351.351 0 0 1-.179.288" style="stroke-width:.02px;stroke-linecap:round;stroke:#713f2a;fill:none" transform="translate(80 728)"/>
                <path data-name="Path 3111" d="M12.346 4.473a.161.161 0 0 1 .143.162.4.4 0 0 1-.129.291c-.082.1-.33.283-.323.456a.139.139 0 0 0 .1.13" style="stroke-width:.02px;stroke:#713f2a;fill:none" transform="translate(80 728)"/>
                <path data-name="Path 3112" d="M12.355 5.823c-.045.033-.1-.02-.078-.076a.091.091 0 0 1 .146-.034.14.14 0 0 1-.1.246.207.207 0 0 1-.106-.362.388.388 0 0 1 .516 0 .635.635 0 0 1 .219.371.644.644 0 0 1-.2.658.538.538 0 0 1-.33.093.2.2 0 0 1-.215-.23.145.145 0 0 1 .211-.121.094.094 0 0 1-.022.18c-.055.007-.1-.051-.062-.09" style="stroke-width:.02px;stroke-linecap:round;stroke:#713f2a;fill:none" transform="translate(80 728)"/>
                <path data-name="Path 3113" d="M12.277 5.747c.024-.109.118-.119.193-.118.206 0 .348.247.351.484 0 .3-.127.474-.345.484-.056 0-.154-.024-.155-.093" style="stroke-width:.02px;stroke:#713f2a;fill:none" transform="translate(80 728)"/>
                <path data-name="Path 3114" d="M12.4 5.7a.4.4 0 0 1 .293.431.379.379 0 0 1-.312.434" style="stroke-linecap:square;stroke-width:.02px;stroke:#713f2a;fill:none" transform="translate(80 728)"/>
                <path data-name="Path 3115" d="M12.762 7.792a.122.122 0 1 0-.2.073" style="stroke-width:.02px;stroke:#713f2a;fill:none" transform="translate(80 728)"/>
                <g data-name="Group 13840">
                    <path data-name="Path 3116" d="M12.327 7.607a.516.516 0 0 0 .195.185m-.039.33a.5.5 0 0 0-.472-.069.245.245 0 0 0-.134.137.31.31 0 0 0 .056.3.235.235 0 0 0 .155.082.135.135 0 0 0 .149-.1.106.106 0 0 0-.062-.129c-.02-.007-.086-.005-.1.041a.083.083 0 0 0 .007.063" style="stroke-width:.02px;stroke-linecap:round;stroke:#713f2a;fill:none" transform="translate(80 728)"/>
                    <path data-name="Path 3117" d="M10.64 9.763c.033.067 0 .1-.05.106a.1.1 0 0 1-.107-.093.137.137 0 0 1 .127-.147h.01a.173.173 0 0 1 .155.11.216.216 0 0 1 .016.074.183.183 0 0 1-.044.129.235.235 0 0 1-.169.077.24.24 0 0 1-.235-.244c0-.241.357-.372.5-.406A2.657 2.657 0 0 1 11.4 9.3c.112-.006.194 0 .317-.016A1.887 1.887 0 0 0 12 9.236a.852.852 0 0 0 .392-.2.585.585 0 0 0 .185-.255.533.533 0 0 0-.039-.435.448.448 0 0 0-.323-.211.261.261 0 0 0-.28.149.243.243 0 0 0 0 .193.187.187 0 0 0 .149.093.135.135 0 0 0 .149-.1.106.106 0 0 0-.062-.129c-.02-.007-.086-.005-.1.041a.084.084 0 0 0 .007.063m-1.543.934a.682.682 0 0 0-.357.266.309.309 0 0 0-.037.152.317.317 0 0 0 .1.238.259.259 0 0 0 .208.064.16.16 0 0 0 .126-.081" style="stroke-width:.02px;stroke-linecap:round;stroke:#713f2a;fill:none" transform="translate(80 728)"/>
                </g>
                <path data-name="Path 3118" d="M12.035 6.5a.25.25 0 0 0-.121.235.261.261 0 0 0 .124.233" style="stroke-width:.02px;stroke:#713f2a;fill:none" transform="translate(80 728)"/>
                <path data-name="Path 3119" d="M12.112 6.888a.648.648 0 0 0-.2.442.6.6 0 0 0 .159.426" style="stroke-width:.02px;stroke-linecap:round;stroke:#713f2a;fill:none" transform="translate(80 728)"/>
                <path data-name="Path 3120" d="m11.433 4.252.011-.016a.148.148 0 0 1 .215-.047.268.268 0 0 1 .081.28.271.271 0 0 1-.127.17" style="stroke-width:.02px;stroke:#713f2a;fill:none" transform="translate(80 728)"/>
                <path data-name="Path 3121" d="M8.284 4.214a.151.151 0 0 0-.2.029.283.283 0 0 0-.048.226.279.279 0 0 0 .108.18" style="stroke-width:.02px;stroke-linecap:round;stroke:#713f2a;fill:none" transform="translate(80 728)"/>
                <path data-name="Path 3122" d="M8.081 4.251a.179.179 0 0 0-.258.048.284.284 0 0 0-.05.191.351.351 0 0 0 .179.288" style="stroke-width:.02px;stroke:#713f2a;fill:none" transform="translate(80 728)"/>
                <path data-name="Path 3123" d="M7.8 4.336a.213.213 0 0 0-.188.209.422.422 0 0 0 .112.3c.078.106.333.3.333.521 0 .134-.037.219-.134.263a.167.167 0 0 1-.166-.029.125.125 0 0 1 .036-.217c.1-.019.122.143.022.132m-.188-1.042a.17.17 0 0 0-.157.158c0 .12.048.175.143.294.082.1.315.279.309.452 0 .065-.046.145-.09.136" style="stroke-width:.02px;stroke:#713f2a;fill:none" transform="translate(80 728)"/>
                <path data-name="Path 3124" d="M7.44 6.879a.072.072 0 0 1 .14 0 .119.119 0 0 1-.158.131.124.124 0 0 1-.078-.061.151.151 0 0 1-.012-.116.153.153 0 0 1 .027-.052.155.155 0 0 1 .04-.038.183.183 0 0 1 .1-.019c.174 0 .327.206.378.42a.921.921 0 0 1 .008.376.7.7 0 0 1-.183.352.784.784 0 0 1-.177.128.775.775 0 0 1-.13.054.219.219 0 0 1-.123 0 .15.15 0 0 1-.1-.217.128.128 0 0 1 .228-.019.1.1 0 0 1 .013.048.093.093 0 0 1-.031.073c-.045.029-.117.02-.113-.059" style="stroke-width:.02px;stroke-linecap:round;stroke:#713f2a;fill:none" transform="translate(80 728)"/>
                <path data-name="Path 3125" d="M7.3 7.95a.1.1 0 0 0 .1-.007c.017-.007.036-.019.058-.032a.648.648 0 0 0 .263-.283.588.588 0 0 0 .053-.14.517.517 0 0 0 .016-.1.8.8 0 0 0-.019-.194.632.632 0 0 0-.128-.283.154.154 0 0 0-.134-.081m-.3.966a.122.122 0 1 1 .2.073m-.151-.199a.114.114 0 0 1 .228.02.119.119 0 0 1-.032.082" style="stroke-width:.02px;stroke:#713f2a;fill:none" transform="translate(80 728)"/>
                <path data-name="Path 3126" d="M7.48 7.664a.486.486 0 0 0 .194-.385.447.447 0 0 0-.112-.313" style="stroke-width:.02px;stroke:#713f2a;fill:none" transform="translate(80 728)"/>
                <path data-name="Path 3127" d="M7.646 7.607a.516.516 0 0 1-.195.185" style="stroke-width:.02px;stroke-linecap:round;stroke:#713f2a;fill:none" transform="translate(80 728)"/>
                <path data-name="Path 3128" d="M7.956 8.053a.193.193 0 0 0-.18-.11.428.428 0 0 0-.257.057.579.579 0 0 0-.311.353.538.538 0 0 0-.026.18.787.787 0 0 0 .062.294.778.778 0 0 0 .479.437 2.642 2.642 0 0 0 .8.122c.325.013.625.025.8.239" style="stroke-width:.02px;stroke:#713f2a;fill:none" transform="translate(80 728)"/>
                <path data-name="Path 3129" d="M7.49 8.121a.5.5 0 0 1 .472-.069.245.245 0 0 1 .134.137.31.31 0 0 1-.056.3.235.235 0 0 1-.156.082.135.135 0 0 1-.149-.1.106.106 0 0 1 .065-.129c.02-.007.086-.005.1.041a.083.083 0 0 1-.007.063" style="stroke-width:.02px;stroke-linecap:round;stroke:#713f2a;fill:none" transform="translate(80 728)"/>
                <path data-name="Path 3130" d="M7.9 8.429a.105.105 0 0 0-.026-.1.16.16 0 0 0-.187-.029.232.232 0 0 0-.079.065l-.036.05a.387.387 0 0 0-.034.078.49.49 0 0 0 .205.55.94.94 0 0 0 .449.127c.08.007.125.009.205.012H8.7a2.209 2.209 0 0 1 .225 0c.091.007.159.009.236.022.05.008.109.016.171.03.019 0 .037.008.056.013l.038.012a1.247 1.247 0 0 1 .305.13.473.473 0 0 1 .078.054c.016.016.029.025.042.038a.4.4 0 0 1 .135.209.309.309 0 0 1 0 .05c0 .056-.046.132-.168.157" style="stroke-width:.02px;stroke:#713f2a;fill:none" transform="translate(80 728)"/>
                <path data-name="Path 3131" d="M9.332 9.763c-.033.067 0 .1.05.106a.1.1 0 0 0 .107-.093.137.137 0 0 0-.127-.147h-.01a.173.173 0 0 0-.155.11.216.216 0 0 0-.016.074.183.183 0 0 0 .044.129.235.235 0 0 0 .169.077.24.24 0 0 0 .235-.244c0-.241-.357-.372-.5-.406A2.657 2.657 0 0 0 8.57 9.3c-.112-.006-.194 0-.317-.016a1.887 1.887 0 0 1-.281-.043.852.852 0 0 1-.392-.2.585.585 0 0 1-.185-.255.533.533 0 0 1 .039-.435.448.448 0 0 1 .323-.211.261.261 0 0 1 .28.149.243.243 0 0 1 0 .193.187.187 0 0 1-.149.093.135.135 0 0 1-.149-.1.106.106 0 0 1 .061-.133c.02-.007.086-.005.1.041a.084.084 0 0 1-.007.063" style="stroke-width:.02px;stroke:#713f2a;fill:none" transform="translate(80 728)"/>
                <path data-name="Path 3132" d="m8.539 4.252-.011-.016a.148.148 0 0 0-.215-.047.268.268 0 0 0-.081.28.271.271 0 0 0 .126.17" style="stroke-width:.02px;stroke-linecap:round;stroke:#713f2a;fill:none" transform="translate(80 728)"/>
                <path data-name="Path 3133" d="M11.461 4.487a.554.554 0 0 1-.44.187.453.453 0 0 1-.236-.065.138.138 0 0 1-.059-.17 1.321 1.321 0 0 0 .12-.341c.007-.176-.061-.272-.166-.309-.2-.069-.405.124-.532.166a.427.427 0 0 1-.16.025.433.433 0 0 1-.161-.025c-.126-.042-.336-.235-.532-.166-.106.037-.173.134-.166.309a1.32 1.32 0 0 0 .12.341.138.138 0 0 1-.059.17.453.453 0 0 1-.236.065.554.554 0 0 1-.44-.187" style="stroke-width:.02px;stroke:#713f2a;fill:none" transform="translate(80 728)"/>
                <path data-name="Path 3134" d="M9.292 9.325a.827.827 0 0 1 .164.064.689.689 0 0 1 .353.275.309.309 0 0 1 .037.152.333.333 0 0 1-.009.077" style="stroke-width:.02px;stroke-linecap:round;stroke:#713f2a;fill:none" transform="translate(80 728)"/>
                <path data-name="Path 3135" d="M9.3 10a.25.25 0 0 0 .1.026.24.24 0 0 0 .235-.244.3.3 0 0 0-.114-.22" style="stroke-width:.02px;stroke:#713f2a;fill:none" transform="translate(80 728)"/>
                <path data-name="Path 3136" d="M9.33 9.763a.074.074 0 0 0 .059.115.1.1 0 0 0 .111-.087v-.007a.14.14 0 0 0-.066-.13" style="stroke-width:.02px;stroke-linecap:round;stroke:#713f2a;fill:none" transform="translate(80 728)"/>
                <path data-name="Path 3137" d="M12.191 4.337a.219.219 0 0 1 .188.226.405.405 0 0 1-.122.274c-.041.049-.086.093-.14.147" style="stroke-width:.02px;stroke:#713f2a;fill:none" transform="translate(80 728)"/>
                <path data-name="Path 3138" d="M12.072 4.232a.216.216 0 0 1 .087.076.285.285 0 0 1 .05.191.363.363 0 0 1-.185.279m-.149-.547a.173.173 0 0 1 .02.02.275.275 0 0 1 .048.226.256.256 0 0 1-.117.171m-.159-.448a.275.275 0 0 1-.052.445m.348 1.284a.152.152 0 0 0 .047.06.423.423 0 0 0 .192.11.243.243 0 0 0 .2-.027M7.306 7.757a.123.123 0 0 1 .1.069.1.1 0 0 1 .013.048.086.086 0 0 1-.032.069.075.075 0 0 1-.121-.063" style="stroke-width:.02px;stroke-linecap:round;stroke:#713f2a;fill:none" transform="translate(80 728)"/>
                <path data-name="Path 3139" d="M7.547 6.728a.547.547 0 0 1 .351.417.921.921 0 0 1 .008.376.7.7 0 0 1-.183.352.516.516 0 0 1-.066.057l-.033.022m-.248-.379a.127.127 0 0 1 .119.125.119.119 0 0 1-.032.082m-.129-.134a.137.137 0 0 1 .129.131.122.122 0 0 1-.046.1" style="stroke-width:.02px;stroke:#713f2a;fill:none" transform="translate(80 728)"/>
                <path data-name="Path 3140" d="M7.937 6.984a.588.588 0 0 1 .119.241m0 .265a.54.54 0 0 1-.045.126.557.557 0 0 1-.111.145" style="stroke-width:.02px;stroke-linecap:round;stroke:#713f2a;fill:none" transform="translate(80 728)"/>
                <path data-name="Path 3141" d="M7.946 6.51a.292.292 0 0 1 .11.149" style="stroke-width:.02px;stroke:#713f2a;fill:none" transform="translate(80 728)"/>
                <path data-name="Path 3142" d="M8.058 6.358a.317.317 0 0 1-.105.144m-.286-.537.067-.018.04-.03.026-.036.022-.057.009-.046" style="stroke-width:.02px;stroke-linecap:round;stroke:#713f2a;fill:none" transform="translate(80 728)"/>
                <path data-name="Path 3143" d="M7.53 5.728a.4.4 0 0 0-.076.027.279.279 0 0 0-.11.092.529.529 0 0 0-.072.19.62.62 0 0 0 .005.208.493.493 0 0 0 .072.176.286.286 0 0 0 .032.042.141.141 0 0 0 .14.053" style="stroke-width:.02px;stroke:#713f2a;fill:none" transform="translate(80 728)"/>
                <path data-name="Path 3144" d="M7.908 5.432c-.011.04-.032.09-.1.084" style="stroke-width:.02px;stroke-linecap:round;stroke:#713f2a;fill:none" transform="translate(80 728)"/>
                <path data-name="Path 3145" d="M7.677 5.7a.261.261 0 0 0-.316.006.482.482 0 0 0-.049.037.277.277 0 0 0-.045.05.561.561 0 0 0-.044.076.393.393 0 0 0-.029.083.634.634 0 0 0-.02.2c0 .03.006.058.011.084a.583.583 0 0 0 .07.193.319.319 0 0 0 .245.171c.056.006.152-.02.155-.093" style="stroke-width:.02px;stroke:#713f2a;fill:none" transform="translate(80 728)"/>
                <path data-name="Path 3146" d="M11.368 4.408a.056.056 0 0 1 .1-.031.1.1 0 0 1-.061.151.118.118 0 0 1-.12-.044.136.136 0 0 1 .032-.189h.006a.174.174 0 0 1 .267.059c.058.14-.068.246-.185.325a.76.76 0 0 1-.44.117 1.324 1.324 0 0 1-.645-.218.066.066 0 0 0-.084.006.062.062 0 0 0 .008.086m1.185-.306a.053.053 0 0 1 .048.025.1.1 0 0 1-.064.151m.557 1.611a.271.271 0 0 0 .073.368c.028.022.04.01.063.023" style="stroke-width:.02px;stroke-linecap:round;stroke:#713f2a;fill:none" transform="translate(80 728)"/>
                <path data-name="Path 3147" d="M11.973 5.92a.111.111 0 0 0-.05.1.164.164 0 0 0 .044.125.438.438 0 0 0 .288.117.32.32 0 0 0 .188-.055.283.283 0 0 0 .12-.168m-.652 1.931a.76.76 0 0 1 0 .078.656.656 0 0 1-.2.393.614.614 0 0 1-.182.127.769.769 0 0 1-.205.068 1.046 1.046 0 0 1-.215.026 1.491 1.491 0 0 1-.2-.005c-.083-.006-.128-.017-.211-.024a1.667 1.667 0 0 0-.175-.011.9.9 0 0 0-.18.013.687.687 0 0 0-.162.045.663.663 0 0 0-.2.12.663.663 0 0 0-.2-.12.688.688 0 0 0-.162-.045.9.9 0 0 0-.18-.013 1.654 1.654 0 0 0-.175.011c-.082.007-.128.019-.211.024a1.483 1.483 0 0 1-.2.005 1.049 1.049 0 0 1-.215-.026.769.769 0 0 1-.205-.068.613.613 0 0 1-.182-.127.656.656 0 0 1-.2-.393.759.759 0 0 1 0-.078V4.792h3.859v3.18z" style="stroke-width:.02px;stroke:#713f2a;fill:none" transform="translate(80 728)"/>
            </g>
        </g>
        <g data-name="Group 13843">
            <path data-name="Path 3148" d="M7.748 8.426a.078.078 0 1 1 .156 0 .078.078 0 0 1-.156 0zm-.48-.552a.057.057 0 1 1 .055.07.064.064 0 0 1-.055-.07z" style="stroke-width:.01px;stroke:#c7b37f;fill:#c6aa76" transform="translate(80 728)"/>
            <path data-name="Path 3149" d="M7.541 6.487a.053.053 0 1 1 .053.057.055.055 0 0 1-.053-.057zM8.5 4.436a.05.05 0 1 1 .055.053.054.054 0 0 1-.055-.053z" style="fill:#c6aa76" transform="translate(80 728)"/>
        </g>
        <g data-name="Group 13844">
            <path data-name="Path 3150" d="M7.478 6.811a.078.078 0 0 0-.043.044.127.127 0 0 0-.008.037m.147.836.026-.034a.339.339 0 0 0 .021-.029l.016-.029.025-.036m-.039.436-.047.022-.034.02L7.5 8.1l-.038.03m.468-1.184-.026-.026-.028-.026a.33.33 0 0 0-.03-.022" style="stroke:#c7b37f;stroke-width:.02px;stroke-linecap:round;fill:none" transform="translate(80 728)"/>
            <path data-name="Path 3151" d="m7.943 6.529-.038.017a.159.159 0 0 1-.047.01" style="stroke:#c7b37f;stroke-width:.02px;fill:none" transform="translate(80 728)"/>
            <path data-name="Path 3152" d="M7.42 6.014a.421.421 0 0 0 .013.047.244.244 0 0 0 .029.053.261.261 0 0 0 .04.049.245.245 0 0 0 .043.035.506.506 0 0 0 .047.025m-.031-.183.039.02a.2.2 0 0 0 .038.012.23.23 0 0 0 .054.006.242.242 0 0 0 .058 0M7.974 4.8l-.064-.034a.382.382 0 0 1-.058-.047.292.292 0 0 1-.036-.04c-.016-.016-.016-.026-.026-.042m.234-.142a.458.458 0 0 0 .02.054.244.244 0 0 0 .044.064.514.514 0 0 0 .086.065m.045-.185a.406.406 0 0 0 .02.048.216.216 0 0 0 .026.038.229.229 0 0 0 .042.041.456.456 0 0 0 .059.035" style="stroke:#c7b37f;stroke-width:.02px;stroke-linecap:round;fill:none" transform="translate(80 728)"/>
        </g>
        <g data-name="Group 13845">
            <path data-name="Path 3153" d="M10.416 4.238c0-.053-.054-.058-.074-.058-.058 0-.073.036-.145.075a.4.4 0 0 1-.42 0c-.072-.039-.084-.073-.142-.073a.073.073 0 0 0-.07.075.13.13 0 0 0 0 .027s.006 0 .007.006a.073.073 0 0 1 .016-.053.068.068 0 0 1 .051-.026c.058 0 .079.037.151.076a.4.4 0 0 0 .42 0c.072-.039.093-.079.15-.079a.042.042 0 0 1 .041.033.1.1 0 0 1 0 .026.082.082 0 0 0 .006-.035z" style="stroke-width:.006px;fill:#713f2a;stroke:#713f2a" transform="translate(80 728)"/>
            <path data-name="Path 3154" d="M8.262 8.688c.016-.017.028-.011.031-.019s0-.007-.009-.009l-.027-.008-.026-.012s-.013-.006-.015 0 .032.011.02.044a.116.116 0 0 1-.025.038l-.083.09s0 .007-.007.006 0-.006 0-.009v-.127a.169.169 0 0 1 .006-.053c.005-.015.022 0 .026-.012s0-.006-.01-.01L8.108 8.6l-.031-.013s-.013-.008-.017 0 0 .006 0 .007a.029.029 0 0 1 .015.029v.233c0 .017 0 .021.005.023s.006 0 .013-.008l.164-.178z" style="fill:#713f2a" transform="translate(80 728)"/>
            <path data-name="Path 3155" d="M8.359 8.724c.011-.034.031-.013.034-.026s0-.005-.01-.009l-.042-.012-.036-.013h-.012c-.001 0 .035.014.025.046l-.054.171c-.011.034-.031.017-.035.03s0 0 0 .005l.036.01.048.017h.012c.001 0-.037-.006-.024-.05l.054-.17zm.116.034c.006-.021.016-.019.028-.015a.056.056 0 0 1 .032.077c-.006.021-.014.041-.063.026-.01 0-.022-.006-.019-.015l.021-.072zm-.089.154c-.013.045-.036.026-.039.037s0 .008.008.009l.05.013.027.01h.012c.001 0-.032-.008-.021-.046l.018-.062c0-.013 0-.016.02-.011s.021.01.024.028l.01.065c0 .024.007.049.033.057s.036 0 .04-.009v-.006h-.014a.012.012 0 0 1-.01-.009l-.021-.114s.011 0 .023-.01a.059.059 0 0 0 .032-.039c0-.016.013-.069-.057-.09l-.065-.018-.038-.017h-.009c-.001 0 .035.01.023.05l-.047.157zm.263.077c-.01.043-.043.017-.046.031s0 .009.01.01l.046.01.045.012h.018c.002 0-.042-.01-.031-.054l.039-.164c0-.017.008-.018.021-.015l.028.007c.038.008.018.045.031.048s.008-.013.009-.017V8.813l-.1-.023-.1-.025s-.006 0-.007.007l-.012.043s-.006.012 0 .014.016-.046.053-.038l.027.007c.013 0 .016.006.012.023l-.04.168zm.4-.1c.013-.02.026-.016.028-.024s0-.006-.011-.007h-.028l-.028-.007h-.015c-.002 0 .033.005.027.04a.115.115 0 0 1-.022.04l-.066.1s0 .007-.006.007 0-.006 0-.009L8.9 8.907a.17.17 0 0 1 0-.053c0-.015.022-.006.023-.016s0-.006-.011-.008l-.036-.005-.033-.008s-.015-.006-.016 0 0 .006 0 .006a.03.03 0 0 1 .02.026l.043.229c0 .017.006.021.009.021s.006 0 .011-.01l.131-.2zm.019.21c0 .009 0 .012.007.016a.233.233 0 0 0 .054.023.075.075 0 0 0 .087-.069.08.08 0 0 0-.044-.089c-.041-.029-.058-.037-.054-.062a.035.035 0 0 1 .038-.033h.006c.057.01.05.079.058.08s.009 0 .01-.011v-.065h-.018c-.004 0-.021-.018-.049-.023a.073.073 0 0 0-.041.137c.049.035.069.043.064.075a.045.045 0 0 1-.049.04c-.037-.006-.052-.043-.056-.08 0-.005 0-.008-.006-.009s-.007.01-.007.015v.052zm.494-.139c.011-.021.024-.018.025-.027s0-.006-.011-.006h-.075s.034 0 .031.037a.115.115 0 0 1-.014.043l-.055.109v.007-.008l-.034-.123a.169.169 0 0 1-.009-.052c0-.016.021-.008.022-.018s0-.006-.012-.007h-.095v.006a.03.03 0 0 1 .022.024l.066.223c0 .016.008.02.011.02s.006 0 .01-.011l.109-.216z" style="fill:#713f2a" transform="translate(80 728)"/>
            <path data-name="Path 3156" d="M9.612 9.14c0 .038-.033.031-.033.046s.007 0 .01 0h.082s-.043.007-.042-.064v-.128h.006l.16.2a.01.01 0 0 0 .009.005v-.22c0-.039.029-.03.029-.041s0 0-.006 0h-.065s-.005 0-.005.006.041.006.041.04v.13s-.006 0-.01-.01l-.134-.166c-.006-.007 0-.01-.013-.01h-.06a.006.006 0 0 0-.006.005c0 .018.038-.006.037.066v.141zm.325-.168c0-.035.025-.022.025-.034s0-.005-.012-.005h-.08s-.011 0-.011.005.036 0 .036.037v.179c0 .035-.024.026-.024.039h.089c.008 0 .011 0 .011-.005s-.038 0-.037-.041zm.141.173c0 .044-.038.027-.038.041s.006.008.012.008h.094c.01 0 .016 0 .016-.008s-.043 0-.043-.045v-.169c0-.018 0-.02.017-.02h.029c.039 0 .028.04.042.04s0-.015 0-.019v-.034s0-.009-.005-.009h-.2c-.005 0-.005.005-.005.009v.062s0-.049.043-.049h.028c.014 0 .017 0 .017.02v.173zm.2-.071h-.011a.038.038 0 0 1 0-.014l.021-.068.033.065a.038.038 0 0 1 0 .013h-.056zm.057.016c.009 0 .011 0 .024.031a.07.07 0 0 1 .008.024c0 .023-.022.02-.021.031s0 0 .011 0H10.437c.009 0 .012 0 .012-.007s-.018 0-.031-.022l-.118-.221c-.005-.011-.006-.012-.009-.011s-.005.008-.007.014l-.073.232c-.007.021-.024.021-.023.029s.006 0 .01 0h.061c.007 0 .018 0 .017-.007s-.036 0-.039-.028a.117.117 0 0 1 0-.03c.006-.025.013-.027.018-.028l.066-.005zm.26-.155c0-.026 0-.026.038-.031.064-.008.044.038.06.036s0-.013 0-.018l-.006-.036a.007.007 0 0 0-.007-.006l-.076.012-.089.01a.007.007 0 0 0-.007.007c0 .015.038 0 .042.031l.023.173c.006.045-.022.028-.02.045s0 0 .007 0l.042-.007h.04c.008 0 .016 0 .015-.008s-.038 0-.043-.037l-.007-.055c0-.021 0-.026.011-.028h.025c.035 0 .03.036.041.034s0-.014 0-.019l-.011-.066c0-.01-.005-.009-.008-.008s0 .035-.032.039h-.021c-.014 0-.015 0-.017-.017l-.007-.052zm.123.085a.113.113 0 0 0 .134.1.128.128 0 0 0 .1-.165.115.115 0 0 0-.137-.1.128.128 0 0 0-.1.164zm.037-.028c-.01-.053 0-.107.053-.118s.091.026.106.108c.011.061 0 .113-.055.125s-.099-.061-.109-.115zm.26-.13c-.005-.022 0-.024.017-.027.033-.008.058.015.066.05s.008.042-.042.054c-.01 0-.022.005-.024 0l-.018-.073zm0 .178c.011.046-.018.04-.016.052s.008 0 .012 0l.05-.014.028-.005c.008 0 .01 0 .009-.008s-.032.01-.041-.029l-.015-.063c0-.013-.006-.015.012-.019a.027.027 0 0 1 .034.012l.041.051c.015.019.031.039.057.033s.033-.016.03-.028h-.015a.012.012 0 0 1-.013 0l-.075-.088s.008-.009.015-.02a.059.059 0 0 0 .008-.05.069.069 0 0 0-.094-.049l-.066.017-.039.008s-.007 0-.006.007.036-.009.045.032l.038.16zm.269-.06c.011.043-.03.035-.026.049s.007.006.013 0l.045-.013.046-.01c.009 0 .016 0 .014-.012s-.042.011-.053-.033l-.046-.161c0-.017 0-.02.012-.023l.028-.007c.037-.011.037.032.05.028s0-.015 0-.02l-.012-.032s0-.009-.007-.007l-.1.027-.1.024v.01l.007.049s0 .013.008.012-.007-.049.029-.058l.027-.007c.013 0 .017 0 .022.015l.043.168zm.172-.229c-.009-.034.018-.028.015-.04s0 0-.013 0l-.041.013-.037.009s-.011 0-.01.008.037-.008.046.025l.048.173c.009.034-.016.031-.013.044l.036-.012.05-.012c.007 0 .01 0 .009-.008s-.035.015-.047-.029l-.048-.172zm.072.083a.113.113 0 0 0 .147.084.128.128 0 0 0 .075-.177.115.115 0 0 0-.15-.083.128.128 0 0 0-.073.176zm.032-.033c-.017-.051-.018-.105.036-.125s.093.014.12.092c.02.059.018.112-.037.132s-.106-.048-.123-.1zm.238-.169c-.008-.021 0-.025.013-.029.032-.012.059.006.073.04s.014.041-.034.059c-.009 0-.021.008-.024 0l-.028-.07zm.025.176c.017.044-.013.042-.008.053s.009 0 .012 0l.048-.02.027-.009c.007 0 .009-.006.008-.009s-.03.014-.045-.023l-.024-.06c0-.012-.008-.014.009-.02a.027.027 0 0 1 .036.007l.048.044c.018.016.036.034.061.025s.03-.021.026-.031h-.006L12 8.768a.012.012 0 0 1-.013 0L11.9 8.69l.012-.022a.059.059 0 0 0 0-.051.069.069 0 0 0-.1-.036l-.063.026-.037.013s-.006 0 0 .008.034-.014.049.025l.06.153z" style="fill:#713f2a" transform="translate(80 728)"/>
        </g>
        <path data-name="Path 3157" d="M8.253 4.985H9.9v1.64H8.253z" style="fill:#d52b1e" transform="translate(80 728)"/>
        <path data-name="Path 3158" d="M9.024 6.277a.4.4 0 0 1-.017.106.251.251 0 0 1-.036.081.263.263 0 0 1-.076.078.188.188 0 0 1-.119.034c-.11-.01-.161-.129-.186-.225s-.1-.158-.149-.121a.065.065 0 0 0-.006.093.18.18 0 0 0 .082.056l-.059.075a.184.184 0 0 1-.151-.154.157.157 0 0 1 .1-.17.169.169 0 0 1 .206.1c.045.088.064.249.189.224.068-.014.1-.112.1-.157l.049-.053.073.023zm.1 0a.4.4 0 0 0 .017.106.251.251 0 0 0 .036.081.263.263 0 0 0 .076.078.188.188 0 0 0 .119.034c.11-.01.161-.129.186-.225s.1-.158.149-.121a.065.065 0 0 1 .006.093.18.18 0 0 1-.082.056l.059.075a.184.184 0 0 0 .153-.154.157.157 0 0 0-.1-.17.169.169 0 0 0-.206.1c-.045.088-.064.249-.189.224-.068-.014-.1-.112-.1-.157L9.2 6.252l-.073.023z" style="fill:#fff" transform="translate(80 728)"/>
        <path data-name="Path 3159" d="m9.222 5.579.215-.233a.094.094 0 0 0 .032-.068l-.044.007-.01-.023v-.023l.06-.013v-.028c0-.011 0-.015.006-.025h-.065c0-.011 0-.017.006-.028a.081.081 0 0 1 .01-.022l.038-.006h.037A.187.187 0 0 1 9.8 5.1a.165.165 0 0 1-.039.263.126.126 0 0 1-.137-.022l.039-.077a.06.06 0 0 0 .1-.05.092.092 0 0 0-.087-.09.1.1 0 0 0-.1.062.194.194 0 0 0-.011.07.478.478 0 0 1-.011.076.175.175 0 0 1-.047.072l-.221.239-.859.929-.065-.06.864-.935z" style="fill:#fedd00" transform="translate(80 728)"/>
        <path data-name="Path 3160" d="M8.59 5.661a3.419 3.419 0 0 0 .237.669.626.626 0 0 1 .247-.056.576.576 0 0 1 .247.056 3.418 3.418 0 0 0 .237-.669l-.485-.624z" style="fill:#fff" transform="translate(80 728)"/>
        <path data-name="Path 3161" d="m9.122 5.248.336.433a3.126 3.126 0 0 1-.182.527.947.947 0 0 0-.155-.026v-.934zm-.095 0-.336.433a3.126 3.126 0 0 0 .182.527.947.947 0 0 1 .155-.026v-.934zm1.044-.263h1.644v1.64h-1.643z" style="fill:#fedd00" transform="translate(80 728)"/>
        <path data-name="Path 3162" d="M10.3 4.985h.245v1.64H10.3zm.47 0h.245v1.64h-.245v-1.64zm.47 0h.245v1.64h-.245v-1.64z" style="fill:#d52b1e" transform="translate(80 728)"/>
        <path data-name="Path 3163" d="M8.259 8.048a.415.415 0 0 0 .041.132.488.488 0 0 0 .086.12.478.478 0 0 0 .125.09.539.539 0 0 0 .137.05 1.019 1.019 0 0 0 .331.032 1.969 1.969 0 0 0 .2-.021 2.175 2.175 0 0 1 .222-.02h.123a1.031 1.031 0 0 1 .146.02 1.594 1.594 0 0 1 .219.064V6.8H8.253v1.172s0 .057.006.076z" style="fill:#fedd00" transform="translate(80 728)"/>
        <path data-name="Path 3164" d="m8.45 8.349.077.045.106.038V6.8H8.45zm.913.074V6.8h-.182v1.649l.183-.02zM9.728 6.8h-.182v1.629a1.209 1.209 0 0 1 .183.034zM9 6.8v1.668a1.613 1.613 0 0 1-.183 0V6.8z" style="stroke:#d52b1e;fill:#d52b1e;stroke-width:.01px" transform="translate(80 728)"/>
        <path data-name="Path 3165" d="M11.71 8.048a.415.415 0 0 1-.043.132.488.488 0 0 1-.086.12.479.479 0 0 1-.125.09.538.538 0 0 1-.137.05 1.019 1.019 0 0 1-.331.032 1.973 1.973 0 0 1-.2-.021 2.173 2.173 0 0 0-.222-.02h-.123a1.029 1.029 0 0 0-.146.02 1.649 1.649 0 0 0-.221.064V6.8h1.644v1.172s0 .057-.006.076z" style="fill:#fedd00" transform="translate(80 728)"/>
        <path data-name="Path 3166" d="m10.492 6.938-.012.006-.016.016-.025.017-.012.009c-.005.006 0 .013-.005.02a.074.074 0 0 1-.013.019l-.021.02a.1.1 0 0 1-.022.02h-.018c-.008 0-.01.011-.016.014s0 .007 0 .012l.016.029c0 .006.005.014.011.016a.062.062 0 0 0 .026 0 .215.215 0 0 1 .041.009c.012.005.017.012.029.017a.1.1 0 0 0 .026.009.06.06 0 0 0 .02 0h.012v.007l.041.018a.033.033 0 0 0-.005.024.16.16 0 0 0 .029.064c.012 0 .016.017.023.03l-.007.006a.18.18 0 0 0-.033.036c-.015.024-.025.024-.006.056s.016.022.031.048a.163.163 0 0 1 .016.039.153.153 0 0 1 .006.039l.019.008.013-.013.012-.024V7.5a.015.015 0 0 1-.005-.016c0-.007.01-.006.014-.012s-.007-.015-.013-.022-.029-.017-.033-.037 0-.009.008-.014l.039-.036a.029.029 0 0 0 .019 0c.006 0 .011 0 .028.007a.044.044 0 0 0 .024 0h.007a.07.07 0 0 1 0 .014.287.287 0 0 0 0 .07l.006.011a.034.034 0 0 1 0 .013v.037a.3.3 0 0 1 0 .035.04.04 0 0 1-.009.021c-.006.007-.012.008-.019.014v.02l.023.009.026.006.014-.006a.024.024 0 0 1 0-.012s0-.009.009-.011.015 0 .018 0 0-.007 0-.015 0-.02-.006-.033a.236.236 0 0 1 0-.055.188.188 0 0 1 0-.031c0-.018.01-.026.014-.044a.431.431 0 0 0 .007-.049.487.487 0 0 0 .187-.007l.015-.005a.173.173 0 0 0 .054.032v.033a.012.012 0 0 0 .007.006.013.013 0 0 0 .013 0v-.015a.079.079 0 0 0 0-.014h.035v.019a.013.013 0 0 0 .01.008.013.013 0 0 0 .011 0c.006 0 .005-.01.006-.017v-.016l.021-.007a.1.1 0 0 1 0 .016.1.1 0 0 1 0 .019.144.144 0 0 1-.015.028.235.235 0 0 1-.021.031l-.011.013-.012.018a.093.093 0 0 1-.019.021c-.014.011-.023 0-.042.017v.021l.029.011H11.126a.02.02 0 0 1 0-.015.022.022 0 0 1 .016-.008h.021c.006 0 .007-.018.013-.029a.253.253 0 0 1 .06-.078c.012-.012.023-.015.033-.029s.01-.009.011-.017v-.014a.192.192 0 0 1 0-.02c.03.015.019.013.025.028s0 .021 0 .034.009.022.011.038a.148.148 0 0 1-.006.046.143.143 0 0 1-.009.04.077.077 0 0 1-.023.031l-.012.008v.021l.023.008.033.009.007-.007c0-.013 0-.032.008-.034s.014 0 .016-.006a.1.1 0 0 0 0-.012l.012-.09.008-.038a.132.132 0 0 1 .008-.034c.015-.042 0-.048-.021-.073a.06.06 0 0 1-.014-.03v-.12h.007a.082.082 0 0 0 .048-.049.069.069 0 0 0 .006-.029v-.021a.055.055 0 0 0-.006-.019.064.064 0 0 0-.011-.017.109.109 0 0 0-.054-.029.278.278 0 0 0-.082-.011.537.537 0 0 0-.086 0c-.04 0-.063.01-.1.015a.867.867 0 0 1-.1.008c-.045 0-.088-.009-.116-.007-.049 0-.05.015-.124.021h-.077l-.043-.014a.048.048 0 0 0 .029-.021c.005-.007 0-.014.011-.021s.009-.012.016-.019a.044.044 0 0 0-.019-.009.05.05 0 0 0-.019 0 .063.063 0 0 0-.024.007.055.055 0 0 0-.017.012.392.392 0 0 0-.044-.024.184.184 0 0 0-.06-.018zm.039.238z" style="fill:#d52b1e" transform="translate(80 728)"/>
        <g data-name="Group 13848">
            <path data-name="Path 3167" d="M11.375 7.19h-.015a.136.136 0 0 1-.052.01c-.053 0-.085-.021-.14-.017-.028 0-.04.024-.069.031a.185.185 0 0 1-.034.006l.01-.021a.274.274 0 0 1-.042.005.151.151 0 0 1-.03 0l.02-.019L11 7.181a.078.078 0 0 1-.021-.013l.034-.007c.031-.008.041-.023.078-.027a.636.636 0 0 1 .153.014.177.177 0 0 0 .111-.005.04.04 0 0 0 .022-.036.043.043 0 0 0-.017-.036.035.035 0 0 0-.022-.007" style="stroke:#fedf00;stroke-width:.02px;stroke-linecap:round;fill:none" transform="translate(80 728)"/>
            <path data-name="Path 3168" d="M10.5 7.012a.037.037 0 0 0-.027.006c-.01.006-.011.014-.018.023.009 0 .014.007.023.005a.027.027 0 0 0 .015-.01.031.031 0 0 0 .009-.023z" style="fill:#fcd900;stroke:#fedf00;stroke-width:.01px" transform="translate(80 728)"/>
            <g data-name="Group 13847">
                <path data-name="Path 3169" d="m10.721 7.276.008.016a.153.153 0 0 1 .01.029.4.4 0 0 1 0 .042v.031m.136-.139-.007.027-.019.069v.013m-.217-.08c.016 0 .011.067.036.082" style="stroke:#fedf00;stroke-width:.02px;stroke-linecap:round;fill:none" transform="translate(80 728)"/>
                <path data-name="Path 3170" d="M11.2 7.4h.008a.163.163 0 0 0 .054-.036" style="stroke:#fedf00;stroke-width:.02px;fill:none" transform="translate(80 728)"/>
                <g data-name="Group 13846">
                    <path data-name="Path 3171" d="M11.048 7.36h0c.071-.018.118-.053.152-.057" style="stroke:#fedf00;stroke-width:.02px;stroke-linecap:round;fill:none" transform="translate(80 728)"/>
                    <path data-name="Path 3172" d="M11.119 7.272h.017c.029 0 .034.014.054.025.037.021.042.046.086.067h.006l.017.009" style="stroke:#fedf00;stroke-width:.02px;stroke-linecap:round;fill:none" transform="translate(80 728)"/>
                </g>
            </g>
            <path data-name="Path 3173" d="M10.354 7.091h.03a.019.019 0 0 1 .014 0 .017.017 0 0 1 .002.009.013.013 0 0 1 0 .009.012.012 0 0 1-.012.008.011.011 0 0 1-.011-.005.009.009 0 0 1 0-.008.023.023 0 0 1-.028-.01z" style="fill:#fcd900;stroke:#fedf00;stroke-width:.01px" transform="translate(80 728)"/>
        </g>
        <path data-name="Path 3174" d="M10.5 7.283a.31.31 0 0 1-.039-.017c.006-.005.012-.005.017-.011s.007-.016.012-.026 0-.019.013-.027a.026.026 0 0 1 .022 0 .025.025 0 0 1 .017.015v.029a.08.08 0 0 0 0 .029.121.121 0 0 0 .007.018l-.049-.01zm-.02.019a.013.013 0 1 1 .013.012.012.012 0 0 1-.013-.012zm-.035-.33c-.008-.006-.008-.013-.012-.022a.082.082 0 0 1-.006-.023.146.146 0 0 1 0-.021.148.148 0 0 0 0-.019.043.043 0 0 0 0-.019s-.008-.007-.006-.008h.008a.033.033 0 0 1 .019.008.037.037 0 0 1 .013.021l.008.029a.054.054 0 0 0 .006.015l.01.013-.016.017-.017.011zm.072.213.045.021a.185.185 0 0 0 .07-.078.277.277 0 0 0 .027-.086l-.036-.012h-.007a.313.313 0 0 1-.032.084.233.233 0 0 1-.053.061l-.014.01zm.1.362a.265.265 0 0 1 .018-.025.255.255 0 0 1 .026-.023h.01a.173.173 0 0 1 0 .031.169.169 0 0 1-.007.024.07.07 0 0 1-.008.02l-.01.01c-.01-.015-.027-.026-.026-.038zm.66.037a.15.15 0 0 1 .059.03.023.023 0 0 1 0 .01l-.031.005h-.025a.069.069 0 0 1-.021 0l-.013-.006c.011-.014.018-.033.029-.036zm-.2-.041a.151.151 0 0 1 .059.03.023.023 0 0 1 0 .01l-.031.005h-.025a.069.069 0 0 1-.021 0l-.013-.006c.019-.016.026-.035.037-.038zm-.347.043.029.011.029.019a.024.024 0 0 1 0 .01l-.031.005h-.025a.069.069 0 0 1-.021 0l-.013-.006c.011-.014.018-.033.029-.036zm-.18-.6c-.012-.006-.021-.021-.013-.032s.008 0 .011-.008a.025.025 0 0 0 0-.017.1.1 0 0 0 0-.019.1.1 0 0 1 0-.021.045.045 0 0 1 .007-.031.037.037 0 0 1 .016-.012v.016a.077.077 0 0 0 .006.023c0 .011.01.016.014.027a.072.072 0 0 1 .008.027.046.046 0 0 1 0 .023.04.04 0 0 1-.012.017.037.037 0 0 1-.016.008.023.023 0 0 1-.013 0z" style="fill:#005eb8" transform="translate(80 728)"/>
        <path data-name="Path 3175" d="m10.492 6.938-.012.006-.016.016-.025.017-.012.009c-.005.006 0 .013-.005.02a.074.074 0 0 1-.013.019l-.021.02a.1.1 0 0 1-.022.02h-.018c-.008 0-.01.011-.016.014s0 .007 0 .012l.016.029c0 .006.005.014.011.016a.062.062 0 0 0 .026 0 .215.215 0 0 1 .041.009c.012.005.017.012.029.017a.1.1 0 0 0 .026.009.06.06 0 0 0 .02 0h.012v.007l.041.018a.033.033 0 0 0-.005.024.16.16 0 0 0 .029.064c.012 0 .016.017.023.03l-.007.006a.18.18 0 0 0-.033.036c-.015.024-.025.024-.006.056s.016.022.031.048a.163.163 0 0 1 .016.039.153.153 0 0 1 .006.039l.019.008.013-.013.012-.024V7.5a.015.015 0 0 1-.005-.016c0-.007.01-.006.014-.012s-.007-.015-.013-.022-.029-.017-.033-.037 0-.009.008-.014l.039-.036a.029.029 0 0 0 .019 0c.006 0 .011 0 .028.007a.044.044 0 0 0 .024 0h.007a.07.07 0 0 1 0 .014.287.287 0 0 0 0 .07l.006.011a.034.034 0 0 1 0 .013v.037a.3.3 0 0 1 0 .035.04.04 0 0 1-.009.021c-.006.007-.012.008-.019.014v.02l.023.009.026.006.014-.006a.024.024 0 0 1 0-.012s0-.009.009-.011.015 0 .018 0 0-.007 0-.015 0-.02-.006-.033a.236.236 0 0 1 0-.055.188.188 0 0 1 0-.031c0-.018.01-.026.014-.044a.431.431 0 0 0 .007-.049.487.487 0 0 0 .187-.007l.015-.005a.173.173 0 0 0 .054.032v.033a.012.012 0 0 0 .007.006.013.013 0 0 0 .013 0v-.015a.079.079 0 0 0 0-.014h.035v.019a.013.013 0 0 0 .01.008.013.013 0 0 0 .011 0c.006 0 .005-.01.006-.017v-.016l.021-.007a.1.1 0 0 1 0 .016.1.1 0 0 1 0 .019.144.144 0 0 1-.015.028.235.235 0 0 1-.021.031l-.011.013-.012.018a.093.093 0 0 1-.019.021c-.014.011-.023 0-.042.017v.021l.029.011H11.126a.02.02 0 0 1 0-.015.022.022 0 0 1 .016-.008h.021c.006 0 .007-.018.013-.029a.253.253 0 0 1 .06-.078c.012-.012.023-.015.033-.029s.01-.009.011-.017v-.014a.192.192 0 0 1 0-.02c.03.015.019.013.025.028s0 .021 0 .034.009.022.011.038a.148.148 0 0 1-.006.046.143.143 0 0 1-.009.04.077.077 0 0 1-.023.031l-.012.008v.021l.023.008.033.009.007-.007c0-.013 0-.032.008-.034s.014 0 .016-.006a.1.1 0 0 0 0-.012l.012-.09.008-.038a.132.132 0 0 1 .008-.034c.015-.042 0-.048-.021-.073a.06.06 0 0 1-.014-.03v-.12h.007a.082.082 0 0 0 .048-.049.069.069 0 0 0 .006-.029v-.021a.055.055 0 0 0-.006-.019.064.064 0 0 0-.011-.017.109.109 0 0 0-.054-.029.278.278 0 0 0-.082-.011.537.537 0 0 0-.086 0c-.04 0-.063.01-.1.015a.867.867 0 0 1-.1.008c-.045 0-.088-.009-.116-.007-.049 0-.05.015-.124.021h-.077l-.043-.014a.048.048 0 0 0 .029-.021c.005-.007 0-.014.011-.021s.009-.012.016-.019a.044.044 0 0 0-.019-.009.05.05 0 0 0-.019 0 .063.063 0 0 0-.024.007.055.055 0 0 0-.017.012.392.392 0 0 0-.044-.024.184.184 0 0 0-.06-.018zm.039.238z" transform="translate(80 728.732)" style="fill:#d52b1e"/>
        <g data-name="Group 13851">
            <path data-name="Path 3176" d="M11.375 7.19h-.015a.136.136 0 0 1-.052.01c-.053 0-.085-.021-.14-.017-.028 0-.04.024-.069.031a.185.185 0 0 1-.034.006l.01-.021a.274.274 0 0 1-.042.005.151.151 0 0 1-.03 0l.02-.019L11 7.181a.078.078 0 0 1-.021-.013l.034-.007c.031-.008.041-.023.078-.027a.636.636 0 0 1 .153.014.177.177 0 0 0 .111-.005.04.04 0 0 0 .022-.036.043.043 0 0 0-.017-.036.035.035 0 0 0-.022-.007" transform="translate(80 728.732)" style="stroke:#fedf00;stroke-width:.02px;stroke-linecap:round;fill:none"/>
            <path data-name="Path 3177" d="M10.5 7.012a.037.037 0 0 0-.027.006c-.01.006-.011.014-.018.023.009 0 .014.007.023.005a.027.027 0 0 0 .015-.01.031.031 0 0 0 .009-.023z" transform="translate(80 728.732)" style="fill:#fcd900;stroke:#fedf00;stroke-width:.01px"/>
            <g data-name="Group 13850">
                <path data-name="Path 3178" d="m10.721 7.276.008.016a.153.153 0 0 1 .01.029.4.4 0 0 1 0 .042v.031m.136-.139-.007.027-.019.069v.013m-.217-.08c.016 0 .011.067.036.082" transform="translate(80 728.732)" style="stroke:#fedf00;stroke-width:.02px;stroke-linecap:round;fill:none"/>
                <path data-name="Path 3179" d="M11.2 8.127h.008a.163.163 0 0 0 .054-.036" style="stroke:#fedf00;stroke-width:.02px;fill:none" transform="translate(80 728)"/>
                <g data-name="Group 13849">
                    <path data-name="Path 3180" d="M11.048 8.092h0c.071-.018.118-.053.152-.057" style="stroke:#fedf00;stroke-width:.02px;stroke-linecap:round;fill:none" transform="translate(80 728)"/>
                    <path data-name="Path 3181" d="M11.119 7.272h.017c.029 0 .034.014.054.025.037.021.042.046.086.067h.006l.017.009" transform="translate(80 728.732)" style="stroke:#fedf00;stroke-width:.02px;stroke-linecap:round;fill:none"/>
                </g>
            </g>
            <path data-name="Path 3182" d="M10.354 7.091h.03a.019.019 0 0 1 .014 0 .017.017 0 0 1 .002.009.013.013 0 0 1 0 .009.012.012 0 0 1-.012.008.011.011 0 0 1-.011-.005.009.009 0 0 1 0-.008.023.023 0 0 1-.028-.01z" transform="translate(80 728.732)" style="fill:#fcd900;stroke:#fedf00;stroke-width:.01px"/>
        </g>
        <path data-name="Path 3183" d="M10.5 8.015A.31.31 0 0 1 10.463 8c.006-.005.012-.005.017-.011s.007-.016.012-.026 0-.019.013-.027a.026.026 0 0 1 .022 0 .025.025 0 0 1 .017.015v.029a.08.08 0 0 0 0 .029.121.121 0 0 0 .007.018l-.051-.012zm-.02.019a.013.013 0 1 1 .013.012.013.013 0 0 1-.013-.012zm-.035-.33c-.008-.006-.008-.013-.012-.022a.082.082 0 0 1-.006-.023.146.146 0 0 1 0-.021.148.148 0 0 0 0-.019.043.043 0 0 0 0-.019s-.008-.007-.006-.008h.008a.033.033 0 0 1 .019.008.037.037 0 0 1 .013.021l.008.029a.054.054 0 0 0 .006.015l.01.013-.016.017-.017.011zm.072.213.045.021a.185.185 0 0 0 .07-.078.277.277 0 0 0 .027-.086l-.036-.012h-.007a.313.313 0 0 1-.032.084.233.233 0 0 1-.053.061l-.014.01zm.1.362a.265.265 0 0 1 .018-.025.254.254 0 0 1 .026-.023h.01a.173.173 0 0 1 0 .031.169.169 0 0 1-.007.024.07.07 0 0 1-.008.02l-.01.01c-.01-.015-.027-.026-.026-.038zm.66.037a.15.15 0 0 1 .059.03.023.023 0 0 1 0 .01l-.031.005h-.025a.069.069 0 0 1-.021 0l-.013-.006c.015-.017.021-.036.033-.039zm-.2-.041a.151.151 0 0 1 .059.03.023.023 0 0 1 0 .01l-.031.005h-.025a.069.069 0 0 1-.021 0l-.013-.006c.019-.014.026-.035.037-.039zm-.347.043.029.011.029.019a.024.024 0 0 1 0 .01l-.031.005h-.025a.069.069 0 0 1-.021 0l-.013-.006c.011-.014.018-.033.029-.036zm-.18-.6c-.012-.006-.021-.021-.013-.032s.008 0 .011-.008a.025.025 0 0 0 0-.017.1.1 0 0 0 0-.019.1.1 0 0 1 0-.021.045.045 0 0 1 .007-.031.037.037 0 0 1 .017-.012v.016a.077.077 0 0 0 .006.023c0 .011.01.016.014.027a.072.072 0 0 1 .008.027.046.046 0 0 1 0 .023.04.04 0 0 1-.012.017.037.037 0 0 1-.016.008.023.023 0 0 1-.013 0z" style="fill:#005eb8" transform="translate(80 728)"/>
        <path data-name="Path 3184" d="M8.253 4.985H9.9v1.64H8.253zm1.819 0h1.644v1.64h-1.644zM8.259 8.048a.415.415 0 0 0 .041.132.488.488 0 0 0 .086.12.478.478 0 0 0 .125.09.539.539 0 0 0 .137.05 1.019 1.019 0 0 0 .331.032 1.969 1.969 0 0 0 .2-.021 2.175 2.175 0 0 1 .222-.02h.123a1.031 1.031 0 0 1 .146.02 1.594 1.594 0 0 1 .219.064V6.8H8.253v1.172s0 .057.006.076zm3.45 0a.415.415 0 0 1-.043.132.488.488 0 0 1-.086.12.479.479 0 0 1-.125.09.538.538 0 0 1-.137.05 1.019 1.019 0 0 1-.331.032 1.973 1.973 0 0 1-.2-.021 2.173 2.173 0 0 0-.222-.02h-.123a1.029 1.029 0 0 0-.146.02 1.649 1.649 0 0 0-.221.064V6.8h1.644v1.172s0 .057-.006.076z" style="stroke-width:.016px;stroke:#713f2a;fill:none" transform="translate(80 728)"/>
    </g>
</svg>
