<svg xmlns="http://www.w3.org/2000/svg" width="20" height="14" viewBox="0 0 20 14">
    <defs>
        <clipPath id="1vyrfbxywa">
            <rect data-name="Rectangle 4923" width="20" height="14" rx="1" transform="translate(80 888)" style="stroke:#707070;fill:#fff"/>
        </clipPath>
        <clipPath id="uh8ucbw1db">
            <circle data-name="Ellipse 318" cx="3.5" cy="3.5" r="3.5" transform="translate(-3.5 -3.5)"/>
        </clipPath>
        <clipPath id="b1652ry5ec">
            <path data-name="Path 3217" d="M-.15 0v-.333h.3V0zM0-.224v.057h.15v-.057z"/>
        </clipPath>
    </defs>
    <g transform="translate(10 7)" data-name="Mask Group 404" style="clip-path:url(#1vyrfbxywa)">
        <path data-name="Path 3202" d="M-10-7h20V7h-20z" style="fill:#009b3a"/>
        <path data-name="Path 3203" d="M-8.3 0 0 5.3 8.3 0 0-5.3z" style="fill:#fedf00"/>
        <circle data-name="Ellipse 317" cx="3.5" cy="3.5" r="3.5" transform="translate(-3.5 -3.5)" style="fill:#002776"/>
        <g data-name="Group 13857" style="clip-path:url(#uh8ucbw1db)">
            <path data-name="Path 3204" d="M-10.5 7A8.5 8.5 0 0 1-2-1.5 8.5 8.5 0 0 1 6.5 7H6a8 8 0 0 0-8-8 8 8 0 0 0-8 8z" style="fill:#fff"/>
        </g>
        <g data-name="Group 13863">
            <path data-name="Path 3205" d="M0 0a.159.159 0 0 0 .15-.167A.159.159 0 0 0 0-.333a.159.159 0 0 0-.15.167A.159.159 0 0 0 0 0m0-.062a.1.1 0 0 0 .088-.1A.1.1 0 0 0 0-.271a.1.1 0 0 0-.088.1A.1.1 0 0 0 0-.062" transform="rotate(-7 -9.855 23.89)" style="fill-rule:evenodd;fill:#009b3a"/>
            <g data-name="Group 13858">
                <path data-name="Path 3206" d="M-.15 0h.062v-.124h.133a.1.1 0 0 0 .1-.1.1.1 0 0 0-.1-.1h-.19zm.062-.186H.04a.043.043 0 0 0 .043-.043.043.043 0 0 0-.043-.042h-.128z" style="fill-rule:evenodd" transform="rotate(-4 -16.516 36.18)"/>
                <path data-name="Path 3207" d="M-2.431-1.073c-.004-.048-.01-.152-.082-.147l-.09.006c.1-.007.107.093.11.145"/>
            </g>
            <path data-name="Path 3208" d="M-.15 0h.157A.143.143 0 0 0 .15-.143V-.19a.143.143 0 0 0-.143-.143H-.15zm.062-.062H0a.09.09 0 0 0 .09-.09v-.029A.09.09 0 0 0 0-.271h-.09z" transform="translate(-2.141 -1.082)" style="fill-rule:evenodd;fill:#009b3a"/>
            <path data-name="Path 3209" d="M0 0h.3v-.062H.057v-.086h.19V-.2h-.19v-.071h.229v-.062H0z" transform="rotate(2 30.117 -54.05)" style="fill:#009b3a"/>
            <path data-name="Path 3210" d="M-.15 0h.057v-.229L-.026 0h.052l.067-.229V0H.15v-.333H.067L0-.1l-.067-.233H-.15z" transform="rotate(5 11.411 -15.357)" style="fill:#009b3a"/>
            <path data-name="Path 3211" d="M-.125 0h.25v-.057h-.193v-.076h.157V-.19h-.157v-.053h.187V-.3h-.244z" transform="rotate(9.73 5.365 -4.19)" style="fill:#009b3a"/>
            <path data-name="Path 3212" d="M-.15 0h.062v-.124h.133a.1.1 0 0 0 .1-.1.1.1 0 0 0-.1-.1h-.19zm.062-.186H.04a.043.043 0 0 0 .043-.043.043.043 0 0 0-.043-.042h-.128z" transform="rotate(14.5 3.258 -.319)" style="fill-rule:evenodd;fill:#009b3a"/>
            <g data-name="Group 13859">
                <path data-name="Path 3213" d="M-.15 0h.062v-.124h.133a.1.1 0 0 0 .1-.1.1.1 0 0 0-.1-.1h-.19zm.062-.186H.04a.043.043 0 0 0 .043-.043.043.043 0 0 0-.043-.042h-.128z" style="fill-rule:evenodd" transform="rotate(17.5 2.519 1.046)"/>
                <path data-name="Path 3214" d="M.558-.669C.572-.715.604-.814.536-.835L.45-.862c.095.03.065.125.05.175"/>
            </g>
            <path data-name="Path 3215" d="M0 0a.159.159 0 0 0 .15-.167A.159.159 0 0 0 0-.333a.159.159 0 0 0-.15.167A.159.159 0 0 0 0 0m0-.062a.1.1 0 0 0 .088-.1A.1.1 0 0 0 0-.271a.1.1 0 0 0-.088.1A.1.1 0 0 0 0-.062" transform="rotate(20.5 1.994 2.012)" style="fill-rule:evenodd;fill:#009b3a"/>
            <g data-name="Group 13861">
                <g data-name="Group 13860" style="clip-path:url(#b1652ry5ec)" transform="rotate(23.5 1.604 2.733)">
                    <path data-name="Path 3216" d="M0 0a.159.159 0 0 0 .15-.167A.159.159 0 0 0 0-.333a.159.159 0 0 0-.15.167A.159.159 0 0 0 0 0m0-.062a.1.1 0 0 0 .088-.1A.1.1 0 0 0 0-.271a.1.1 0 0 0-.088.1A.1.1 0 0 0 0-.062" style="fill-rule:evenodd"/>
                </g>
                <path data-name="Path 3218" d="m1.312-.557.115.05-.019.045-.116-.05z"/>
                <path data-name="Path 3219" d="m1.381-.526.046.02-.066.153-.046-.02z"/>
            </g>
            <g data-name="Group 13862">
                <path data-name="Path 3220" d="M-.15 0h.062v-.124h.133a.1.1 0 0 0 .1-.1.1.1 0 0 0-.1-.1h-.19zm.062-.186H.04a.043.043 0 0 0 .043-.043.043.043 0 0 0-.043-.042h-.128z" style="fill-rule:evenodd" transform="rotate(26.5 1.3 3.297)"/>
                <path data-name="Path 3221" d="M1.726-.175c.021-.043.068-.136.004-.167l-.08-.04c.09.044.045.134.021.18"/>
            </g>
            <path data-name="Path 3222" d="M0 0h.3v-.062H.057v-.086h.19V-.2h-.19v-.071h.229v-.062H0z" transform="rotate(29.5 1.132 3.459)" style="fill:#009b3a"/>
            <path data-name="Path 3223" d="M-.075-.1c0 .033.032.05.08.05s.07-.015.07-.037c0-.068-.223-.025-.221-.144 0-.1.118-.1.161-.1s.124.019.123.1H.064c0-.036-.033-.049-.071-.049s-.063.005-.063.04c0 .056.22.019.22.137C.15-.017.064 0 0 0s-.15-.021-.15-.1z" transform="rotate(32.5 .858 4.113)" style="fill:#009b3a"/>
            <path data-name="Path 3224" d="M-.075-.1c0 .033.032.05.08.05s.07-.015.07-.037c0-.068-.223-.025-.221-.144 0-.1.118-.1.161-.1s.124.019.123.1H.064c0-.036-.033-.049-.071-.049s-.063.005-.063.04c0 .056.22.019.22.137C.15-.017.064 0 0 0s-.15-.021-.15-.1z" transform="rotate(35.51 .692 4.415)" style="fill:#009b3a"/>
            <path data-name="Path 3225" d="M0 0a.159.159 0 0 0 .15-.167A.159.159 0 0 0 0-.333a.159.159 0 0 0-.15.167A.159.159 0 0 0 0 0m0-.062a.1.1 0 0 0 .088-.1A.1.1 0 0 0 0-.271a.1.1 0 0 0-.088.1A.1.1 0 0 0 0-.062" transform="rotate(38.5 .551 4.678)" style="fill-rule:evenodd;fill:#009b3a"/>
        </g>
        <g data-name="Group 13868">
            <path d="M0-.15V0h.075" transform="rotate(18 .556 -9.482)" style="fill:#fff"/>
            <path data-name="Path 3226" d="M0 .15V0h.075" transform="rotate(162 -1.355 -.54)" style="fill:#fff"/>
            <g data-name="Group 13864">
                <path data-name="t" d="M0-.15V0h.075" transform="rotate(90 -1.095 -1.77)" style="fill:#fff"/>
                <path data-name="Path 3227" d="M0 .15V0h.075" transform="rotate(-126 -1.568 .429)" style="fill:#fff"/>
            </g>
            <g data-name="Group 13865">
                <path data-name="t" d="M0-.15V0h.075" transform="rotate(-54 -2.015 2.53)" style="fill:#fff"/>
                <path data-name="Path 3228" d="M0 .15V0h.075" transform="rotate(90 -1.087 -1.762)" style="fill:#fff"/>
            </g>
            <g data-name="Group 13866">
                <path data-name="t" d="M0-.15V0h.075" transform="rotate(162 -1.356 -.548)" style="fill:#fff"/>
                <path data-name="Path 3229" d="M0 .15V0h.075" transform="rotate(-54 -2.03 2.537)" style="fill:#fff"/>
            </g>
            <g data-name="Group 13867">
                <path data-name="t" d="M0-.15V0h.075" transform="rotate(-126 -1.564 .421)" style="fill:#fff"/>
                <path data-name="Path 3230" d="M0 .15V0h.075" transform="rotate(18 .606 -9.469)" style="fill:#fff"/>
            </g>
        </g>
        <g data-name="Group 13873">
            <g data-name="c">
                <path data-name="t" d="M0-.15V0h.075" transform="rotate(18 -3.936 -7.77)" style="fill:#fff"/>
                <path data-name="Path 3231" d="M0 .15V0h.075" transform="rotate(162 -1.317 .22)" style="fill:#fff"/>
            </g>
            <g data-name="Group 13869">
                <path data-name="t" d="M0-.15V0h.075" transform="rotate(90 -1.676 -.88)" style="fill:#fff"/>
                <path data-name="Path 3232" d="M0 .15V0h.075" transform="rotate(-126 -1.038 1.086)" style="fill:#fff"/>
            </g>
            <g data-name="Group 13870">
                <path data-name="t" d="M0-.15V0h.075" transform="rotate(-54 -.416 2.963)" style="fill:#fff"/>
                <path data-name="Path 3233" d="M0 .15V0h.075" transform="rotate(90 -1.669 -.872)" style="fill:#fff"/>
            </g>
            <g data-name="Group 13871">
                <path data-name="t" d="M0-.15V0h.075" transform="rotate(162 -1.318 .212)" style="fill:#fff"/>
                <path data-name="Path 3234" d="M0 .15V0h.075" transform="rotate(-54 -.431 2.97)" style="fill:#fff"/>
            </g>
            <g data-name="Group 13872">
                <path data-name="t" d="M0-.15V0h.075" transform="rotate(-126 -1.034 1.079)" style="fill:#fff"/>
                <path data-name="Path 3235" d="M0 .15V0h.075" transform="rotate(18 -3.884 -7.76)" style="fill:#fff"/>
            </g>
        </g>
        <g data-name="Group 13878">
            <g data-name="c">
                <path data-name="t" d="M0-.125V0h.063" transform="rotate(18 -5.141 -8.942)" style="fill:#fff"/>
                <path data-name="Path 3236" d="M0 .125V0h.063" transform="rotate(162 -1.56 .343)" style="fill:#fff"/>
            </g>
            <g data-name="Group 13874">
                <path data-name="t" d="M0-.125V0h.063" transform="rotate(90 -2.05 -.932)" style="fill:#fff"/>
                <path data-name="Path 3237" d="M0 .125V0h.063" transform="rotate(-126 -1.175 1.35)" style="fill:#fff"/>
            </g>
            <g data-name="Group 13875">
                <path data-name="t" d="M0-.125V0h.063" transform="rotate(-54 -.327 3.534)" style="fill:#fff"/>
                <path data-name="Path 3238" d="M0 .125V0h.063" transform="rotate(90 -2.044 -.926)" style="fill:#fff"/>
            </g>
            <g data-name="Group 13876">
                <path data-name="t" d="M0-.125V0h.063" transform="rotate(162 -1.56 .336)" style="fill:#fff"/>
                <path data-name="Path 3239" d="M0 .125V0h.063" transform="rotate(-54 -.34 3.54)" style="fill:#fff"/>
            </g>
            <g data-name="Group 13877">
                <path data-name="t" d="M0-.125V0h.063" transform="rotate(-126 -1.172 1.344)" style="fill:#fff"/>
                <path data-name="Path 3240" d="M0 .125V0h.063" transform="rotate(18 -5.095 -8.932)" style="fill:#fff"/>
            </g>
        </g>
        <g data-name="Group 13883">
            <g data-name="c">
                <path data-name="t" d="M0-.071V0h.036" transform="rotate(18 -3.09 -6.717)" style="fill:#fff"/>
                <path data-name="Path 3241" d="M0 .071V0h.036" transform="rotate(162 -1.141 .14)" style="fill:#fff"/>
            </g>
            <g data-name="Group 13879">
                <path data-name="t" d="M0-.071V0h.036" transform="rotate(90 -1.408 -.8)" style="fill:#fff"/>
                <path data-name="Path 3242" d="M0 .071V0h.036" transform="rotate(-126 -.932 .884)" style="fill:#fff"/>
            </g>
            <g data-name="Group 13880">
                <path data-name="t" d="M0-.071V0h.036" transform="rotate(-54 -.47 2.498)" style="fill:#fff"/>
                <path data-name="Path 3243" d="M0 .071V0h.036" transform="rotate(90 -1.404 -.797)" style="fill:#fff"/>
            </g>
            <g data-name="Group 13881">
                <path data-name="t" d="M0-.071V0h.036" transform="rotate(162 -1.142 .136)" style="fill:#fff"/>
                <path data-name="Path 3244" d="M0 .071V0h.036" transform="rotate(-54 -.478 2.501)" style="fill:#fff"/>
            </g>
            <g data-name="Group 13882">
                <path data-name="t" d="M0-.071V0h.036" transform="rotate(-126 -.93 .88)" style="fill:#fff"/>
                <path data-name="Path 3245" d="M0 .071V0h.036" transform="rotate(18 -3.061 -6.71)" style="fill:#fff"/>
            </g>
        </g>
        <g data-name="Group 13888">
            <g data-name="c">
                <path data-name="t" d="M0-.125V0h.063" transform="rotate(18 -4.667 -5.273)" style="fill:#fff"/>
                <path data-name="Path 3246" d="M0 .125V0h.063" transform="rotate(162 -.984 .451)" style="fill:#fff"/>
            </g>
            <g data-name="Group 13884">
                <path data-name="t" d="M0-.125V0h.063" transform="rotate(90 -1.488 -.337)" style="fill:#fff"/>
                <path data-name="Path 3247" d="M0 .125V0h.063" transform="rotate(-126 -.588 1.072)" style="fill:#fff"/>
            </g>
            <g data-name="Group 13885">
                <path data-name="t" d="M0-.125V0h.063" transform="rotate(-54 .284 2.415)" style="fill:#fff"/>
                <path data-name="Path 3248" d="M0 .125V0h.063" transform="rotate(90 -1.482 -.33)" style="fill:#fff"/>
            </g>
            <g data-name="Group 13886">
                <path data-name="t" d="M0-.125V0h.063" transform="rotate(162 -.985 .445)" style="fill:#fff"/>
                <path data-name="Path 3249" d="M0 .125V0h.063" transform="rotate(-54 .271 2.42)" style="fill:#fff"/>
            </g>
            <g data-name="Group 13887">
                <path data-name="t" d="M0-.125V0h.063" transform="rotate(-126 -.585 1.065)" style="fill:#fff"/>
                <path data-name="Path 3250" d="M0 .125V0h.063" transform="rotate(18 -4.622 -5.265)" style="fill:#fff"/>
            </g>
        </g>
        <g data-name="Group 13893">
            <g data-name="c">
                <path data-name="t" d="M0-.1V0h.05" transform="rotate(18 -5.817 -5.405)" style="fill:#fff"/>
                <path data-name="Path 3251" d="M0 .1V0h.05" transform="rotate(162 -1.068 .617)" style="fill:#fff"/>
            </g>
            <g data-name="Group 13889">
                <path data-name="t" d="M0-.1V0h.05" transform="rotate(90 -1.718 -.21)" style="fill:#fff"/>
                <path data-name="Path 3252" d="M0 .1V0h.05" transform="rotate(-126 -.556 1.27)" style="fill:#fff"/>
            </g>
            <g data-name="Group 13890">
                <path data-name="t" d="M0-.1V0h.05" transform="rotate(-54 .567 2.685)" style="fill:#fff"/>
                <path data-name="Path 3253" d="M0 .1V0h.05" transform="rotate(90 -1.713 -.206)" style="fill:#fff"/>
            </g>
            <g data-name="Group 13891">
                <path data-name="t" d="M0-.1V0h.05" transform="rotate(162 -1.069 .612)" style="fill:#fff"/>
                <path data-name="Path 3254" d="M0 .1V0h.05" transform="rotate(-54 .558 2.69)" style="fill:#fff"/>
            </g>
            <g data-name="Group 13892">
                <path data-name="t" d="M0-.1V0h.05" transform="rotate(-126 -.553 1.265)" style="fill:#fff"/>
                <path data-name="Path 3255" d="M0 .1V0h.05" transform="rotate(18 -5.781 -5.398)" style="fill:#fff"/>
            </g>
        </g>
        <g data-name="Group 13898">
            <g data-name="c">
                <path data-name="t" d="M0-.15V0h.075" transform="rotate(18 3.97 2.737)" style="fill:#fff"/>
                <path data-name="Path 3256" d="M0 .15V0h.075" transform="rotate(162 .653 -.457)" style="fill:#fff"/>
            </g>
            <g data-name="Group 13894">
                <path data-name="t" d="M0-.15V0h.075" transform="rotate(90 1.105 -.027)" style="fill:#fff"/>
                <path data-name="Path 3257" d="M0 .15V0h.075" transform="rotate(-126 .287 -.804)" style="fill:#fff"/>
            </g>
            <g data-name="Group 13895">
                <path data-name="t" d="M0-.15V0h.075" transform="rotate(-54 -.492 -1.567)" style="fill:#fff"/>
                <path data-name="Path 3258" d="M0 .15V0h.075" transform="rotate(90 1.113 -.02)" style="fill:#fff"/>
            </g>
            <g data-name="Group 13896">
                <path data-name="t" d="M0-.15V0h.075" transform="rotate(162 .651 -.464)" style="fill:#fff"/>
                <path data-name="Path 3259" d="M0 .15V0h.075" transform="rotate(-54 -.507 -1.56)" style="fill:#fff"/>
            </g>
            <g data-name="Group 13897">
                <path data-name="t" d="M0-.15V0h.075" transform="rotate(-126 .291 -.812)" style="fill:#fff"/>
                <path data-name="Path 3260" d="M0 .15V0h.075" transform="rotate(18 4.015 2.744)" style="fill:#fff"/>
            </g>
        </g>
        <g data-name="Group 13903">
            <g data-name="c">
                <path data-name="t" d="M0-.15V0h.075" transform="rotate(18 -2.655 8.206)" style="fill:#fff"/>
                <path data-name="Path 3261" d="M0 .15V0h.075" transform="rotate(162 1.152 .809)" style="fill:#fff"/>
            </g>
            <g data-name="Group 13899">
                <path data-name="t" d="M0-.15V0h.075" transform="rotate(90 .63 1.814)" style="fill:#fff"/>
                <path data-name="Path 3262" d="M0 .15V0h.075" transform="rotate(-126 1.56 .005)" style="fill:#fff"/>
            </g>
            <g data-name="Group 13900">
                <path data-name="t" d="M0-.15V0h.075" transform="rotate(-54 2.462 -1.75)" style="fill:#fff"/>
                <path data-name="Path 3263" d="M0 .15V0h.075" transform="rotate(90 .638 1.821)" style="fill:#fff"/>
            </g>
            <g data-name="Group 13901">
                <path data-name="t" d="M0-.15V0h.075" transform="rotate(162 1.15 .801)" style="fill:#fff"/>
                <path data-name="Path 3264" d="M0 .15V0h.075" transform="rotate(-54 2.447 -1.742)" style="fill:#fff"/>
            </g>
            <g data-name="Group 13902">
                <path data-name="t" d="M0-.15V0h.075" transform="rotate(-126 1.564 -.002)" style="fill:#fff"/>
                <path data-name="Path 3265" d="M0 .15V0h.075" transform="rotate(18 -2.607 8.208)" style="fill:#fff"/>
            </g>
        </g>
        <g data-name="Group 13908">
            <g data-name="c">
                <path data-name="t" d="M0-.1V0h.05" transform="rotate(18 -2.515 9.806)" style="fill:#fff"/>
                <path data-name="Path 3266" d="M0 .1V0h.05" transform="rotate(162 1.385 .864)" style="fill:#fff"/>
            </g>
            <g data-name="Group 13904">
                <path data-name="t" d="M0-.1V0h.05" transform="rotate(90 .851 2.082)" style="fill:#fff"/>
                <path data-name="Path 3267" d="M0 .1V0h.05" transform="rotate(-126 1.805 -.107)" style="fill:#fff"/>
            </g>
            <g data-name="Group 13905">
                <path data-name="t" d="M0-.1V0h.05" transform="rotate(-54 2.728 -2.224)" style="fill:#fff"/>
                <path data-name="Path 3268" d="M0 .1V0h.05" transform="rotate(90 .856 2.087)" style="fill:#fff"/>
            </g>
            <g data-name="Group 13906">
                <path data-name="t" d="M0-.1V0h.05" transform="rotate(162 1.384 .859)" style="fill:#fff"/>
                <path data-name="Path 3269" d="M0 .1V0h.05" transform="rotate(-54 2.718 -2.219)" style="fill:#fff"/>
            </g>
            <g data-name="Group 13907">
                <path data-name="t" d="M0-.1V0h.05" transform="rotate(-126 1.807 -.112)" style="fill:#fff"/>
                <path data-name="Path 3270" d="M0 .1V0h.05" transform="rotate(18 -2.485 9.803)" style="fill:#fff"/>
            </g>
        </g>
        <g data-name="Group 13913">
            <g data-name="c">
                <path data-name="t" d="M0-.125V0h.063" transform="rotate(18 -3.558 8.835)" style="fill:#fff"/>
                <path data-name="Path 3271" d="M0 .125V0h.063" transform="rotate(162 1.196 .975)" style="fill:#fff"/>
            </g>
            <g data-name="Group 13909">
                <path data-name="t" d="M0-.125V0h.063" transform="rotate(90 .545 2.044)" style="fill:#fff"/>
                <path data-name="Path 3272" d="M0 .125V0h.063" transform="rotate(-126 1.707 .121)" style="fill:#fff"/>
            </g>
            <g data-name="Group 13910">
                <path data-name="t" d="M0-.125V0h.063" transform="rotate(-54 2.832 -1.742)" style="fill:#fff"/>
                <path data-name="Path 3273" d="M0 .125V0h.063" transform="rotate(90 .551 2.05)" style="fill:#fff"/>
            </g>
            <g data-name="Group 13911">
                <path data-name="t" d="M0-.125V0h.063" transform="rotate(162 1.195 .968)" style="fill:#fff"/>
                <path data-name="Path 3274" d="M0 .125V0h.063" transform="rotate(-54 2.82 -1.736)" style="fill:#fff"/>
            </g>
            <g data-name="Group 13912">
                <path data-name="t" d="M0-.125V0h.063" transform="rotate(-126 1.71 .114)" style="fill:#fff"/>
                <path data-name="Path 3275" d="M0 .125V0h.063" transform="rotate(18 -3.518 8.835)" style="fill:#fff"/>
            </g>
        </g>
        <g data-name="Group 13918">
            <g data-name="c">
                <path data-name="t" d="M0-.125V0h.063" transform="rotate(18 -6.294 6.54)" style="fill:#fff"/>
                <path data-name="Path 3276" d="M0 .125V0h.063" transform="rotate(162 .716 1.274)" style="fill:#fff"/>
            </g>
            <g data-name="Group 13914">
                <path data-name="t" d="M0-.125V0h.063" transform="rotate(90 -.243 1.989)" style="fill:#fff"/>
                <path data-name="Path 3277" d="M0 .125V0h.063" transform="rotate(-126 1.472 .702)" style="fill:#fff"/>
            </g>
            <g data-name="Group 13915">
                <path data-name="t" d="M0-.125V0h.063" transform="rotate(-54 3.13 -.549)" style="fill:#fff"/>
                <path data-name="Path 3278" d="M0 .125V0h.063" transform="rotate(90 -.237 1.995)" style="fill:#fff"/>
            </g>
            <g data-name="Group 13916">
                <path data-name="t" d="M0-.125V0h.063" transform="rotate(162 .715 1.268)" style="fill:#fff"/>
                <path data-name="Path 3279" d="M0 .125V0h.063" transform="rotate(-54 3.117 -.542)" style="fill:#fff"/>
            </g>
            <g data-name="Group 13917">
                <path data-name="t" d="M0-.125V0h.063" transform="rotate(-126 1.476 .696)" style="fill:#fff"/>
                <path data-name="Path 3280" d="M0 .125V0h.063" transform="rotate(18 -6.251 6.54)" style="fill:#fff"/>
            </g>
        </g>
        <g data-name="Group 13923">
            <g data-name="c">
                <path data-name="t" d="M0-.1V0h.05" transform="rotate(18 -7.41 6.73)" style="fill:#fff"/>
                <path data-name="Path 3281" d="M0 .1V0h.05" transform="rotate(162 .682 1.45)" style="fill:#fff"/>
            </g>
            <g data-name="Group 13919">
                <path data-name="t" d="M0-.1V0h.05" transform="rotate(90 -.425 2.168)" style="fill:#fff"/>
                <path data-name="Path 3282" d="M0 .1V0h.05" transform="rotate(-126 1.557 .877)" style="fill:#fff"/>
            </g>
            <g data-name="Group 13920">
                <path data-name="t" d="M0-.1V0h.05" transform="rotate(-54 3.47 -.375)" style="fill:#fff"/>
                <path data-name="Path 3283" d="M0 .1V0h.05" transform="rotate(90 -.42 2.173)" style="fill:#fff"/>
            </g>
            <g data-name="Group 13921">
                <path data-name="t" d="M0-.1V0h.05" transform="rotate(162 .681 1.446)" style="fill:#fff"/>
                <path data-name="Path 3284" d="M0 .1V0h.05" transform="rotate(-54 3.459 -.37)" style="fill:#fff"/>
            </g>
            <g data-name="Group 13922">
                <path data-name="t" d="M0-.1V0h.05" transform="rotate(-126 1.56 .872)" style="fill:#fff"/>
                <path data-name="Path 3285" d="M0 .1V0h.05" transform="rotate(18 -7.376 6.728)" style="fill:#fff"/>
            </g>
        </g>
        <g data-name="Group 13928">
            <g data-name="c">
                <path data-name="t" d="M0-.1V0h.05" transform="rotate(18 -5.248 7.527)" style="fill:#fff"/>
                <path data-name="Path 3286" d="M0 .1V0h.05" transform="rotate(162 .908 1.164)" style="fill:#fff"/>
            </g>
            <g data-name="Group 13924">
                <path data-name="t" d="M0-.1V0h.05" transform="rotate(90 .066 2.03)" style="fill:#fff"/>
                <path data-name="Path 3287" d="M0 .1V0h.05" transform="rotate(-126 1.573 .473)" style="fill:#fff"/>
            </g>
            <g data-name="Group 13925">
                <path data-name="t" d="M0-.1V0h.05" transform="rotate(-54 3.028 -1.035)" style="fill:#fff"/>
                <path data-name="Path 3288" d="M0 .1V0h.05" transform="rotate(90 .07 2.034)" style="fill:#fff"/>
            </g>
            <g data-name="Group 13926">
                <path data-name="t" d="M0-.1V0h.05" transform="rotate(162 .907 1.159)" style="fill:#fff"/>
                <path data-name="Path 3289" d="M0 .1V0h.05" transform="rotate(-54 3.018 -1.03)" style="fill:#fff"/>
            </g>
            <g data-name="Group 13927">
                <path data-name="t" d="M0-.1V0h.05" transform="rotate(-126 1.575 .468)" style="fill:#fff"/>
                <path data-name="Path 3290" d="M0 .1V0h.05" transform="rotate(18 -5.216 7.525)" style="fill:#fff"/>
            </g>
        </g>
        <g data-name="Group 13933">
            <g data-name="c">
                <path data-name="t" d="M0-.125V0h.063" transform="rotate(18 -4.552 8.3)" style="fill:#fff"/>
                <path data-name="Path 3291" d="M0 .125V0h.063" transform="rotate(162 1.066 1.098)" style="fill:#fff"/>
            </g>
            <g data-name="Group 13929">
                <path data-name="t" d="M0-.125V0h.063" transform="rotate(90 .297 2.077)" style="fill:#fff"/>
                <path data-name="Path 3292" d="M0 .125V0h.063" transform="rotate(-126 1.672 .316)" style="fill:#fff"/>
            </g>
            <g data-name="Group 13930">
                <path data-name="t" d="M0-.125V0h.063" transform="rotate(-54 3.001 -1.392)" style="fill:#fff"/>
                <path data-name="Path 3293" d="M0 .125V0h.063" transform="rotate(90 .304 2.084)" style="fill:#fff"/>
            </g>
            <g data-name="Group 13931">
                <path data-name="t" d="M0-.125V0h.063" transform="rotate(162 1.065 1.092)" style="fill:#fff"/>
                <path data-name="Path 3294" d="M0 .125V0h.063" transform="rotate(-54 2.988 -1.385)" style="fill:#fff"/>
            </g>
            <g data-name="Group 13932">
                <path data-name="t" d="M0-.125V0h.063" transform="rotate(-126 1.675 .31)" style="fill:#fff"/>
                <path data-name="Path 3295" d="M0 .125V0h.063" transform="rotate(18 -4.512 8.3)" style="fill:#fff"/>
            </g>
        </g>
        <g data-name="Group 13938">
            <g data-name="c">
                <path data-name="t" d="M0-.1V0h.05" transform="rotate(18 -5.22 6.35)" style="fill:#fff"/>
                <path data-name="Path 3296" d="M0 .1V0h.05" transform="rotate(162 .732 1.102)" style="fill:#fff"/>
            </g>
            <g data-name="Group 13934">
                <path data-name="t" d="M0-.1V0h.05" transform="rotate(90 -.082 1.816)" style="fill:#fff"/>
                <path data-name="Path 3297" d="M0 .1V0h.05" transform="rotate(-126 1.375 .532)" style="fill:#fff"/>
            </g>
            <g data-name="Group 13935">
                <path data-name="t" d="M0-.1V0h.05" transform="rotate(-54 2.782 -.713)" style="fill:#fff"/>
                <path data-name="Path 3298" d="M0 .1V0h.05" transform="rotate(90 -.078 1.82)" style="fill:#fff"/>
            </g>
            <g data-name="Group 13936">
                <path data-name="t" d="M0-.1V0h.05" transform="rotate(162 .731 1.097)" style="fill:#fff"/>
                <path data-name="Path 3299" d="M0 .1V0h.05" transform="rotate(-54 2.772 -.708)" style="fill:#fff"/>
            </g>
            <g data-name="Group 13937">
                <path data-name="t" d="M0-.1V0h.05" transform="rotate(-126 1.377 .527)" style="fill:#fff"/>
                <path data-name="Path 3300" d="M0 .1V0h.05" transform="rotate(18 -5.188 6.35)" style="fill:#fff"/>
            </g>
        </g>
        <g data-name="Group 13943">
            <g data-name="c">
                <path data-name="t" d="M0-.125V0h.063" transform="rotate(18 -1.118 -4.263)" style="fill:#fff"/>
                <path data-name="Path 3301" d="M0 .125V0h.063" transform="rotate(162 -.658 -.034)" style="fill:#fff"/>
            </g>
            <g data-name="Group 13939">
                <path data-name="t" d="M0-.125V0h.063" transform="rotate(90 -.722 -.618)" style="fill:#fff"/>
                <path data-name="Path 3302" d="M0 .125V0h.063" transform="rotate(-126 -.612 .424)" style="fill:#fff"/>
            </g>
            <g data-name="Group 13940">
                <path data-name="t" d="M0-.125V0h.063" transform="rotate(-54 -.5 1.415)" style="fill:#fff"/>
                <path data-name="Path 3303" d="M0 .125V0h.063" transform="rotate(90 -.715 -.611)" style="fill:#fff"/>
            </g>
            <g data-name="Group 13941">
                <path data-name="t" d="M0-.125V0h.063" transform="rotate(162 -.659 -.04)" style="fill:#fff"/>
                <path data-name="Path 3304" d="M0 .125V0h.063" transform="rotate(-54 -.513 1.42)" style="fill:#fff"/>
            </g>
            <g data-name="Group 13942">
                <path data-name="t" d="M0-.125V0h.063" transform="rotate(-126 -.609 .418)" style="fill:#fff"/>
                <path data-name="Path 3305" d="M0 .125V0h.063" transform="rotate(18 -1.077 -4.254)" style="fill:#fff"/>
            </g>
        </g>
        <g data-name="Group 13948">
            <g data-name="c">
                <path data-name="t" d="M0-.1V0h.05" transform="rotate(18 1.032 2.817)" style="fill:#fff"/>
                <path data-name="Path 3306" d="M0 .1V0h.05" transform="rotate(162 .506 -.013)" style="fill:#fff"/>
            </g>
            <g data-name="Group 13944">
                <path data-name="t" d="M0-.1V0h.05" transform="rotate(90 .577 .37)" style="fill:#fff"/>
                <path data-name="Path 3307" d="M0 .1V0h.05" transform="rotate(-126 .445 -.32)" style="fill:#fff"/>
            </g>
            <g data-name="Group 13945">
                <path data-name="t" d="M0-.1V0h.05" transform="rotate(-54 .324 -.994)" style="fill:#fff"/>
                <path data-name="Path 3308" d="M0 .1V0h.05" transform="rotate(90 .582 .375)" style="fill:#fff"/>
            </g>
            <g data-name="Group 13946">
                <path data-name="t" d="M0-.1V0h.05" transform="rotate(162 .505 -.017)" style="fill:#fff"/>
                <path data-name="Path 3309" d="M0 .1V0h.05" transform="rotate(-54 .314 -.99)" style="fill:#fff"/>
            </g>
            <g data-name="Group 13947">
                <path data-name="t" d="M0-.1V0h.05" transform="rotate(-126 .448 -.325)" style="fill:#fff"/>
                <path data-name="Path 3310" d="M0 .1V0h.05" transform="rotate(18 1.061 2.82)" style="fill:#fff"/>
            </g>
        </g>
        <g data-name="Group 13953">
            <g data-name="c">
                <path data-name="t" d="M0-.15V0h.075" transform="rotate(18 -4.96 .637)" style="fill:#fff"/>
                <path data-name="Path 3311" d="M0 .15V0h.075" transform="rotate(162 -.1 .786)" style="fill:#fff"/>
            </g>
            <g data-name="Group 13949">
                <path data-name="t" d="M0-.15V0h.075" transform="rotate(90 -.766 .759)" style="fill:#fff"/>
                <path data-name="Path 3312" d="M0 .15V0h.075" transform="rotate(-126 .421 .801)" style="fill:#fff"/>
            </g>
            <g data-name="Group 13950">
                <path data-name="t" d="M0-.15V0h.075" transform="rotate(-54 1.572 .827)" style="fill:#fff"/>
                <path data-name="Path 3313" d="M0 .15V0h.075" transform="rotate(90 -.759 .766)" style="fill:#fff"/>
            </g>
            <g data-name="Group 13951">
                <path data-name="t" d="M0-.15V0h.075" transform="rotate(162 -.102 .778)" style="fill:#fff"/>
                <path data-name="Path 3314" d="M0 .15V0h.075" transform="rotate(-54 1.557 .834)" style="fill:#fff"/>
            </g>
            <g data-name="Group 13952">
                <path data-name="t" d="M0-.15V0h.075" transform="rotate(-126 .425 .793)" style="fill:#fff"/>
                <path data-name="Path 3315" d="M0 .15V0h.075" transform="rotate(18 -4.91 .643)" style="fill:#fff"/>
            </g>
        </g>
        <g data-name="Group 13958">
            <g data-name="c">
                <path data-name="t" d="M0-.125V0h.063" transform="rotate(18 -2.563 1.59)" style="fill:#fff"/>
                <path data-name="Path 3316" d="M0 .125V0h.063" transform="rotate(162 .153 .47)" style="fill:#fff"/>
            </g>
            <g data-name="Group 13954">
                <path data-name="t" d="M0-.125V0h.063" transform="rotate(90 -.22 .618)" style="fill:#fff"/>
                <path data-name="Path 3317" d="M0 .125V0h.063" transform="rotate(-126 .444 .348)" style="fill:#fff"/>
            </g>
            <g data-name="Group 13955">
                <path data-name="t" d="M0-.125V0h.063" transform="rotate(-54 1.088 .076)" style="fill:#fff"/>
                <path data-name="Path 3318" d="M0 .125V0h.063" transform="rotate(90 -.213 .624)" style="fill:#fff"/>
            </g>
            <g data-name="Group 13956">
                <path data-name="t" d="M0-.125V0h.063" transform="rotate(162 .152 .464)" style="fill:#fff"/>
                <path data-name="Path 3319" d="M0 .125V0h.063" transform="rotate(-54 1.075 .082)" style="fill:#fff"/>
            </g>
            <g data-name="Group 13957">
                <path data-name="t" d="M0-.125V0h.063" transform="rotate(-126 .447 .342)" style="fill:#fff"/>
                <path data-name="Path 3320" d="M0 .125V0h.063" transform="rotate(18 -2.522 1.595)" style="fill:#fff"/>
            </g>
        </g>
        <g data-name="Group 13963">
            <g data-name="c">
                <path data-name="t" d="M0-.125V0h.063" transform="rotate(18 -1.775 .155)" style="fill:#fff"/>
                <path data-name="Path 3321" d="M0 .125V0h.063" transform="rotate(162 -.025 .281)" style="fill:#fff"/>
            </g>
            <g data-name="Group 13959">
                <path data-name="t" d="M0-.125V0h.063" transform="rotate(90 -.265 .258)" style="fill:#fff"/>
                <path data-name="Path 3322" d="M0 .125V0h.063" transform="rotate(-126 .161 .294)" style="fill:#fff"/>
            </g>
            <g data-name="Group 13960">
                <path data-name="t" d="M0-.125V0h.063" transform="rotate(-54 .577 .316)" style="fill:#fff"/>
                <path data-name="Path 3323" d="M0 .125V0h.063" transform="rotate(90 -.258 .265)" style="fill:#fff"/>
            </g>
            <g data-name="Group 13961">
                <path data-name="t" d="M0-.125V0h.063" transform="rotate(162 -.026 .275)" style="fill:#fff"/>
                <path data-name="Path 3324" d="M0 .125V0h.063" transform="rotate(-54 .565 .322)" style="fill:#fff"/>
            </g>
            <g data-name="Group 13962">
                <path data-name="t" d="M0-.125V0h.063" transform="rotate(-126 .164 .288)" style="fill:#fff"/>
                <path data-name="Path 3325" d="M0 .125V0h.063" transform="rotate(18 -1.734 .16)" style="fill:#fff"/>
            </g>
        </g>
        <g data-name="Group 13968">
            <g data-name="c">
                <path data-name="t" d="M0-.1V0h.05" transform="rotate(18 -2.941 -.774)" style="fill:#fff"/>
                <path data-name="Path 3326" d="M0 .1V0h.05" transform="rotate(162 -.23 .41)" style="fill:#fff"/>
            </g>
            <g data-name="Group 13964">
                <path data-name="t" d="M0-.1V0h.05" transform="rotate(90 -.6 .244)" style="fill:#fff"/>
                <path data-name="Path 3327" d="M0 .1V0h.05" transform="rotate(-126 .061 .538)" style="fill:#fff"/>
            </g>
            <g data-name="Group 13965">
                <path data-name="t" d="M0-.1V0h.05" transform="rotate(-54 .704 .811)" style="fill:#fff"/>
                <path data-name="Path 3328" d="M0 .1V0h.05" transform="rotate(90 -.596 .249)" style="fill:#fff"/>
            </g>
            <g data-name="Group 13966">
                <path data-name="t" d="M0-.1V0h.05" transform="rotate(162 -.23 .405)" style="fill:#fff"/>
                <path data-name="Path 3329" d="M0 .1V0h.05" transform="rotate(-54 .694 .816)" style="fill:#fff"/>
            </g>
            <g data-name="Group 13967">
                <path data-name="t" d="M0-.1V0h.05" transform="rotate(-126 .064 .533)" style="fill:#fff"/>
                <path data-name="Path 3330" d="M0 .1V0h.05" transform="rotate(18 -2.909 -.769)" style="fill:#fff"/>
            </g>
        </g>
        <g data-name="Group 13973">
            <g data-name="c">
                <path data-name="t" d="M0-.071V0h.036" transform="rotate(18 -3.622 -.067)" style="fill:#fff"/>
                <path data-name="Path 3331" d="M0 .071V0h.036" transform="rotate(162 -.165 .546)" style="fill:#fff"/>
            </g>
            <g data-name="Group 13969">
                <path data-name="t" d="M0-.071V0h.036" transform="rotate(90 -.639 .459)" style="fill:#fff"/>
                <path data-name="Path 3332" d="M0 .071V0h.036" transform="rotate(-126 .207 .612)" style="fill:#fff"/>
            </g>
            <g data-name="Group 13970">
                <path data-name="t" d="M0-.071V0h.036" transform="rotate(-54 1.025 .752)" style="fill:#fff"/>
                <path data-name="Path 3333" d="M0 .071V0h.036" transform="rotate(90 -.635 .463)" style="fill:#fff"/>
            </g>
            <g data-name="Group 13971">
                <path data-name="t" d="M0-.071V0h.036" transform="rotate(162 -.166 .542)" style="fill:#fff"/>
                <path data-name="Path 3334" d="M0 .071V0h.036" transform="rotate(-54 1.017 .755)" style="fill:#fff"/>
            </g>
            <g data-name="Group 13972">
                <path data-name="t" d="M0-.071V0h.036" transform="rotate(-126 .21 .608)" style="fill:#fff"/>
                <path data-name="Path 3335" d="M0 .071V0h.036" transform="rotate(18 -3.595 -.064)" style="fill:#fff"/>
            </g>
        </g>
        <g data-name="Group 13978">
            <g data-name="c">
                <path data-name="t" d="M0-.125V0h.063" transform="rotate(18 -6.917 4.36)" style="fill:#fff"/>
                <path data-name="Path 3336" d="M0 .125V0h.063" transform="rotate(162 .357 1.262)" style="fill:#fff"/>
            </g>
            <g data-name="Group 13974">
                <path data-name="t" d="M0-.125V0h.063" transform="rotate(90 -.638 1.68)" style="fill:#fff"/>
                <path data-name="Path 3337" d="M0 .125V0h.063" transform="rotate(-126 1.142 .925)" style="fill:#fff"/>
            </g>
            <g data-name="Group 13975">
                <path data-name="t" d="M0-.125V0h.063" transform="rotate(-54 2.863 .185)" style="fill:#fff"/>
                <path data-name="Path 3338" d="M0 .125V0h.063" transform="rotate(90 -.632 1.686)" style="fill:#fff"/>
            </g>
            <g data-name="Group 13976">
                <path data-name="t" d="M0-.125V0h.063" transform="rotate(162 .356 1.255)" style="fill:#fff"/>
                <path data-name="Path 3339" d="M0 .125V0h.063" transform="rotate(-54 2.85 .191)" style="fill:#fff"/>
            </g>
            <g data-name="Group 13977">
                <path data-name="t" d="M0-.125V0h.063" transform="rotate(-126 1.146 .918)" style="fill:#fff"/>
                <path data-name="Path 3340" d="M0 .125V0h.063" transform="rotate(18 -6.874 4.363)" style="fill:#fff"/>
            </g>
        </g>
        <g data-name="Group 13983">
            <g data-name="c">
                <path data-name="t" d="M0-.1V0h.05" transform="rotate(18 -5.791 5.18)" style="fill:#fff"/>
                <path data-name="Path 3341" d="M0 .1V0h.05" transform="rotate(162 .528 1.13)" style="fill:#fff"/>
            </g>
            <g data-name="Group 13979">
                <path data-name="t" d="M0-.1V0h.05" transform="rotate(90 -.337 1.68)" style="fill:#fff"/>
                <path data-name="Path 3342" d="M0 .1V0h.05" transform="rotate(-126 1.21 .69)" style="fill:#fff"/>
            </g>
            <g data-name="Group 13980">
                <path data-name="t" d="M0-.1V0h.05" transform="rotate(-54 2.704 -.27)" style="fill:#fff"/>
                <path data-name="Path 3343" d="M0 .1V0h.05" transform="rotate(90 -.332 1.685)" style="fill:#fff"/>
            </g>
            <g data-name="Group 13981">
                <path data-name="t" d="M0-.1V0h.05" transform="rotate(162 .527 1.126)" style="fill:#fff"/>
                <path data-name="Path 3344" d="M0 .1V0h.05" transform="rotate(-54 2.694 -.266)" style="fill:#fff"/>
            </g>
            <g data-name="Group 13982">
                <path data-name="t" d="M0-.1V0h.05" transform="rotate(-126 1.213 .686)" style="fill:#fff"/>
                <path data-name="Path 3345" d="M0 .1V0h.05" transform="rotate(18 -5.758 5.18)" style="fill:#fff"/>
            </g>
        </g>
        <g data-name="Group 13988">
            <g data-name="c">
                <path data-name="t" d="M0-.1V0h.05" transform="rotate(18 -5.808 3.315)" style="fill:#fff"/>
                <path data-name="Path 3346" d="M0 .1V0h.05" transform="rotate(162 .246 1.042)" style="fill:#fff"/>
            </g>
            <g data-name="Group 13984">
                <path data-name="t" d="M0-.1V0h.05" transform="rotate(90 -.582 1.349)" style="fill:#fff"/>
                <path data-name="Path 3347" d="M0 .1V0h.05" transform="rotate(-126 .9 .795)" style="fill:#fff"/>
            </g>
            <g data-name="Group 13985">
                <path data-name="t" d="M0-.1V0h.05" transform="rotate(-54 2.331 .252)" style="fill:#fff"/>
                <path data-name="Path 3348" d="M0 .1V0h.05" transform="rotate(90 -.578 1.353)" style="fill:#fff"/>
            </g>
            <g data-name="Group 13986">
                <path data-name="t" d="M0-.1V0h.05" transform="rotate(162 .245 1.037)" style="fill:#fff"/>
                <path data-name="Path 3349" d="M0 .1V0h.05" transform="rotate(-54 2.321 .257)" style="fill:#fff"/>
            </g>
            <g data-name="Group 13987">
                <path data-name="t" d="M0-.1V0h.05" transform="rotate(-126 .902 .79)" style="fill:#fff"/>
                <path data-name="Path 3350" d="M0 .1V0h.05" transform="rotate(18 -5.775 3.316)" style="fill:#fff"/>
            </g>
        </g>
        <g data-name="Group 13993">
            <g data-name="c">
                <path data-name="t" d="M0-.15V0h.075" transform="rotate(18 -6.566 -3.656)" style="fill:#fff"/>
                <path data-name="Path 3351" d="M0 .15V0h.075" transform="rotate(162 -.826 .817)" style="fill:#fff"/>
            </g>
            <g data-name="Group 13989">
                <path data-name="t" d="M0-.15V0h.075" transform="rotate(90 -1.612 .2)" style="fill:#fff"/>
                <path data-name="Path 3352" d="M0 .15V0h.075" transform="rotate(-126 -.208 1.302)" style="fill:#fff"/>
            </g>
            <g data-name="Group 13990">
                <path data-name="t" d="M0-.15V0h.075" transform="rotate(-54 1.15 2.349)" style="fill:#fff"/>
                <path data-name="Path 3353" d="M0 .15V0h.075" transform="rotate(90 -1.604 .207)" style="fill:#fff"/>
            </g>
            <g data-name="Group 13991">
                <path data-name="t" d="M0-.15V0h.075" transform="rotate(162 -.827 .81)" style="fill:#fff"/>
                <path data-name="Path 3354" d="M0 .15V0h.075" transform="rotate(-54 1.135 2.355)" style="fill:#fff"/>
            </g>
            <g data-name="Group 13992">
                <path data-name="t" d="M0-.15V0h.075" transform="rotate(-126 -.204 1.294)" style="fill:#fff"/>
                <path data-name="Path 3355" d="M0 .15V0h.075" transform="rotate(18 -6.513 -3.647)" style="fill:#fff"/>
            </g>
        </g>
        <g data-name="Group 13998">
            <g data-name="c">
                <path data-name="t" d="M0-.05V0h.025" transform="rotate(18 -8.645 1.32)" style="fill:#fff"/>
                <path data-name="Path 3356" d="M0 .05V0h.025" transform="rotate(162 -.21 1.37)" style="fill:#fff"/>
            </g>
            <g data-name="Group 13994">
                <path data-name="t" d="M0-.05V0h.025" transform="rotate(90 -1.363 1.36)" style="fill:#fff"/>
                <path data-name="Path 3357" d="M0 .05V0h.025" transform="rotate(-126 .704 1.374)" style="fill:#fff"/>
            </g>
            <g data-name="Group 13995">
                <path data-name="t" d="M0-.05V0h.025" transform="rotate(-54 2.697 1.382)" style="fill:#fff"/>
                <path data-name="Path 3358" d="M0 .05V0h.025" transform="rotate(90 -1.36 1.363)" style="fill:#fff"/>
            </g>
            <g data-name="Group 13996">
                <path data-name="t" d="M0-.05V0h.025" transform="rotate(162 -.21 1.366)" style="fill:#fff"/>
                <path data-name="Path 3359" d="M0 .05V0h.025" transform="rotate(-54 2.691 1.385)" style="fill:#fff"/>
            </g>
            <g data-name="Group 13997">
                <path data-name="t" d="M0-.05V0h.025" transform="rotate(-126 .706 1.371)" style="fill:#fff"/>
                <path data-name="Path 3360" d="M0 .05V0h.025" transform="rotate(18 -8.622 1.32)" style="fill:#fff"/>
            </g>
        </g>
    </g>
</svg>
