<svg xmlns="http://www.w3.org/2000/svg" width="20" height="14" viewBox="0 0 20 14">
    <defs>
        <clipPath id="qtbz53pg6a">
            <rect data-name="Rectangle 4926" width="20" height="14" rx="1" transform="translate(80 696)" style="fill:#fff;stroke:#707070"/>
        </clipPath>
    </defs>
    <g data-name="Mask Group 399" transform="translate(-80 -696)" style="clip-path:url(#qtbz53pg6a)">
        <path data-name="Rectangle 4928" style="fill:red" d="M0 0h19.6v14H0z" transform="translate(80.2 696)"/>
        <path d="M88.6 698.722c-.136 0-.362.043-.357.148-.379-.065-.419.092-.4.231a.192.192 0 0 1 .114-.091.231.231 0 0 1 .158.041.631.631 0 0 1 .14.12.773.773 0 0 1-.342-.007.481.481 0 0 1-.162-.064 1.059 1.059 0 0 1-.124-.128c-.08-.082-.165-.059-.138.068a.367.367 0 0 0 .292.192 1.467 1.467 0 0 0 .259.032 2.076 2.076 0 0 1 .286 0 .415.415 0 0 1-.168.082.893.893 0 0 1-.3-.071c.01.068.1.132.266.165a2.794 2.794 0 0 1 .663.19 1.086 1.086 0 0 1 .319.269.632.632 0 0 1 .153.314c.028.259-.062.4-.23.45a.345.345 0 0 1-.288-.084.455.455 0 0 1-.093-.347c.015-.068.092-.244.026-.281a7.973 7.973 0 0 0-.941-.439c-.073-.028-.133.072-.157.11a1.464 1.464 0 0 1-1.047-.689c-.125-.223-.332 0-.3.211a.854.854 0 0 0 .45.525 1.6 1.6 0 0 0 .774.235c.15.028.149.223-.031.259a1.124 1.124 0 0 1-.9-.263c-.2-.184-.315.035-.256.159.1.382.644.49 1.2.366.214-.035.086.194.025.2a.772.772 0 0 1-1.007 0c-.166-.127-.279-.02-.217.164.161.48.779.379 1.2.143.109-.061.208.081.075.188-.527.368-.79.372-1.028.231-.3-.117-.324.213-.147.321a1.274 1.274 0 0 0 1.063-.2c.157-.117.164.066.065.138-.435.376-.607.475-1.061.414-.225-.018-.222.26-.045.368.242.148.714-.1 1.08-.4.154-.082.179.053.1.213a1.571 1.571 0 0 1-.636.526.8.8 0 0 1-.535.017c-.168-.058-.189.117-.1.276.056.1.288.126.538.038a1.638 1.638 0 0 0 .7-.541c.161-.141.141.048.067.181-.369.584-.707.8-1.152.764-.2-.034-.242.12-.116.262a.568.568 0 0 0 .739 0c.215-.207.625-.653.841-.892.152-.121.2 0 .156.244a.611.611 0 0 1-.418.4c-.189.108-.047.256.095.259a.631.631 0 0 0 .357-.226 1.276 1.276 0 0 0 .256-.578c.083-.136.231-.072.231.07a.627.627 0 0 1-.276.444c-.137.129.1.172.174.119a1.06 1.06 0 0 0 .386-.531c.055-.13.214-.067.14.145a1.118 1.118 0 0 1-.971.809c-.051.009-.083.039-.065.1.068.071.136.134.2.2-.313.091-.567.142-.88.234-.154-.1-.278-.186-.431-.287-.041-.095-.059-.239-.286-.137a.243.243 0 0 0-.31.026.268.268 0 0 1 .225.094c.063.166.208.182.357.135.1.082.148.144.245.226l-.487-.015c-.172-.185-.309-.175-.432-.03a.205.205 0 0 0-.2.13c.1-.041.164-.054.208-.009.183.106.3.082.393 0l.512.031c-.065.055-.154.084-.219.14-.265-.076-.4.026-.45.242a.494.494 0 0 0-.037.27.338.338 0 0 1 .143-.2c.236.06.325-.036.338-.178.114-.093.285-.113.4-.207.133.043.2.069.331.111a.247.247 0 0 0 .33.165c.208.007.171.092.188.16a.188.188 0 0 0-.074-.28.184.184 0 0 0-.285-.111c-.127-.036-.161-.088-.288-.124.321-.1.549-.125.87-.228.08.076.144.13.225.2.043.025.083.032.109 0a6.138 6.138 0 0 1 .478-.739.649.649 0 0 1 .262-.213.152.152 0 0 1 .15.038.3.3 0 0 1 .057.239.8.8 0 0 1-.107.323 1.215 1.215 0 0 1-.165.241 1.353 1.353 0 0 1-.368.305c-.186.121-.264.068-.408.06-.186.021-.235.111-.083.236a.571.571 0 0 0 .374.064c.089-.016.193-.132.268-.193.084-.1.222.018.128.13a.742.742 0 0 1-.556.336c-.223.03-.181.155-.033.216a.585.585 0 0 0 .628-.231c.094-.1.161-.107.144.052-.093.289-.221.4-.43.415-.169-.016-.171.115-.047.2.282.195.486-.137.581-.338.068-.181.172-.095.183.054a.716.716 0 0 1-.33.566c.185.294.4.593.584.888l.56-6.239-.545-1.005c-.058-.054-.256-.286-.307-.319-.019-.02-.03-.034 0-.045a1.071 1.071 0 0 1 .131-.029.873.873 0 0 0-.445-.222.994.994 0 0 1 .269-.017.883.883 0 0 0-.392-.3 2.875 2.875 0 0 0 .267-.194 2.515 2.515 0 0 1-.569-.109 1.1 1.1 0 0 0-.349-.1zm.02.244c.111 0 .179.038.179.084s-.069.085-.179.085-.18-.042-.18-.088.07-.081.18-.081z"/>
        <path data-name="Path 3185" d="M91.4 698.722c.136 0 .362.043.357.148.379-.065.419.092.4.231a.192.192 0 0 0-.114-.091.231.231 0 0 0-.158.041.631.631 0 0 0-.14.12.773.773 0 0 0 .342-.007.481.481 0 0 0 .167-.068 1.059 1.059 0 0 0 .124-.128c.08-.082.165-.059.138.068a.367.367 0 0 1-.292.192 1.467 1.467 0 0 1-.264.032 2.076 2.076 0 0 0-.286 0 .415.415 0 0 0 .168.082.893.893 0 0 0 .3-.071c-.01.068-.1.132-.266.165a2.794 2.794 0 0 0-.663.19 1.086 1.086 0 0 0-.313.267.632.632 0 0 0-.153.314c-.028.259.062.4.23.45a.345.345 0 0 0 .288-.084.455.455 0 0 0 .093-.347c-.015-.068-.092-.244-.026-.281a7.973 7.973 0 0 1 .941-.439c.073-.028.133.072.157.11a1.464 1.464 0 0 0 1.047-.689c.125-.223.332 0 .3.211a.854.854 0 0 1-.45.525 1.6 1.6 0 0 1-.782.237c-.15.028-.149.223.031.259a1.124 1.124 0 0 0 .9-.263c.2-.184.315.035.256.159-.1.382-.644.49-1.2.366-.214-.035-.086.194-.025.2a.772.772 0 0 0 1.007 0c.166-.127.279-.02.217.164-.161.48-.779.379-1.2.143-.109-.061-.208.081-.075.188.527.368.79.372 1.028.231.3-.117.324.213.147.321a1.274 1.274 0 0 1-1.063-.2c-.157-.117-.164.066-.065.138.435.376.607.475 1.061.414.225-.018.222.26.045.368-.242.148-.714-.1-1.08-.4-.154-.082-.179.053-.1.213a1.571 1.571 0 0 0 .636.526.8.8 0 0 0 .535.007c.168-.058.189.117.1.276-.056.1-.288.126-.538.038a1.638 1.638 0 0 1-.7-.541c-.161-.141-.141.048-.067.181.369.584.707.8 1.152.764.2-.034.242.12.116.262a.568.568 0 0 1-.739 0 23.603 23.603 0 0 1-.841-.892c-.152-.121-.2 0-.156.244a.611.611 0 0 0 .418.4c.189.108.047.256-.095.259a.631.631 0 0 1-.357-.226 1.276 1.276 0 0 1-.256-.578c-.083-.136-.231-.072-.231.07a.627.627 0 0 0 .276.444c.137.129-.1.172-.174.119a1.06 1.06 0 0 1-.386-.531c-.055-.13-.214-.067-.14.145a1.118 1.118 0 0 0 .971.809c.051.009.083.039.065.1-.068.071-.136.134-.2.2.313.091.567.142.88.234.154-.1.278-.186.431-.287.041-.095.059-.239.286-.137a.243.243 0 0 1 .31.026.268.268 0 0 0-.237.087c-.063.166-.208.182-.357.135-.1.082-.148.144-.245.226l.487-.015c.172-.185.309-.175.432-.03a.205.205 0 0 1 .2.13c-.1-.041-.164-.054-.208-.009-.183.106-.3.082-.393 0l-.512.031c.065.055.154.084.219.14.265-.076.4.026.45.242a.494.494 0 0 1 .037.27.338.338 0 0 0-.143-.2c-.236.06-.325-.036-.338-.178-.114-.093-.285-.113-.4-.207-.133.043-.2.069-.331.111a.247.247 0 0 1-.33.165c-.208.007-.171.092-.188.16a.188.188 0 0 1 .074-.28.184.184 0 0 1 .285-.111c.127-.036.161-.088.288-.124-.321-.1-.549-.125-.87-.228-.08.076-.144.13-.225.2-.043.025-.083.032-.109 0a6.138 6.138 0 0 0-.478-.739.649.649 0 0 0-.262-.213.152.152 0 0 0-.15.038.3.3 0 0 0-.057.239.8.8 0 0 0 .107.323 1.215 1.215 0 0 0 .165.241 1.353 1.353 0 0 0 .364.302c.186.121.264.068.408.06.192.021.238.111.086.236a.571.571 0 0 1-.374.064c-.089-.016-.193-.132-.268-.193-.084-.1-.222.018-.128.13a.742.742 0 0 0 .556.336c.223.03.181.155.033.216a.585.585 0 0 1-.628-.231c-.094-.1-.161-.107-.144.052.093.289.221.4.43.415.169-.016.171.115.047.2-.282.195-.486-.137-.581-.338-.068-.181-.172-.095-.183.054a.716.716 0 0 0 .33.566c-.185.294-.4.593-.584.888l-.56-6.239.56-.986c.058-.054.256-.286.307-.319.019-.02.03-.034 0-.045a1.071 1.071 0 0 0-.131-.029.873.873 0 0 1 .445-.222.994.994 0 0 0-.269-.017.883.883 0 0 1 .392-.3 2.875 2.875 0 0 1-.267-.194 2.515 2.515 0 0 0 .569-.109 1.1 1.1 0 0 1 .349-.1zm-.02.244c-.111 0-.179.038-.179.084s.069.085.179.085.18-.042.18-.088-.07-.081-.18-.081z"/>
    </g>
</svg>
