<svg xmlns="http://www.w3.org/2000/svg" width="127.682" height="21.482" viewBox="0 0 127.682 21.482">
    <path data-name="Path 1511" d="M3.759 21.476q-.5-.14-.812-.238l-.308-.1a.228.228 0 0 0-.042-.252.619.619 0 0 0-.406-.14 4.633 4.633 0 0 1-.868-.782 7.958 7.958 0 0 1-.784-1.036 7.062 7.062 0 0 1-.448-.784q-.2-.42.028-.518t.532-.238a2.311 2.311 0 0 1 .66-.332q.35-.112.574.364a2.977 2.977 0 0 0 1.132 1.088 4.156 4.156 0 0 0 1.764.532 4.224 4.224 0 0 0 2-.336 1.08 1.08 0 0 0 .728-.854 2.033 2.033 0 0 0-.42-1.274.916.916 0 0 0-.238-.364q-.154-.14-.448-.364t-.826-.728q-.42-.2-.77-.364t-.742-.364a7.4 7.4 0 0 1-1.008-.63 7.932 7.932 0 0 1-1.036-.9 4.657 4.657 0 0 1-.728-.938 1.93 1.93 0 0 1-.56-1.162A4.784 4.784 0 0 1 .775 9.18a5.074 5.074 0 0 1 .518-1.512 5.973 5.973 0 0 1 .618-1.018q.448-.63 1-1.3t1.08-1.221a5.15 5.15 0 0 1 .832-.741q.224-.224.476-.462l.252-.238q.028-.14.1-.14h.07a5.761 5.761 0 0 1 .616-.28 3.529 3.529 0 0 0 1.036-.728A17.183 17.183 0 0 1 10.565.322 9.3 9.3 0 0 1 12.637 0a3.224 3.224 0 0 1 1.372.378 4.2 4.2 0 0 1 1.162.882 2.137 2.137 0 0 1 .574 1.2 2.473 2.473 0 0 1-.182 1.61 7.054 7.054 0 0 1-1.036 1.764 4.759 4.759 0 0 1-1.36 1.222 1.609 1.609 0 0 1-1.33.084.775.775 0 0 1-.518-.784 1.232 1.232 0 0 1 .154-.532 6.578 6.578 0 0 1 .854-1.092 5.154 5.154 0 0 0 .952-1.876.527.527 0 0 0-.5-.644 1.563 1.563 0 0 0-.644.028q-.476.084-1.022.21a9.514 9.514 0 0 0-.952.266q-.406.14-.406.2V3q0 .084-.112.056a1.572 1.572 0 0 0-.377.176q-.321.176-.77.462t-.883.58q-.434.294-.745.522a1.7 1.7 0 0 0-.333.276q-.056.308-.644.56a3.162 3.162 0 0 0-.98.952q-.42.616-.98 1.568a4.062 4.062 0 0 0-.672 1.386 1.829 1.829 0 0 0 0 1.19 1.829 1.829 0 0 0 .77.882q.63.434 1.722 1.078a20.906 20.906 0 0 1 1.792 1.12 13.392 13.392 0 0 1 1.428 1.134 3.311 3.311 0 0 1 .756.91 2.313 2.313 0 0 1 .406 1.092 5.073 5.073 0 0 1 0 1.19 5.569 5.569 0 0 1-.182.938 4.3 4.3 0 0 1-.6.952q-.406.5-.742.476a1.452 1.452 0 0 0-.462.2 1.794 1.794 0 0 1-.35.2 4.023 4.023 0 0 1-.924.266q-.728.154-1.6.252a9.875 9.875 0 0 1-1.514.058zm15.26-1.876a1.976 1.976 0 0 1-.448-.77q-.168-.49-.336-1.134a1.724 1.724 0 0 1-.042-.5 2.181 2.181 0 0 0-.014-.448 4.65 4.65 0 0 1-.266.5 1.734 1.734 0 0 1-.35.448q-.112.112-.5.434a4.207 4.207 0 0 1-.784.518 2.837 2.837 0 0 1-1.638.546 1.694 1.694 0 0 1-1.246-.714 2.762 2.762 0 0 1-.728-.924 2 2 0 0 1-.112-1.344 10.924 10.924 0 0 1 .28-1.918 15.316 15.316 0 0 1 .924-2.506q.588-1.148.9-1.792a6.985 6.985 0 0 1 .392-.756 1.862 1.862 0 0 1 1.036.014q.616.154.672.546a1.6 1.6 0 0 1 0 1.05 7.348 7.348 0 0 1-.672 1.75q-.392.952-.742 1.848a6.268 6.268 0 0 0-.42 1.512q-.07.616.322.756a.936.936 0 0 0 .742-.028 2.991 2.991 0 0 0 1.162-1.008 11.489 11.489 0 0 0 1.428-2.66 8.334 8.334 0 0 0 .332-.994 4.9 4.9 0 0 0 .14-.966.973.973 0 0 1 .182-.7 1.726 1.726 0 0 1 .574-.56 1.267 1.267 0 0 1 .308-.266q.2-.126.252.014l.448-.028q.112-.028.252.224a1.228 1.228 0 0 0 .28.364q.308.252.28 1.092a7.188 7.188 0 0 1-.676 2.356 15.454 15.454 0 0 0-.714 1.736 4.666 4.666 0 0 0-.21 1.148 3.717 3.717 0 0 0 .084.854 1.448 1.448 0 0 0 .5.714.813.813 0 0 1 .35.658 4.678 4.678 0 0 1 .014.8q-.056.252-.434.35a2.127 2.127 0 0 1-.808.04 1.581 1.581 0 0 1-.714-.256zm4.284-.7a5.111 5.111 0 0 1-.546-.5.982.982 0 0 1-.21-.868 11.656 11.656 0 0 1 .224-1.386q.14-.6.336-1.386.056-.336.288-1.148t.574-1.764q.342-.952.706-1.806a8.262 8.262 0 0 1 .644-1.274 1.311 1.311 0 0 1 .91-.28 1.167 1.167 0 0 1 .826.224.874.874 0 0 1 .2.882 8.061 8.061 0 0 1-.784 1.946 7.118 7.118 0 0 1-.35.714 4.292 4.292 0 0 0-.294.616q-.084.238.056.21a2.968 2.968 0 0 1 .616-.714q.448-.406.952-.8t.952-.7a6.49 6.49 0 0 1 .616-.392 2.416 2.416 0 0 1 .518-.238 3.564 3.564 0 0 0 .406-.154 2.659 2.659 0 0 1 1.414-.238q.77.07.938.49a.464.464 0 0 0 .182.336l.154.112q.112 0 .126.084l.014.084q0 .2-.378.56a1.292 1.292 0 0 1-.826.392 2.181 2.181 0 0 0-.644.14q-.28.112-.672.28-1.064.616-1.918 1.092a7.188 7.188 0 0 0-1.75 1.456 4.46 4.46 0 0 1-.42.42 2.443 2.443 0 0 0-.448.56 1.582 1.582 0 0 0-.28.616q-.14.476-.238.91a3.93 3.93 0 0 0-.1.518l-.086.262a1.659 1.659 0 0 1-.28.518 1.518 1.518 0 0 1-.658.56q-.322.114-.77-.334zm12.376 1.256a3.058 3.058 0 0 1-2.368-.892 3.938 3.938 0 0 1-.826-2.744 7.433 7.433 0 0 1 .378-2.212 12.937 12.937 0 0 1 1.01-2.352 10.962 10.962 0 0 1 1.386-2 4.568 4.568 0 0 1 1.512-1.19 2.552 2.552 0 0 1 .6-.21 2.961 2.961 0 0 1 .63-.07 7.26 7.26 0 0 1 .742.042 2.993 2.993 0 0 1 .77.182 2.439 2.439 0 0 1 1.134.756 2.4 2.4 0 0 1 .49 1.624 3.525 3.525 0 0 1-.056.6 2.59 2.59 0 0 1-.2.63 5.98 5.98 0 0 1-1.1 1.764 4.314 4.314 0 0 1-1.554 1.172 1.735 1.735 0 0 1-.434.154 2.208 2.208 0 0 1-.434.042 3.06 3.06 0 0 1-1.048-.164 3.547 3.547 0 0 1-.854-.448l-.224-.2-.14.28a5.928 5.928 0 0 0-.266.9 3.172 3.172 0 0 0-.07.532q0 .336.028.686a1.263 1.263 0 0 0 .168.574.8.8 0 0 0 .294.224 1.105 1.105 0 0 0 .462.084q.168 0 .322-.014a1.772 1.772 0 0 0 .266-.042 1.933 1.933 0 0 0 .826-.378 4.206 4.206 0 0 1 .686-.462l.112-.056-.028-.084q.476-.252.644-.322a1.555 1.555 0 0 0 .252-.126.348.348 0 0 1 .252-.112 1.051 1.051 0 0 1 .77.21.784.784 0 0 1 .378.658 1.187 1.187 0 0 1-.238.532 4.493 4.493 0 0 1-.588.714 3.1 3.1 0 0 1-.714.546 1.283 1.283 0 0 0-.168.07 1.565 1.565 0 0 0-.17.102h.028a.677.677 0 0 1-.5.336h-.228a1.534 1.534 0 0 1-.728.434 3.328 3.328 0 0 1-1.204.23zm1.456-6.748a1.233 1.233 0 0 0 .462-.084 3.25 3.25 0 0 0 .406-.2 2.132 2.132 0 0 0 .868-1.232 1.223 1.223 0 0 0-.14-1.136.361.361 0 0 0-.14-.126.433.433 0 0 0-.2-.042 1.515 1.515 0 0 0-.686.2 3.042 3.042 0 0 0-.742.56 4.646 4.646 0 0 0-.672.868l-.364.588a.768.768 0 0 1 .1-.042.23.23 0 0 1 .07-.014.339.339 0 0 1 .336.168 2.207 2.207 0 0 0 .21.336.584.584 0 0 0 .492.16zm7.7 6.412a3.356 3.356 0 0 1-1.638-.406 3.62 3.62 0 0 1-1.186-1.004 1.963 1.963 0 0 1-.448-1.162.548.548 0 0 1 .1-.364.37.37 0 0 1 .294-.112 1.174 1.174 0 0 1 .336.14 4.613 4.613 0 0 1 .392.252 2.359 2.359 0 0 0 .98.392 1.882 1.882 0 0 0 .952-.07.646.646 0 0 0 .476-.49 2.159 2.159 0 0 0-.112-.476 4.563 4.563 0 0 0-.28-.7 5.226 5.226 0 0 1-.868-1.974 16.061 16.061 0 0 1-.224-1.89 1.538 1.538 0 0 1 .364-.882 6.548 6.548 0 0 1 .9-.966 10.888 10.888 0 0 1 1.3-.952 11.008 11.008 0 0 1 1.414-.756 4.305 4.305 0 0 1 1.176-.364q.5 0 1.078.042a1.409 1.409 0 0 1 .77.21 2.81 2.81 0 0 1 .728 1.008 2.848 2.848 0 0 1 .336 1.176.99.99 0 0 1-.238.546 4.838 4.838 0 0 0-.434.714 2.89 2.89 0 0 0-.2.42 4.664 4.664 0 0 1-.2.448.5.5 0 0 1-.6.322 1.417 1.417 0 0 1-.8-.448 1.232 1.232 0 0 1-.364-.882 1.114 1.114 0 0 1 .252-.728.962.962 0 0 0 .252-.42.09.09 0 0 0-.056-.084.481.481 0 0 0-.2-.028 2.176 2.176 0 0 0-.63.154 5.314 5.314 0 0 0-.91.434 4.322 4.322 0 0 0-.868.672 3.11 3.11 0 0 0-.462.658 1.586 1.586 0 0 0-.182.742 3.251 3.251 0 0 0 .154.91 3.935 3.935 0 0 0 .35.854 1.527 1.527 0 0 1 .182.294q.126.238.294.574 1.036 2.128.35 3.164a2.817 2.817 0 0 1-2.53 1.036zm17.248-.364a8.28 8.28 0 0 1-1.106.21 1.146 1.146 0 0 1-.994-.35l-.448-.7a2.516 2.516 0 0 1-.252-1.092 5.656 5.656 0 0 1 .07-1.162 4.067 4.067 0 0 0 .07-.91 3.954 3.954 0 0 0 .126-1.484q-.1-.448-.238-.448-.308-.056-.966.448a14.666 14.666 0 0 0-1.54 1.414q-.882.91-1.89 2.058-.532.728-.767 1.078t-.353.35a2.466 2.466 0 0 1-.924-.168 1.629 1.629 0 0 1-.672-.476 1.37 1.37 0 0 1-.308-.644 3.5 3.5 0 0 1 .134-.6q.134-.49.336-1.134l.377-1.2q.175-.56.263-.784.262-.728.612-1.778t.63-1.862q.112-.364.392-1.05t.56-1.386q.28-.7.392-1.036.084-.224.308-.8t.49-1.274q.266-.7.5-1.3t.322-.882a1.073 1.073 0 0 1 .042-.462 1.151 1.151 0 0 1 .154-.322q.112 0 .252-.014l.14-.014q0-.056.378.112a5.976 5.976 0 0 1 .756.406q.378.238.378.406a1.719 1.719 0 0 1 .028.938 10.091 10.091 0 0 1-.588 1.722 5.457 5.457 0 0 0-.6 1.344 15.065 15.065 0 0 1-.574 1.512 7.437 7.437 0 0 0-.32.685q-.208.489-.476 1.148t-.52 1.387q-.252.728-.448 1.428a1.529 1.529 0 0 0-.2.9q.084.224.672-.5.784-.84 1.47-1.512a9.372 9.372 0 0 1 1.288-1.078 1.634 1.634 0 0 1 1.078-.35 1.95 1.95 0 0 1 .654.348 6.759 6.759 0 0 1 .784.672 1.953 1.953 0 0 1 .494.7 5.057 5.057 0 0 1 .154.768 6.922 6.922 0 0 1 .014 1.022q-.028.658-.14 1.946-.168.952-.224 1.358a.954.954 0 0 0 .042.574 1.549 1.549 0 0 0 .322.364.793.793 0 0 1 .336.8.945.945 0 0 1-.47.674zm14.308 2.02q-.5-.14-.812-.238l-.308-.1a.228.228 0 0 0-.042-.252.619.619 0 0 0-.406-.14 4.633 4.633 0 0 1-.868-.784 7.958 7.958 0 0 1-.784-1.034 7.062 7.062 0 0 1-.448-.784q-.2-.42.028-.518t.532-.238a2.311 2.311 0 0 1 .658-.332q.35-.112.574.364a2.977 2.977 0 0 0 1.134 1.092 4.156 4.156 0 0 0 1.762.528 4.224 4.224 0 0 0 2-.336 1.08 1.08 0 0 0 .728-.854 2.033 2.033 0 0 0-.42-1.274.916.916 0 0 0-.238-.364q-.154-.14-.448-.364t-.822-.728q-.42-.2-.77-.364t-.742-.364a7.4 7.4 0 0 1-1.008-.63 7.932 7.932 0 0 1-1.036-.9 4.657 4.657 0 0 1-.728-.938 1.93 1.93 0 0 1-.56-1.162 4.783 4.783 0 0 1 .042-1.582 5.074 5.074 0 0 1 .518-1.512 5.973 5.973 0 0 1 .616-1.022q.448-.63 1-1.3t1.078-1.218a5.15 5.15 0 0 1 .832-.741q.224-.224.476-.462l.252-.238q.028-.14.1-.14h.07a5.761 5.761 0 0 1 .616-.28 3.528 3.528 0 0 0 1.036-.728A17.183 17.183 0 0 1 83.195.321a9.3 9.3 0 0 1 2.072-.322 3.224 3.224 0 0 1 1.372.378 4.2 4.2 0 0 1 1.162.882 2.137 2.137 0 0 1 .574 1.2 2.472 2.472 0 0 1-.182 1.61 7.054 7.054 0 0 1-1.036 1.764 4.759 4.759 0 0 1-1.358 1.223 1.609 1.609 0 0 1-1.33.084.775.775 0 0 1-.518-.784 1.232 1.232 0 0 1 .154-.532 6.578 6.578 0 0 1 .854-1.092 5.154 5.154 0 0 0 .952-1.876.527.527 0 0 0-.5-.644 1.563 1.563 0 0 0-.644.028q-.476.084-1.022.21a9.514 9.514 0 0 0-.952.266q-.406.14-.406.2V3q0 .084-.112.056a1.572 1.572 0 0 0-.377.176q-.321.176-.77.462t-.883.58q-.434.294-.745.522a1.7 1.7 0 0 0-.333.276q-.056.308-.644.56a3.162 3.162 0 0 0-.98.952q-.42.616-.98 1.568a4.062 4.062 0 0 0-.672 1.386 1.829 1.829 0 0 0 0 1.19 1.828 1.828 0 0 0 .77.882q.63.434 1.722 1.078a20.905 20.905 0 0 1 1.792 1.12 13.391 13.391 0 0 1 1.428 1.134 3.311 3.311 0 0 1 .756.91 2.313 2.313 0 0 1 .406 1.092 5.073 5.073 0 0 1 0 1.19 5.57 5.57 0 0 1-.182.938 4.3 4.3 0 0 1-.6.952q-.406.5-.742.476a1.452 1.452 0 0 0-.462.2 1.794 1.794 0 0 1-.35.2 4.023 4.023 0 0 1-.924.266q-.728.154-1.6.252a9.875 9.875 0 0 1-1.514.058zm11.088-2.072a2.641 2.641 0 0 1-1.512-1.456 5.447 5.447 0 0 1-.224-2.692 3.286 3.286 0 0 0-.056-1.162 1.532 1.532 0 0 0-.42-.574 3.127 3.127 0 0 0-.392-.378q-.308-.266-.28-.406a1.018 1.018 0 0 1 .084-.49q.112-.294.2-.322.2-.084.406-.2a.366.366 0 0 1 .322-.056.823.823 0 0 1 .35.14q.238.14.238.252.112.2.35-.168a9.406 9.406 0 0 0 .518-.924 4.185 4.185 0 0 1 .7-.84 9.89 9.89 0 0 1 .854-.714 6.624 6.624 0 0 1 .742-.49q.14-.056.546-.168a7.654 7.654 0 0 1 .854-.182 2.636 2.636 0 0 1 .672-.042 2.084 2.084 0 0 1 1.064.42 5.351 5.351 0 0 1 .868.728 1.252 1.252 0 0 1 .49.77 3.746 3.746 0 0 1 .1 1.078 2.383 2.383 0 0 1-.224.952 2.294 2.294 0 0 1-.588.784 11.228 11.228 0 0 1-1.106.966 4.6 4.6 0 0 1-1.022.63 6.209 6.209 0 0 1-.868.126 5.24 5.24 0 0 1-.938 0 1.909 1.909 0 0 1-.6-.126.217.217 0 0 0-.322.07 2.669 2.669 0 0 0-.21.966 1.959 1.959 0 0 0 .014.532 1.343 1.343 0 0 0 .1.336 1.724 1.724 0 0 0 .392.49 1.055 1.055 0 0 0 .728.1 1.773 1.773 0 0 0 1.078-.658 9.328 9.328 0 0 1 .994-.966.669.669 0 0 1 .49-.266 2.115 2.115 0 0 1 .91.07.649.649 0 0 1 .294.616 3.132 3.132 0 0 1-.462 1.232 2.263 2.263 0 0 1-.462.574q-.378.378-.812.756a5.416 5.416 0 0 1-.714.546 3.248 3.248 0 0 1-1.652.42 4.66 4.66 0 0 1-1.494-.274zm2.072-6.3a7.38 7.38 0 0 0 .714-.224 1.849 1.849 0 0 0 .574-.364 4.894 4.894 0 0 0 .644-.756 1.958 1.958 0 0 0 .126-.532q.014-.224-.042-.28a.486.486 0 0 0-.49-.154 1.766 1.766 0 0 0-.574.294 2.916 2.916 0 0 0-.546.35 6.588 6.588 0 0 0-.672.588 4.27 4.27 0 0 0-.5.588q-.182.266-.07.322-.056.112.322.14t.514.028zm6.188 6.636a1.878 1.878 0 0 1-.588-.462 4.771 4.771 0 0 1-.644-.84 1.588 1.588 0 0 1-.28-.77 10.132 10.132 0 0 0 .378-1.092q.238-.784.546-1.764a2.425 2.425 0 0 0 .35-.714q.126-.406.238-.742.224-.5.5-1.148t.546-1.316q.266-.672.49-1.176.392-.84.658-1.47T98.465 7q.266-.616.574-1.372.42-.868.77-1.722t.616-1.526a6.569 6.569 0 0 0 .322-.952.412.412 0 0 1 .056-.322.384.384 0 0 1 .224-.126 1.1 1.1 0 0 1 .448-.112q.308-.028.42-.028a1.175 1.175 0 0 1 .686.546 1.532 1.532 0 0 1 .35.826 6.189 6.189 0 0 1-.434 1.666 27.951 27.951 0 0 1-1.246 2.87q-.98 2.1-1.47 3.248t-.658 1.624a1.58 1.58 0 0 0-.14.616l.228-.08a3.619 3.619 0 0 0 .672-.392q.308-.2.7-.5t.77-.56a2.143 2.143 0 0 1 .6-.308q.14-.112.392-.28t.476-.308q.532-.392.84-.252a1.474 1.474 0 0 1 .56.476.915.915 0 0 1 .238.77q-.07.406-.882 1.05a15.207 15.207 0 0 1-1.316.854q-.7.406-1.274.714a6.309 6.309 0 0 0-.826.5l.252.364q.252.364.476.7.224.448.56 1.134t.5.966a1.591 1.591 0 0 0 .63.588 1.4 1.4 0 0 0 .966-.084 1.083 1.083 0 0 1 .714.014 1.14 1.14 0 0 1 .49.406.994.994 0 0 1 .112.448q0 .224-.364.532a14.25 14.25 0 0 1-1.526.91 1.313 1.313 0 0 1-1.414-.07 8.113 8.113 0 0 1-1.106-1.022q-.518-.574-1.162-1.414a1.575 1.575 0 0 0-.168-.476 2.179 2.179 0 0 0-.224-.42 3.325 3.325 0 0 0-.238-.406l-.126-.182a1.82 1.82 0 0 0-.21-.5.454.454 0 0 0-.322-.224 1.294 1.294 0 0 0-.252.28 3.57 3.57 0 0 0-.28.476q-.168.42-.336.826a5.907 5.907 0 0 0-.28.868 5.831 5.831 0 0 0-.14 1.106.935.935 0 0 1-.252.658.889.889 0 0 1-.722.342zm10.36-.672a1.225 1.225 0 0 0-.49-.448q-.378-.224-.378-.336a.879.879 0 0 0-.126-.35 1.492 1.492 0 0 0-.238-.35q-.14-.168.084-.826a16.121 16.121 0 0 1 .672-1.61q.448-.952.98-1.932a3.213 3.213 0 0 0 .448-.588 2.991 2.991 0 0 1 .336-.476.317.317 0 0 1 .084-.21.252.252 0 0 1 .2-.1l.224-.448a3.083 3.083 0 0 1 .345-.448q.289-.336.714-.742t.856-.773a4.962 4.962 0 0 1 .718-.529 2 2 0 0 1 1.218-.364 1.787 1.787 0 0 1 1.078.392q.084.084.378.336t.672.56q.378.308.658.56l1.036.924-.488 1.4a3.911 3.911 0 0 0-.177 1.96 5 5 0 0 0 .525 1.456 1.146 1.146 0 0 0 .378.476 1.433 1.433 0 0 0 .63.224.908.908 0 0 1 .42.168.513.513 0 0 1 .2.448 1.544 1.544 0 0 1-.238.966.908.908 0 0 1-.518.35 3.744 3.744 0 0 1-1.764-.2 3.084 3.084 0 0 1-1.512-1.6 3.8 3.8 0 0 1-.294-.63 4.772 4.772 0 0 1-.21-.6q-.112.14-.294.35t-.35.378a11.727 11.727 0 0 1-3.409 2.618 2.412 2.412 0 0 1-2.368-.006zm1.54-2.324a1.143 1.143 0 0 0 .616-.21 9.276 9.276 0 0 0 1.12-.8q.952-.812 1.568-1.344a7.434 7.434 0 0 0 1.2-1.372l.616-1.008a2.537 2.537 0 0 0-.5-.84.684.684 0 0 0-.448-.2 1.416 1.416 0 0 0-.868.462 8.765 8.765 0 0 0-1.132 1.35q-.63.882-1.414 2.2a6.454 6.454 0 0 0-.56 1.19zm12.516 2.324a.837.837 0 0 1-.35-.028q-.266-.056-.532-.14a.981.981 0 0 1-.322-.14 2.909 2.909 0 0 1-.308-.406 1.5 1.5 0 0 1-.21-.8 2.156 2.156 0 0 1 .462-1.2 7.689 7.689 0 0 0 .336-.84q.2-.56.406-1.19t.392-1.134q.182-.5.266-.7a1.364 1.364 0 0 0-.042-.686q-.1-.21-.49-.238a.52.52 0 0 1-.434-.2 1.174 1.174 0 0 1-.154-.7 2.114 2.114 0 0 1 .21-.686 1.365 1.365 0 0 1 .434-.49 2.256 2.256 0 0 1 .717-.2 4.394 4.394 0 0 1 .854-.028.9.9 0 0 1 .585.2.846.846 0 0 1 .322.49 7.211 7.211 0 0 1 .21.77q.084.392.112.588a4.972 4.972 0 0 0 .63-.63q.35-.406.714-.77a10.366 10.366 0 0 1 1.064-.63 2.3 2.3 0 0 1 .9-.322 1.471 1.471 0 0 1 .756.294 1.609 1.609 0 0 1 .56.518 3.657 3.657 0 0 1 .406.994 1.012 1.012 0 0 1-.182.91 3.49 3.49 0 0 1-.784.714 1.614 1.614 0 0 1-1.26.21q-.168-.056-.35-.42a1.876 1.876 0 0 1-.2-.532q0-.084-.242.154t-.564.574q-.322.336-.6.616a9.987 9.987 0 0 0-1.008 1.6q-.532 1.008-1.26 2.436a13.68 13.68 0 0 0-.56 1.33q-.228.628-.484.712z"/>
</svg>
