<svg xmlns="http://www.w3.org/2000/svg" width="41" height="41" viewBox="0 0 41 41">
    <g data-name="setting (1)">
        <path data-name="Path 2710" d="M40 22.5v-5a1.082 1.082 0 0 0-1.082-1.082 4.2 4.2 0 0 1-3.879-2.615l-.021-.051a4.21 4.21 0 0 1 .889-4.6 1.082 1.082 0 0 0 0-1.53l-3.529-3.529a1.081 1.081 0 0 0-1.53 0 4.211 4.211 0 0 1-4.6.889l-.051-.021a4.2 4.2 0 0 1-2.614-3.879A1.082 1.082 0 0 0 22.5 0h-5a1.082 1.082 0 0 0-1.082 1.082 4.2 4.2 0 0 1-2.615 3.879l-.051.021a4.21 4.21 0 0 1-4.6-.889 1.082 1.082 0 0 0-1.53 0L4.093 7.622a1.082 1.082 0 0 0 0 1.53 4.211 4.211 0 0 1 .889 4.6l-.021.051a4.2 4.2 0 0 1-3.879 2.614A1.082 1.082 0 0 0 0 17.5v5a1.082 1.082 0 0 0 1.082 1.082 4.2 4.2 0 0 1 3.879 2.615l.021.051a4.21 4.21 0 0 1-.889 4.6 1.082 1.082 0 0 0 0 1.53l3.529 3.529a1.081 1.081 0 0 0 1.53 0 4.211 4.211 0 0 1 4.6-.889l.051.021a4.2 4.2 0 0 1 2.614 3.879A1.082 1.082 0 0 0 17.5 40h5a1.082 1.082 0 0 0 1.082-1.082 4.2 4.2 0 0 1 2.615-3.879l.051-.021a4.21 4.21 0 0 1 4.6.889 1.081 1.081 0 0 0 1.53 0l3.529-3.529a1.081 1.081 0 0 0 0-1.53 4.21 4.21 0 0 1-.889-4.6l.021-.051a4.2 4.2 0 0 1 3.879-2.615A1.082 1.082 0 0 0 40 22.5zm-20 3.2a5.691 5.691 0 1 1 5.691-5.7A5.691 5.691 0 0 1 20 25.691zm0 0" style="fill:#d8d8d8" transform="translate(.5 .5)"/>
        <path data-name="Path 2711" d="M40 22.5v-5a1.082 1.082 0 0 0-1.082-1.082 4.2 4.2 0 0 1-3.879-2.615l-.021-.051a4.21 4.21 0 0 1 .889-4.6 1.082 1.082 0 0 0 0-1.53l-3.529-3.529a1.081 1.081 0 0 0-1.53 0 4.211 4.211 0 0 1-4.6.889l-.051-.021a4.2 4.2 0 0 1-2.614-3.879A1.082 1.082 0 0 0 22.5 0h-5a1.082 1.082 0 0 0-1.082 1.082 4.2 4.2 0 0 1-2.615 3.879l-.051.021a4.21 4.21 0 0 1-4.6-.889 1.082 1.082 0 0 0-1.53 0L4.093 7.622a1.082 1.082 0 0 0 0 1.53 4.211 4.211 0 0 1 .889 4.6l-.021.051a4.2 4.2 0 0 1-3.879 2.614A1.082 1.082 0 0 0 0 17.5v5a1.082 1.082 0 0 0 1.082 1.082 4.2 4.2 0 0 1 3.879 2.615l.021.051a4.21 4.21 0 0 1-.889 4.6 1.082 1.082 0 0 0 0 1.53l3.529 3.529a1.081 1.081 0 0 0 1.53 0 4.211 4.211 0 0 1 4.6-.889l.051.021a4.2 4.2 0 0 1 2.614 3.879A1.082 1.082 0 0 0 17.5 40h5a1.082 1.082 0 0 0 1.082-1.082 4.2 4.2 0 0 1 2.615-3.879l.051-.021a4.21 4.21 0 0 1 4.6.889 1.081 1.081 0 0 0 1.53 0l3.529-3.529a1.081 1.081 0 0 0 0-1.53 4.21 4.21 0 0 1-.889-4.6l.021-.051a4.2 4.2 0 0 1 3.879-2.615A1.082 1.082 0 0 0 40 22.5zm-20 3.2a5.691 5.691 0 1 1 5.691-5.7A5.691 5.691 0 0 1 20 25.691zm0 0" style="fill:#c8efc5;stroke:#a0d89b" transform="translate(.5 .5)"/>
        <path data-name="Path 2713" d="M19.068 10.244a8.824 8.824 0 1 0 8.824 8.824 8.824 8.824 0 0 0-8.824-8.824zm0 13.971a5.147 5.147 0 1 1 5.147-5.147 5.148 5.148 0 0 1-5.147 5.147zm0 0" transform="translate(1.432 1.432)" style="fill:#047600"/>
    </g>
</svg>
