<svg xmlns="http://www.w3.org/2000/svg" width="18" height="18.003" viewBox="0 0 18 18.003">
    <g data-name="Group 793">
        <path data-name="Path 1116" d="M9 5.329a9.117 9.117 0 0 0-9 9.23 9.214 9.214 0 0 0 6.156 8.758c.45.085.614-.2.614-.445 0-.219-.008-.8-.012-1.57-2.5.557-3.032-1.238-3.032-1.238a2.424 2.424 0 0 0-1-1.35c-.818-.572.061-.561.061-.561a1.9 1.9 0 0 1 1.378.951 1.89 1.89 0 0 0 2.62.766 1.986 1.986 0 0 1 .571-1.234c-2-.233-4.1-1.025-4.1-4.561a3.621 3.621 0 0 1 .929-2.475 3.392 3.392 0 0 1 .088-2.442s.756-.248 2.475.946a8.323 8.323 0 0 1 4.507 0c1.718-1.194 2.473-.946 2.473-.946a3.4 3.4 0 0 1 .09 2.442 3.614 3.614 0 0 1 .925 2.478c0 3.545-2.1 4.325-4.109 4.554a2.233 2.233 0 0 1 .611 1.709c0 1.234-.011 2.229-.011 2.532 0 .247.162.534.619.444A9.216 9.216 0 0 0 18 14.559a9.117 9.117 0 0 0-9-9.23z" transform="translate(0 -5.329)" style="fill:#fff"/>
    </g>
</svg>
