<svg xmlns="http://www.w3.org/2000/svg" width="17.622" height="20.35" viewBox="0 0 17.622 20.35">
    <g style="fill-rule:evenodd;fill:none">
        <path d="m8.812 0 8.811 5.087v10.175L8.812 20.35 0 15.262V5.087z" style="stroke:none"/>
        <path d="M8.812.346.3 5.261v9.828l8.512 4.914 8.51-4.914V5.261L8.812.346m0-.346 8.81 5.087v10.175l-8.81 5.088L0 15.262V5.087L8.812 0z" style="fill:#fff;stroke:none"/>
    </g>
    <circle cx=".808" cy=".808" r=".808" transform="translate(4.953 15.72)" style="fill:#fff"/>
    <circle cx=".808" cy=".808" r=".808" transform="translate(11.736 15.72)" style="fill:#fff"/>
    <path d="M15.209 21.213a.552.552 0 0 0 .191-.033.39.39 0 0 0 .157-.108l-.124-.124a.323.323 0 0 1-.1.076.279.279 0 0 1-.126.026.3.3 0 0 1-.122-.024.276.276 0 0 1-.093-.067.305.305 0 0 1-.06-.1.344.344 0 0 1-.021-.121.411.411 0 0 1 .018-.123.322.322 0 0 1 .054-.1.255.255 0 0 1 .089-.072.281.281 0 0 1 .125-.026.285.285 0 0 1 .127.026.367.367 0 0 1 .1.076l.131-.12a.424.424 0 0 0-.158-.108.527.527 0 0 0-.193-.036.518.518 0 0 0-.2.036.437.437 0 0 0-.249.253.533.533 0 0 0-.035.2.525.525 0 0 0 .035.195.433.433 0 0 0 .1.151.45.45 0 0 0 .152.1.525.525 0 0 0 .202.023zm.943 0a.486.486 0 0 0 .192-.038.492.492 0 0 0 .155-.1.478.478 0 0 0 .141-.342.468.468 0 0 0-.038-.188.493.493 0 0 0-.9 0 .468.468 0 0 0-.038.188.478.478 0 0 0 .141.342.492.492 0 0 0 .155.1.487.487 0 0 0 .193.038zm0-.163a.314.314 0 0 1-.126-.024.278.278 0 0 1-.1-.066.291.291 0 0 1-.06-.1.4.4 0 0 1 0-.258.291.291 0 0 1 .06-.1.278.278 0 0 1 .1-.066.34.34 0 0 1 .252 0 .278.278 0 0 1 .1.066.291.291 0 0 1 .06.1.4.4 0 0 1 0 .258.291.291 0 0 1-.06.1.278.278 0 0 1-.1.066.314.314 0 0 1-.127.025zm.882.14v-.477a.421.421 0 0 1 .019-.135.268.268 0 0 1 .052-.094.213.213 0 0 1 .076-.055.23.23 0 0 1 .09-.018.2.2 0 0 1 .1.022.15.15 0 0 1 .058.062.282.282 0 0 1 .026.094.973.973 0 0 1 .007.12v.48h.174v-.5a.34.34 0 0 1 .054-.2.248.248 0 0 1 .283-.055.16.16 0 0 1 .06.059.233.233 0 0 1 .028.085.727.727 0 0 1 .007.1v.511h.174v-.535a.764.764 0 0 0-.015-.15.352.352 0 0 0-.052-.131.281.281 0 0 0-.107-.092.381.381 0 0 0-.174-.035.352.352 0 0 0-.165.043.294.294 0 0 0-.126.128.317.317 0 0 0-.114-.128.325.325 0 0 0-.173-.043.334.334 0 0 0-.113.018.383.383 0 0 0-.089.045.309.309 0 0 0-.062.055.152.152 0 0 0-.03.048v-.142h-.163v.92zm1.651 0v-.477a.421.421 0 0 1 .019-.135.268.268 0 0 1 .052-.094.213.213 0 0 1 .076-.055.23.23 0 0 1 .09-.018.2.2 0 0 1 .1.022.15.15 0 0 1 .058.062.282.282 0 0 1 .026.094.975.975 0 0 1 .007.12v.48h.174v-.5a.34.34 0 0 1 .054-.2.248.248 0 0 1 .283-.055.16.16 0 0 1 .06.059.233.233 0 0 1 .028.085.726.726 0 0 1 .007.1v.511h.181v-.535a.764.764 0 0 0-.015-.15.352.352 0 0 0-.052-.131.281.281 0 0 0-.107-.092.381.381 0 0 0-.174-.035.352.352 0 0 0-.165.043.294.294 0 0 0-.126.128.317.317 0 0 0-.114-.128.325.325 0 0 0-.173-.043.334.334 0 0 0-.113.018.383.383 0 0 0-.089.045.309.309 0 0 0-.062.055.152.152 0 0 0-.03.048v-.142h-.163v.92zm1.9.023a.485.485 0 0 0 .407-.188l-.131-.1a.456.456 0 0 1-.111.1.26.26 0 0 1-.141.038.354.354 0 0 1-.116-.019.318.318 0 0 1-.1-.054.272.272 0 0 1-.069-.084.23.23 0 0 1-.026-.109h.737v-.063a.646.646 0 0 0-.024-.175.44.44 0 0 0-.079-.155.408.408 0 0 0-.139-.112.454.454 0 0 0-.206-.043.483.483 0 0 0-.19.037.451.451 0 0 0-.15.1.473.473 0 0 0-.1.153.5.5 0 0 0-.036.191.541.541 0 0 0 .033.191.451.451 0 0 0 .094.153.428.428 0 0 0 .149.1.506.506 0 0 0 .195.037zm.264-.558h-.55a.237.237 0 0 1 .02-.094.291.291 0 0 1 .057-.086.286.286 0 0 1 .09-.063.28.28 0 0 1 .117-.024.3.3 0 0 1 .115.02.228.228 0 0 1 .082.056.236.236 0 0 1 .049.084.368.368 0 0 1 .018.107zm.57.535v-.461a.314.314 0 0 1 .068-.223.257.257 0 0 1 .2-.072.238.238 0 0 1 .043 0l.043.01.008-.188a.244.244 0 0 0-.079-.012.3.3 0 0 0-.085.013.343.343 0 0 0-.079.034.312.312 0 0 0-.065.052.249.249 0 0 0-.047.067v-.141h-.174v.918zm.943.023a.552.552 0 0 0 .191-.033.39.39 0 0 0 .157-.108l-.124-.124a.323.323 0 0 1-.1.076.279.279 0 0 1-.126.026.3.3 0 0 1-.122-.024.276.276 0 0 1-.093-.067.3.3 0 0 1-.06-.1.344.344 0 0 1-.021-.121.411.411 0 0 1 .018-.123.322.322 0 0 1 .054-.1.255.255 0 0 1 .089-.072.281.281 0 0 1 .125-.026.285.285 0 0 1 .127.026.367.367 0 0 1 .1.076l.131-.12a.424.424 0 0 0-.16-.109.527.527 0 0 0-.193-.036.518.518 0 0 0-.2.036.437.437 0 0 0-.249.253.533.533 0 0 0-.035.2.525.525 0 0 0 .035.195.433.433 0 0 0 .1.151.45.45 0 0 0 .152.1.525.525 0 0 0 .2.035zm.916 0a.485.485 0 0 0 .407-.188l-.131-.1a.456.456 0 0 1-.111.1.26.26 0 0 1-.141.038.354.354 0 0 1-.118-.019.318.318 0 0 1-.1-.054.272.272 0 0 1-.069-.084.23.23 0 0 1-.026-.109h.737v-.063a.646.646 0 0 0-.024-.175.44.44 0 0 0-.079-.155.408.408 0 0 0-.139-.112.454.454 0 0 0-.206-.043.483.483 0 0 0-.19.037.451.451 0 0 0-.15.1.473.473 0 0 0-.1.153.5.5 0 0 0-.036.191.541.541 0 0 0 .033.191.451.451 0 0 0 .094.153.428.428 0 0 0 .149.1.506.506 0 0 0 .2.037zm.264-.558h-.55a.237.237 0 0 1 .02-.094.291.291 0 0 1 .057-.086.286.286 0 0 1 .09-.063.28.28 0 0 1 .117-.024.3.3 0 0 1 .115.02.228.228 0 0 1 .082.056.236.236 0 0 1 .049.084.367.367 0 0 1 .018.107z" transform="translate(-10.119 -8.808)" style="fill:#fff"/>
    <g data-name="Group 2040">
        <path style="stroke:#fff;stroke-linecap:square;stroke-width:.3px;fill:none" d="M0 0h1.938" transform="translate(.808 6.299)"/>
        <path transform="translate(2.745 6.299)" style="stroke:#fff;stroke-linecap:square;stroke-width:.3px;fill:none" d="m0 0 1.83 8.937"/>
        <path transform="translate(4.253 13.082)" style="stroke:#fff;stroke-linecap:square;stroke-width:.3px;fill:none" d="M0 0h9.588"/>
        <path data-name="Line-3" transform="translate(4.684 15.236)" style="stroke:#fff;stroke-linecap:square;stroke-width:.3px;fill:none" d="M0 0h9.588"/>
        <path data-name="Line-3" transform="translate(9.958 13.89)" style="stroke:#fff;stroke-linecap:square;stroke-width:.3px;fill:none" d="M0 0h3.776"/>
        <path transform="translate(6.995 14.536)" style="stroke:#fff;stroke-linecap:square;stroke-width:.3px;fill:none" d="M0 0h6.2"/>
        <path transform="translate(13.944 6.837)" style="stroke:#fff;stroke-linecap:square;stroke-width:.3px;fill:none" d="M0 6.137 1.938 0"/>
    </g>
    <path d="M13.174 6.942a1.418 1.418 0 0 0 .393-.054 1 1 0 0 0 .337-.167.815.815 0 0 0 .236-.285.9.9 0 0 0 .087-.409.664.664 0 0 0-.081-.343.783.783 0 0 0-.206-.231 1.087 1.087 0 0 0-.275-.149q-.151-.056-.291-.1-.1-.031-.174-.06a.759.759 0 0 1-.134-.064.259.259 0 0 1-.085-.08.216.216 0 0 1-.029-.116.227.227 0 0 1 .037-.134.3.3 0 0 1 .091-.085.345.345 0 0 1 .122-.045.791.791 0 0 1 .134-.012.628.628 0 0 1 .266.064.6.6 0 0 1 .223.173l.423-.445a1.223 1.223 0 0 0-.424-.252 1.425 1.425 0 0 0-.475-.085 1.546 1.546 0 0 0-.384.048 1.049 1.049 0 0 0-.341.153.809.809 0 0 0-.244.267.777.777 0 0 0-.093.393.749.749 0 0 0 .06.316.691.691 0 0 0 .159.221.864.864 0 0 0 .225.149 2.315 2.315 0 0 0 .258.1l.242.079a.89.89 0 0 1 .178.081.379.379 0 0 1 .111.1.221.221 0 0 1 .039.131.293.293 0 0 1-.031.14.252.252 0 0 1-.083.093.358.358 0 0 1-.122.05.659.659 0 0 1-.143.015.721.721 0 0 1-.328-.083.8.8 0 0 1-.266-.207l-.437.442a1.207 1.207 0 0 0 .457.293 1.617 1.617 0 0 0 .568.098zm2.175.86V6.659h.008a.6.6 0 0 0 .248.2.812.812 0 0 0 .337.072.855.855 0 0 0 .388-.085.89.89 0 0 0 .288-.227 1 1 0 0 0 .18-.328 1.218 1.218 0 0 0 .062-.391 1.167 1.167 0 0 0-.064-.386 1.006 1.006 0 0 0-.183-.324.858.858 0 0 0-.288-.221.871.871 0 0 0-.38-.081.75.75 0 0 0-.37.087.783.783 0 0 0-.246.2h-.012v-.232h-.6V7.8zm.442-1.4a.428.428 0 0 1-.194-.043.462.462 0 0 1-.145-.112.515.515 0 0 1-.093-.159.52.52 0 0 1 0-.364.515.515 0 0 1 .093-.159.462.462 0 0 1 .148-.115.428.428 0 0 1 .194-.043.436.436 0 0 1 .2.043.431.431 0 0 1 .141.11.473.473 0 0 1 .085.157.584.584 0 0 1 .029.183.6.6 0 0 1-.029.183.492.492 0 0 1-.085.161.419.419 0 0 1-.141.112.437.437 0 0 1-.2.043zm2.237.526a.668.668 0 0 0 .192-.026.807.807 0 0 0 .167-.07.574.574 0 0 0 .131-.1.547.547 0 0 0 .091-.124h.008v.266h.613V4.942h-.636v1.043a.492.492 0 0 1-.087.291.291.291 0 0 1-.254.124.274.274 0 0 1-.143-.033.246.246 0 0 1-.087-.091.388.388 0 0 1-.045-.131 1 1 0 0 1-.012-.155V4.942h-.639v1.194a1.142 1.142 0 0 0 .037.288.711.711 0 0 0 .12.252.634.634 0 0 0 .217.18.7.7 0 0 0 .328.07zm2.419-.055v-.994a.481.481 0 0 1 .023-.136.426.426 0 0 1 .076-.143.438.438 0 0 1 .14-.112.453.453 0 0 1 .215-.047h.079a.5.5 0 0 1 .083.015l.027-.556a.291.291 0 0 0-.06-.012.722.722 0 0 0-.076 0 .542.542 0 0 0-.314.093.627.627 0 0 0-.209.24h-.008v-.279h-.61v1.93zm1.741.047a1.18 1.18 0 0 0 .2-.018 1.049 1.049 0 0 0 .167-.041l-.008-.465a.34.34 0 0 1-.087.023.676.676 0 0 1-.1.008.225.225 0 0 1-.188-.068.33.33 0 0 1-.052-.2v-.74h.454v-.477h-.454v-.508h-.62v.508h-.305v.477h.305v.814a1.052 1.052 0 0 0 .035.281.547.547 0 0 0 .114.217.5.5 0 0 0 .211.14.95.95 0 0 0 .325.048z" transform="translate(-8.213 3.141)" style="fill:#fff"/>
</svg>
