<svg xmlns="http://www.w3.org/2000/svg" width="58.449" height="17.647" viewBox="0 0 58.449 17.647">
    <g data-name="Layer 1">
        <path data-name="Path 2853" d="M63.871 17.436V.018c.068 0 .13-.01.191-.01h2.52c.187 0 .233.058.231.238v9.48l.06.029.729-.753Q69.3 7.277 71 5.554a.394.394 0 0 1 .245-.108h3.666c.049 0 .1.01.193.02-.188.191-.348.357-.511.519l-4.55 4.554c-.009.009-.019.017-.027.027-.347.329-.339.324-.03.679q1.235 1.406 2.459 2.82l2.827 3.255c.02.023.039.047.08.1-.086.007-.143.016-.2.017h-3.491a.428.428 0 0 1-.285-.131q-1.638-1.909-3.261-3.82c-.389-.458-.777-.916-1.168-1.374a1.34 1.34 0 0 0-.126-.112c0 .113-.013.191-.013.27v4.907c0 .258 0 .258-.264.258z" transform="translate(-16.907 -.002)" style="fill:#111637"/>
        <path data-name="Path 2854" d="M55.38 8.65a5.1 5.1 0 0 1 1.22-.95 4.037 4.037 0 0 1 1.164-.394 3.348 3.348 0 0 1 1.267 0c.1.02.178.039.178.17v2.787a.375.375 0 0 1-.021.074c-.1-.01-.21-.014-.314-.029a3.95 3.95 0 0 0-1.736.127 2.305 2.305 0 0 0-1.473 1.4 4.051 4.051 0 0 0-.233 1.552v5.706c0 .252 0 .252-.247.252h-2.5c-.158 0-.208-.047-.208-.205V7.558c0-.154.043-.213.205-.211h2.5c.153 0 .2.051.193.2-.009.305 0 .61 0 .917a1.173 1.173 0 0 0 .005.186z" transform="translate(-13.892 -1.918)" style="fill:#111637"/>
        <path data-name="Path 2855" d="M10.724.107c0 .108.011.17.011.231V3.1a.368.368 0 0 1-.175.329L7.707 5.574l-4.52 3.393c-.876.658-1.76 1.311-2.616 1.976-.143.113-.214.086-.285-.053a1.448 1.448 0 0 0-.114-.164c-.235-.335-.24-.339.063-.629Q1.963 8.444 3.7 6.8l3.419-3.266L10.585.219c.032-.028.066-.048.139-.112z" transform="translate(0 -.028)" style="fill:#111637"/>
        <path data-name="Path 2856" d="M.157 20.131c.143-.214.25-.387.372-.545a.27.27 0 0 1 .194-.078c1.284.048 2.555.106 3.831.157.616.024 1.234.037 1.854.06l4.176.143c.13 0 .214.016.213.183v2.4a1.533 1.533 0 0 1-.023.17z" transform="translate(-.042 -5.164)" style="fill:#111637"/>
        <path data-name="Path 2857" d="M1.7 16.021c0-.24-.011-.428 0-.618a.255.255 0 0 1 .136-.157c.66-.318 1.325-.622 1.977-.933l2.742-1.3 2.693-1.274c.05-.023.1-.037.187-.067.041.2.086.388.118.571l.3 1.8c.037.223.02.252-.2.3l-2.364.494-2.568.539-1.971.411z" transform="translate(-.448 -3.09)" style="fill:#111637"/>
        <path data-name="Path 2858" d="M29.977 9.935a9.2 9.2 0 0 0-.536-1.5 5.828 5.828 0 0 0-4.9-3.232 4.787 4.787 0 0 0-1.569.178 4.992 4.992 0 0 0-1.753.832c-.208.158-.405.329-.632.515 0-.113-.013-.2-.013-.285V.241c0-.174-.037-.244-.231-.241-.823.011-1.657 0-2.49 0h-.2v17.4c.026.011.037.02.048.02h2.692c.044 0 .12-.086.124-.143.016-.19 0-.382 0-.571v-.638c.056.016.073.014.08.023a5.135 5.135 0 0 0 3.127 1.488 5.367 5.367 0 0 0 1.553-.077 5.576 5.576 0 0 0 2.987-1.548 6.382 6.382 0 0 0 1.9-4.353 4.964 4.964 0 0 0-.183-1.669zm-2.84 2.084A3.175 3.175 0 0 1 25 14.71a3.234 3.234 0 0 1-3.288-.585 2.931 2.931 0 0 1-.957-1.456c-.116-.411-.174-.839-.26-1.258l.05-.014a3.591 3.591 0 0 1 1.041-2.589 3.07 3.07 0 0 1 1.572-.82 3.309 3.309 0 0 1 2.485.428 3.112 3.112 0 0 1 1.221 1.442 3.743 3.743 0 0 1 .275 2.161z" transform="translate(-4.673)" style="fill:#111637"/>
        <path data-name="Path 2859" d="M46.6 17.312c-.009-1.921 0-3.844-.007-5.766a4.828 4.828 0 0 0-.379-1.909 3.977 3.977 0 0 0-1.133-1.522A4.763 4.763 0 0 0 42.367 7.1a9.25 9.25 0 0 0-1.673.046 4.72 4.72 0 0 0-2.71 1.163 4.3 4.3 0 0 0-1.392 2.06c-.058.2-.083.412-.123.62.11.023.173.034.234.048.735.168 1.469.339 2.205.506.257.058.257.053.31-.2a1.986 1.986 0 0 1 1.2-1.471 2.888 2.888 0 0 1 2-.126 1.589 1.589 0 0 1 1.258 1.2A.788.788 0 0 1 43.14 12a1.643 1.643 0 0 1-.3.04c-.6 0-1.21-.013-1.813.013a6.509 6.509 0 0 0-2.853.725 3.287 3.287 0 0 0-1.442 1.365 3.53 3.53 0 0 0 .03 3.466 3.777 3.777 0 0 0 3.027 1.873 4.721 4.721 0 0 0 1.595-.057 3.994 3.994 0 0 0 1.83-.87c.155-.134.3-.285.462-.444l.117 1.181h2.873c-.033-.675-.066-1.326-.066-1.98zm-4.636-.375a3.3 3.3 0 0 1-1.511.057 1.437 1.437 0 0 1-1.175-.934 1.233 1.233 0 0 1 .685-1.5 3.352 3.352 0 0 1 1.508-.337h2.061a1.294 1.294 0 0 1 .184.009 2.3 2.3 0 0 1-1.755 2.705z" transform="translate(-9.607 -1.874)" style="fill:#111637"/>
    </g>
</svg>
