<svg xmlns="http://www.w3.org/2000/svg" width="128" height="13.333" viewBox="0 0 128 13.333">
    <path data-name="Path 2834" d="M56.609 9.814h2.33a.352.352 0 0 1 .339.244l3.293 9.656 3.272-9.656a.364.364 0 0 1 .339-.244h2.324a.355.355 0 0 1 .339.477L64.2 22.65a.366.366 0 0 1-.339.233h-2.6a.359.359 0 0 1-.339-.233l-4.657-12.359a.36.36 0 0 1 .344-.477z" transform="translate(-28.013 -9.756)" style="fill:#0d2234"/>
    <path data-name="Path 2835" d="M79.552 21.627a2.417 2.417 0 0 0 2.577 1.807 6.5 6.5 0 0 0 2.782-.62.357.357 0 0 1 .517.318v1.7a.36.36 0 0 1-.215.323 8.124 8.124 0 0 1-3.3.647 4.8 4.8 0 0 1-5.015-5 4.807 4.807 0 0 1 4.859-4.976 4.392 4.392 0 0 1 4.547 4.552 5.778 5.778 0 0 1-.1.959.357.357 0 0 1-.355.291zm.484-1.977h3.282a.355.355 0 0 0 .339-.472A1.915 1.915 0 0 0 81.737 18a2.214 2.214 0 0 0-2.029 1.15.355.355 0 0 0 .328.501z" transform="translate(-37.32 -12.464)" style="fill:#0d2234"/>
    <path data-name="Path 2836" d="M98.5 17.232a2.86 2.86 0 0 1 2.459-1.4 3.471 3.471 0 0 1 3.53 3.471v5.935a.358.358 0 0 1-.36.355h-1.949a.358.358 0 0 1-.36-.355v-5.081a1.616 1.616 0 0 0-1.657-1.77 1.592 1.592 0 0 0-1.663 1.654v5.2a.358.358 0 0 1-.36.355h-1.933a.358.358 0 0 1-.36-.355v-8.867a.358.358 0 0 1 .36-.355h1.937a.358.358 0 0 1 .36.355z" transform="translate(-45.859 -12.468)" style="fill:#0d2234"/>
    <path data-name="Path 2837" d="M114.321 22.48v-6.99H113.2a.358.358 0 0 1-.36-.355v-1.521a.358.358 0 0 1 .36-.355h1.281v-3.206a.358.358 0 0 1 .279-.344l1.782.011a.367.367 0 0 1 .441.344v3.2h1.28a.358.358 0 0 1 .361.355v1.521a.358.358 0 0 1-.361.355h-1.28v6.985a.358.358 0 0 1-.36.355h-1.937a.357.357 0 0 1-.365-.355z" transform="translate(-53.515 -9.708)" style="fill:#0d2234"/>
    <path data-name="Path 2838" d="M131.141 24.546a2.82 2.82 0 0 1-2.556 1.4 3.351 3.351 0 0 1-3.4-3.593v-5.831a.358.358 0 0 1 .361-.355h1.937a.358.358 0 0 1 .361.355V21.6a1.652 1.652 0 1 0 3.3.132v-5.22a.358.358 0 0 1 .361-.355h1.937a.358.358 0 0 1 .361.355v8.861a.358.358 0 0 1-.361.355h-1.937a.358.358 0 0 1-.361-.355v-.832z" transform="translate(-59.082 -12.616)" style="fill:#0d2234"/>
    <path data-name="Path 2839" d="M146.056 17.054a2.632 2.632 0 0 1 2.3-1.229c.119 0 .28.005.431.016a.355.355 0 0 1 .328.355v1.966a.355.355 0 0 1-.451.339 3.565 3.565 0 0 0-.974-.122 1.6 1.6 0 0 0-1.642 1.653v5.2a.357.357 0 0 1-.36.355h-1.937a.358.358 0 0 1-.361-.355V16.37a.358.358 0 0 1 .361-.355h1.937a.357.357 0 0 1 .36.355v.684z" transform="translate(-67.285 -12.464)" style="fill:#0d2234"/>
    <path data-name="Path 2840" d="M157.119 21.627a2.417 2.417 0 0 0 2.577 1.807 6.5 6.5 0 0 0 2.782-.62.357.357 0 0 1 .517.318v1.7a.36.36 0 0 1-.215.323 8.125 8.125 0 0 1-3.3.647 4.8 4.8 0 0 1-5.015-5 4.807 4.807 0 0 1 4.859-4.976 4.392 4.392 0 0 1 4.547 4.552 5.776 5.776 0 0 1-.1.959.356.356 0 0 1-.355.291zm.484-1.977h3.283a.354.354 0 0 0 .339-.472A1.915 1.915 0 0 0 159.3 18a2.213 2.213 0 0 0-2.029 1.15.357.357 0 0 0 .329.501z" transform="translate(-72.276 -12.464)" style="fill:#0d2234"/>
    <path data-name="Path 2841" d="M173.422 10.16a.358.358 0 0 1 .361-.355h4.558a6.175 6.175 0 0 1 6.554 6.534 6.178 6.178 0 0 1-6.554 6.534h-4.558a.358.358 0 0 1-.361-.355zm2.771 2.279v7.8h2.125a3.561 3.561 0 0 0 3.708-3.9 3.571 3.571 0 0 0-3.708-3.9z" transform="translate(-80.818 -9.752)" style="fill:#0d2234"/>
    <path data-name="Path 2842" d="M197.337 9.814a1.455 1.455 0 1 1-1.469 1.463 1.433 1.433 0 0 1 1.469-1.463zm.968 13.068h-1.937a.358.358 0 0 1-.361-.355v-8.86a.358.358 0 0 1 .361-.355h1.937a.358.358 0 0 1 .361.355v8.861a.358.358 0 0 1-.361.355z" transform="translate(-90.933 -9.756)" style="fill:#0d2234"/>
    <path data-name="Path 2843" d="m205.8 16.41 2.179 6.084 2.2-6.089a.355.355 0 0 1 .339-.233h2.034a.351.351 0 0 1 .333.477l-3.411 8.866a.361.361 0 0 1-.334.228h-2.3a.35.35 0 0 1-.334-.228l-3.4-8.861a.354.354 0 0 1 .333-.477h2.018a.358.358 0 0 1 .343.233z" transform="translate(-94.187 -12.621)" style="fill:#0d2234"/>
    <path data-name="Path 2844" d="M223.385 21.627a2.417 2.417 0 0 0 2.577 1.807 6.5 6.5 0 0 0 2.782-.62.357.357 0 0 1 .517.318v1.7a.36.36 0 0 1-.215.323 8.124 8.124 0 0 1-3.3.647 4.8 4.8 0 0 1-5.015-5 4.807 4.807 0 0 1 4.859-4.976 4.392 4.392 0 0 1 4.547 4.552 5.849 5.849 0 0 1-.1.959.358.358 0 0 1-.355.291zm.489-1.977h3.283a.355.355 0 0 0 .339-.472A1.916 1.916 0 0 0 225.575 18a2.213 2.213 0 0 0-2.029 1.15.353.353 0 0 0 .328.501z" transform="translate(-102.138 -12.464)" style="fill:#0d2234"/>
    <path data-name="Path 2845" d="M19.665 9.778h-5.1a1.559 1.559 0 0 0-1.373 2.337l1.987 3.39a1.7 1.7 0 0 0 1.469.835h2.671l-2.029-3.457h2.375a3.512 3.512 0 0 1 3.7 3.457 3.585 3.585 0 0 1-3.811 3.59h-2.778a3.8 3.8 0 0 1-3.429-1.879l-4.371-7.457a1.664 1.664 0 0 0-1.436-.816H4.854l5.331 9.122c2.08 3.57 4.684 4.056 6.444 4.137h3.135a6.736 6.736 0 0 0 6.763-6.318 6.752 6.752 0 0 0-6.862-6.941z" transform="translate(-4.854 -9.737)" style="fill:#ee2737"/>
</svg>
