<svg xmlns="http://www.w3.org/2000/svg" width="26" height="24" viewBox="0 0 26 24">
  <g id="Cuspera" transform="translate(-955 -653)">
    <rect id="Rectangle_4552" data-name="Rectangle 4552" width="26" height="24" rx="5" transform="translate(955 653)" fill="#0f1deb"/>
    <g id="Group_2044" data-name="Group 2044" transform="translate(912.867 570.126)">
      <path id="Path_2865" data-name="Path 2865" d="M65.749,96.469c.217,4.395-4.982,9.015-10.269,9.2a10.8,10.8,0,1,1-.375-21.6c5.278-.11,10.633,4.434,10.676,9.259a15.044,15.044,0,0,1-2.521-.048c-.3-.052-.606-.613-.749-1a7.684,7.684,0,0,0-14.347-.34A7.682,7.682,0,1,0,62.243,98.1c.251-.546.4-1.458.775-1.56A10.81,10.81,0,0,1,65.749,96.469Z" fill="#fff"/>
      <path id="Path_2866" data-name="Path 2866" d="M51.916,93.136c1.382,0,2.6.026,3.814-.011.706-.019,1.027.156,1.033.96.026,2.532.058,2.532-2.476,2.532H52.007a3.5,3.5,0,0,0,5.8.962c1.239-1.536,2.586-1.109,4.026-1.131,0,2.6-3.173,5.307-6.26,5.415A6.993,6.993,0,0,1,54.523,87.92c3.522-.314,7.011,2.179,7.364,5.43a26.61,26.61,0,0,1-2.762-.035c-.305-.032-.611-.433-.843-.728A3.755,3.755,0,0,0,51.916,93.136Z" fill="#fff"/>
    </g>
  </g>
</svg>
