<svg xmlns="http://www.w3.org/2000/svg" width="94.118" height="17.647" viewBox="0 0 94.118 17.647">
    <path data-name="Path 2850" d="M28.624 63.651c0-1.38 1.459-2.557 3.169-2.557 1.616 0 3.278.737 3.357 2.714H33c-.031-.643-.675-.878-1.161-.878-.565 0-1.1.2-1.1.847 0 .345.408.6.91.722l1.443.345a2.612 2.612 0 0 1 2.259 2.573c0 1.741-1.741 2.651-3.514 2.651-1.694 0-3.435-1.035-3.467-2.9h2.1a1.442 1.442 0 0 0 1.584 1.1c.627-.016 1.129-.376 1.129-.863.016-.439-.314-.675-.941-.816l-1.176-.3c-2.238-.615-2.442-1.635-2.442-2.638zm8.831-7.075a1.359 1.359 0 1 1 0 2.714 1.36 1.36 0 1 1 0-2.714zm1.1 13.3h-2.229v-8.61h2.227zm4.675-8.612h1.82v1.8h-1.82v6.808H41V63.07h-1.568v-1.8H41v-3.282h2.227zm10.667 5.051h-6.575a2.188 2.188 0 0 0 2.384 1.851 2.443 2.443 0 0 0 2.149-1.1c.533.3 1.161.627 1.71.91a4.409 4.409 0 0 1-4.031 2.086 4.361 4.361 0 0 1-4.455-4.518 4.309 4.309 0 0 1 4.455-4.455 4.246 4.246 0 0 1 4.376 4.455 4.137 4.137 0 0 1-.015.773zm-2.151-1.535a2.037 2.037 0 0 0-2.146-1.82 2.144 2.144 0 0 0-2.275 1.82zm.988 7.341h1.1c1.1 0 1.286-.878 1.271-1.616v-9.223h2.275v9.192c0 2.227-.816 3.733-3.216 3.733h-1.43zm3.5-15.545a1.359 1.359 0 1 1 0 2.714 1.359 1.359 0 1 1 0-2.714zm9.208 12.2a3.357 3.357 0 0 1-2.682 1.271 4.487 4.487 0 0 1 0-8.973 3.315 3.315 0 0 1 2.682 1.255v-1.063H67.7v8.612h-2.26zm-2.371-.876a2.322 2.322 0 1 0 0-4.643 2.322 2.322 0 1 0 0 4.643zm5.773 1.976V56.592H71.1v5.82a2.982 2.982 0 0 1 2.682-1.333 4.5 4.5 0 0 1 0 8.988 2.993 2.993 0 0 1-2.682-1.35v1.161zm4.565-1.976a2.346 2.346 0 1 0-2.29-2.369 2.281 2.281 0 0 0 2.29 2.369zm5.537 1.976V56.592H81.2v5.82a2.982 2.982 0 0 1 2.682-1.333 4.5 4.5 0 0 1 0 8.988 2.993 2.993 0 0 1-2.682-1.35v1.161zm4.565-1.976a2.346 2.346 0 1 0-2.29-2.369 2.251 2.251 0 0 0 2.29 2.369zm14.259-1.584H91.2a2.188 2.188 0 0 0 2.384 1.851 2.443 2.443 0 0 0 2.149-1.1c.533.3 1.161.627 1.71.91a4.409 4.409 0 0 1-4.031 2.086 4.361 4.361 0 0 1-4.455-4.518 4.309 4.309 0 0 1 4.455-4.455 4.246 4.246 0 0 1 4.376 4.455 3.119 3.119 0 0 1-.019.772zm-2.15-1.536a2.037 2.037 0 0 0-2.149-1.82 2.144 2.144 0 0 0-2.271 1.82zm5.506 5.1h-2.259v-8.614h2.259v2.039a2.615 2.615 0 0 1 2.447-2.212 3.008 3.008 0 0 1 1.427.314l-.376 2.039a3.289 3.289 0 0 0-1.318-.235c-1.537 0-2.149 1.365-2.149 3.655l-.031 3.012z" transform="translate(-10.883 -56.56)" style="fill:#323231"/>
    <path data-name="Path 2851" d="M16.744 67.315a6.606 6.606 0 0 0 1.333-4.015 6.745 6.745 0 1 0-6.745 6.729h8.125z" transform="translate(-4.587 -56.555)" style="fill:#ef6a23"/>
    <path data-name="Path 2852" d="m16.222 63.3-.408.392c-.439.439-.878.847-1.333 1.286.016.047.016.094.031.141l.376 2.275a.308.308 0 0 1-.141.267.321.321 0 0 1-.267.016c-.11-.063-.235-.125-.345-.188l-1.114-.6c-.235-.125-.455-.251-.69-.376-.22.125-.455.251-.675.361l-1.114.6c-.11.063-.235.125-.345.188a.189.189 0 0 1-.125.031.458.458 0 0 1-.141-.031.275.275 0 0 1-.141-.262v-.031l.376-2.259c.016-.047.016-.094.031-.141-.439-.439-.878-.847-1.333-1.286l-.408-.392a.276.276 0 0 1-.078-.3.3.3 0 0 1 .235-.188c.173-.031.329-.047.5-.078l1.678-.251a1.079 1.079 0 0 1 .2-.031c.031-.047.047-.094.078-.141.031-.063.063-.11.094-.173l.235-.486c.094-.173.173-.345.251-.518l.424-.847a.286.286 0 0 1 .267-.157.3.3 0 0 1 .251.157l.424.847c.094.173.173.345.251.518l.235.486c.031.063.063.11.094.173.031.047.047.094.078.141a1.08 1.08 0 0 0 .2.031l1.678.251c.173.031.329.047.5.078a.3.3 0 0 1 .235.188.327.327 0 0 1-.064.309z" transform="translate(-5.587 -57.498)" style="fill:#fff"/>
</svg>
