<svg xmlns="http://www.w3.org/2000/svg" width="79.412" height="17.647" viewBox="0 0 79.412 17.647">
    <path data-name="Path 876" d="M8.9 50.376h11.727v-4.389z" transform="translate(-8.905 -43.913)" style="fill:#ff9d28"/>
    <path data-name="Path 877" d="M226.285 9.616v15.565l5.536-17.647z" transform="translate(-214.563 -7.534)" style="fill:#68c5ed"/>
    <path data-name="Path 878" d="M148.519 127.408h-4.433l4.433 11.113z" transform="translate(-136.796 -120.873)" style="fill:#044d80"/>
    <path data-name="Path 879" d="m8.9 127.38 8.427 2.853-1.137-2.852z" transform="translate(-8.905 -120.887)" style="fill:#e54747"/>
    <g data-name="Group 737">
        <path data-name="Path 880" d="M366.6 76.116a2.042 2.042 0 0 1-.321.241 3.519 3.519 0 0 1-.586.289 5.139 5.139 0 0 1-.883.249 6.157 6.157 0 0 1-1.2.1 5.546 5.546 0 0 1-2.248-.417 4.186 4.186 0 0 1-1.566-1.164 4.769 4.769 0 0 1-.907-1.766 8.193 8.193 0 0 1-.289-2.24 7.766 7.766 0 0 1 .313-2.256 5.061 5.061 0 0 1 .939-1.79 4.316 4.316 0 0 1 1.566-1.18 5.313 5.313 0 0 1 2.208-.425 5.24 5.24 0 0 1 1.132.112 5.645 5.645 0 0 1 .883.265 3.406 3.406 0 0 1 .626.321 4.127 4.127 0 0 1 .377.281 1.277 1.277 0 0 1 .249.305.745.745 0 0 1 .1.385 1.067 1.067 0 0 1-.241.642 4.637 4.637 0 0 1-.53.594q-.193-.193-.433-.393a2.934 2.934 0 0 0-.538-.353 3.568 3.568 0 0 0-.674-.257 3.164 3.164 0 0 0-.843-.1 2.521 2.521 0 0 0-2.264 1.188 3.642 3.642 0 0 0-.47 1.212 6.687 6.687 0 0 0-.145 1.389 7.035 7.035 0 0 0 .145 1.445 3.446 3.446 0 0 0 .5 1.22 2.658 2.658 0 0 0 .923.851 2.859 2.859 0 0 0 1.421.321 2.888 2.888 0 0 0 .827-.112 3.316 3.316 0 0 0 .666-.273 3.423 3.423 0 0 0 .506-.337q.217-.177.361-.305.1.113.225.273a3.88 3.88 0 0 1 .241.337 2.936 2.936 0 0 1 .193.353.788.788 0 0 1 .08.321.719.719 0 0 1-.08.353 1.53 1.53 0 0 1-.263.321zm8.275-1.231a3.557 3.557 0 0 0 .372 1.858 3.176 3.176 0 0 1-.541.161 2.756 2.756 0 0 1-.525.048 1.444 1.444 0 0 1-.88-.226 1.013 1.013 0 0 1-.38-.646 2.915 2.915 0 0 1-.937.63 3.5 3.5 0 0 1-1.422.258 3.266 3.266 0 0 1-.872-.121 2.292 2.292 0 0 1-.792-.394 2.047 2.047 0 0 1-.581-.733 2.511 2.511 0 0 1-.226-1.119 2.132 2.132 0 0 1 .4-1.336 2.818 2.818 0 0 1 .993-.813 4.5 4.5 0 0 1 1.292-.41 12.3 12.3 0 0 1 1.276-.145q.194-.016.38-.016h.347v-.294a1.06 1.06 0 0 0-.331-.882 1.746 1.746 0 0 0-1.074-.261 3.182 3.182 0 0 0-1.236.226 10.1 10.1 0 0 0-1.058.517 2.369 2.369 0 0 1-.363-.606 1.459 1.459 0 0 1-.137-.493.583.583 0 0 1 .25-.436 2.458 2.458 0 0 1 .687-.38 5.6 5.6 0 0 1 1-.275 6.545 6.545 0 0 1 1.2-.1 5.315 5.315 0 0 1 1.478.178 2.311 2.311 0 0 1 .985.549 2.087 2.087 0 0 1 .541.929 4.7 4.7 0 0 1 .162 1.3v3.037zm-2.068-1.874h-.226a1.615 1.615 0 0 0-.226.016q-.4.033-.8.1a2.294 2.294 0 0 0-.7.226 1.474 1.474 0 0 0-.5.42 1.075 1.075 0 0 0-.194.662 1.17 1.17 0 0 0 .258.767 1.069 1.069 0 0 0 .872.315 2.042 2.042 0 0 0 .582-.081 1.988 1.988 0 0 0 .485-.21 1.251 1.251 0 0 0 .331-.283.471.471 0 0 0 .121-.283v-1.649zm6.09-3.182a3.016 3.016 0 0 1 .805-.622 2.747 2.747 0 0 1 1.385-.315 3.214 3.214 0 0 1 1.135.2 2.488 2.488 0 0 1 .958.654 3.267 3.267 0 0 1 .668 1.2 5.788 5.788 0 0 1 .25 1.825 6.29 6.29 0 0 1-.29 2.076 3.55 3.55 0 0 1-.749 1.292 2.58 2.58 0 0 1-1.023.67 3.449 3.449 0 0 1-1.127.194 2.814 2.814 0 0 1-.813-.105 3.258 3.258 0 0 1-.588-.234 1.56 1.56 0 0 1-.37-.258 1.532 1.532 0 0 1-.161-.178V80.2h-2.2V69.118q.081-.016.2-.032.1-.016.228-.024t.309-.008a2.115 2.115 0 0 1 .911.178.836.836 0 0 1 .472.6zm2.908 2.988a4.821 4.821 0 0 0-.08-.9 2.2 2.2 0 0 0-.265-.727 1.289 1.289 0 0 0-.5-.477 1.584 1.584 0 0 0-.763-.169 1.339 1.339 0 0 0-.94.258.779.779 0 0 0-.265.565v3.425a2.054 2.054 0 0 0 .457.307 1.581 1.581 0 0 0 .763.178 1.3 1.3 0 0 0 1.2-.646 3.544 3.544 0 0 0 .393-1.814zm3.989 2.778a2.807 2.807 0 0 1-.145-.679q-.033-.355-.032-.711v-7.5l.242-.032q.113-.016.242-.024t.258-.008a2.806 2.806 0 0 1 .517.048 1.207 1.207 0 0 1 .469.194 1.067 1.067 0 0 1 .339.4 1.429 1.429 0 0 1 .129.654v1.147h2.262v1.632h-2.262v3.445q0 1.127.921 1.127a1.252 1.252 0 0 0 .428-.073 2.537 2.537 0 0 0 .363-.161 1.978 1.978 0 0 0 .283-.186q.121-.1.17-.145a5.444 5.444 0 0 1 .372.615 1.1 1.1 0 0 1 .129.488.647.647 0 0 1-.17.416 1.673 1.673 0 0 1-.477.375 2.965 2.965 0 0 1-.743.277 4.031 4.031 0 0 1-.953.106 2.7 2.7 0 0 1-1.559-.388 2.062 2.062 0 0 1-.782-1.012zm9.844-.21a2.578 2.578 0 0 0 .713-.089 2.851 2.851 0 0 0 .551-.218 2.291 2.291 0 0 0 .422-.283q.178-.153.324-.283a4.505 4.505 0 0 1 .405.622 1.377 1.377 0 0 1 .211.622.811.811 0 0 1-.4.646 3.022 3.022 0 0 1-.961.444 5.136 5.136 0 0 1-1.462.186 5.831 5.831 0 0 1-1.494-.194 3.3 3.3 0 0 1-1.308-.679 3.487 3.487 0 0 1-.929-1.3 5.178 5.178 0 0 1-.355-2.06 4.435 4.435 0 0 1 .315-1.753 3.516 3.516 0 0 1 .84-1.22 3.312 3.312 0 0 1 1.187-.711 4.175 4.175 0 0 1 1.357-.226 3.74 3.74 0 0 1 1.534.283 2.8 2.8 0 0 1 1.026.759 2.989 2.989 0 0 1 .573 1.09 4.632 4.632 0 0 1 .178 1.292v.226c0 .086 0 .178-.008.275s-.011.191-.016.283a1.765 1.765 0 0 1-.024.218h-4.765a2.55 2.55 0 0 0 .548 1.485 1.882 1.882 0 0 0 1.54.589zm.736-3.279a2.362 2.362 0 0 0-.3-1.26 1.169 1.169 0 0 0-1.08-.485 1.336 1.336 0 0 0-1.064.46 1.9 1.9 0 0 0-.4 1.284h2.843zm5.81-2.237a2.78 2.78 0 0 1 .258-.321 1.833 1.833 0 0 1 .4-.32 2.536 2.536 0 0 1 .517-.241 1.866 1.866 0 0 1 .606-.1 2.863 2.863 0 0 1 .412.032 1.426 1.426 0 0 1 .4.12.783.783 0 0 1 .3.24.614.614 0 0 1 .113.376 2.278 2.278 0 0 1-.178.809 6.6 6.6 0 0 1-.355.78 2.4 2.4 0 0 0-.549-.347 1.592 1.592 0 0 0-.646-.121 1.243 1.243 0 0 0-.84.292.889.889 0 0 0-.339.7V77h-2.2v-7.882q.081-.016.194-.032.1-.016.226-.024t.307-.008a1.9 1.9 0 0 1 .9.2.9.9 0 0 1 .475.616zm6.246 0a2.8 2.8 0 0 1 .258-.321 1.834 1.834 0 0 1 .4-.32 2.536 2.536 0 0 1 .517-.241 1.867 1.867 0 0 1 .606-.1 2.863 2.863 0 0 1 .412.032 1.427 1.427 0 0 1 .4.12.785.785 0 0 1 .3.24.615.615 0 0 1 .113.376 2.279 2.279 0 0 1-.178.809 6.622 6.622 0 0 1-.355.78 2.392 2.392 0 0 0-.549-.347 1.591 1.591 0 0 0-.646-.121 1.244 1.244 0 0 0-.84.292.89.89 0 0 0-.339.7V77h-2.2v-7.882q.081-.016.194-.032.1-.016.226-.024t.307-.008a1.9 1.9 0 0 1 .9.2.9.9 0 0 1 .475.616zm10.484 5.015a3.558 3.558 0 0 0 .372 1.858 3.18 3.18 0 0 1-.541.161 2.756 2.756 0 0 1-.525.048 1.444 1.444 0 0 1-.88-.226 1.014 1.014 0 0 1-.38-.646 2.911 2.911 0 0 1-.937.63 3.5 3.5 0 0 1-1.421.258 3.267 3.267 0 0 1-.872-.121 2.292 2.292 0 0 1-.792-.394 2.047 2.047 0 0 1-.582-.733 2.512 2.512 0 0 1-.226-1.119 2.131 2.131 0 0 1 .4-1.336 2.817 2.817 0 0 1 .993-.813 4.5 4.5 0 0 1 1.292-.41 12.289 12.289 0 0 1 1.276-.145q.194-.016.38-.016h.347v-.294a1.06 1.06 0 0 0-.331-.882 1.746 1.746 0 0 0-1.074-.261 3.182 3.182 0 0 0-1.236.226 10.111 10.111 0 0 0-1.058.517 2.372 2.372 0 0 1-.363-.606 1.459 1.459 0 0 1-.137-.493.583.583 0 0 1 .25-.436 2.458 2.458 0 0 1 .686-.38 5.6 5.6 0 0 1 1-.275 6.546 6.546 0 0 1 1.2-.1 5.316 5.316 0 0 1 1.478.178 2.311 2.311 0 0 1 .985.549 2.088 2.088 0 0 1 .541.929 4.7 4.7 0 0 1 .161 1.3v3.037zm-2.068-1.874h-.226a1.615 1.615 0 0 0-.226.016q-.4.033-.8.1a2.294 2.294 0 0 0-.7.226 1.473 1.473 0 0 0-.5.42 1.075 1.075 0 0 0-.194.662 1.17 1.17 0 0 0 .258.767 1.069 1.069 0 0 0 .872.315 2.042 2.042 0 0 0 .582-.081 1.986 1.986 0 0 0 .485-.21 1.252 1.252 0 0 0 .331-.283.471.471 0 0 0 .121-.283v-1.648z" transform="translate(-339.874 -62.551)" style="fill:#044d80"/>
    </g>
</svg>
