<svg data-name="techreviewer logo-02" xmlns="http://www.w3.org/2000/svg" width="117.647" height="17.647" viewBox="0 0 117.647 17.647">
    <path data-name="Path 191180" d="M36.385 12.248H34.56V11l1.916-.069L36.653 9h1.338v1.936h3.145v1.312h-3.127v2.917a1.911 1.911 0 0 0 .353 1.331 1.615 1.615 0 0 0 1.217.412 4.085 4.085 0 0 0 .827-.081 4.818 4.818 0 0 0 .706-.212l.3 1.218a9.531 9.531 0 0 1-1.022.281 6.143 6.143 0 0 1-1.217.125 3.566 3.566 0 0 1-1.3-.25 2.172 2.172 0 0 1-.87-.625 2.487 2.487 0 0 1-.474-.962 5.086 5.086 0 0 1-.152-1.249z" transform="translate(-13.537 -3.378)" style="fill:#212a3b"/>
    <path data-name="Path 191181" d="M48 15.548a3.925 3.925 0 0 1 .3-1.562 3.751 3.751 0 0 1 .8-1.174 3.2 3.2 0 0 1 1.131-.737 3.638 3.638 0 0 1 2.689 0 2.815 2.815 0 0 1 1.649 1.73 4.535 4.535 0 0 1 .189 1.805.768.768 0 0 1-.049.331h-5.03a2.156 2.156 0 0 0 .754 1.518 2.391 2.391 0 0 0 1.576.518 3.033 3.033 0 0 0 1-.15 4.76 4.76 0 0 0 .943-.425l.547 1.037a5.511 5.511 0 0 1-1.253.593 4.394 4.394 0 0 1-1.448.231 4.116 4.116 0 0 1-1.478-.25 3.386 3.386 0 0 1-2-1.874 3.834 3.834 0 0 1-.32-1.591zm5.268-.625a1.907 1.907 0 0 0-.426-1.331 1.559 1.559 0 0 0-1.253-.481 1.925 1.925 0 0 0-.675.119 1.811 1.811 0 0 0-.608.344 2.1 2.1 0 0 0-.681 1.349z" transform="translate(-18.801 -4.436)" style="fill:#212a3b"/>
    <path data-name="Path 191182" d="M61.7 15.555a3.834 3.834 0 0 1 .322-1.58 3.5 3.5 0 0 1 .852-1.168 3.626 3.626 0 0 1 1.253-.731 4.579 4.579 0 0 1 1.5-.256 3.715 3.715 0 0 1 1.49.294 3.64 3.64 0 0 1 1.077.706l-.779 1.037a3.632 3.632 0 0 0-.821-.506 2.462 2.462 0 0 0-2.573.469 2.359 2.359 0 0 0-.645 1.73 2.674 2.674 0 0 0 .17.974 2.262 2.262 0 0 0 .474.743 2.159 2.159 0 0 0 .724.475 2.638 2.638 0 0 0 .931.169 2.433 2.433 0 0 0 1.071-.231 4.516 4.516 0 0 0 .888-.55l.687 1.049a4.035 4.035 0 0 1-1.326.8 4.42 4.42 0 0 1-1.478.269A4.614 4.614 0 0 1 64 19a3.452 3.452 0 0 1-1.217-.718 3.312 3.312 0 0 1-.8-1.174 3.99 3.99 0 0 1-.283-1.578z" transform="translate(-24.167 -4.436)" style="fill:#212a3b"/>
    <path data-name="Path 191183" d="M75.34 7.12h1.618v2.63l-.1 1.518a5.367 5.367 0 0 1 1.083-.856 2.621 2.621 0 0 1 1.4-.362 2.054 2.054 0 0 1 1.776.743 3.492 3.492 0 0 1 .566 2.136V17.3h-1.641v-4.152a2.182 2.182 0 0 0-.292-1.248 1.146 1.146 0 0 0-1-.4 1.7 1.7 0 0 0-.9.244 4.807 4.807 0 0 0-.888.737v4.847H75.34z" transform="translate(-29.51 -2.672)" style="fill:#212a3b"/>
    <path data-name="Path 191184" d="M89.876 11.991h1.338l.14 1.605h.046a3.862 3.862 0 0 1 1.29-1.331 3.094 3.094 0 0 1 1.655-.456 4 4 0 0 1 .724.062 2.643 2.643 0 0 1 .608.225l-.344 1.404a5.171 5.171 0 0 0-.608-.169 3.23 3.23 0 0 0-.651-.05 2.6 2.6 0 0 0-1.381.419 3.723 3.723 0 0 0-1.217 1.462v3.917H89.87z" transform="translate(-35.201 -4.432)" style="fill:#212a3b"/>
    <path data-name="Path 191185" d="M101.729 15.548a3.925 3.925 0 0 1 .3-1.562 3.751 3.751 0 0 1 .8-1.174 3.2 3.2 0 0 1 1.131-.737 3.638 3.638 0 0 1 2.689 0 2.816 2.816 0 0 1 1.63 1.73 4.535 4.535 0 0 1 .189 1.805.768.768 0 0 1-.049.331h-5.029a2.168 2.168 0 0 0 .748 1.493 2.391 2.391 0 0 0 1.576.518 3.033 3.033 0 0 0 1-.15 4.76 4.76 0 0 0 .943-.425l.547 1.037a5.511 5.511 0 0 1-1.253.593 4.394 4.394 0 0 1-1.448.231 4.116 4.116 0 0 1-1.478-.25 3.386 3.386 0 0 1-2-1.874 3.836 3.836 0 0 1-.3-1.568zm5.271-.624a1.907 1.907 0 0 0-.426-1.331 1.559 1.559 0 0 0-1.253-.481 1.924 1.924 0 0 0-.675.119 1.811 1.811 0 0 0-.608.344 2.063 2.063 0 0 0-.681 1.343z" transform="translate(-39.846 -4.436)" style="fill:#212a3b"/>
    <path data-name="Path 191186" d="M114.67 12.1h1.636l1.338 3.686c.134.35.249.706.359 1.062l.328 1.074h.055l.335-1.074c.11-.356.231-.706.359-1.062l1.338-3.686h1.551l-2.689 7.1h-1.825z" transform="translate(-44.915 -4.541)" style="fill:#212a3b"/>
    <path data-name="Path 191187" d="M129.082 10h4.618v7.1h-1.63v-5.788h-3zm3.692-1.249a1.2 1.2 0 0 1-.827-.306 1.064 1.064 0 0 1-.328-.812 1.083 1.083 0 0 1 .328-.818 1.264 1.264 0 0 1 1.655 0 1.083 1.083 0 0 1 .322.818 1.039 1.039 0 0 1-.322.812 1.2 1.2 0 0 1-.833.306z" transform="translate(-50.555 -2.442)" style="fill:#212a3b"/>
    <path data-name="Path 191188" d="M142 15.555a3.925 3.925 0 0 1 .3-1.562 3.683 3.683 0 0 1 .8-1.181 3.251 3.251 0 0 1 1.131-.737 3.518 3.518 0 0 1 1.314-.256 3.565 3.565 0 0 1 1.381.256 2.762 2.762 0 0 1 1.612 1.755 4.3 4.3 0 0 1 .213 1.362v.45a3.109 3.109 0 0 1-.049.331h-5.031a2.129 2.129 0 0 0 .76 1.487 2.451 2.451 0 0 0 1.576.525 3.359 3.359 0 0 0 1-.15 5.4 5.4 0 0 0 .949-.431l.547 1.043a5.511 5.511 0 0 1-1.253.593 4.566 4.566 0 0 1-1.448.231 4.406 4.406 0 0 1-1.478-.25 3.484 3.484 0 0 1-1.217-.731 3.343 3.343 0 0 1-.8-1.168 3.752 3.752 0 0 1-.3-1.568zm5.262-.625a1.907 1.907 0 0 0-.42-1.331 1.559 1.559 0 0 0-1.253-.481 1.925 1.925 0 0 0-.675.119 1.811 1.811 0 0 0-.608.344 2.063 2.063 0 0 0-.681 1.343z" transform="translate(-55.619 -4.436)" style="fill:#212a3b"/>
    <path data-name="Path 191189" d="M154.11 12.1h1.624l.608 3.686q.085.506.146 1.012c.043.337.085.675.134 1.024h.055c.049-.344.1-.687.158-1.024s.122-.675.195-1.012l.663-3h1.217l.669 3c.073.337.14.675.195 1.012s.116.675.17 1.024H160c.055-.344.1-.687.146-1.024s.085-.675.134-1.012l.608-3.686h1.512l-1.284 7.1H159.2l-.608-2.961c-.055-.337-.109-.675-.158-1.006s-.109-.687-.17-1.062h-.064c-.049.281-.091.581-.134.9s-.1.718-.17 1.181l-.608 2.948h-1.874z" transform="translate(-60.363 -4.541)" style="fill:#212a3b"/>
    <path data-name="Path 191190" d="M168.859 15.556a3.925 3.925 0 0 1 .3-1.562 3.683 3.683 0 0 1 .8-1.181 3.336 3.336 0 0 1 1.131-.737 3.673 3.673 0 0 1 2.695 0 2.762 2.762 0 0 1 1.612 1.755 4.14 4.14 0 0 1 .213 1.362v.45a1.486 1.486 0 0 1-.055.331h-5.031a2.117 2.117 0 0 0 .748 1.487 2.451 2.451 0 0 0 1.576.525 3.176 3.176 0 0 0 1-.156 4.976 4.976 0 0 0 .949-.425l.547 1.043a6.244 6.244 0 0 1-1.253.593 4.749 4.749 0 0 1-1.448.231 4.466 4.466 0 0 1-1.484-.25 3.581 3.581 0 0 1-1.217-.731 3.343 3.343 0 0 1-.8-1.168 3.952 3.952 0 0 1-.283-1.567zm5.268-.625a1.907 1.907 0 0 0-.427-1.331 1.559 1.559 0 0 0-1.253-.481 1.925 1.925 0 0 0-.675.119 1.812 1.812 0 0 0-.608.344 2.063 2.063 0 0 0-.681 1.343z" transform="translate(-66.14 -4.436)" style="fill:#212a3b"/>
    <path data-name="Path 191191" d="M183.84 11.991h1.338l.14 1.605h.043a3.917 3.917 0 0 1 1.29-1.331 3.225 3.225 0 0 1 1.655-.456 4.114 4.114 0 0 1 .73.062 2.643 2.643 0 0 1 .608.225l-.335 1.406a5.171 5.171 0 0 0-.608-.169 3.325 3.325 0 0 0-.657-.05 2.6 2.6 0 0 0-1.381.419 3.518 3.518 0 0 0-1.217 1.462v3.917h-1.636z" transform="translate(-71.997 -4.433)" style="fill:#212a3b"/>
    <path data-name="Path 191192" d="m9.033 0 2.792 5.809 6.241.931-4.52 4.5 1.052 6.4-5.583-3.01-5.566 3.011 1.065-6.4L0 6.74l6.241-.931z" style="fill:#ee353e"/>
</svg>
