<svg xmlns="http://www.w3.org/2000/svg" width="8.824" height="8.824" viewBox="0 0 8.824 8.824">
    <path data-name="Icon ionic-ios-star-half" d="M10.739 6.429h-2.9L6.961 3.6a.312.312 0 0 0-.6 0l-.88 2.829H2.565a.329.329 0 0 0-.315.339.268.268 0 0 0 .006.057.332.332 0 0 0 .132.24l2.381 1.808-.914 2.861a.356.356 0 0 0 .108.382.294.294 0 0 0 .177.083.369.369 0 0 0 .2-.076l2.324-1.784 2.324 1.784a.353.353 0 0 0 .2.076.274.274 0 0 0 .175-.083.352.352 0 0 0 .108-.382l-.918-2.861 2.361-1.824.057-.049a.367.367 0 0 0 .1-.227.345.345 0 0 0-.332-.344zm-.934.747L8.233 8.391a.622.622 0 0 0-.2.674l.593 1.86a.081.081 0 0 1-.12.1L6.981 9.853a.81.81 0 0 1-.319-.653V4.76a.038.038 0 0 1 .075-.013l.583 1.871a.556.556 0 0 0 .522.405h1.916a.086.086 0 0 1 .047.153z" transform="translate(-2.25 -3.375)" style="fill:#ec6e17"/>
</svg>
