<svg xmlns="http://www.w3.org/2000/svg" width="127.999" height="30.377" viewBox="0 0 127.999 30.377">
    <path d="m0 10.713 10.541-2.961 6.929.366 4.516 12.23-1.125 9.082 4.739-9.068L23.078 8.63l3.282-.038 2.651 3.45-2.68-7.911-4.36-.156L21.169.76 14.431 0l1.217 3.65-4.748-.106z" transform="rotate(1.885 .484 29.42)" style="fill:#a7a5a6"/>
    <path d="M0 2.279 2.321 4.7l3.9.093-.968-3.55L10.737 0l1.678 5.108 6.044.109L28.337 3.7l-9.284 6.923-4.773-.455 1.782 5.888 4.22 4.736-9.822-4.665L8.166 9.5l-5.913-.317z" transform="rotate(1.885 -262.93 32.414)" style="fill:#e90810"/>
    <g>
        <path d="M32.577 26.578h2.751l1.966-10.46h3.434l.458-2.405h-9.563l-.477 2.405h3.4zM49.089 18.809h-4.581l.534-2.749h4.848l.458-2.348h-7.615l-2.444 12.866h7.883l.439-2.348h-5.134l.592-3.111h4.581zM50.158 26.578h7.693l.458-2.405h-4.945l1.985-10.46h-2.748zM59.454 26.578h2.713l.821-4.295 1.374-1.3 2.157 5.593h2.978l-2.98-7.304 5.211-5.555h-3.436l-3.569 4.276c-.363.458-.764.916-1.145 1.47h-.057l1.088-5.746h-2.712z"/>
        <path d="M77.473 13.503a6.74 6.74 0 0 0-4.7 1.832 8.57 8.57 0 0 0-2.367 6.089c0 3 1.871 5.364 5.211 5.364a6.677 6.677 0 0 0 4.753-1.852 8.6 8.6 0 0 0 2.291-6.07c.004-3.073-1.791-5.363-5.188-5.363zm-.324 2.291c2.023 0 2.6 1.546 2.6 3.15a7.341 7.341 0 0 1-1.565 4.619 3.14 3.14 0 0 1-2.157.935c-1.871 0-2.691-1.355-2.691-3.169a6.991 6.991 0 0 1 1.6-4.562 3.05 3.05 0 0 1 2.212-.974zM96.733 26.578l1.737-12.865h-3.722L92.362 18.6a42.16 42.16 0 0 0-1.737 4.1h-.076c-.019-1.432-.153-2.9-.229-4.1l-.4-4.887h-3.684L83.01 26.578h2.52l1.279-5.306c.324-1.393.706-3.321 1.069-5.02h.038c.076 1.718.172 3.493.286 4.906l.458 5.211h2.138l2.634-5.268a92.204 92.204 0 0 0 2.214-4.848h.057a117.238 117.238 0 0 0-.859 5.02l-.783 5.306zM108.281 24.001a6.741 6.741 0 0 1-2.443.42 3.122 3.122 0 0 1-3.417-3.417 5.208 5.208 0 0 1 1.775-4.142 4.6 4.6 0 0 1 2.94-.993 5.687 5.687 0 0 1 2.329.42l.744-2.233a6.1 6.1 0 0 0-2.806-.554 8.04 8.04 0 0 0-4.734 1.374 7.5 7.5 0 0 0-3.245 6.433c0 3.4 2.291 5.459 5.688 5.459a8.8 8.8 0 0 0 3.4-.554zM118.78 18.809h-4.581l.534-2.749h4.848l.458-2.348h-7.616l-2.443 12.865h7.883l.439-2.348h-5.135l.592-3.111h4.581zM119.848 26.578h7.693l.458-2.405h-4.944l1.985-10.46h-2.749z"/>
    </g>
</svg>
