<svg xmlns="http://www.w3.org/2000/svg" width="13" height="13" viewBox="0 0 13 13">
    <defs>
        <clipPath id="vj3ddy4rka">
            <path data-name="Rectangle 31" transform="translate(944 305)" style="fill:#fff;stroke:#707070" d="M0 0h13v13H0z"/>
        </clipPath>
    </defs>
    <g data-name="Mask Group 7" transform="translate(-944 -305)" style="clip-path:url(#vj3ddy4rka)">
        <g data-name="reactjs-icon (1)" transform="translate(944.263 305.99)">
            <circle data-name="Ellipse 1" cx="1.161" cy="1.161" r="1.161" transform="translate(5.076 4.338)" style="fill:#00d8ff"/>
            <g data-name="Group 2">
                <path data-name="Path 11" d="M6.237 3.138a13.024 13.024 0 0 1 4.1.6c1.315.453 2.124 1.139 2.124 1.761 0 .648-.857 1.377-2.27 1.845a13.078 13.078 0 0 1-3.953.539A13.036 13.036 0 0 1 2.2 7.34C.837 6.873.014 6.134.014 5.5c0-.616.772-1.3 2.069-1.75a13.138 13.138 0 0 1 4.153-.611z" style="fill:none;stroke:#00d8ff;stroke-width:.555px;fill-rule:evenodd"/>
                <path data-name="Path 12" d="M4.182 4.325a13.025 13.025 0 0 1 2.567-3.25C7.8.161 8.8-.2 9.335.114 9.9.438 10.1 1.545 9.8 3a13.071 13.071 0 0 1-1.509 3.7 13.032 13.032 0 0 1-2.484 3.218c-1.087.95-2.138 1.294-2.688.977-.534-.308-.738-1.317-.482-2.666a13.143 13.143 0 0 1 1.546-3.9z" style="fill:none;stroke:#00d8ff;stroke-width:.555px;fill-rule:evenodd"/>
                <path data-name="Path 13" d="M4.184 6.7A13.028 13.028 0 0 1 2.65 2.851c-.267-1.365-.078-2.409.46-2.72.56-.325 1.62.052 2.733 1.04a13.077 13.077 0 0 1 2.446 3.151 13.033 13.033 0 0 1 1.552 3.762c.28 1.416.053 2.5-.5 2.817-.534.309-1.51-.018-2.551-.914A13.139 13.139 0 0 1 4.184 6.7z" style="fill:none;stroke:#00d8ff;stroke-width:.555px;fill-rule:evenodd"/>
            </g>
        </g>
    </g>
</svg>
