<svg xmlns="http://www.w3.org/2000/svg" width="72.001" height="72" viewBox="0 0 72.001 72">
    <g data-name="Group 13852">
        <g data-name="Group 13850">
            <path data-name="Path 3328" d="M52.777 11.017H17.1c-.641 0-1.158-.358-1.158-.8s.517-.8 1.158-.8h35.677c.641 0 1.158.358 1.158.8s-.516.8-1.158.8z" transform="translate(.914 1.415)" style="fill:#a0d99b;fill-rule:evenodd"/>
            <path data-name="Path 3327" d="M35.6 25.1c-.44 0-.8-.536-.8-1.192v-13.3c0-.656.36-1.188.8-1.188s.8.532.8 1.188V23.9c0 .66-.364 1.2-.8 1.2z" transform="translate(.308 1.415)" style="fill:#a0d99b;fill-rule:evenodd"/>
            <path data-name="Path 3306" d="M29.938 69.383H15.782a1.236 1.236 0 0 1-1.22-1.252v-37.5a1.235 1.235 0 0 1 1.22-1.248h14.156a1.238 1.238 0 0 1 1.224 1.248v37.5a1.239 1.239 0 0 1-1.224 1.252z" transform="translate(-.118 .1)" style="stroke-width:1.6px;stroke:#a0d99b;fill:#c8efc4;fill-rule:evenodd"/>
            <path data-name="Path 3308" d="M14.562 61.733v-26H22.5a1.113 1.113 0 0 1 1.121 1.1v23.8a1.11 1.11 0 0 1-1.121 1.1z" transform="translate(-.118 .751)" style="stroke-width:1.6px;stroke:#a0d99b;fill-rule:evenodd;fill:#fff"/>
            <path data-name="Path 3310" d="M56.257 68.49H29.938a1.225 1.225 0 0 1-1.224-1.224V24.294a1.225 1.225 0 0 1 1.224-1.224h26.32a1.225 1.225 0 0 1 1.224 1.224v42.972a1.225 1.225 0 0 1-1.225 1.224z" transform="translate(-.118 .993)" style="stroke-width:1.6px;stroke:#a0d99b;fill:#c8efc4;fill-rule:evenodd"/>
            <path data-name="Path 3311" d="M49.122 68.49H37.073a1.222 1.222 0 0 1-1.224-1.224V49.4a1.222 1.222 0 0 1 1.224-1.224h12.049a1.222 1.222 0 0 1 1.225 1.224v17.866a1.222 1.222 0 0 1-1.225 1.224z" transform="translate(-.118 .993)" style="fill-rule:evenodd;fill:#fff"/>
            <g data-name="Group 13838">
                <path data-name="Path 3313" d="M52.074 45.377H34.121a1.225 1.225 0 0 1-1.221-1.225v-5.129a1.224 1.224 0 0 1 1.224-1.22h17.95a1.224 1.224 0 0 1 1.224 1.22v5.129a1.225 1.225 0 0 1-1.224 1.225z" style="fill-rule:evenodd;fill:#fff" transform="translate(-.118 .993)"/>
                <path data-name="Path 3314" d="M40.706 35.892h-6.234a1.222 1.222 0 0 1-1.224-1.224v-5.125a1.222 1.222 0 0 1 1.224-1.224h6.234a1.221 1.221 0 0 1 1.22 1.224v5.125a1.221 1.221 0 0 1-1.22 1.224z" style="fill-rule:evenodd;fill:#fff" transform="translate(-.118 .993)"/>
                <path data-name="Path 3315" d="M51.723 35.892h-6.234a1.221 1.221 0 0 1-1.22-1.224v-5.125a1.221 1.221 0 0 1 1.22-1.224h6.234a1.222 1.222 0 0 1 1.224 1.224v5.125a1.222 1.222 0 0 1-1.224 1.224z" style="fill-rule:evenodd;fill:#fff" transform="translate(-.118 .993)"/>
            </g>
            <g data-name="Group 13842">
                <g data-name="Group 13839">
                    <path data-name="Path 3316" d="M51.539 34.484v-4.758h-5.867v4.758z" style="fill-rule:evenodd;fill:#fff" transform="translate(-.118 .993)"/>
                </g>
                <g data-name="Group 13840">
                    <path data-name="Path 3317" d="M40.523 34.484v-4.758h-5.867v4.758z" style="fill-rule:evenodd;fill:#fff" transform="translate(-.118 .993)"/>
                </g>
                <g data-name="Group 13841">
                    <path data-name="Path 3318" d="M51.89 43.969v-4.762H34.3v4.762z" style="fill-rule:evenodd;fill:#fff" transform="translate(-.118 .993)"/>
                </g>
            </g>
            <path data-name="Path 3329" d="M56.257 68.49H29.938a1.225 1.225 0 0 1-1.224-1.224V24.294a1.225 1.225 0 0 1 1.224-1.224h26.32a1.225 1.225 0 0 1 1.224 1.224v42.972a1.225 1.225 0 0 1-1.225 1.224z" transform="translate(-.118 .993)" style="fill:none;stroke-width:1.6px;stroke:#a0d99b;fill-rule:evenodd"/>
            <g data-name="Group 13850" transform="translate(-23758.461 -2959.483)">
                <path data-name="Path 3353" d="M57.231 24A9.231 9.231 0 0 0 48 33.231C48 41.538 57.231 48 57.231 48s9.231-6.462 9.231-14.769A9.231 9.231 0 0 0 57.231 24zm0 12.923a3.692 3.692 0 1 1 3.692-3.692 3.692 3.692 0 0 1-3.692 3.692z" transform="translate(23764 2938)" style="fill:#c8efc4"/>
                <circle data-name="Ellipse 393" cx="3.692" cy="3.692" r="3.692" transform="translate(23817.539 2967.539)" style="stroke-linecap:round;stroke-linejoin:round;stroke:#047600;fill:none;stroke-width:1.6px"/>
                <g data-name="Path 3354" style="stroke-linecap:round;stroke-linejoin:round;fill:none">
                    <path d="M66.462 33.231c0 8.307-9.231 14.769-9.231 14.769S48 41.538 48 33.231a9.231 9.231 0 0 1 18.462 0z" style="stroke:none" transform="translate(23764 2938)"/>
                    <path d="M57.23 25.6c-4.207 0-7.63 3.423-7.63 7.63 0 5.895 5.427 10.941 7.633 12.748a28.434 28.434 0 0 0 3.406-3.297c1.248-1.435 2.238-2.895 2.942-4.34.85-1.74 1.28-3.46 1.28-5.11 0-4.208-3.423-7.631-7.63-7.631m0-1.6a9.23 9.23 0 0 1 9.23 9.23c0 8.308-9.23 14.77-9.23 14.77S48 41.538 48 33.23A9.23 9.23 0 0 1 57.23 24z" style="fill:#a0d99b;stroke:none" transform="translate(23764 2938)"/>
                </g>
            </g>
            <g data-name="Group 13851" transform="translate(-23811.901 -2959.483)">
                <path data-name="Path 3353" d="M57.231 24A9.231 9.231 0 0 0 48 33.231C48 41.538 57.231 48 57.231 48s9.231-6.462 9.231-14.769A9.231 9.231 0 0 0 57.231 24zm0 12.923a3.692 3.692 0 1 1 3.692-3.692 3.692 3.692 0 0 1-3.692 3.692z" transform="translate(23764 2938)" style="fill:#c8efc4"/>
                <circle data-name="Ellipse 393" cx="3.692" cy="3.692" r="3.692" transform="translate(23817.539 2967.539)" style="stroke-linecap:round;stroke-linejoin:round;stroke:#047600;fill:none;stroke-width:1.6px"/>
                <g data-name="Path 3354" style="stroke-linecap:round;stroke-linejoin:round;fill:none">
                    <path d="M66.462 33.231c0 8.307-9.231 14.769-9.231 14.769S48 41.538 48 33.231a9.231 9.231 0 0 1 18.462 0z" style="stroke:none" transform="translate(23764 2938)"/>
                    <path d="M57.23 25.6c-4.207 0-7.63 3.423-7.63 7.63 0 5.895 5.427 10.941 7.633 12.748a28.434 28.434 0 0 0 3.406-3.297c1.248-1.435 2.238-2.895 2.942-4.34.85-1.74 1.28-3.46 1.28-5.11 0-4.208-3.423-7.631-7.63-7.631m0-1.6a9.23 9.23 0 0 1 9.23 9.23c0 8.308-9.23 14.77-9.23 14.77S48 41.538 48 33.23A9.23 9.23 0 0 1 57.23 24z" style="fill:#a0d99b;stroke:none" transform="translate(23764 2938)"/>
                </g>
            </g>
        </g>
    </g>
</svg>
