<svg xmlns="http://www.w3.org/2000/svg" width="40.5" height="35.484" viewBox="0 0 40.5 35.484">
    <path data-name="Union 2" d="M-5490.254-3675.57h-26.458a1.287 1.287 0 0 1-1.288-1.288v-29.694a1.449 1.449 0 0 1 1.45-1.448h9.791l4.49 1.617 4.49-1.617h9.791a1.449 1.449 0 0 1 1.45 1.448v29.694a1.287 1.287 0 0 1-1.288 1.288z" transform="translate(5518.5 3708.5)" style="fill:#c8efc5;stroke:#bae5b6"/>
    <g data-name="Group 2297">
        <path data-name="Path 2563" d="M17.677 18.059H6.843a.69.69 0 0 0-.69.69v6.5a.69.69 0 0 0 .69.69h10.834z" style="fill:#f7f7f7" transform="translate(.5 -2.008)"/>
    </g>
    <g data-name="Group 2298">
        <path data-name="Path 2564" d="M39.43 36.922a1.946 1.946 0 0 1-2.752 0l-7.173-7.916 1.6-1.6 8.32 6.768a1.946 1.946 0 0 1 .005 2.748z" style="fill:#047600" transform="translate(.5 -2.008)"/>
    </g>
    <g data-name="Group 2299" transform="translate(.5 -2.008)">
        <circle data-name="Ellipse 386" cx="9.236" cy="9.236" r="9.236" transform="translate(15.498 12.828)" style="fill:#047600"/>
    </g>
    <g data-name="Group 2300">
        <path data-name="Path 2565" d="M29.231 17.566a6.36 6.36 0 1 1-8.995 8.995 6.425 6.425 0 0 1-.545-.62c-.857-1.112 1.13-2.442 1.109-3.778-.022-1.453-1.976-2.913-1.008-4.1a6.365 6.365 0 0 1 9.439-.492z" style="fill:#c8efc4" transform="translate(.5 -2.008)"/>
    </g>
    <g data-name="Group 2301">
        <path data-name="Path 2566" d="M29.231 17.566a6.354 6.354 0 0 0-5.71-1.747 6.361 6.361 0 0 1 0 12.488 6.361 6.361 0 0 0 5.71-10.741z" style="fill:#c8efc4" transform="translate(.5 -2.008)"/>
    </g>
    <g data-name="Group 2302">
        <path data-name="Path 2567" d="m19.344 8.683-3.392-1.222a.654.654 0 0 0-.443 0l-3.393 1.222a.654.654 0 0 1-.875-.615v-5.56h8.979v5.56a.654.654 0 0 1-.876.615z" style="fill:#047600" transform="translate(.5 -2.008)"/>
    </g>
    <path data-name="Path 2568" d="M24.617 25.94a.69.69 0 0 0 .69-.69v-6.5a.69.69 0 0 0-.69-.69h-4.825a6.361 6.361 0 0 0-.1 7.881z" style="fill:#f7f7f7" transform="translate(.5 -2.008)"/>
    <g data-name="Group 2304">
        <g data-name="Group 2303">
            <path data-name="Path 2569" d="M11.945 18.059h1.213v7.881h-1.213z" style="fill:#bae5b6" transform="translate(.5 -2.008)"/>
            <path data-name="Path 2570" d="M8.42 18.059h1.213v7.881H8.42z" style="fill:#bae5b6" transform="translate(.5 -2.008)"/>
        </g>
        <path data-name="Path 2571" d="M21.019 18.059h1.213v7.881h-1.213z" style="fill:#bae5b6" transform="translate(.5 -2.008)"/>
    </g>
</svg>
