<svg xmlns="http://www.w3.org/2000/svg" width="13" height="13" viewBox="0 0 13 13">
    <defs>
        <clipPath id="jqo5y8pula">
            <path data-name="Rectangle 29" transform="translate(792 481)" style="fill:#fff;stroke:#707070" d="M0 0h13v13H0z"/>
        </clipPath>
    </defs>
    <g data-name="Mask Group 8" transform="translate(-792 -481)" style="clip-path:url(#jqo5y8pula)">
        <path d="M9.887 19.677a2.963 2.963 0 1 0 2.963 2.963 2.963 2.963 0 0 0-2.963-2.963z" style="fill:#3880ff" transform="translate(788.622 464.878)"/>
        <circle cx="1.353" cy="1.353" r="1.353" transform="translate(801.401 482.114)" style="fill:#3880ff"/>
        <path d="m15.795 19.942-.053-.124-.088.106a2.063 2.063 0 0 1-.814.557l-.088.035.035.088a5.189 5.189 0 0 1 .407 2.034 5.31 5.31 0 1 1-3.033-4.8l.08.035.035-.088a2.019 2.019 0 0 1 .6-.787l.106-.088-.124-.062a6.528 6.528 0 1 0 2.936 3.1z" style="fill:#3880ff" transform="translate(788.622 464.878)"/>
    </g>
</svg>
