<svg xmlns="http://www.w3.org/2000/svg" width="41" height="41" viewBox="0 0 41 41">
    <path d="M20.174.508a20 20 0 1 0 20 20 20.013 20.013 0 0 0-20-20z" style="fill-rule:evenodd;fill:#c8efc5;stroke:#a0d89b" transform="translate(.326 -.008)"/>
    <path d="M20.173 4.336a.859.859 0 0 0-.859.859v4.9a49.373 49.373 0 0 0-6.827.624q.361-1.674.855-3.371a.859.859 0 0 0-1.649-.483c-.411 1.4-.745 2.8-1.021 4.179a57.56 57.56 0 0 0-4.127.977.859.859 0 1 0 .462 1.655q1.665-.465 3.339-.818a47 47 0 0 0-.588 6.787h-4.9a.859.859 0 0 0 0 1.719h4.9a49.824 49.824 0 0 0 .629 6.811q-1.689-.359-3.382-.84a.859.859 0 0 0-.471 1.653c1.394.4 2.786.726 4.178 1q.41 2.085.971 4.142a.859.859 0 0 0 1.657-.456q-.46-1.674-.814-3.362a48.515 48.515 0 0 0 6.782.6v4.9a.859.859 0 1 0 1.719 0v-4.9a48.35 48.35 0 0 0 6.805-.605q-.355 1.667-.835 3.355a.859.859 0 0 0 1.653.471c.4-1.394.724-2.777 1-4.152a49.64 49.64 0 0 0 4.155-1 .859.859 0 0 0-.473-1.652q-1.677.48-3.357.837a48.383 48.383 0 0 0 .608-6.807h4.9a.859.859 0 1 0 0-1.719h-4.9a48.423 48.423 0 0 0-.61-6.82q1.67.359 3.355.848a.859.859 0 0 0 .48-1.65 49.649 49.649 0 0 0-4.162-1.013c-.276-1.39-.6-2.77-.994-4.14a.859.859 0 1 0-1.652.48q.473 1.663.83 3.342a47.461 47.461 0 0 0-6.8-.595V5.2a.859.859 0 0 0-.857-.864zm.859 7.471a45.652 45.652 0 0 1 7.146.672 46.682 46.682 0 0 1 .693 7.169h-7.838zm-1.719.005v7.836h-7.842a45.157 45.157 0 0 1 .665-7.13 47.713 47.713 0 0 1 7.178-.706zm1.719 9.555h7.84a46.628 46.628 0 0 1-.685 7.152 46.606 46.606 0 0 1-7.154.686zm-9.553 0h7.835v7.838a46.779 46.779 0 0 1-7.124-.682 48.2 48.2 0 0 1-.711-7.155z" style="fill:#047600;fill-rule:evenodd" transform="translate(.326 -.008)"/>
</svg>
