<svg xmlns="http://www.w3.org/2000/svg" width="148" height="32" viewBox="0 0 148 32">
  <defs>
    <style>
      .cls-1 {
        fill: #fff;
        stroke: #707070;
        opacity: 0;
      }

      .cls-2 {
        fill: #da2037;
      }

      .cls-2, .cls-4 {
        fill-rule: evenodd;
      }

      .cls-3 {
        fill: #0061a2;
      }

      .cls-4 {
        fill: #5aa492;
      }

      .cls-5 {
        fill: #231f20;
      }

      .cls-6 {
        stroke: none;
      }

      .cls-7 {
        fill: none;
      }
    </style>
  </defs>
  <g id="Group_2381" data-name="Group 2381" transform="translate(-532 -3120)">
    <g id="Rectangle_4847" data-name="Rectangle 4847" class="cls-1" transform="translate(532 3120)">
      <rect class="cls-6" width="148" height="32"/>
      <rect class="cls-7" x="0.5" y="0.5" width="147" height="31"/>
    </g>
    <g id="Layer_2" data-name="Layer 2" transform="translate(571.533 3120)">
      <g id="Layer_1" data-name="Layer 1">
        <path id="Path_2893" data-name="Path 2893" class="cls-2" d="M6.243,17.793C16.792,2.705,29.783-4.892,27.971,6.33c13.759-13.908,12.682-1.97,7.831,9,1.571-8.693-.241-13.518-11.833.632C29.186-.9,12.859,12.6,6.243,17.825Z" transform="translate(-0.808 -0.038)"/>
        <path id="Path_2894" data-name="Path 2894" class="cls-3" d="M49.927,14.19a14.134,14.134,0,0,1-2.19.917,6.913,6.913,0,0,1-2.007.306,2.65,2.65,0,0,1-1.433-.327,1.2,1.2,0,0,1-.585-.9,2.038,2.038,0,0,1,.3-1.222,4.355,4.355,0,0,1,1.468-1.517,5.688,5.688,0,0,1,2.179-.843l1.261-.211,1.72-.306,1.594-.348a1.97,1.97,0,0,0,.31-1.254c-.08-.263-.47-.4-1.147-.4a4.073,4.073,0,0,0-1.5.232,4.647,4.647,0,0,0-1.147.685c-.39.316-.654.516-.8.611a1.228,1.228,0,0,1-.665.148.631.631,0,0,1-.562-.232.53.53,0,0,1,0-.6,3.468,3.468,0,0,1,1.066-1.117,6.305,6.305,0,0,1,1.892-.885A8.756,8.756,0,0,1,52.2,6.583a5.683,5.683,0,0,1,2.293.337,1.047,1.047,0,0,1,.688,1.054,4.792,4.792,0,0,1-.7,1.939l-.665,1.307-.676,1.191a5.082,5.082,0,0,0-.47,1.275,3.288,3.288,0,0,1-.252.853,1.564,1.564,0,0,1-.676.6,1.986,1.986,0,0,1-.94.274.6.6,0,0,1-.55-.316,2.212,2.212,0,0,1-.264-.906Zm1.582-3.161q-.86.226-1.743.369l-1.559.3a3.445,3.445,0,0,0-.94.358,1.755,1.755,0,0,0-.757.738.784.784,0,0,0,0,.843.968.968,0,0,0,.883.337,4.47,4.47,0,0,0,1.479-.274,4.426,4.426,0,0,0,1.284-.727,5.951,5.951,0,0,0,1.227-1.623l.172-.316ZM58,12.262l-1,1.812a2.775,2.775,0,0,1-.894.99,1.955,1.955,0,0,1-1.055.327c-.344,0-.573-.105-.665-.327a1.172,1.172,0,0,1,.206-.99l3.348-6.016c.539-.98,1.147-1.465,1.984-1.465.4,0,.619.116.665.348a1.6,1.6,0,0,1-.264,1.054,7.855,7.855,0,0,1,1.445-1.054,2.876,2.876,0,0,1,1.4-.358,2.233,2.233,0,0,1,1.273.348.638.638,0,0,1,.324.409.591.591,0,0,1-.107.5A1.786,1.786,0,0,1,64,8.49a1.651,1.651,0,0,1-.8.253,2.449,2.449,0,0,1-.55-.148,2.634,2.634,0,0,0-.8-.137,2.131,2.131,0,0,0-1.009.253,3.792,3.792,0,0,0-.929.738A10.437,10.437,0,0,0,59,10.629c-.3.453-.619,1-.986,1.654Zm16.167-4.1-3.44,6.322a10.459,10.459,0,0,1-1.284,1.865,6.557,6.557,0,0,1-1.525,1.285,6.392,6.392,0,0,1-1.892.748,10.331,10.331,0,0,1-2.408.253,5.645,5.645,0,0,1-2.041-.316,1.861,1.861,0,0,1-1.055-.811.98.98,0,0,1,0-1.054,1.906,1.906,0,0,1,1.525-.9.667.667,0,0,1,.688.421,1.326,1.326,0,0,0,.161.432.879.879,0,0,0,.252.369.956.956,0,0,0,.47.232,3.234,3.234,0,0,0,.768.074,4.671,4.671,0,0,0,1.582-.232,2.98,2.98,0,0,0,1.078-.653,4.333,4.333,0,0,0,.745-.906c.206-.316.5-.832.906-1.538a8.051,8.051,0,0,1-1.869,1.054,5.234,5.234,0,0,1-1.926.358,2.559,2.559,0,0,1-1.8-.548,1.847,1.847,0,0,1-.527-1.559,5.856,5.856,0,0,1,.8-2.318,8.791,8.791,0,0,1,1.273-1.76A7.834,7.834,0,0,1,66.2,7.7a7.118,7.118,0,0,1,1.708-.811,5.525,5.525,0,0,1,1.72-.306,2.935,2.935,0,0,1,1.571.348,1.953,1.953,0,0,1,.78,1.054l.183-.2a2.4,2.4,0,0,1,.791-.885,1.815,1.815,0,0,1,.94-.316c.47,0,.7.137.7.411a2.73,2.73,0,0,1-.424,1.18Zm-8.485,2.75a2.593,2.593,0,0,0-.47,1.991,1.164,1.164,0,0,0,1.284.674,3.407,3.407,0,0,0,1.284-.284,4.885,4.885,0,0,0,1.353-.875A5.207,5.207,0,0,0,70.279,11a2.77,2.77,0,0,0,.493-2.107,1.155,1.155,0,0,0-1.284-.738,3.49,3.49,0,0,0-2.041.706A5.929,5.929,0,0,0,65.7,10.871Z" transform="translate(-5.656 -1.345)"/>
        <path id="Path_2895" data-name="Path 2895" class="cls-4" d="M0,30.461c12.67-4.415,40.567-8.777,65.987-7.544C44.787,24.4,19.4,25.487,0,30.461Z" transform="translate(0 -4.572)"/>
        <path id="Path_2896" data-name="Path 2896" class="cls-5" d="M6.411,37.531l-1-3.551-1.147.274-.092-.327,2.775-.643.092.337L5.895,33.9l1,3.572-.39.095Zm2.156-.5L7.489,32.926l.344-.074.562,2.107a1.031,1.031,0,0,1,.814-.653,1.064,1.064,0,0,1,.757.074.863.863,0,0,1,.413.58l.413,1.612-.367.074-.378-1.465a.886.886,0,0,0-.333-.506.766.766,0,0,0-.55-.063.759.759,0,0,0-.562.358,1.08,1.08,0,0,0,0,.748l.321,1.233Zm4.644-2.487a.779.779,0,0,0-.367-.453.966.966,0,0,0-.631-.063.842.842,0,0,0-.5.316.691.691,0,0,0-.138.548l1.64-.348Zm.5.19-2.087.443a1.155,1.155,0,0,0,.436.674.922.922,0,0,0,.711.126.939.939,0,0,0,.482-.253,1.088,1.088,0,0,0,.252-.506l.378.095a1.3,1.3,0,0,1-.355.632,1.408,1.408,0,0,1-.676.327,1.312,1.312,0,0,1-1.628-.99,1.338,1.338,0,0,1,.115-1.054,1.248,1.248,0,0,1,.837-.558,1.231,1.231,0,0,1,.963.148,1.256,1.256,0,0,1,.55.811v.074Zm2.8-1.528.493-.084a1.351,1.351,0,0,0,.734-.306.61.61,0,0,0,.1-.58A.708.708,0,0,0,17.5,31.7a1.342,1.342,0,0,0-.814,0l-.5.084.321,1.443Zm.413,1.886.5-.084a3.266,3.266,0,0,0,.6-.148.821.821,0,0,0,.252-.158.572.572,0,0,0,.161-.306.844.844,0,0,0,0-.379,1.01,1.01,0,0,0-.183-.4.671.671,0,0,0-.321-.232,1.247,1.247,0,0,0-.287,0,2.831,2.831,0,0,0-.482.063h-.092l-.5.095.344,1.57Zm-.333.39-.86-3.962.757-.137a5.382,5.382,0,0,1,.734-.084.96.96,0,0,1,.4.084,1.048,1.048,0,0,1,.413.3,1.012,1.012,0,0,1,.218.464.865.865,0,0,1,0,.569.848.848,0,0,1-.447.379,1.222,1.222,0,0,1,.734.19.928.928,0,0,1,.378.58,1.319,1.319,0,0,1,0,.516,1.011,1.011,0,0,1-.195.421,1.209,1.209,0,0,1-.413.316,5.065,5.065,0,0,1-.906.232l-.768.137Zm3.291-3.034.241,1.2a1.292,1.292,0,0,0,.333.748.685.685,0,0,0,.619.126.7.7,0,0,0,.55-.316,1.379,1.379,0,0,0,0-.8l-.241-1.2.367-.063.275,1.37a1.126,1.126,0,0,1-.126.9,1.085,1.085,0,0,1-.78.432,1.065,1.065,0,0,1-1.353-.959l-.275-1.37.367-.063Zm2.958,1.623.321-.232a.6.6,0,0,0,.31.263.708.708,0,0,0,.424,0,.571.571,0,0,0,.355-.158.368.368,0,0,0,.092-.306c0-.19-.252-.316-.631-.39h-.1a1.986,1.986,0,0,1-.642-.221.522.522,0,0,1-.241-.369.605.605,0,0,1,.149-.537.966.966,0,0,1,.6-.253,1.155,1.155,0,0,1,.573.053.822.822,0,0,1,.4.316l-.31.221a.5.5,0,0,0-.264-.232.721.721,0,0,0-.378,0,.469.469,0,0,0-.3.158.318.318,0,0,0-.08.263.338.338,0,0,0,.172.232,1.582,1.582,0,0,0,.55.137,1.464,1.464,0,0,1,.642.221.638.638,0,0,1,.241.421.647.647,0,0,1-.172.569,1.187,1.187,0,0,1-.665.306,1.244,1.244,0,0,1-.619,0,.874.874,0,0,1-.424-.348Zm2.1-3.256a.244.244,0,0,1,0-.19.316.316,0,0,1,.195-.105.4.4,0,0,1,.218,0,.262.262,0,0,1,.115.169.258.258,0,0,1-.057.2.307.307,0,0,1-.195.095.323.323,0,0,1-.218,0,.281.281,0,0,1-.115-.179Zm.631,3.351-.378-2.413.378-.053.39,2.423h-.39Zm1.41-.19L26.6,31.557h.344l.069.379a.944.944,0,0,1,.344-.4,1.037,1.037,0,0,1,.527-.19,1.02,1.02,0,0,1,.745.137.837.837,0,0,1,.355.6l.218,1.57h-.378l-.241-1.5a.793.793,0,0,0-.252-.516.7.7,0,0,0-.55-.105.738.738,0,0,0-.585.306,1.074,1.074,0,0,0-.092.748l.206,1.254h-.378ZM31.9,31.873a.8.8,0,0,0-.321-.5.96.96,0,0,0-.619-.116.885.885,0,0,0-.539.263.72.72,0,0,0-.195.537Zm.482.232-2.133.242a1.1,1.1,0,0,0,.355.706.861.861,0,0,0,.7.2.932.932,0,0,0,.5-.211,1.28,1.28,0,0,0,.31-.474l.367.126a1.337,1.337,0,0,1-.436.6,1.5,1.5,0,0,1-.7.263,1.354,1.354,0,0,1-1.009-.253,1.263,1.263,0,0,1-.493-.9,1.291,1.291,0,0,1,.229-1,1.17,1.17,0,0,1,.894-.474,1.22,1.22,0,0,1,.94.232,1.29,1.29,0,0,1,.459.864V32.1Zm.539.716.333-.211a.652.652,0,0,0,.3.274.692.692,0,0,0,.424.063.537.537,0,0,0,.355-.148.322.322,0,0,0,.115-.3c0-.19-.229-.327-.608-.421h-.1a1.928,1.928,0,0,1-.631-.211.546.546,0,0,1-.218-.379.62.62,0,0,1,.183-.537.931.931,0,0,1,.608-.253,1.116,1.116,0,0,1,.573.063.865.865,0,0,1,.378.337l-.321.211a.513.513,0,0,0-.241-.242.643.643,0,0,0-.378-.053.5.5,0,0,0-.31.126.349.349,0,0,0-.092.274.3.3,0,0,0,.149.232,1.656,1.656,0,0,0,.55.169,1.564,1.564,0,0,1,.631.242.689.689,0,0,1,.206.443.632.632,0,0,1-.206.558,1.2,1.2,0,0,1-.677.274,1.238,1.238,0,0,1-.608-.084.842.842,0,0,1-.413-.369Zm2.385-.232.333-.221a.682.682,0,0,0,.3.284.891.891,0,0,0,.424.063.6.6,0,0,0,.355-.148.341.341,0,0,0,.115-.306c0-.179-.229-.327-.608-.421l-.138.032a1.908,1.908,0,0,1-.631-.253.546.546,0,0,1-.218-.379.61.61,0,0,1,.183-.527.988.988,0,0,1,.608-.263,1.115,1.115,0,0,1,.573.074.809.809,0,0,1,.378.337l-.321.2a.568.568,0,0,0-.241-.242.867.867,0,0,0-.378-.053.511.511,0,0,0-.31.137.339.339,0,0,0-.092.274.3.3,0,0,0,.149.232,1.961,1.961,0,0,0,.55.169,1.431,1.431,0,0,1,.631.242.7.7,0,0,1,0,1,1.043,1.043,0,0,1-.677.263,1.14,1.14,0,0,1-.608-.074.9.9,0,0,1-.413-.369Zm4.781-2.213h.5a1.325,1.325,0,0,0,.768-.232.578.578,0,0,0,.172-.569.663.663,0,0,0-.275-.558,1.361,1.361,0,0,0-.814-.105h-.5Zm.195,1.918H40.8a4.74,4.74,0,0,0,.608-.084.859.859,0,0,0,.264-.137.65.65,0,0,0,.206-.3.825.825,0,0,0,0-.379.8.8,0,0,0-.138-.411.644.644,0,0,0-.287-.253,1.022,1.022,0,0,0-.287-.063,2.582,2.582,0,0,0-.482,0h-.527l.161,1.6Zm-.378.348-.378-3.93.78-.063a3.667,3.667,0,0,1,.734,0,.976.976,0,0,1,.4.116,1.1,1.1,0,0,1,.367.348,1,1,0,0,1,.161.464.807.807,0,0,1-.126.569.832.832,0,0,1-.482.337,1.071,1.071,0,0,1,.7.253.876.876,0,0,1,.31.622.99.99,0,0,1-.688,1.18,4.41,4.41,0,0,1-.929.148l-.78.063Zm3.44-1.443a1.01,1.01,0,0,0,.31.706.886.886,0,0,0,.7.2.843.843,0,0,0,.642-.337,1.1,1.1,0,0,0,.161-.78.941.941,0,0,0-.31-.685.911.911,0,0,0-.7-.2.8.8,0,0,0-.631.327A1.043,1.043,0,0,0,43.343,31.2Zm1.938,1.054-.023-.379a.933.933,0,0,1-.333.432,1.016,1.016,0,0,1-.562.19,1.276,1.276,0,0,1-.975-.274,1.483,1.483,0,0,1-.195-1.907,1.175,1.175,0,0,1,.871-.443,1.238,1.238,0,0,1,.608.084.923.923,0,0,1,.424.369v-.443h.378l.241,2.434H45.35Zm3.279-2.244a1.456,1.456,0,0,0-.413-.137,1.246,1.246,0,0,0-.447,0,1.031,1.031,0,0,0-.768.348.99.99,0,0,0-.218.8.9.9,0,0,0,.378.685,1.22,1.22,0,0,0,.814.211,2.187,2.187,0,0,0,.436-.105,2.328,2.328,0,0,0,.413-.242v.369a2.528,2.528,0,0,1-.424.19,3.71,3.71,0,0,1-.516.095,1.473,1.473,0,0,1-1.043-.284,1.322,1.322,0,0,1-.172-1.907,1.543,1.543,0,0,1,1.032-.464,2.183,2.183,0,0,1,.459,0,1.578,1.578,0,0,1,.4.084v.369ZM49.512,32l-.344-4.215h.378l.229,2.9,1.261-1.17h.516L50.2,30.7l1.686,1.17H51.37l-1.525-1.138.1,1.264h-.378Zm4.919-1.5a1.128,1.128,0,0,0-.31-.738.87.87,0,0,0-.688-.221.816.816,0,0,0-.642.3.928.928,0,0,0-.183.727,1.144,1.144,0,0,0,.3.748.893.893,0,0,0,.7.232.84.84,0,0,0,.642-.3A.987.987,0,0,0,54.431,30.5Zm-1.72,1.37h-.378l-.344-4.215h.378l.183,2.276a.918.918,0,0,1,.355-.432,1.345,1.345,0,0,1,1.514.137,1.357,1.357,0,0,1,.424.927,1.208,1.208,0,0,1-1.181,1.4,1.234,1.234,0,0,1-.585-.105.987.987,0,0,1-.4-.39v.453Zm4.231-.506a1.039,1.039,0,0,0,.722-.348A.993.993,0,0,0,57.55,29.6a1.068,1.068,0,0,0-.78-.232,1.006,1.006,0,0,0-.722.337.929.929,0,0,0-.252.727,1.023,1.023,0,0,0,.367.7,1.127,1.127,0,0,0,.78.242Zm0,.316a1.451,1.451,0,0,1-.562-.074,1.341,1.341,0,0,1-.5-.263,1.152,1.152,0,0,1-.344-.39,1.137,1.137,0,0,1-.149-.506,1.256,1.256,0,0,1,.069-.506,1.139,1.139,0,0,1,.275-.443,1.387,1.387,0,0,1,1-.453,1.532,1.532,0,0,1,1.078.306,1.246,1.246,0,0,1,.355.411,1.049,1.049,0,0,1,.149.5.975.975,0,0,1-.069.506,1.14,1.14,0,0,1-.275.443,1.493,1.493,0,0,1-.459.327,1.763,1.763,0,0,1-.562.148Zm2.293-.274-.218-2.487h.355V29.3a.947.947,0,0,1,.367-.379,1.218,1.218,0,0,1,.539-.158,1.012,1.012,0,0,1,.734.19.816.816,0,0,1,.31.622l.138,1.654h-.378l-.1-1.465a.8.8,0,0,0-.218-.537.682.682,0,0,0-.527-.137.8.8,0,0,0-.619.274,1.04,1.04,0,0,0-.138.727l.1,1.275H59.2Zm5.011-1.8a.772.772,0,0,0-.287-.506.944.944,0,0,0-.608-.137.812.812,0,0,0-.562.232.7.7,0,0,0-.218.527Zm.47.263-2.144.137a1.1,1.1,0,0,0,.321.727.833.833,0,0,0,.676.221.942.942,0,0,0,.516-.179,1.051,1.051,0,0,0,.333-.464l.367.148a1.418,1.418,0,0,1-.47.58,1.434,1.434,0,0,1-.722.221,1.273,1.273,0,0,1-.986-.3,1.292,1.292,0,0,1-.447-.917,1.377,1.377,0,0,1,.287-.99,1.349,1.349,0,0,1,.929-.432,1.211,1.211,0,0,1,.917.284,1.187,1.187,0,0,1,.413.885v.074Z" transform="translate(-0.54 -5.562)"/>
      </g>
    </g>
  </g>
</svg>
