<svg xmlns="http://www.w3.org/2000/svg" width="21.935" height="40" viewBox="0 0 21.935 40">
    <g data-name="coding (1)">
        <path data-name="Path 48" d="M139.355 8h-16.774A2.584 2.584 0 0 0 120 10.581v34.838A2.584 2.584 0 0 0 122.581 48h16.774a2.584 2.584 0 0 0 2.581-2.581V10.581A2.584 2.584 0 0 0 139.355 8zm-5.368 1.29-.363 1.29h-5.378l-.323-1.29zm6.658 36.129a1.292 1.292 0 0 1-1.29 1.29h-16.774a1.292 1.292 0 0 1-1.29-1.29V10.581a1.292 1.292 0 0 1 1.29-1.29h4.012l.523 2.092a.645.645 0 0 0 .626.489h6.371a.645.645 0 0 0 .621-.47l.594-2.11h4.027a1.292 1.292 0 0 1 1.29 1.29z" style="fill:#6d6d6d" transform="translate(-120 -8)"/>
        <path data-name="Path 49" d="M157.161 456h-4.516a.645.645 0 0 0 0 1.29h4.516a.645.645 0 1 0 0-1.29z" transform="translate(-149.419 -419.871)" style="fill:#6d6d6d"/>
        <path data-name="Path 50" d="M233.29 456h-.645a.645.645 0 1 0 0 1.29h.645a.645.645 0 1 0 0-1.29z" transform="translate(-222.968 -419.871)" style="fill:#6d6d6d"/>
        <path data-name="Path 51" d="M228.847 208.091a.645.645 0 0 0-.885.221l-3.871 6.452a.645.645 0 1 0 1.106.664l3.871-6.452a.645.645 0 0 0-.221-.885z" transform="translate(-215.612 -191.87)" style="fill:#6d6d6d"/>
        <path data-name="Path 52" d="M297.147 208.24a.645.645 0 0 0-1.008.806l2.258 2.823-2.258 2.823a.645.645 0 1 0 1.008.806l2.581-3.226a.645.645 0 0 0 0-.806z" transform="translate(-281.805 -191.869)" style="fill:#6d6d6d"/>
        <path data-name="Path 53" d="M170.72 215.5a.645.645 0 1 0 1.008-.806l-2.258-2.823 2.258-2.823a.645.645 0 1 0-1.008-.806l-2.581 3.226a.645.645 0 0 0 0 .806z" transform="translate(-164.127 -191.869)" style="fill:#6d6d6d"/>
    </g>
</svg>
