<svg xmlns="http://www.w3.org/2000/svg" width="13" height="13" viewBox="0 0 13 13">
    <defs>
        <clipPath id="trak7otqta">
            <path data-name="Rectangle 27" transform="translate(448 481)" style="fill:#fff;stroke:#707070" d="M0 0h13v13H0z"/>
        </clipPath>
    </defs>
    <g data-name="Mask Group 10" transform="translate(-448 -481)" style="clip-path:url(#trak7otqta)">
        <path data-name="Path 25" d="m6.459.035.347.652a1.947 1.947 0 0 0 .262.326 9.1 9.1 0 0 1 .814.92 8 8 0 0 1 1.267 2.556 6.285 6.285 0 0 1 .269 1.735 6.121 6.121 0 0 1-1.787 4.517 5.159 5.159 0 0 1-.638.545c-.12 0-.177-.092-.227-.177a1.458 1.458 0 0 1-.177-.51 2.463 2.463 0 0 1-.057-.644v-.1c-.009-.02-.115-9.77-.073-9.82z" style="fill:#599636" transform="translate(448 481)"/>
        <path data-name="Path 26" d="M6.459.014c-.014-.029-.029-.007-.043.007a.655.655 0 0 1-.12.39 1.868 1.868 0 0 1-.312.312 6.785 6.785 0 0 0-1.522 1.94 7.794 7.794 0 0 0-.877 3.172 10.553 10.553 0 0 0 .255 2.237 6.783 6.783 0 0 0 1.777 2.8 7.766 7.766 0 0 0 .63.538c.064 0 .071-.057.085-.1a1.942 1.942 0 0 0 .064-.276l.142-1.062z" style="fill:#6cac48" transform="translate(448 481)"/>
        <path data-name="Path 27" d="M6.806 11.717a.969.969 0 0 1 .177-.432.447.447 0 0 1-.2-.184 1.314 1.314 0 0 1-.106-.234 4.043 4.043 0 0 1-.149-.913v-.183a.883.883 0 0 0-.043.3 7.056 7.056 0 0 1-.128.956.85.85 0 0 1-.114.368.141.141 0 0 0 .007.05 4.228 4.228 0 0 1 .187 1.155v.142c0 .17-.007.134.134.191a.621.621 0 0 1 .178.067c.043 0 .05-.035.05-.064l-.022-.236v-.652a1.723 1.723 0 0 1 .028-.333z" style="fill:#c2bfbf" transform="translate(448 481)"/>
    </g>
</svg>
