<svg xmlns="http://www.w3.org/2000/svg" width="94.809" height="100.1" viewBox="0 0 94.809 100.1">
    <g data-name="Group 14078">
        <path d="M154.688 126.655c-11.134-11.875-28.016-18.859-43.958-13.3-13.261 4.633-24.23 16.098-30.19 28.872-4.2 8.989-6.518 20.635-3.965 30.424 2.217 8.5 9.3 12.276 17.4 12.883 12.807.96 25.66-.431 38.476-.185 9.1.174 22.969 3.539 31.081-1.863 7.661-5.1 7.183-16.21 6.343-24.371a56.8 56.8 0 0 0-15.187-32.46z" transform="translate(-75.511 -97.607)" style="fill:#b8dfde"/>
        <path d="M154.688 126.655c-11.134-11.875-28.016-18.859-43.958-13.3-13.261 4.633-24.23 16.098-30.19 28.872-4.2 8.989-6.518 20.635-3.965 30.424 2.217 8.5 9.3 12.276 17.4 12.883 12.807.96 25.66-.431 38.476-.185 9.1.174 22.969 3.539 31.081-1.863 7.661-5.1 7.183-16.21 6.343-24.371a56.8 56.8 0 0 0-15.187-32.46z" transform="translate(-75.511 -97.607)" style="opacity:.7;fill:#fff"/>
    </g>
    <g data-name="Group 14079">
        <path data-name="Path 3672" d="m99.991 262.334-4.877-6.14-4.878 6.14h1.908v9.244h5.939v-9.244z" transform="translate(-86.256 -203.252)" style="stroke-linecap:round;stroke-linejoin:round;stroke-miterlimit:10;stroke-width:.2px;stroke:#fff;fill:none"/>
        <path data-name="Path 3673" d="m320.829 262.334-4.878-6.14-4.878 6.14h1.908v9.244h5.94v-9.244z" transform="translate(-247.402 -203.252)" style="stroke-linecap:round;stroke-linejoin:round;stroke-miterlimit:10;stroke-width:.2px;stroke:#fff;fill:none"/>
        <path data-name="Path 3674" d="m376.552 318.286-4.877-6.14-4.878 6.14h1.908v9.244h5.939v-9.244z" transform="translate(-288.064 -244.08)" style="stroke-linecap:round;stroke-linejoin:round;stroke-miterlimit:10;stroke-width:.2px;stroke:#fff;fill:none"/>
        <path data-name="Path 3675" d="m353.7 187.6-4.878-6.14-4.878 6.14h1.908v9.244h5.939V187.6z" transform="translate(-271.385 -148.718)" style="stroke-linecap:round;stroke-linejoin:round;stroke-miterlimit:10;stroke-width:.2px;stroke:#fff;fill:none"/>
        <path data-name="Path 3676" d="m145.881 191.533-4.881-6.14-4.877 6.14h1.908v9.244h5.939v-9.244z" transform="translate(-119.742 -151.588)" style="stroke-linecap:round;stroke-linejoin:round;stroke-miterlimit:10;stroke-width:.2px;stroke:#fff;fill:none"/>
        <path data-name="Path 3677" d="m180.878 318.286-4.878-6.14-4.878 6.14h1.908v9.244h5.939v-9.244z" transform="translate(-145.28 -244.08)" style="stroke-linecap:round;stroke-linejoin:round;stroke-miterlimit:10;stroke-width:.2px;stroke:#fff;fill:none"/>
    </g>
    <g data-name="Group 14080" transform="translate(20.675 93.705)">
        <ellipse data-name="Ellipse 549" cx="27.57" cy="3.198" rx="27.57" ry="3.198" style="fill:#b8dfde"/>
        <ellipse data-name="Ellipse 550" cx="27.57" cy="3.198" rx="27.57" ry="3.198" style="opacity:.5;fill:#fff"/>
    </g>
    <g data-name="Group 14081">
        <path data-name="Path 3678" d="M188.143 84.039A10.178 10.178 0 0 0 172.481 73.7a13.731 13.731 0 0 0-26.43 5.224c0 .169.007.336.013.5a8.939 8.939 0 0 0 1.221 17.452v.095h40.421a6.476 6.476 0 0 0 .438-12.937z" transform="translate(-122.256 -63.879)" style="stroke:#1b3c3c;fill:#1b3c3c;stroke-linecap:round;stroke-linejoin:round;stroke-miterlimit:10;stroke-width:.2px"/>
        <path data-name="Path 3679" d="M188.143 79.539A10.178 10.178 0 0 0 172.481 69.2a13.731 13.731 0 0 0-26.43 5.224c0 .169.007.336.013.5a8.939 8.939 0 0 0 1.221 17.452v.095h40.421a6.476 6.476 0 0 0 .438-12.937z" transform="translate(-122.256 -60.595)" style="stroke:#1b3c3c;stroke-linecap:round;stroke-linejoin:round;stroke-miterlimit:10;stroke-width:.2px;fill:#b8dfde"/>
    </g>
    <g data-name="Group 14095">
        <path data-name="Path 3680" d="m226.51 264.462-1.7.891s-1.863.81-3.078 1.458-7.209 5.265-7.209 5.265l-1.215.081-.729.486s-1.215.243-1.215.486.243.324.486.324a4.772 4.772 0 0 0 1.053-.4s-.822 1.206-.5 1.206a12.677 12.677 0 0 1 1.4.224 15.917 15.917 0 0 1 1.612-.215c.4 0 1.377-2.187 1.377-2.187s6.966-2.754 7.857-3.4 3.483-2.268 3.483-2.268z" transform="translate(-174.642 -209.285)" style="stroke:#1b3c3c;stroke-linecap:round;stroke-linejoin:round;stroke-miterlimit:10;stroke-width:.2px;fill:#fff"/>
        <g data-name="Group 14082">
            <path data-name="Path 3681" d="m271.1 239.839-7.592 6.9 2.187 2.592 4.212-1.62 1.458-7.776z" transform="translate(-212.691 -191.317)" style="stroke:#1b3c3c;stroke-linecap:round;stroke-linejoin:round;stroke-miterlimit:10;stroke-width:.2px;fill:#b8dfde"/>
            <path data-name="Path 3682" d="m264.517 261.958-1.012.92 2.187 2.592 1.308-.5z" transform="translate(-212.691 -207.457)" style="stroke:#1b3c3c;fill:#1b3c3c;stroke-linecap:round;stroke-linejoin:round;stroke-miterlimit:10;stroke-width:.2px"/>
        </g>
        <g data-name="Group 14086">
            <g data-name="Group 14083">
                <path data-name="Path 3683" d="M337.037 399.426s2.41 2.509 2.656 3.738-.344 2.312-1.328 2.017-1.869-3.345-2.115-3.886-.541-1.131-.541-1.131.738-.984 1.328-.738z" transform="translate(-265.378 -307.74)" style="stroke:#1b3c3c;stroke-linecap:round;stroke-linejoin:round;stroke-miterlimit:10;stroke-width:.2px;fill:#b8dfde"/>
                <path data-name="Path 3684" d="M344.278 413.577c.18 1.174-.4 2.17-1.349 1.885a2.141 2.141 0 0 1-.966-1.082 1.934 1.934 0 0 1 2.315-.803z" transform="translate(-269.942 -318.021)" style="stroke:#1b3c3c;stroke-linecap:round;stroke-linejoin:round;stroke-miterlimit:10;stroke-width:.2px;fill:#fff"/>
                <path data-name="Path 3685" d="M340.707 413.614c.535.738 1.227 1.53 1.748 1.391.543-.145.792-1.114.887-1.616.242 1.227-.347 2.3-1.329 2.01-.48-.144-.936-.942-1.306-1.785z" transform="translate(-269.025 -317.957)" style="stroke:#1b3c3c;stroke-linecap:round;stroke-linejoin:round;stroke-miterlimit:10;stroke-width:.2px;fill:#fff"/>
                <path data-name="Path 3686" d="M338.286 403.458s1.082-.59 1.131-.394-1.033.738-1.18.738-.246-.049.049-.344z" transform="translate(-267.119 -310.394)" style="stroke:#1b3c3c;stroke-linecap:round;stroke-linejoin:round;stroke-miterlimit:10;stroke-width:.2px;fill:#fff"/>
                <path data-name="Path 3687" d="M339.2 404.731s1.082-.59 1.132-.394-1.033.738-1.181.738-.251-.049.049-.344z" transform="translate(-267.783 -311.323)" style="stroke:#1b3c3c;stroke-linecap:round;stroke-linejoin:round;stroke-miterlimit:10;stroke-width:.2px;fill:#fff"/>
                <path data-name="Path 3688" d="M340.106 406.005s1.082-.59 1.131-.394-1.033.738-1.181.738-.245-.049.05-.344z" transform="translate(-268.447 -312.253)" style="stroke:#1b3c3c;stroke-linecap:round;stroke-linejoin:round;stroke-miterlimit:10;stroke-width:.2px;fill:#fff"/>
                <path data-name="Path 3689" d="M341.016 407.279s1.082-.59 1.131-.394-1.033.738-1.181.738-.245-.049.05-.344z" transform="translate(-269.111 -313.182)" style="stroke:#1b3c3c;stroke-linecap:round;stroke-linejoin:round;stroke-miterlimit:10;stroke-width:.2px;fill:#fff"/>
            </g>
            <g data-name="Group 14084">
                <path data-name="Path 3690" d="M254.909 407.878a6.532 6.532 0 0 1 1.025 2.055c.084.744-.538.763-1.334.677s-1.744.5-2.865.474-2.412-.52-1.79-1.052 2.243-.969 2.592-1.275a6.056 6.056 0 0 0 .59-.593z" transform="translate(-202.678 -313.936)" style="stroke:#1b3c3c;stroke-linecap:round;stroke-linejoin:round;stroke-miterlimit:10;stroke-width:.2px;fill:#b8dfde"/>
                <path data-name="Path 3691" d="M249.947 414.7a3.332 3.332 0 0 1 .711-.424 2.38 2.38 0 0 1 1.173 1.476h-.095c-1.121-.028-2.412-.519-1.789-1.052z" transform="translate(-202.678 -318.605)" style="stroke:#1b3c3c;stroke-linecap:round;stroke-linejoin:round;stroke-miterlimit:10;stroke-width:.2px;fill:#fff"/>
                <path data-name="Path 3692" d="M260.186 410.486s1.154.6.862.721-1.168-.556-.862-.721z" transform="translate(-210.222 -315.839)" style="stroke:#1b3c3c;stroke-linecap:round;stroke-linejoin:round;stroke-miterlimit:10;stroke-width:.2px;fill:#fff"/>
                <path data-name="Path 3693" d="M258.53 410.938s1.154.6.862.721-1.169-.559-.862-.721z" transform="translate(-209.013 -316.169)" style="stroke:#1b3c3c;stroke-linecap:round;stroke-linejoin:round;stroke-miterlimit:10;stroke-width:.2px;fill:#fff"/>
                <path data-name="Path 3694" d="M257.571 411.6s1.154.6.862.721-1.169-.556-.862-.721z" transform="translate(-208.313 -316.652)" style="stroke:#1b3c3c;stroke-linecap:round;stroke-linejoin:round;stroke-miterlimit:10;stroke-width:.2px;fill:#fff"/>
                <path data-name="Path 3695" d="M255.81 412.4s1.154.6.862.721-1.172-.556-.862-.721z" transform="translate(-207.028 -317.236)" style="stroke:#1b3c3c;stroke-linecap:round;stroke-linejoin:round;stroke-miterlimit:10;stroke-width:.2px;fill:#fff"/>
                <path data-name="Path 3696" d="M249.827 416.176a3.609 3.609 0 0 0 2.684.4 16.775 16.775 0 0 1 2.573-.356 3.332 3.332 0 0 0 .868-.146c-.021.585-.605.6-1.34.518-.8-.085-1.744.5-2.865.474-1.003-.03-2.138-.426-1.92-.89z" transform="translate(-202.69 -319.914)" style="stroke:#1b3c3c;stroke-linecap:round;stroke-linejoin:round;stroke-miterlimit:10;stroke-width:.2px;fill:#fff"/>
            </g>
            <g data-name="Group 14085">
                <path data-name="Path 3697" d="M267.724 299.81s-.569 7.9-.225 9.82 1.19 7.622 1.19 7.622a11.276 11.276 0 0 1 2.558 3c1.279 2.066 4.083 6.2 4.083 6.2a.934.934 0 0 1-.787.984s-.443.2-.689 0-8.657-7.969-9.641-9.592-2.313-11.6-2.313-11.6l-1.278-.244-5.4 10.331.939 12.557s.075.434-.542.607-1.107.239-1.475-.077-3.215-14.071-2.981-14.561 5.695-14.012 5.695-14.012l.443-1.131s5.165.59 7.477.148 2.75-.79 2.946-.052z" transform="translate(-203.671 -234.764)" style="stroke:#1b3c3c;fill:#1b3c3c;stroke-linecap:round;stroke-linejoin:round;stroke-miterlimit:10;stroke-width:.2px"/>
                <path data-name="Line 548" transform="translate(54.147 70.398)" style="stroke-linecap:round;stroke-linejoin:round;stroke-miterlimit:10;stroke-width:.2px;stroke:#fff;fill:none" d="M2.804.836 0 0"/>
                <path data-name="Line 549" transform="translate(52.819 70.939)" style="stroke-linecap:round;stroke-linejoin:round;stroke-miterlimit:10;stroke-width:.2px;stroke:#fff;fill:none" d="M3.837.443 0 0"/>
                <path data-name="Path 3698" d="M306.738 306.665s-2.076 1.323.013 2.207" transform="translate(-243.567 -240.08)" style="stroke-linecap:round;stroke-linejoin:round;stroke-miterlimit:10;stroke-width:.2px;stroke:#fff;fill:none"/>
            </g>
            <path data-name="Path 3699" d="m284.316 308.659-.316 1.277-.852.852 1.064.958" transform="translate(-227.022 -241.535)" style="stroke-linecap:round;stroke-linejoin:round;stroke-miterlimit:10;stroke-width:.2px;stroke:#fff;fill:none"/>
        </g>
        <path data-name="Path 3700" d="M289.594 243.314c-1.892-1.536-4.241-3.391-4.241-3.391s-4.982-.112-6.807-.091l-2.567 8.195s-2.361 8.165-2.263 8.51 1.771 1.131 5.509 1.574 5.312-1.131 5.411-1.623a4.1 4.1 0 0 0-.1-1.328l1.279-2.263 4.23-6.957a2.025 2.025 0 0 0-.451-2.626z" transform="translate(-220.139 -191.31)" style="stroke:#1b3c3c;stroke-linecap:round;stroke-linejoin:round;stroke-miterlimit:10;stroke-width:.2px;fill:#b8dfde"/>
        <path data-name="Path 3701" d="M308.14 242.195c-1.449-1.161-2.755-2.193-2.755-2.193s-1.653-.037-3.4-.065c-.443 1.011-1.207 3.077-.578 4.1.772 1.263 3.312 1.635 6.733-1.842z" transform="translate(-240.171 -191.388)" style="stroke:#1b3c3c;fill:#1b3c3c;stroke-linecap:round;stroke-linejoin:round;stroke-miterlimit:10;stroke-width:.2px"/>
        <g data-name="Group 14089">
            <path data-name="Path 3702" d="M307.118 208.839a4.091 4.091 0 0 0-2.017 1.279 34.315 34.315 0 0 0-2.263 6.493c.049.443 2.263 0 2.263 0a26.4 26.4 0 0 0-1.525 3.738c0 .541.689.836 1.574.64s3.9-5.39 3.9-5.39.894 1.039 1.46.682c.647-.408.443-1.23-.049-1.23s1.377-2.017.738-3.345-3.491-3.306-4.081-2.867z" transform="translate(-241.391 -168.65)" style="stroke:#1b3c3c;stroke-linecap:round;stroke-linejoin:round;stroke-miterlimit:10;stroke-width:.2px;fill:#fff"/>
            <g data-name="Group 14087">
                <path data-name="Path 3703" d="M308.809 199.234s-2.755 0-2.9 1.328 1.279 1.918 2.853 1.672 3-.148 3.2.1-1.918.738-1.426 1.082a1.592 1.592 0 0 0 .984.3s-.689.2-.64.689.477 2.665.822 2.665 1-.043 1-.043a6.268 6.268 0 0 0 1.672-1.23 2.673 2.673 0 0 0 0-3.443c-.935-.984-1.672-1.933-2.41-2.72a4.533 4.533 0 0 0-2.9-1.82c-1.485-.203-2.272.386-.255 1.42z" transform="translate(-243.623 -160.619)" style="stroke:#1b3c3c;fill:#1b3c3c;stroke-linecap:round;stroke-linejoin:round;stroke-miterlimit:10;stroke-width:.2px"/>
                <path data-name="Path 3704" d="M337.923 221.975a3.224 3.224 0 0 1 .03.873" transform="translate(-266.993 -178.281)" style="stroke-linecap:round;stroke-linejoin:round;stroke-miterlimit:10;stroke-width:.2px;stroke:#fff;fill:none"/>
                <path data-name="Path 3705" d="M313.453 208.934s-3.019.294-1.878.87 2.886-.5 5.085.367a2.825 2.825 0 0 1 1.652 1.584" transform="translate(-247.579 -168.765)" style="stroke-linecap:round;stroke-linejoin:round;stroke-miterlimit:10;stroke-width:.2px;stroke:#fff;fill:none"/>
                <path data-name="Path 3706" d="M326 217.408s2.062 1.008 2.336 2.474" transform="translate(-258.292 -174.949)" style="stroke-linecap:round;stroke-linejoin:round;stroke-miterlimit:10;stroke-width:.2px;stroke:#fff;fill:none"/>
            </g>
            <path data-name="Path 3707" d="M311.212 235.9s2.361-.148 3-.689" transform="translate(-247.502 -187.943)" style="stroke:#1b3c3c;stroke-linecap:round;stroke-linejoin:round;stroke-miterlimit:10;stroke-width:.2px;fill:none"/>
            <g data-name="Group 14088">
                <path data-name="Path 3708" d="M308.482 229.023s1.721.492 2.213-.541" transform="translate(-245.51 -183.029)" style="stroke:#1b3c3c;stroke-linecap:round;stroke-linejoin:round;stroke-miterlimit:10;stroke-width:.2px;fill:none"/>
                <path data-name="Line 550" transform="translate(64.89 45.256)" style="stroke:#1b3c3c;stroke-linecap:round;stroke-linejoin:round;stroke-miterlimit:10;stroke-width:.2px;fill:none" d="m0 0 .738.295"/>
                <path data-name="Path 3709" d="M306.368 222.113s-1.525.2-1.525.443.984.935.984.935" transform="translate(-242.855 -178.382)" style="stroke:#1b3c3c;stroke-linecap:round;stroke-linejoin:round;stroke-miterlimit:10;stroke-width:.2px;fill:#fff"/>
            </g>
            <path data-name="Path 3710" d="M310.057 219.137c-.071.213-.215.357-.321.321s-.135-.237-.064-.449.215-.357.321-.321.135.236.064.449z" transform="translate(-246.35 -175.878)" style="fill:#1b3c3c"/>
            <path data-name="Path 3711" d="M314.84 221.564c-.071.213-.215.357-.321.321s-.135-.237-.064-.449.215-.357.321-.321.135.236.064.449z" transform="translate(-249.84 -177.649)" style="fill:#1b3c3c"/>
            <path data-name="Path 3712" d="M316.25 217.622s.745.068.677 1.083z" transform="translate(-251.179 -175.105)" style="stroke:#1b3c3c;fill:#1b3c3c;stroke-linecap:round;stroke-linejoin:round;stroke-miterlimit:10;stroke-width:.2px"/>
            <path data-name="Path 3713" d="M311.188 215.355s-.406-.542-.948.2z" transform="translate(-246.793 -173.312)" style="stroke:#1b3c3c;fill:#1b3c3c;stroke-linecap:round;stroke-linejoin:round;stroke-miterlimit:10;stroke-width:.2px"/>
        </g>
        <g data-name="Group 14092">
            <path data-name="Path 3714" d="m225.1 125.122-7.118-8.961-7.118 8.961h2.784v13.49h8.668v-13.49z" transform="translate(-174.275 -101.069)" style="stroke:#1b3c3c;fill:#1b3c3c;stroke-linecap:round;stroke-linejoin:round;stroke-miterlimit:10;stroke-width:.2px"/>
            <path data-name="Path 3715" d="m225.1 122.975-7.118-8.961-7.118 8.961h2.784v13.49h8.668v-13.49z" transform="translate(-174.275 -99.502)" style="stroke:#1b3c3c;stroke-linecap:round;stroke-linejoin:round;stroke-miterlimit:10;stroke-width:.2px;fill:#fff"/>
            <g data-name="Group 14091">
                <path data-name="Rectangle 4999" style="stroke:#1b3c3c;stroke-linecap:round;stroke-linejoin:round;stroke-miterlimit:10;stroke-width:.2px;fill:#fff" d="M0 0h28.952v28.952H0z" transform="translate(28.635 35.44)"/>
                <path data-name="Rectangle 5000" transform="translate(29.982 36.787)" style="stroke:#1b3c3c;fill:#1b3c3c;stroke-linecap:round;stroke-linejoin:round;stroke-miterlimit:10;stroke-width:.2px" d="M0 0h26.259v26.259H0z"/>
                <g data-name="Group 14090" transform="translate(29.982 39.526)">
                    <path data-name="Path 3716" d="m206.6 227.78-6.123 6.4-4.77-1.336a1.617 1.617 0 0 0-1.385.248l-7.89 5.723v6.385h26.258v-13.5l-3.757-3.917a1.616 1.616 0 0 0-2.333-.003z" transform="translate(-186.431 -221.679)" style="stroke:#1b3c3c;stroke-linecap:round;stroke-linejoin:round;stroke-miterlimit:10;stroke-width:.2px;fill:#fff"/>
                    <circle data-name="Ellipse 551" cx="3.313" cy="3.313" r="3.313" transform="rotate(-67.67 7.28 -.974)" style="stroke:#1b3c3c;stroke-linecap:round;stroke-linejoin:round;stroke-miterlimit:10;stroke-width:.2px;fill:#fff"/>
                </g>
            </g>
        </g>
        <path data-name="Path 3717" d="m254.057 253.4-7.236 7.439-11.027 3.038s-.983-1.144-1.693-1.151a16.025 16.025 0 0 0-2.988.824s-.29.707.277.712a10.049 10.049 0 0 0 1.706-.268l-3.127.539h0a1.019 1.019 0 0 0 1 .861l1.407.013 2.41.306 2.277-.689s10.8-1.178 11.367-1.315 9.725-8 9.725-8a1.983 1.983 0 0 0 .641-1.968c-.4-1.057-2.413-1.8-2.413-1.8" transform="translate(-188.219 -200.142)" style="stroke:#1b3c3c;stroke-linecap:round;stroke-linejoin:round;stroke-miterlimit:10;stroke-width:.2px;fill:#fff"/>
        <g data-name="Group 14093">
            <path data-name="Path 3718" d="m299.367 252.87-5.515 5.533 4.1 2.954 7.116-6.7a2.081 2.081 0 0 0 .364-2.587l-.024-.039a5.252 5.252 0 0 0-2.089-1.882" transform="translate(-234.835 -198.839)" style="stroke:#1b3c3c;stroke-linecap:round;stroke-linejoin:round;stroke-miterlimit:10;stroke-width:.2px;fill:#b8dfde"/>
            <path data-name="Path 3719" d="m297.956 281.067.964-.908-4.117-3-.952.955z" transform="translate(-234.835 -218.55)" style="stroke:#1b3c3c;fill:#1b3c3c;stroke-linecap:round;stroke-linejoin:round;stroke-miterlimit:10;stroke-width:.2px"/>
        </g>
        <g data-name="Group 14094">
            <path data-name="Path 3720" d="m211.364 296.244 1.04 1.125 1.006.112-1.565-1.341z" transform="translate(-174.643 -232.399)" style="stroke:#1b3c3c;stroke-linecap:round;stroke-linejoin:round;stroke-miterlimit:10;stroke-width:.2px;fill:#fff"/>
            <path data-name="Path 3721" d="m218.6 296.244 1.041 1.125 1.006.112-1.565-1.341z" transform="translate(-179.925 -232.399)" style="stroke:#1b3c3c;stroke-linecap:round;stroke-linejoin:round;stroke-miterlimit:10;stroke-width:.2px;fill:#fff"/>
            <path data-name="Path 3722" d="m215.767 297.027-1.174-1.509h.727l1.454 1.509-.615.112z" transform="translate(-176.999 -231.946)" style="stroke:#1b3c3c;stroke-linecap:round;stroke-linejoin:round;stroke-miterlimit:10;stroke-width:.2px;fill:#fff"/>
            <path data-name="Path 3723" d="m209.836 296.645.5.95.95.056-1.04-1.125z" transform="translate(-173.528 -232.682)" style="stroke:#1b3c3c;stroke-linecap:round;stroke-linejoin:round;stroke-miterlimit:10;stroke-width:.2px;fill:#fff"/>
        </g>
    </g>
</svg>
