<svg xmlns="http://www.w3.org/2000/svg" width="13" height="13" viewBox="0 0 13 13">
    <defs>
        <clipPath id="pbd0uj229a">
            <path data-name="Rectangle 12" transform="translate(448 296)" style="fill:#fff;stroke:#707070" d="M0 0h13v13H0z"/>
        </clipPath>
    </defs>
    <g data-name="Mask Group 2" transform="translate(-448 -296)" style="clip-path:url(#pbd0uj229a)">
        <path data-name="nodejs-icon (4)" d="M6.424.2a1.068 1.068 0 0 1 1.047 0l4.809 2.713a.989.989 0 0 1 .5.851V9.2a1 1 0 0 1-.536.87l-4.783 2.7a1.047 1.047 0 0 1-1.061-.033l-1.435-.829a.85.85 0 0 1-.277-.2c.061-.082.17-.093.258-.129a3.063 3.063 0 0 0 .566-.264.13.13 0 0 1 .147.009l1.224.708c.087.05.176-.016.251-.058l4.7-2.65a.155.155 0 0 0 .085-.153V3.788a.168.168 0 0 0-.1-.168L7.042.934a.165.165 0 0 0-.187 0L2.091 3.625a.166.166 0 0 0-.1.167v5.383a.151.151 0 0 0 .087.151l1.273.719a1 1 0 0 0 .8.107.6.6 0 0 0 .391-.567V4.234a.134.134 0 0 1 .142-.134H5.3a.143.143 0 0 1 .133.163v5.381a1.367 1.367 0 0 1-.639 1.233 1.968 1.968 0 0 1-1.758-.048l-1.369-.757a.985.985 0 0 1-.536-.87V3.768a.99.99 0 0 1 .516-.862zm1.387 3.77a3.814 3.814 0 0 1 2.065.316 1.563 1.563 0 0 1 .762 1.352.146.146 0 0 1-.159.107h-.605a.156.156 0 0 1-.146-.151.922.922 0 0 0-.441-.637 2.61 2.61 0 0 0-1.209-.173A1.647 1.647 0 0 0 7.212 5a.549.549 0 0 0-.182.613c.064.154.243.2.388.25.838.219 1.726.2 2.548.486a1.2 1.2 0 0 1 .79.7A1.5 1.5 0 0 1 10.5 8.48a2.031 2.031 0 0 1-1.077.581 5.16 5.16 0 0 1-1.623.068 2.563 2.563 0 0 1-1.43-.538 1.5 1.5 0 0 1-.483-1.184.136.136 0 0 1 .149-.12h.6a.142.142 0 0 1 .145.141.912.912 0 0 0 .344.644 2.607 2.607 0 0 0 1.4.256 1.905 1.905 0 0 0 1.151-.282.635.635 0 0 0 .173-.607c-.05-.18-.242-.263-.4-.322-.827-.262-1.725-.167-2.544-.463a1.238 1.238 0 0 1-.782-.682 1.4 1.4 0 0 1 .279-1.452A2.241 2.241 0 0 1 7.8 3.96z" transform="translate(447.463 295.935)" style="fill:#8cc84b"/>
    </g>
</svg>
