<svg xmlns="http://www.w3.org/2000/svg" width="18" height="18" viewBox="0 0 18 18">
    <g data-name="buy (3)">
        <path data-name="Path 1509" d="M19.609 6.624a1.917 1.917 0 0 0-1.542-.767H6.409l-.375-2.245A1.923 1.923 0 0 0 4.129 2H2.644a.643.643 0 1 0 0 1.286h1.485a.641.641 0 0 1 .635.537L5.227 6.6l1.12 7.912a1.921 1.921 0 0 0 1.909 1.635h7.971a1.94 1.94 0 0 0 1.858-1.4l1.84-6.429a1.913 1.913 0 0 0-.316-1.691zm-.923 1.338-1.84 6.429a.646.646 0 0 1-.619.467h-7.97a.638.638 0 0 1-.635-.537L6.605 7.144h11.461a.643.643 0 0 1 .619.819z" transform="translate(-2 -2)" style="fill:#fff"/>
        <path data-name="Path 1510" d="M10 27.286a1.288 1.288 0 1 1 1.288 1.286A1.286 1.286 0 0 1 10 27.286zm9.015 1.286a1.286 1.286 0 1 0-1.288-1.286 1.286 1.286 0 0 0 1.288 1.285z" transform="translate(-4.848 -10.571)" style="fill:#fff"/>
    </g>
</svg>
