<svg xmlns="http://www.w3.org/2000/svg" width="18" height="18" viewBox="0 0 18 18">
    <defs>
        <clipPath id="2n8slkurka">
            <path data-name="Rectangle 4827" transform="translate(40 572)" style="stroke:#707070;fill:#fff" d="M0 0h18v18H0z"/>
        </clipPath>
    </defs>
    <g data-name="Mask Group 389" transform="translate(-40 -572)" style="clip-path:url(#2n8slkurka)">
        <path data-name="Path 1502" d="M17.473 23.648H.527a.527.527 0 0 1 0-1.055h16.946a.527.527 0 1 1 0 1.055z" transform="translate(40 566.352)" style="fill:#fff"/>
        <path data-name="Path 1503" d="M4.09 22.242H1.98a.527.527 0 0 1-.527-.527v-3.867a.88.88 0 0 1 .879-.879h1.406a.88.88 0 0 1 .879.879v3.867a.527.527 0 0 1-.527.527zm-1.582-1.054h1.054v-3.165H2.508zm1.23-3.164z" transform="translate(39.637 567.758)" style="fill:#fff"/>
        <path data-name="Path 1504" d="M9.715 21.82h-2.11a.527.527 0 0 1-.527-.527V16.16a.88.88 0 0 1 .879-.879h1.406a.88.88 0 0 1 .879.879v5.133a.527.527 0 0 1-.527.527zm-1.582-1.054h1.054v-4.43H8.133zm1.23-4.43z" transform="translate(38.23 568.18)" style="fill:#fff"/>
        <path data-name="Path 1505" d="M15.34 21.176h-2.11a.527.527 0 0 1-.527-.527v-7.067a.88.88 0 0 1 .879-.879h1.406a.88.88 0 0 1 .879.879v7.066a.527.527 0 0 1-.527.528zm-1.582-1.055h1.055v-6.363h-1.055zm1.23-6.363z" transform="translate(36.824 568.824)" style="fill:#fff"/>
        <path data-name="Path 1506" d="M20.965 20h-2.11a.527.527 0 0 1-.527-.527V8.895a.88.88 0 0 1 .879-.879h1.406a.88.88 0 0 1 .879.879v10.582a.527.527 0 0 1-.527.523zm-1.582-1.055h1.055V9.07h-1.055zm1.23-9.879z" transform="translate(35.418 569.996)" style="fill:#fff"/>
        <path data-name="Path 1507" d="M.527 11.331a.527.527 0 1 1 0-1.055A17.366 17.366 0 0 0 10.034 7.1 17.287 17.287 0 0 0 16.128.312a.527.527 0 0 1 .963.431 18.359 18.359 0 0 1-6.466 7.227 18.426 18.426 0 0 1-10.1 3.361z" transform="translate(40 572)" style="fill:#fff"/>
        <path data-name="Path 1508" d="M21.758 4.278a.527.527 0 0 1-.509-.391l-.727-2.713-2.713.726a.527.527 0 0 1-.273-1.018l3.223-.864a.527.527 0 0 1 .641.373l.864 3.223a.528.528 0 0 1-.51.664z" transform="translate(35.714 572)" style="fill:#fff"/>
    </g>
</svg>
