<svg xmlns="http://www.w3.org/2000/svg" width="18" height="18" viewBox="0 0 18 18">
    <g data-name="Group 878">
        <g data-name="Group 877">
            <path data-name="Path 1124" d="M18 5.8a1.573 1.573 0 0 0-.121-.608L16.121.973A1.578 1.578 0 0 0 14.66 0H3.34a1.578 1.578 0 0 0-1.46.973L.121 5.193A1.573 1.573 0 0 0 0 5.8v2.18a1.576 1.576 0 0 0 .4 1.055A1.576 1.576 0 0 0 0 10.09v2.11a1.576 1.576 0 0 0 .4 1.055 1.576 1.576 0 0 0-.4 1.054v2.109A1.584 1.584 0 0 0 1.582 18h14.836A1.584 1.584 0 0 0 18 16.418v-2.109a1.576 1.576 0 0 0-.4-1.055A1.575 1.575 0 0 0 18 12.2v-2.11a1.576 1.576 0 0 0-.4-1.055A1.575 1.575 0 0 0 18 7.98zM2.853 1.379a.526.526 0 0 1 .487-.324h11.32a.526.526 0 0 1 .487.324l1.183 2.84H1.67zm14.092 15.039a.528.528 0 0 1-.527.527H1.582a.528.528 0 0 1-.527-.527v-2.109a.528.528 0 0 1 .527-.527h14.836a.528.528 0 0 1 .527.527zm0-4.219a.528.528 0 0 1-.527.527H1.582a.528.528 0 0 1-.527-.527V10.09a.528.528 0 0 1 .527-.527h14.836a.528.528 0 0 1 .527.527zm0-4.219a.528.528 0 0 1-.527.527H1.582a.528.528 0 0 1-.527-.527V5.8a.527.527 0 0 1 .527-.527h14.836a.527.527 0 0 1 .527.527z" style="fill:#fff"/>
        </g>
    </g>
    <g data-name="Group 880">
        <g data-name="Group 879">
            <path data-name="Path 1125" d="M160.09 422h-9.562a.527.527 0 0 0 0 1.055h9.563a.527.527 0 0 0 0-1.055z" transform="translate(-144.727 -407.164)" style="fill:#fff"/>
        </g>
    </g>
    <g data-name="Group 882">
        <g data-name="Group 881">
            <path data-name="Path 1126" d="M160.09 180h-9.562a.527.527 0 0 0 0 1.055h9.563a.527.527 0 0 0 0-1.055z" transform="translate(-144.727 -173.672)" style="fill:#fff"/>
        </g>
    </g>
    <g data-name="Group 884">
        <g data-name="Group 883">
            <path data-name="Path 1127" d="M60.527 180a.527.527 0 0 0-.527.527.531.531 0 1 0 1.055 0 .527.527 0 0 0-.528-.527z" transform="translate(-57.891 -173.672)" style="fill:#fff"/>
        </g>
    </g>
    <g data-name="Group 886">
        <g data-name="Group 885">
            <path data-name="Path 1128" d="M160.09 302h-9.562a.527.527 0 0 0 0 1.055h9.563a.527.527 0 0 0 0-1.055z" transform="translate(-144.727 -291.383)" style="fill:#fff"/>
        </g>
    </g>
    <g data-name="Group 888">
        <g data-name="Group 887" transform="translate(2.25 10.5)">
            <ellipse data-name="Ellipse 227" cx=".375" cy=".75" rx=".375" ry=".75" style="fill:#fff"/>
        </g>
    </g>
    <g data-name="Group 890">
        <g data-name="Group 889" transform="translate(2.25 15)">
            <circle data-name="Ellipse 228" cx=".375" cy=".375" r=".375" style="fill:#fff"/>
        </g>
    </g>
</svg>
