<svg xmlns="http://www.w3.org/2000/svg" width="18" height="18" viewBox="0 0 18 18">
    <path d="M10.758 15.188V17.3a.7.7 0 0 1-.7.7h-1.41a2.112 2.112 0 0 1-2.109-2.109v-.354a.235.235 0 0 0-.15-.215H6.38a.236.236 0 0 0-.259.046l-.25.25a2.112 2.112 0 0 1-2.983 0l-.5-.5a2.109 2.109 0 0 1 0-2.983l.25-.25a.236.236 0 0 0 .046-.258l-.006-.014a.234.234 0 0 0-.215-.149h-.354A2.112 2.112 0 0 1 0 9.352v-.7a2.112 2.112 0 0 1 2.109-2.113h.354a.235.235 0 0 0 .215-.149l.005-.013a.236.236 0 0 0-.046-.259l-.25-.25a2.109 2.109 0 0 1 0-2.983l.5-.5a2.109 2.109 0 0 1 2.983 0l.25.25a.236.236 0 0 0 .259.046h.012a.234.234 0 0 0 .147-.214v-.358A2.112 2.112 0 0 1 8.649 0h1.406a.7.7 0 0 1 .7.7v2.113a.7.7 0 0 1-1.406 0V1.406h-.7a.7.7 0 0 0-.7.7v.354a1.637 1.637 0 0 1-1.023 1.518h-.011a1.637 1.637 0 0 1-1.791-.351l-.25-.25a.7.7 0 0 0-.994 0l-.5.5a.7.7 0 0 0 0 .994l.25.25a1.637 1.637 0 0 1 .35 1.792v.009a1.637 1.637 0 0 1-1.515 1.02h-.356a.7.7 0 0 0-.7.7v.7a.7.7 0 0 0 .7.7h.354a1.637 1.637 0 0 1 1.515 1.019l.005.012a1.637 1.637 0 0 1-.351 1.79l-.25.25a.7.7 0 0 0 0 .994l.5.5a.7.7 0 0 0 .994 0l.25-.25a1.637 1.637 0 0 1 1.791-.351h.009a1.637 1.637 0 0 1 1.021 1.516v.354a.7.7 0 0 0 .7.7h.7v-1.388a.7.7 0 0 1 1.406 0zM16.77 7.77a1.229 1.229 0 0 0-1.01.527h-5.469a1.23 1.23 0 1 0 0 1.406h5.469a1.23 1.23 0 1 0 1.01-1.933zm0 5.766a1.236 1.236 0 0 0-.256.027L14.8 11.874a.7.7 0 0 0-.494-.2H9a2.672 2.672 0 1 1 0-5.346h5.309a.7.7 0 0 0 .5-.206L16.523 4.4a1.23 1.23 0 1 0-.97-1.019l-1.536 1.541H9a4.078 4.078 0 1 0 0 8.156h5.02l1.532 1.51a1.23 1.23 0 1 0 1.218-1.053zm0 0" style="fill:#fff"/>
</svg>
