<svg xmlns="http://www.w3.org/2000/svg" width="87.273" height="120" viewBox="0 0 87.273 120">
    <defs>
        <clipPath id="pu02ii1d4a">
            <path data-name="Rectangle 4851" d="M0 0h87.273v120H0z"/>
        </clipPath>
    </defs>
    <g data-name="Group 2198" style="clip-path:url(#pu02ii1d4a)">
        <path data-name="Path 3007" d="M60.1 50.724c4.9-1.811 7.451-5.31 7.451-11.321a11.528 11.528 0 0 0-23.053 0c.082 6.051 2.964 10.045 7.575 11.527l-8.149 20.089C33.015 68.179 21.9 55.294 21.9 39.445a34.168 34.168 0 0 1 68.336 0c0 16.137-10.991 28.816-22.189 31.657z" transform="translate(-12.885 9.996)" style="fill:#3da638;stroke:#1c511c;stroke-linecap:round;stroke-linejoin:round;stroke-width:5.657px"/>
        <path data-name="Path 3008" d="M14.037 91.06a3.874 3.874 0 0 1-.864 2.676 3.13 3.13 0 0 1-2.429.947 3.105 3.105 0 0 1-2.388-.988 3.834 3.834 0 0 1-.864-2.635 3.764 3.764 0 0 1 .864-2.635 3.192 3.192 0 0 1 2.429-.947 3.227 3.227 0 0 1 1.688.453 3.041 3.041 0 0 1 1.153 1.235 3.9 3.9 0 0 1 .411 1.894zm-4.24 0a3.759 3.759 0 0 0 .206 1.358.754.754 0 0 0 .741.453.778.778 0 0 0 .741-.453 3.143 3.143 0 0 0 .206-1.358 3.926 3.926 0 0 0-.206-1.359.833.833 0 0 0-1.482 0 3.6 3.6 0 0 0-.206 1.359z"/>
        <path data-name="Path 3009" d="M19.225 94.642a2.216 2.216 0 0 1-.906-.165 2.571 2.571 0 0 1-.782-.618h-.124a7.992 7.992 0 0 1 .124.906v2.8h-2.264v-9.962h1.852l.329.865h.124a1.935 1.935 0 0 1 1.729-.988 1.915 1.915 0 0 1 1.688.947 4.8 4.8 0 0 1 .617 2.635 4.458 4.458 0 0 1-.659 2.635 1.982 1.982 0 0 1-1.728.945zm-.741-5.31a.721.721 0 0 0-.7.37 2.537 2.537 0 0 0-.206 1.112v.206a3.129 3.129 0 0 0 .206 1.276.8.8 0 0 0 .7.412.616.616 0 0 0 .617-.412 3.217 3.217 0 0 0 .206-1.317 3.129 3.129 0 0 0-.206-1.276.662.662 0 0 0-.617-.372z"/>
        <path data-name="Path 3010" d="M26.058 94.642a3.46 3.46 0 0 1-2.552-.906 3.534 3.534 0 0 1-.906-2.635 4 4 0 0 1 .823-2.676 3.1 3.1 0 0 1 2.388-.947 3.05 3.05 0 0 1 2.264.823 3.187 3.187 0 0 1 .823 2.346v1.07h-4.034a1.18 1.18 0 0 0 .412.906 1.62 1.62 0 0 0 1.029.329 4.248 4.248 0 0 0 1.07-.124 4.369 4.369 0 0 0 1.07-.412v1.729a3.624 3.624 0 0 1-1.111.412 9.384 9.384 0 0 1-1.276.085zm-.123-5.557a.819.819 0 0 0-.659.288 1.388 1.388 0 0 0-.329.823h1.935a.968.968 0 0 0-.288-.782.748.748 0 0 0-.66-.33z"/>
        <path data-name="Path 3011" d="M34.333 94.518v-3.787a2.147 2.147 0 0 0-.206-1.029.638.638 0 0 0-.617-.37.864.864 0 0 0-.823.494 3.918 3.918 0 0 0-.247 1.647v3.046h-2.265v-6.916h1.688l.288.865h.124a1.93 1.93 0 0 1 .782-.741 2.687 2.687 0 0 1 1.194-.247 2.116 2.116 0 0 1 1.688.659 2.69 2.69 0 0 1 .617 1.894v4.528h-2.223z"/>
        <path data-name="Path 3012" d="M45.695 92.583a1.859 1.859 0 0 1-.7 1.523 3.006 3.006 0 0 1-1.935.535 4.259 4.259 0 0 1-2.058-.412v-1.235a4.668 4.668 0 0 0 2.1.535c.823 0 1.235-.247 1.235-.782a.615.615 0 0 0-.124-.412 1.452 1.452 0 0 0-.453-.371 8.948 8.948 0 0 0-.864-.412 3.825 3.825 0 0 1-1.482-.906 1.8 1.8 0 0 1-.371-1.194 1.571 1.571 0 0 1 .659-1.358 2.958 2.958 0 0 1 1.811-.494 4.934 4.934 0 0 1 2.141.494l-.453 1.07a4.883 4.883 0 0 0-1.729-.453c-.7 0-1.07.206-1.07.659a.6.6 0 0 0 .288.535 6.492 6.492 0 0 0 1.235.618 5.876 5.876 0 0 1 1.153.576 1.539 1.539 0 0 1 .535.617c0 .286.082.538.082.867z"/>
        <path data-name="Path 3013" d="M52.816 91.143a4.057 4.057 0 0 1-.782 2.593 2.8 2.8 0 0 1-2.223.947 2.754 2.754 0 0 1-2.635-1.647 4.377 4.377 0 0 1-.37-1.852 3.715 3.715 0 0 1 .782-2.552 2.8 2.8 0 0 1 2.264-.906 2.773 2.773 0 0 1 2.182.947 3.62 3.62 0 0 1 .782 2.47zm-4.652 0c0 1.564.535 2.346 1.647 2.346q1.605 0 1.605-2.346c0-1.564-.535-2.305-1.647-2.305a1.326 1.326 0 0 0-1.235.617 3.016 3.016 0 0 0-.37 1.688z"/>
        <path data-name="Path 3014" d="m58.868 94.518-.206-.906h-.082a1.8 1.8 0 0 1-.823.741 2.688 2.688 0 0 1-1.194.288 2.214 2.214 0 0 1-1.729-.617 2.7 2.7 0 0 1-.576-1.852v-4.4h1.358v4.154a1.761 1.761 0 0 0 .288 1.153 1.126 1.126 0 0 0 .947.371 1.362 1.362 0 0 0 1.235-.535 3.02 3.02 0 0 0 .412-1.811v-3.378h1.359v6.751h-.988z"/>
        <path data-name="Path 3015" d="M65.084 87.643c.288 0 .494.041.659.041l-.123 1.358a3.178 3.178 0 0 0-.618-.082 1.712 1.712 0 0 0-1.317.576 2.148 2.148 0 0 0-.494 1.482v3.54h-1.359v-6.751h1.07l.165 1.194h.082a2.338 2.338 0 0 1 .823-.947 1.777 1.777 0 0 1 1.112-.411z"/>
        <path data-name="Path 3016" d="M69.53 94.641a2.772 2.772 0 0 1-2.223-.906 3.975 3.975 0 0 1-.741-2.593 3.875 3.875 0 0 1 .782-2.635 2.8 2.8 0 0 1 2.264-.906 3.786 3.786 0 0 1 1.811.412l-.412 1.153a3.722 3.722 0 0 0-1.4-.37c-1.111 0-1.647.782-1.647 2.346a2.987 2.987 0 0 0 .412 1.729 1.463 1.463 0 0 0 1.194.576 3.24 3.24 0 0 0 1.729-.494v1.235a2.631 2.631 0 0 1-.782.329 3.213 3.213 0 0 1-.987.124z"/>
        <path data-name="Path 3017" d="M75.623 94.643a3.041 3.041 0 0 1-2.346-.906 3.6 3.6 0 0 1-.824-2.554 3.83 3.83 0 0 1 .782-2.594 2.688 2.688 0 0 1 2.141-.947 2.514 2.514 0 0 1 1.976.823 3.153 3.153 0 0 1 .741 2.223v.782h-4.24a2.406 2.406 0 0 0 .494 1.523 1.624 1.624 0 0 0 1.317.535 4.487 4.487 0 0 0 1.07-.124 6.277 6.277 0 0 0 1.029-.37v1.153a4.826 4.826 0 0 1-.988.371 9.468 9.468 0 0 1-1.152.085zm-.247-5.928a1.338 1.338 0 0 0-1.029.453 2.134 2.134 0 0 0-.453 1.276h2.882a1.889 1.889 0 0 0-.37-1.276 1.4 1.4 0 0 0-1.03-.455z"/>
        <path data-name="Path 3018" d="M20.172 107.074h-1.359v-6.751h1.359zm-1.4-8.563a.715.715 0 0 1 .782-.782.711.711 0 0 1 .535.206.91.91 0 0 1 0 1.153.783.783 0 0 1-.535.206.814.814 0 0 1-.576-.206.669.669 0 0 1-.206-.577z"/>
        <path data-name="Path 3019" d="M27.746 107.073h-1.359v-4.158a1.761 1.761 0 0 0-.288-1.153 1.126 1.126 0 0 0-.947-.37 1.488 1.488 0 0 0-1.276.535 3.255 3.255 0 0 0-.412 1.811v3.376h-1.358v-6.751h1.07l.206.906h.082a1.8 1.8 0 0 1 .823-.741 2.815 2.815 0 0 1 1.194-.247c1.523 0 2.305.823 2.305 2.47v4.322z"/>
        <path data-name="Path 3020" d="M30.998 107.074h-1.359v-6.751h1.358zm-1.441-8.563a.715.715 0 0 1 .782-.782.711.711 0 0 1 .535.206.91.91 0 0 1 0 1.153.783.783 0 0 1-.535.206.814.814 0 0 1-.576-.206.669.669 0 0 1-.206-.577z"/>
        <path data-name="Path 3021" d="M35.321 106.044a2.768 2.768 0 0 0 .988-.165v1.07a1.923 1.923 0 0 1-.576.165 4.536 4.536 0 0 1-.741.085c-1.276 0-1.935-.7-1.935-2.141v-3.664h-.865v-.617l.947-.535.453-1.443h.823v1.523h1.811v1.07h-1.811v3.623a1.114 1.114 0 0 0 .247.782.869.869 0 0 0 .659.247z"/>
        <path data-name="Path 3022" d="M38.944 107.074h-1.359v-6.751h1.359zm-1.441-8.563a.715.715 0 0 1 .782-.782.711.711 0 0 1 .535.206.91.91 0 0 1 0 1.153.783.783 0 0 1-.535.206.814.814 0 0 1-.576-.206.669.669 0 0 1-.206-.577z"/>
        <path data-name="Path 3023" d="m44.871 107.074-.288-.947h-.041a2.631 2.631 0 0 1-.947.865 2.59 2.59 0 0 1-1.194.206 1.991 1.991 0 0 1-1.482-.535 2.2 2.2 0 0 1-.535-1.523 1.76 1.76 0 0 1 .741-1.564 3.99 3.99 0 0 1 2.223-.576l1.111-.041v-.37a1.245 1.245 0 0 0-.288-.947 1.179 1.179 0 0 0-.864-.329 2.415 2.415 0 0 0-.947.165 3.908 3.908 0 0 0-.864.371l-.453-1.029a4.807 4.807 0 0 1 1.153-.453 5.978 5.978 0 0 1 1.153-.165 2.7 2.7 0 0 1 1.852.576 2.252 2.252 0 0 1 .618 1.77v4.569h-.947zm-2.017-.947a1.647 1.647 0 0 0 1.194-.453 1.68 1.68 0 0 0 .453-1.235v-.576l-.823.041a2.78 2.78 0 0 0-1.4.329 1.041 1.041 0 0 0-.453.906.968.968 0 0 0 .247.7.916.916 0 0 0 .782.288z"/>
        <path data-name="Path 3024" d="M50.1 106.044a2.768 2.768 0 0 0 .988-.165v1.07a1.923 1.923 0 0 1-.576.165 4.536 4.536 0 0 1-.741.082c-1.276 0-1.935-.7-1.935-2.141v-3.664h-.865v-.617l.947-.535.453-1.44h.823v1.523h1.811v1.07h-1.811v3.623a1.114 1.114 0 0 0 .247.782.935.935 0 0 0 .659.247z"/>
        <path data-name="Path 3025" d="M53.722 107.074h-1.358v-6.751h1.358zm-1.441-8.563a.715.715 0 0 1 .782-.782.711.711 0 0 1 .535.206.91.91 0 0 1 0 1.153.783.783 0 0 1-.535.206.715.715 0 0 1-.782-.782z"/>
        <path data-name="Path 3026" d="m57.098 107.073-2.429-6.751h1.441l1.317 3.952a9.2 9.2 0 0 1 .412 1.605h.041a11.274 11.274 0 0 1 .412-1.605l1.317-3.952h1.441l-2.429 6.751z"/>
        <path data-name="Path 3027" d="M64.755 107.199a3.041 3.041 0 0 1-2.346-.906 3.6 3.6 0 0 1-.823-2.552 3.83 3.83 0 0 1 .782-2.594 2.688 2.688 0 0 1 2.141-.947 2.514 2.514 0 0 1 1.976.823 3.153 3.153 0 0 1 .741 2.223v.782h-4.241a2.406 2.406 0 0 0 .494 1.523 1.624 1.624 0 0 0 1.317.535 4.487 4.487 0 0 0 1.07-.124 8.374 8.374 0 0 0 1.07-.37v1.153a4.826 4.826 0 0 1-.988.371 5.44 5.44 0 0 1-1.193.083zm-.247-5.887a1.338 1.338 0 0 0-1.029.453 2.134 2.134 0 0 0-.453 1.276h2.882a1.889 1.889 0 0 0-.371-1.276 1.167 1.167 0 0 0-1.029-.454z"/>
        <path data-name="Path 3028" d="M81.51 109.832h.288a.467.467 0 0 0 .329-.124.374.374 0 0 0 .124-.288.321.321 0 0 0-.124-.288c-.082-.041-.247 0-.37-.082h-.247zm1.194-.412a.575.575 0 0 1-.124.37.511.511 0 0 1-.329.247l.618 1.07h-.453l-.535-.947h-.37v.947h-.412v-2.388h.7a1.044 1.044 0 0 1 .659.165.612.612 0 0 1 .245.536zm-2.84.494a1.956 1.956 0 0 1 .247-.988 1.616 1.616 0 0 1 .741-.741 2.261 2.261 0 0 1 .988-.288 1.956 1.956 0 0 1 .988.247 1.616 1.616 0 0 1 .741.741 2.261 2.261 0 0 1 .288.988 2.069 2.069 0 0 1-.247.988 2.125 2.125 0 0 1-.741.741 2.276 2.276 0 0 1-1.029.288 1.858 1.858 0 0 1-1.029-.288 1.834 1.834 0 0 1-.741-.741 2.442 2.442 0 0 1-.207-.947zm.288 0a1.729 1.729 0 0 0 .247.864 1.773 1.773 0 0 0 .618.618 1.636 1.636 0 0 0 1.729 0 1.773 1.773 0 0 0 .618-.618 1.522 1.522 0 0 0 .247-.864 1.62 1.62 0 0 0-.247-.865 1.773 1.773 0 0 0-.618-.617 1.522 1.522 0 0 0-.865-.247 1.62 1.62 0 0 0-.864.247 1.773 1.773 0 0 0-.618.617 1.522 1.522 0 0 0-.248.865z"/>
        <path data-name="Path 3029" d="m10.25 116.542-.412-1.4h-2.14l-.412 1.4H5.969l2.058-5.846H9.55l2.058 5.846zm-.741-2.429c-.412-1.276-.617-1.976-.659-2.141s-.082-.288-.123-.412c-.082.329-.329 1.194-.741 2.511h1.523zm5.146 2.511a1.487 1.487 0 0 1-1.235-.576h-.082c.041.371.082.576.082.659v1.811h-1.235v-6.422h.984l.165.576h.041a1.386 1.386 0 0 1 1.276-.659 1.417 1.417 0 0 1 1.235.617 2.929 2.929 0 0 1 .453 1.688 3.512 3.512 0 0 1-.206 1.235 1.455 1.455 0 0 1-.576.782 1.581 1.581 0 0 1-.902.291zm-.329-3.664a.722.722 0 0 0-.659.288 1.628 1.628 0 0 0-.206.906v.124a2.033 2.033 0 0 0 .206 1.029.748.748 0 0 0 .659.329c.535 0 .823-.453.823-1.358a1.964 1.964 0 0 0-.206-.988.677.677 0 0 0-.617-.329zm5.516 3.664a1.487 1.487 0 0 1-1.235-.576h-.082c.041.371.082.576.082.659v1.811h-1.238v-6.422h.988l.165.576h.047a1.386 1.386 0 0 1 1.276-.659 1.417 1.417 0 0 1 1.235.617 2.929 2.929 0 0 1 .453 1.688 3.512 3.512 0 0 1-.206 1.235 1.455 1.455 0 0 1-.576.782 1.581 1.581 0 0 1-.909.291zm-.373-3.663a.722.722 0 0 0-.659.288 1.628 1.628 0 0 0-.206.906v.124a2.033 2.033 0 0 0 .206 1.029.748.748 0 0 0 .659.329c.535 0 .823-.453.823-1.358a1.965 1.965 0 0 0-.206-.988.677.677 0 0 0-.617-.33zm5.6-.988a1.269 1.269 0 0 1 .412.041l-.082 1.153a.914.914 0 0 0-.37-.041 1.263 1.263 0 0 0-.906.288 1.149 1.149 0 0 0-.329.823v2.264h-1.235v-4.487h.91l.165.741h.035a1.65 1.65 0 0 1 .576-.618 2.925 2.925 0 0 1 .824-.164zm2.182 2.305a1.964 1.964 0 0 0 .206.988.823.823 0 0 0 .7.329.774.774 0 0 0 .7-.329 2.08 2.08 0 0 0 .206-.988 1.964 1.964 0 0 0-.206-.988.908.908 0 0 0-1.4 0 2.08 2.08 0 0 0-.205.988zm3.087 0a2.392 2.392 0 0 1-.576 1.688 2.049 2.049 0 0 1-1.605.618 2.183 2.183 0 0 1-1.153-.288 1.8 1.8 0 0 1-.741-.823 3.008 3.008 0 0 1-.247-1.235 2.323 2.323 0 0 1 .576-1.688 2.049 2.049 0 0 1 1.605-.617 2.183 2.183 0 0 1 1.153.288 1.93 1.93 0 0 1 .741.782 3.355 3.355 0 0 1 .248 1.275zm2.058 2.264-1.688-4.487h1.276l.864 2.552a3.842 3.842 0 0 1 .165.906h.041a4.248 4.248 0 0 1 .165-.906l.864-2.552h1.276l-1.69 4.487zm5.475-3.7a.838.838 0 0 0-.617.247.968.968 0 0 0-.247.7h1.688a.968.968 0 0 0-.247-.7.691.691 0 0 0-.579-.252zm.165 3.787a2.463 2.463 0 0 1-1.688-.576 2.177 2.177 0 0 1-.617-1.688 2.5 2.5 0 0 1 .576-1.729 2.016 2.016 0 0 1 1.564-.618 1.854 1.854 0 0 1 2.017 2.017v.576h-2.88a1.326 1.326 0 0 0 .288.823 1.061 1.061 0 0 0 .823.288 4.56 4.56 0 0 0 .782-.082 5.216 5.216 0 0 0 .741-.247v.947a3.5 3.5 0 0 1-.7.247c-.287-.004-.573.039-.904.039zm4.2 0a1.417 1.417 0 0 1-1.235-.617 2.929 2.929 0 0 1-.453-1.688 2.978 2.978 0 0 1 .453-1.729 1.49 1.49 0 0 1 1.276-.618 1.386 1.386 0 0 1 1.276.659h.041a7.394 7.394 0 0 1-.082-.906v-1.404h1.235v6.216H43.8l-.247-.576h-.041a1.424 1.424 0 0 1-1.275.66zm.453-.988a.8.8 0 0 0 .7-.288 1.324 1.324 0 0 0 .247-.906v-.123a2.032 2.032 0 0 0-.206-1.029.823.823 0 0 0-.7-.329.677.677 0 0 0-.617.329 1.764 1.764 0 0 0-.206.988 1.583 1.583 0 0 0 .247.988c.041.242.247.365.535.365zm5.557.906v-5.851h1.235v4.816h2.388v1.029zm4.487-5.64c0-.412.206-.576.659-.576s.659.206.659.576a.562.562 0 0 1-.165.453.656.656 0 0 1-.494.165c-.452-.005-.658-.211-.658-.623zm1.276 5.64h-1.234v-4.487h1.235zm3.087.082c-1.4 0-2.1-.782-2.1-2.305a2.43 2.43 0 0 1 .576-1.729 2.049 2.049 0 0 1 1.605-.618 3.042 3.042 0 0 1 1.4.288l-.37.947c-.206-.082-.37-.124-.535-.206a2.066 2.066 0 0 0-.494-.082c-.617 0-.947.453-.947 1.358 0 .865.329 1.317.947 1.317a3.2 3.2 0 0 0 .659-.082 4.153 4.153 0 0 0 .618-.288v1.029a1.941 1.941 0 0 1-.618.247 1.994 1.994 0 0 1-.739.121zm4.24-3.787a.838.838 0 0 0-.617.247.968.968 0 0 0-.247.7h1.729a.968.968 0 0 0-.247-.7.838.838 0 0 0-.616-.252zm.165 3.787a2.463 2.463 0 0 1-1.688-.576 2.238 2.238 0 0 1-.617-1.688 2.5 2.5 0 0 1 .576-1.729 2.016 2.016 0 0 1 1.564-.618 1.854 1.854 0 0 1 2.017 2.017v.576h-2.884a1.326 1.326 0 0 0 .288.823 1.061 1.061 0 0 0 .823.288 4.559 4.559 0 0 0 .782-.082 5.215 5.215 0 0 0 .741-.247v.947a3.5 3.5 0 0 1-.7.247c-.242-.004-.534.039-.901.039zm6.957-.082h-1.233v-2.594a1.238 1.238 0 0 0-.165-.741.612.612 0 0 0-.535-.247.9.9 0 0 0-.741.329 2.021 2.021 0 0 0-.247 1.111v2.1h-1.235v-4.487h.947l.165.576h.082a1.369 1.369 0 0 1 .576-.494 1.734 1.734 0 0 1 .823-.165 1.563 1.563 0 0 1 1.194.412 1.663 1.663 0 0 1 .412 1.235v2.964zm4.364-1.317a1.149 1.149 0 0 1-.494 1.029 2.32 2.32 0 0 1-1.441.37 4.245 4.245 0 0 1-.823-.082 3.085 3.085 0 0 1-.659-.206v-.988a2.484 2.484 0 0 0 .782.247 2.767 2.767 0 0 0 .741.124c.453 0 .659-.124.659-.37a.585.585 0 0 0-.082-.247 2.806 2.806 0 0 0-.288-.206l-.576-.288a2.962 2.962 0 0 1-.741-.412 1.168 1.168 0 0 1-.37-.412 1.315 1.315 0 0 1-.123-.576 1.041 1.041 0 0 1 .453-.906 2.391 2.391 0 0 1 1.317-.329 3.5 3.5 0 0 1 1.564.371l-.37.865c-.206-.082-.453-.165-.618-.247a3.228 3.228 0 0 0-.576-.082c-.37 0-.535.082-.535.288a.311.311 0 0 0 .165.288 4.776 4.776 0 0 0 .782.37 3.359 3.359 0 0 1 .782.412 1.168 1.168 0 0 1 .37.412 2.146 2.146 0 0 1 .082.571zm2.8-2.388a.838.838 0 0 0-.618.247.968.968 0 0 0-.247.7h1.729a.968.968 0 0 0-.247-.7.838.838 0 0 0-.616-.252zm.165 3.787a2.463 2.463 0 0 1-1.688-.576 2.238 2.238 0 0 1-.618-1.688 2.5 2.5 0 0 1 .576-1.729 2.016 2.016 0 0 1 1.564-.618 1.854 1.854 0 0 1 2.017 2.017v.576h-2.88a1.326 1.326 0 0 0 .288.823 1.061 1.061 0 0 0 .823.288 4.559 4.559 0 0 0 .782-.082 5.215 5.215 0 0 0 .741-.247v.947a3.5 3.5 0 0 1-.7.247c-.246-.004-.575.039-.905.039z"/>
    </g>
</svg>
