<svg xmlns="http://www.w3.org/2000/svg" width="40.5" height="40.5" viewBox="0 0 40.5 40.5">
    <g data-name="box (1)">
        <path data-name="Path 2752" d="M36.552 5.517v16.366a.712.712 0 0 1-.2.49l-13.98 13.979a.712.712 0 0 1-.49.2H5.517A3.45 3.45 0 0 1 2.069 33.1V5.517a3.45 3.45 0 0 1 3.448-3.448H33.1a3.45 3.45 0 0 1 3.452 3.448z" style="fill:#c8efc5;stroke:#a0d89b" transform="translate(-1.569 -1.569)"/>
        <path data-name="Path 2753" d="M42.069 31.034a11.049 11.049 0 0 1-11.035 11.035C16.4 41.46 16.4 20.606 31.035 20a11.049 11.049 0 0 1 11.034 11.034z" style="fill:#047600" transform="translate(-1.569 -1.569)"/>
        <g data-name="Group 2341">
            <path data-name="Path 2754" d="M24.138 2.069v11.724a.689.689 0 0 1-.4.628.7.7 0 0 1-.731-.1l-3.7-3.083-3.7 3.083a.689.689 0 0 1-1.131-.531V2.069z" style="fill:#047600" transform="translate(-1.569 -1.569)"/>
        </g>
        <path data-name="Path 2756" d="M36.917 25.622a.69.69 0 0 0-.95.22L30.4 34.775 26 30.537a.69.69 0 0 0-.956.994l5.015 4.828a.694.694 0 0 0 1.063-.132l6.019-9.655a.69.69 0 0 0-.22-.95z" style="fill:#c8efc4" transform="translate(-1.569 -1.569)"/>
    </g>
</svg>
