<svg xmlns="http://www.w3.org/2000/svg" width="205.196" height="52.998" viewBox="0 0 205.196 52.998">
    <g data-name="Group 2348">
        <g transform="translate(.367 .097)">
            <path d="m22.865 0 22.863 13.2v26.4L22.866 52.8 0 39.6V13.2z" style="fill-rule:evenodd;fill:#fff"/>
            <circle cx="2.095" cy="2.095" r="2.095" transform="translate(12.852 40.791)" style="fill:#187d38"/>
            <circle cx="2.095" cy="2.095" r="2.095" transform="translate(30.453 40.791)" style="fill:#187d38"/>
            <path d="M15.974 22.755a1.432 1.432 0 0 0 .5-.086 1.013 1.013 0 0 0 .408-.281l-.322-.322a.838.838 0 0 1-.251.2.724.724 0 0 1-.327.068.769.769 0 0 1-.317-.063.718.718 0 0 1-.241-.173.792.792 0 0 1-.156-.259.892.892 0 0 1-.055-.315 1.067 1.067 0 0 1 .048-.319.836.836 0 0 1 .141-.272.661.661 0 0 1 .231-.186.728.728 0 0 1 .324-.068.741.741 0 0 1 .33.068.951.951 0 0 1 .264.2l.34-.312a1.1 1.1 0 0 0-.409-.281 1.367 1.367 0 0 0-.5-.093 1.344 1.344 0 0 0-.51.093 1.133 1.133 0 0 0-.646.656 1.383 1.383 0 0 0-.09.508 1.362 1.362 0 0 0 .09.506 1.123 1.123 0 0 0 .256.392 1.167 1.167 0 0 0 .395.254 1.362 1.362 0 0 0 .497.085zm2.446 0a1.262 1.262 0 0 0 .5-.1 1.277 1.277 0 0 0 .4-.266 1.239 1.239 0 0 0 .367-.887 1.214 1.214 0 0 0-.1-.488 1.278 1.278 0 0 0-2.344 0 1.213 1.213 0 0 0-.1.488 1.239 1.239 0 0 0 .367.887 1.277 1.277 0 0 0 .4.266 1.262 1.262 0 0 0 .5.1zm0-.423a.815.815 0 0 1-.327-.063.722.722 0 0 1-.247-.171.754.754 0 0 1-.156-.262 1.039 1.039 0 0 1 0-.669.754.754 0 0 1 .156-.262.722.722 0 0 1 .247-.171.883.883 0 0 1 .654 0 .722.722 0 0 1 .247.171.754.754 0 0 1 .156.262 1.039 1.039 0 0 1 0 .669.754.754 0 0 1-.156.262.722.722 0 0 1-.247.171.815.815 0 0 1-.329.064zm2.288.362v-1.236a1.091 1.091 0 0 1 .05-.349.7.7 0 0 1 .136-.244.553.553 0 0 1 .2-.143.6.6 0 0 1 .234-.048.518.518 0 0 1 .264.058.388.388 0 0 1 .151.161.731.731 0 0 1 .068.244 2.526 2.526 0 0 1 .018.312V22.7h.453v-1.3a.883.883 0 0 1 .141-.518.644.644 0 0 1 .735-.143.415.415 0 0 1 .156.154.6.6 0 0 1 .073.222 1.886 1.886 0 0 1 .018.262V22.7h.453v-1.393a1.983 1.983 0 0 0-.038-.39.912.912 0 0 0-.136-.34.728.728 0 0 0-.277-.239.988.988 0 0 0-.453-.09.913.913 0 0 0-.427.111.763.763 0 0 0-.327.332.823.823 0 0 0-.3-.332.844.844 0 0 0-.448-.111.866.866 0 0 0-.294.048.994.994 0 0 0-.231.116.8.8 0 0 0-.161.143.393.393 0 0 0-.078.126h-.01v-.372h-.423V22.7zm4.285 0v-1.236a1.091 1.091 0 0 1 .05-.349.7.7 0 0 1 .136-.244.553.553 0 0 1 .2-.143.6.6 0 0 1 .234-.048.518.518 0 0 1 .264.058.388.388 0 0 1 .151.161.731.731 0 0 1 .068.244 2.528 2.528 0 0 1 .018.312V22.7h.453v-1.3a.883.883 0 0 1 .141-.518.644.644 0 0 1 .734-.143.415.415 0 0 1 .156.154.6.6 0 0 1 .073.222 1.885 1.885 0 0 1 .018.262V22.7h.453v-1.393a1.983 1.983 0 0 0-.038-.39.912.912 0 0 0-.136-.34.728.728 0 0 0-.277-.239.988.988 0 0 0-.453-.09.912.912 0 0 0-.427.111.763.763 0 0 0-.327.332.823.823 0 0 0-.3-.332.844.844 0 0 0-.448-.111.866.866 0 0 0-.294.048.994.994 0 0 0-.231.116.8.8 0 0 0-.161.143.393.393 0 0 0-.078.126h-.01v-.372h-.423V22.7zm4.919.06a1.258 1.258 0 0 0 1.056-.488l-.34-.262a1.182 1.182 0 0 1-.287.259.675.675 0 0 1-.367.1.919.919 0 0 1-.3-.05.826.826 0 0 1-.256-.141.707.707 0 0 1-.179-.219.6.6 0 0 1-.068-.284h1.911v-.162a1.675 1.675 0 0 0-.063-.455 1.141 1.141 0 0 0-.2-.4 1.059 1.059 0 0 0-.359-.289 1.177 1.177 0 0 0-.535-.111 1.254 1.254 0 0 0-.493.1 1.171 1.171 0 0 0-.39.264 1.228 1.228 0 0 0-.256.4 1.3 1.3 0 0 0-.093.5 1.4 1.4 0 0 0 .086.5 1.172 1.172 0 0 0 .244.4 1.112 1.112 0 0 0 .387.264 1.313 1.313 0 0 0 .506.1zm.684-1.449h-1.427a.616.616 0 0 1 .053-.244.755.755 0 0 1 .148-.224.741.741 0 0 1 .234-.164.726.726 0 0 1 .3-.063.782.782 0 0 1 .3.053.59.59 0 0 1 .214.146.612.612 0 0 1 .128.219.955.955 0 0 1 .048.277zm1.478 1.388V21.5a.815.815 0 0 1 .176-.578.666.666 0 0 1 .508-.186.617.617 0 0 1 .111.01q.055.01.111.025l.02-.488a.633.633 0 0 0-.2-.03.777.777 0 0 0-.222.033.89.89 0 0 0-.2.088.808.808 0 0 0-.169.136.646.646 0 0 0-.121.173h-.01v-.367h-.453V22.7zm2.446.06a1.432 1.432 0 0 0 .5-.086 1.013 1.013 0 0 0 .408-.281l-.322-.322a.838.838 0 0 1-.251.2.724.724 0 0 1-.327.068.769.769 0 0 1-.317-.063.717.717 0 0 1-.241-.173.791.791 0 0 1-.156-.259.892.892 0 0 1-.055-.315 1.068 1.068 0 0 1 .041-.322.836.836 0 0 1 .141-.272.661.661 0 0 1 .231-.186.728.728 0 0 1 .324-.068.741.741 0 0 1 .33.068.951.951 0 0 1 .264.2l.34-.312a1.1 1.1 0 0 0-.415-.284 1.366 1.366 0 0 0-.5-.093 1.344 1.344 0 0 0-.51.093 1.133 1.133 0 0 0-.645.654 1.382 1.382 0 0 0-.09.508 1.362 1.362 0 0 0 .09.506 1.122 1.122 0 0 0 .256.392 1.167 1.167 0 0 0 .395.254 1.362 1.362 0 0 0 .51.091zm2.378 0a1.258 1.258 0 0 0 1.056-.488l-.34-.262a1.182 1.182 0 0 1-.287.259.675.675 0 0 1-.367.1.919.919 0 0 1-.305-.05.826.826 0 0 1-.256-.141.707.707 0 0 1-.179-.219.6.6 0 0 1-.068-.284h1.911v-.163a1.675 1.675 0 0 0-.063-.454 1.141 1.141 0 0 0-.2-.4 1.059 1.059 0 0 0-.359-.289 1.177 1.177 0 0 0-.535-.111 1.254 1.254 0 0 0-.493.1 1.171 1.171 0 0 0-.39.264 1.229 1.229 0 0 0-.256.4 1.3 1.3 0 0 0-.093.5 1.4 1.4 0 0 0 .086.5 1.171 1.171 0 0 0 .244.4 1.112 1.112 0 0 0 .387.264 1.313 1.313 0 0 0 .512.1zm.684-1.449h-1.426a.616.616 0 0 1 .053-.244.755.755 0 0 1 .148-.224.741.741 0 0 1 .234-.164.726.726 0 0 1 .3-.063.782.782 0 0 1 .3.053.59.59 0 0 1 .214.146.611.611 0 0 1 .128.219.951.951 0 0 1 .048.277z" transform="translate(-2.766 9.435)" style="fill:#187d38"/>
            <g data-name="Group 2040">
                <path transform="translate(2.096 16.344)" style="stroke:#197a38;stroke-linecap:square;fill:none" d="M0 0h5.029"/>
                <path transform="translate(7.123 16.344)" style="stroke:#197a38;stroke-linecap:square;fill:none" d="m0 0 4.749 23.19"/>
                <path transform="translate(11.035 33.946)" style="stroke:#197a38;stroke-linecap:square;fill:none" d="M0 0h24.88"/>
                <path data-name="Line-3" transform="translate(12.152 39.534)" style="stroke:#197a38;stroke-linecap:square;fill:none" d="M0 0h24.88"/>
                <path data-name="Line-3" transform="translate(25.84 36.041)" style="stroke:#197a38;stroke-linecap:square;fill:none" d="M0 0h9.797"/>
                <path transform="translate(18.15 37.718)" style="stroke:#197a38;stroke-linecap:square;fill:none" d="M0 0h16.089"/>
                <path transform="translate(36.182 17.741)" style="stroke:#197a38;stroke-linecap:square;fill:none" d="M0 15.925 5.029 0"/>
            </g>
            <path d="M14.813 11.541a3.679 3.679 0 0 0 1.019-.141 2.608 2.608 0 0 0 .875-.433 2.116 2.116 0 0 0 .612-.739 2.326 2.326 0 0 0 .226-1.061 1.724 1.724 0 0 0-.211-.89 2.033 2.033 0 0 0-.533-.6 2.821 2.821 0 0 0-.714-.387q-.392-.146-.754-.266-.251-.08-.453-.156a1.97 1.97 0 0 1-.347-.166.671.671 0 0 1-.222-.211.56.56 0 0 1-.075-.3.589.589 0 0 1 .1-.347.783.783 0 0 1 .236-.222.9.9 0 0 1 .317-.116 2.051 2.051 0 0 1 .347-.03 1.631 1.631 0 0 1 .689.166 1.553 1.553 0 0 1 .578.448l1.1-1.155a3.172 3.172 0 0 0-1.1-.654 3.7 3.7 0 0 0-1.232-.222 4.013 4.013 0 0 0-1 .126 2.722 2.722 0 0 0-.884.4 2.1 2.1 0 0 0-.634.694 2.016 2.016 0 0 0-.246 1.021 1.943 1.943 0 0 0 .156.819 1.794 1.794 0 0 0 .412.573 2.242 2.242 0 0 0 .584.387 6.008 6.008 0 0 0 .669.262q.352.111.628.2a2.31 2.31 0 0 1 .463.211.983.983 0 0 1 .287.256.573.573 0 0 1 .1.34.76.76 0 0 1-.08.362.655.655 0 0 1-.216.241.928.928 0 0 1-.317.13 1.71 1.71 0 0 1-.372.04 1.87 1.87 0 0 1-.85-.216 2.082 2.082 0 0 1-.689-.538l-1.135 1.147a3.132 3.132 0 0 0 1.187.76 4.2 4.2 0 0 0 1.479.267zm5.645 2.233v-2.968h.02a1.563 1.563 0 0 0 .643.508A2.106 2.106 0 0 0 22 11.5a2.218 2.218 0 0 0 1-.221 2.31 2.31 0 0 0 .747-.588 2.586 2.586 0 0 0 .467-.85 3.159 3.159 0 0 0 .161-1.006 3.028 3.028 0 0 0-.166-1 2.61 2.61 0 0 0-.476-.84 2.225 2.225 0 0 0-.747-.573A2.259 2.259 0 0 0 22 6.209a1.947 1.947 0 0 0-.961.226 2.032 2.032 0 0 0-.639.528h-.03v-.611h-1.562v7.421zm1.142-3.64a1.11 1.11 0 0 1-.5-.111 1.2 1.2 0 0 1-.377-.291 1.336 1.336 0 0 1-.241-.412 1.349 1.349 0 0 1 0-.946 1.336 1.336 0 0 1 .241-.414 1.2 1.2 0 0 1 .377-.291 1.11 1.11 0 0 1 .5-.111 1.133 1.133 0 0 1 .513.111 1.119 1.119 0 0 1 .367.287 1.228 1.228 0 0 1 .222.408 1.516 1.516 0 0 1 .075.476 1.563 1.563 0 0 1-.075.476 1.277 1.277 0 0 1-.222.417 1.087 1.087 0 0 1-.367.291 1.133 1.133 0 0 1-.513.111zm5.81 1.366a1.735 1.735 0 0 0 .5-.068 2.093 2.093 0 0 0 .433-.181 1.49 1.49 0 0 0 .34-.262 1.418 1.418 0 0 0 .236-.322h.02v.69h1.591V6.35h-1.65v2.706a1.278 1.278 0 0 1-.226.754.755.755 0 0 1-.659.322.711.711 0 0 1-.372-.086.639.639 0 0 1-.226-.236 1.006 1.006 0 0 1-.116-.34 2.582 2.582 0 0 1-.03-.4V6.35h-1.662v3.1a2.963 2.963 0 0 0 .1.747 1.845 1.845 0 0 0 .312.654 1.646 1.646 0 0 0 .563.467 1.82 1.82 0 0 0 .846.182zm6.278-.143V8.782a1.249 1.249 0 0 1 .06-.352 1.1 1.1 0 0 1 .2-.372 1.137 1.137 0 0 1 .362-.291 1.175 1.175 0 0 1 .559-.121q.1 0 .2.01a1.285 1.285 0 0 1 .216.04l.068-1.449a.756.756 0 0 0-.156-.03 1.873 1.873 0 0 0-.2-.01 1.406 1.406 0 0 0-.815.241 1.626 1.626 0 0 0-.544.624h-.02V6.35h-1.579v5.007zm4.518.121a3.062 3.062 0 0 0 .523-.046 2.723 2.723 0 0 0 .433-.105l-.02-1.207a.883.883 0 0 1-.226.06 1.754 1.754 0 0 1-.256.02.583.583 0 0 1-.488-.176.857.857 0 0 1-.136-.528V7.587h1.177V6.35h-1.177V5.033h-1.62V6.35h-.792v1.237h.8V9.7a2.73 2.73 0 0 0 .09.729 1.419 1.419 0 0 0 .3.563 1.31 1.31 0 0 0 .548.362 2.466 2.466 0 0 0 .845.126z" transform="translate(-1.938 14.624)" style="fill:#187d38"/>
        </g>
        <path data-name="Spurt" d="M4.956 15.174a7.037 7.037 0 0 0 2.019-.285 4.87 4.87 0 0 0 1.672-.857 4.188 4.188 0 0 0 1.143-1.438 4.529 4.529 0 0 0 .428-2.03 3.605 3.605 0 0 0-.4-1.775A3.737 3.737 0 0 0 8.8 7.607a5.571 5.571 0 0 0-1.366-.755Q6.687 6.567 6 6.343q-.612-.183-1.122-.367a3.815 3.815 0 0 1-.866-.428 1.856 1.856 0 0 1-.561-.592 1.622 1.622 0 0 1-.2-.836 1.685 1.685 0 0 1 .234-.908 1.916 1.916 0 0 1 .6-.612 2.735 2.735 0 0 1 .815-.347 3.688 3.688 0 0 1 .9-.112 3.438 3.438 0 0 1 1.5.357 3.12 3.12 0 0 1 1.155.887l1.672-1.835A5.457 5.457 0 0 0 8.148.387 6.863 6.863 0 0 0 5.915 0a7.393 7.393 0 0 0-1.928.255 5.355 5.355 0 0 0-1.693.775 4.058 4.058 0 0 0-1.2 1.315 3.733 3.733 0 0 0-.459 1.9 3.941 3.941 0 0 0 .326 1.7A3.647 3.647 0 0 0 1.805 7.1a4.329 4.329 0 0 0 1.173.755 12.73 12.73 0 0 0 1.305.489l1.285.428a5.124 5.124 0 0 1 1.061.479 2.371 2.371 0 0 1 .714.653 1.61 1.61 0 0 1 .265.951 1.919 1.919 0 0 1-.234.989 2.112 2.112 0 0 1-.612.663 2.446 2.446 0 0 1-.847.377A3.941 3.941 0 0 1 5 13a3.991 3.991 0 0 1-1.744-.428A3.686 3.686 0 0 1 1.835 11.4L0 13.114a5.318 5.318 0 0 0 2.2 1.54 7.58 7.58 0 0 0 2.753.521zM15.113 19.7v-6.2h.041a3.247 3.247 0 0 0 1.336 1.163 4.245 4.245 0 0 0 1.907.428 4.567 4.567 0 0 0 3.518-1.54 4.977 4.977 0 0 0 .959-1.652 6.025 6.025 0 0 0 .34-2.03 5.779 5.779 0 0 0-.347-2.019 4.927 4.927 0 0 0-.979-1.631 4.567 4.567 0 0 0-3.427-1.489 4.455 4.455 0 0 0-1.214.153 4.646 4.646 0 0 0-.969.387 3.165 3.165 0 0 0-.724.53 3.545 3.545 0 0 0-.479.582h-.061V5.017h-2.348V19.7zm2.794-6.649a2.572 2.572 0 0 1-1.2-.275 2.947 2.947 0 0 1-.908-.724 3.155 3.155 0 0 1-.571-1.01 3.445 3.445 0 0 1-.194-1.132 3.533 3.533 0 0 1 .194-1.142 3.133 3.133 0 0 1 .572-1.015 3.083 3.083 0 0 1 .908-.734 2.5 2.5 0 0 1 1.2-.285 2.665 2.665 0 0 1 1.244.275 2.612 2.612 0 0 1 .877.724 3.164 3.164 0 0 1 .52 1.01 3.814 3.814 0 0 1 .173 1.132 3.914 3.914 0 0 1-.173 1.142 3.145 3.145 0 0 1-.52 1.019 2.722 2.722 0 0 1-.877.734 2.586 2.586 0 0 1-1.243.283zm11.2 2.038a3.253 3.253 0 0 0 1.907-.561 3.166 3.166 0 0 0 1.132-1.3h.041v1.57h2.323V5.017h-2.446V10.4a3.377 3.377 0 0 1-.143.969 2.664 2.664 0 0 1-.418.847 2.135 2.135 0 0 1-.714.6 2.106 2.106 0 0 1-1.01.234 1.648 1.648 0 0 1-.951-.245 1.758 1.758 0 0 1-.561-.622A2.422 2.422 0 0 1 28 11.34a6.945 6.945 0 0 1-.061-.9V5.017H25.5v6.119a5.319 5.319 0 0 0 .2 1.468 3.589 3.589 0 0 0 .643 1.264 3.237 3.237 0 0 0 1.122.887 3.683 3.683 0 0 0 1.641.336zm10.789-.285V9.565a3.413 3.413 0 0 1 .1-.714 2.629 2.629 0 0 1 .387-.877 2.446 2.446 0 0 1 .8-.734 2.6 2.6 0 0 1 1.346-.306 2.88 2.88 0 0 1 .34.02 3.417 3.417 0 0 1 .418.082V4.794A1.129 1.129 0 0 0 43 4.743q-.163-.01-.306-.01a2.849 2.849 0 0 0-1.713.53 3.571 3.571 0 0 0-1.142 1.387H39.8V5.018h-2.354v9.789zm8.464.2a5.457 5.457 0 0 0 .857-.071 4.024 4.024 0 0 0 .775-.194l-.082-1.917a2.138 2.138 0 0 1-.51.153 3.029 3.029 0 0 1-.53.051q-.815 0-1.05-.428a2.232 2.232 0 0 1-.234-1.081V6.975h2.444V5.017h-2.446V2.182h-2.408v2.835h-1.712v1.958h1.713v4.569a6.4 6.4 0 0 0 .136 1.336 2.794 2.794 0 0 0 .489 1.1 2.412 2.412 0 0 0 .969.755 3.909 3.909 0 0 0 1.588.275z" transform="translate(53.036 10.115)" style="fill:#fff"/>
        <path data-name="commerce" d="M80.785 17.371a5.184 5.184 0 0 0 2.08-.4 4.158 4.158 0 0 0 1.529-1.112L83.109 14.7a2.734 2.734 0 0 1-.989.775 3.292 3.292 0 0 1-2.682 0 3.016 3.016 0 0 1-1-.765 3.357 3.357 0 0 1-.622-1.112 4.212 4.212 0 0 1 0-2.65 3.357 3.357 0 0 1 .622-1.112 3.047 3.047 0 0 1 .989-.765 2.99 2.99 0 0 1 1.336-.285 2.8 2.8 0 0 1 1.305.316 2.348 2.348 0 0 1 .918.785l1.387-1.122a3.709 3.709 0 0 0-1.6-1.183 5.379 5.379 0 0 0-2.03-.408 5.629 5.629 0 0 0-2.05.367 4.832 4.832 0 0 0-1.642 1.04 4.735 4.735 0 0 0-1.081 1.611 5.4 5.4 0 0 0-.387 2.08 5.332 5.332 0 0 0 .4 2.1 4.748 4.748 0 0 0 1.091 1.6 4.913 4.913 0 0 0 1.642 1.03 5.687 5.687 0 0 0 2.069.369zm10.076 0a5.572 5.572 0 0 0 2.06-.377 4.97 4.97 0 0 0 1.662-1.061 4.9 4.9 0 0 0 1.1-1.621 5.224 5.224 0 0 0 .4-2.06 5.15 5.15 0 0 0-.4-2.05 4.81 4.81 0 0 0-1.1-1.6 5.053 5.053 0 0 0-1.662-1.05 5.812 5.812 0 0 0-4.12 0A4.938 4.938 0 0 0 87.145 8.6a4.886 4.886 0 0 0-1.087 1.6 5.15 5.15 0 0 0-.4 2.05 5.224 5.224 0 0 0 .4 2.059 4.975 4.975 0 0 0 1.087 1.622 4.858 4.858 0 0 0 1.655 1.063 5.572 5.572 0 0 0 2.061.377zm0-1.611a3.174 3.174 0 0 1-1.377-.285 2.93 2.93 0 0 1-1.01-.775 3.476 3.476 0 0 1-.622-1.122 4.213 4.213 0 0 1 0-2.65 3.358 3.358 0 0 1 .622-1.112 2.989 2.989 0 0 1 1.01-.765 3.462 3.462 0 0 1 2.753 0 2.989 2.989 0 0 1 1.01.765 3.358 3.358 0 0 1 .625 1.112 4.213 4.213 0 0 1 0 2.65 3.476 3.476 0 0 1-.622 1.122 2.93 2.93 0 0 1-1.01.775 3.174 3.174 0 0 1-1.379.285zm9.79 1.346v-5.14a3.563 3.563 0 0 1 .7-2.315 2.182 2.182 0 0 1 1.767-.867 2.131 2.131 0 0 1 .959.194 1.718 1.718 0 0 1 .633.53 2.116 2.116 0 0 1 .347.806 4.908 4.908 0 0 1 .1 1.04v5.752h1.917v-5.222a4.777 4.777 0 0 1 .136-1.122 3.014 3.014 0 0 1 .428-.989 2.334 2.334 0 0 1 .765-.714 2.178 2.178 0 0 1 1.122-.275 2 2 0 0 1 1.04.245 1.875 1.875 0 0 1 .653.653 2.854 2.854 0 0 1 .347.938 5.936 5.936 0 0 1 .1 1.122v5.364h1.917v-6a5.3 5.3 0 0 0-.214-1.529 3.423 3.423 0 0 0-.663-1.244 3.262 3.262 0 0 0-1.122-.847 3.763 3.763 0 0 0-1.611-.316 3.805 3.805 0 0 0-1.917.5 3.447 3.447 0 0 0-1.366 1.438 3.006 3.006 0 0 0-1.234-1.489 3.492 3.492 0 0 0-1.767-.448 3.342 3.342 0 0 0-1.907.544 3.27 3.27 0 0 0-1.173 1.315h-.061q0-.306-.02-.765t-.061-.826h-1.811q.041.469.061 1.081t.02 1v7.584zm18.091 0v-5.14a3.563 3.563 0 0 1 .7-2.315 2.182 2.182 0 0 1 1.767-.867 2.131 2.131 0 0 1 .959.194 1.718 1.718 0 0 1 .633.53 2.116 2.116 0 0 1 .347.806 4.905 4.905 0 0 1 .1 1.04v5.752h1.917v-5.222a4.775 4.775 0 0 1 .136-1.122 3.013 3.013 0 0 1 .428-.989 2.333 2.333 0 0 1 .765-.714 2.178 2.178 0 0 1 1.122-.275 2 2 0 0 1 1.04.245 1.874 1.874 0 0 1 .653.653 2.854 2.854 0 0 1 .347.938 5.933 5.933 0 0 1 .1 1.122v5.364h1.917v-6a5.3 5.3 0 0 0-.214-1.529 3.424 3.424 0 0 0-.663-1.244 3.261 3.261 0 0 0-1.122-.847 3.763 3.763 0 0 0-1.611-.316 3.8 3.8 0 0 0-1.923.5 3.447 3.447 0 0 0-1.366 1.438 3.006 3.006 0 0 0-1.234-1.489 3.492 3.492 0 0 0-1.767-.448 3.341 3.341 0 0 0-1.907.544 3.27 3.27 0 0 0-1.166 1.318h-.061q0-.306-.02-.765t-.061-.826h-1.814q.041.469.061 1.081t.02 1v7.584zm20.641.265a5.561 5.561 0 0 0 2.335-.479 4.779 4.779 0 0 0 1.826-1.5l-1.344-1.08a3.455 3.455 0 0 1-1.122 1.04 3.229 3.229 0 0 1-1.693.428 3.193 3.193 0 0 1-2.182-.847 3.031 3.031 0 0 1-.684-.938 2.9 2.9 0 0 1-.275-1.155h7.669a2.627 2.627 0 0 0 .02-.326v-.326a6.275 6.275 0 0 0-.333-2.088 4.5 4.5 0 0 0-.928-1.58 3.973 3.973 0 0 0-1.468-1 5.451 5.451 0 0 0-3.906.031 4.808 4.808 0 0 0-1.591 1.05 4.738 4.738 0 0 0-1.05 1.621 5.55 5.55 0 0 0-.377 2.07 5.4 5.4 0 0 0 .387 2.08 4.774 4.774 0 0 0 1.061 1.6A4.713 4.713 0 0 0 137.344 17a5.549 5.549 0 0 0 2.038.37zm2.61-5.955h-5.752a2.765 2.765 0 0 1 .3-1.071 3.062 3.062 0 0 1 .653-.867 2.989 2.989 0 0 1 .938-.582 3.1 3.1 0 0 1 1.155-.214 2.96 2.96 0 0 1 1.173.214 2.4 2.4 0 0 1 .836.582 2.459 2.459 0 0 1 .51.867 3.645 3.645 0 0 1 .194 1.07zm6.527 5.69v-5.079a4.178 4.178 0 0 1 .163-1.173 2.888 2.888 0 0 1 .5-.989 2.457 2.457 0 0 1 .847-.684 2.661 2.661 0 0 1 1.2-.255 3.608 3.608 0 0 1 .877.1l.082-1.775a2.976 2.976 0 0 0-.755-.082 3.125 3.125 0 0 0-1.767.52 3.345 3.345 0 0 0-1.193 1.377h-.061q0-.306-.02-.785t-.061-.847h-1.816q.041.469.061 1.081t.02 1v7.589zm10.035.265a5.184 5.184 0 0 0 2.08-.4 4.158 4.158 0 0 0 1.529-1.112l-1.285-1.159a2.734 2.734 0 0 1-.989.775 3.292 3.292 0 0 1-2.682 0 3.016 3.016 0 0 1-1-.765 3.359 3.359 0 0 1-.622-1.112 4.213 4.213 0 0 1 0-2.65 3.359 3.359 0 0 1 .622-1.112 3.047 3.047 0 0 1 .989-.766 2.99 2.99 0 0 1 1.336-.285 2.8 2.8 0 0 1 1.305.316 2.348 2.348 0 0 1 .918.785l1.387-1.122a3.709 3.709 0 0 0-1.6-1.183 5.379 5.379 0 0 0-2.03-.408 5.629 5.629 0 0 0-2.05.367 4.832 4.832 0 0 0-1.644 1.04 4.735 4.735 0 0 0-1.081 1.611 5.4 5.4 0 0 0-.387 2.08 5.333 5.333 0 0 0 .4 2.1 4.747 4.747 0 0 0 1.091 1.6A4.913 4.913 0 0 0 156.481 17a5.687 5.687 0 0 0 2.075.368zm9.974 0a5.561 5.561 0 0 0 2.335-.479 4.78 4.78 0 0 0 1.826-1.5l-1.346-1.081a3.455 3.455 0 0 1-1.122 1.04 3.229 3.229 0 0 1-1.693.428 3.193 3.193 0 0 1-2.182-.847 3.031 3.031 0 0 1-.684-.938 2.9 2.9 0 0 1-.275-1.155h7.669a2.627 2.627 0 0 0 .02-.326v-.326a6.275 6.275 0 0 0-.326-2.091 4.5 4.5 0 0 0-.928-1.58 3.973 3.973 0 0 0-1.468-1 5.451 5.451 0 0 0-3.906.031 4.808 4.808 0 0 0-1.591 1.05 4.739 4.739 0 0 0-1.05 1.621 5.55 5.55 0 0 0-.377 2.07 5.4 5.4 0 0 0 .387 2.081 4.775 4.775 0 0 0 1.057 1.6A4.713 4.713 0 0 0 166.486 17a5.549 5.549 0 0 0 2.041.367zm2.61-5.955h-5.752a2.766 2.766 0 0 1 .3-1.071 3.062 3.062 0 0 1 .653-.867 2.99 2.99 0 0 1 .938-.582 3.1 3.1 0 0 1 1.155-.214 2.96 2.96 0 0 1 1.167.218 2.4 2.4 0 0 1 .836.582 2.459 2.459 0 0 1 .51.867 3.646 3.646 0 0 1 .194 1.071z" transform="translate(28.808 7.816)" style="fill:#fff"/>
        <path data-name="Path 2517" d="M5.4-3.987a1.663 1.663 0 0 1 .828.571 1.59 1.59 0 0 1 .306.995 1.457 1.457 0 0 1-.63 1.264 3.166 3.166 0 0 1-1.835.446H.94v-6.3h2.952a2.9 2.9 0 0 1 1.719.437 1.4 1.4 0 0 1 .6 1.2A1.578 1.578 0 0 1 6-4.545a1.479 1.479 0 0 1-.6.558zM2.11-6.093v1.737h1.657a1.684 1.684 0 0 0 .94-.221.726.726 0 0 0 .329-.643.735.735 0 0 0-.329-.652 1.684 1.684 0 0 0-.94-.221zM4-1.629q1.359 0 1.359-.909T4-3.447H2.11v1.818zm7.9-.071v.99H7.259v-.783l2.5-2.378a2.749 2.749 0 0 0 .571-.707 1.346 1.346 0 0 0 .149-.6.809.809 0 0 0-.3-.675 1.389 1.389 0 0 0-.873-.23 1.762 1.762 0 0 0-1.476.657l-.819-.632a2.426 2.426 0 0 1 .999-.772 3.448 3.448 0 0 1 1.4-.27 2.561 2.561 0 0 1 1.638.486 1.6 1.6 0 0 1 .612 1.323 2.2 2.2 0 0 1-.215.963 3.759 3.759 0 0 1-.829 1.028L8.93-1.7zm5.588-2.286a1.663 1.663 0 0 1 .828.571 1.59 1.59 0 0 1 .306.995A1.457 1.457 0 0 1 18-1.156a3.166 3.166 0 0 1-1.835.446h-3.136v-6.3h2.952a2.9 2.9 0 0 1 1.719.437 1.4 1.4 0 0 1 .607 1.2 1.578 1.578 0 0 1-.216.828 1.479 1.479 0 0 1-.6.558zM14.2-6.093v1.737h1.657a1.683 1.683 0 0 0 .94-.221.726.726 0 0 0 .329-.643.735.735 0 0 0-.329-.652 1.683 1.683 0 0 0-.94-.221zm1.892 4.465q1.359 0 1.359-.909t-1.359-.909H14.2v1.818zm15.95-2.358a1.663 1.663 0 0 1 .828.571 1.59 1.59 0 0 1 .306.995 1.457 1.457 0 0 1-.63 1.264 3.166 3.166 0 0 1-1.835.446h-3.136v-6.3h2.952a2.9 2.9 0 0 1 1.719.437 1.4 1.4 0 0 1 .6 1.2 1.578 1.578 0 0 1-.216.828 1.479 1.479 0 0 1-.591.558zm-3.297-2.107v1.737H30.4a1.683 1.683 0 0 0 .94-.221.726.726 0 0 0 .329-.643.735.735 0 0 0-.329-.652 1.683 1.683 0 0 0-.94-.221zm1.891 4.465q1.359 0 1.359-.909t-1.359-.909h-1.89v1.818zm7.9-.072v.99h-4.642v-.783l2.5-2.378a2.749 2.749 0 0 0 .571-.707 1.346 1.346 0 0 0 .149-.6.809.809 0 0 0-.3-.675 1.389 1.389 0 0 0-.873-.23 1.762 1.762 0 0 0-1.476.657l-.819-.63a2.426 2.426 0 0 1 1-.775 3.448 3.448 0 0 1 1.4-.272 2.561 2.561 0 0 1 1.638.486 1.6 1.6 0 0 1 .616 1.324 2.2 2.2 0 0 1-.216.963 3.759 3.759 0 0 1-.833 1.03l-1.686 1.6zM42.58-.62a3.549 3.549 0 0 1-1.724-.419A3.085 3.085 0 0 1 39.65-2.2a3.208 3.208 0 0 1-.437-1.665 3.183 3.183 0 0 1 .441-1.665 3.118 3.118 0 0 1 1.211-1.155 3.549 3.549 0 0 1 1.724-.42A3.6 3.6 0 0 1 44-6.83a2.882 2.882 0 0 1 1.08.783l-.756.711a2.2 2.2 0 0 0-1.684-.741 2.36 2.36 0 0 0-1.161.283 2.042 2.042 0 0 0-.8.787 2.263 2.263 0 0 0-.288 1.143 2.263 2.263 0 0 0 .288 1.143 2.043 2.043 0 0 0 .8.789 2.36 2.36 0 0 0 1.161.283 2.193 2.193 0 0 0 1.683-.747l.756.72A2.875 2.875 0 0 1 44-.891a3.629 3.629 0 0 1-1.415.27zM53.9-7.012h2.755a3.952 3.952 0 0 1 1.791.391 2.9 2.9 0 0 1 1.215 1.107 3.132 3.132 0 0 1 .429 1.652 3.132 3.132 0 0 1-.429 1.652A2.9 2.9 0 0 1 58.45-1.1a3.952 3.952 0 0 1-1.791.391H53.9zM56.6-1.7a2.674 2.674 0 0 0 1.223-.266 1.9 1.9 0 0 0 .807-.756 2.235 2.235 0 0 0 .283-1.139A2.235 2.235 0 0 0 58.634-5a1.9 1.9 0 0 0-.81-.756 2.674 2.674 0 0 0-1.224-.265h-1.526V-1.7zm8.758 0v.99h-4.64v-.783l2.5-2.378a2.749 2.749 0 0 0 .571-.707 1.346 1.346 0 0 0 .149-.6.809.809 0 0 0-.3-.675 1.389 1.389 0 0 0-.874-.23 1.762 1.762 0 0 0-1.476.657l-.819-.63a2.426 2.426 0 0 1 1-.775 3.448 3.448 0 0 1 1.4-.272 2.561 2.561 0 0 1 1.638.486 1.6 1.6 0 0 1 .612 1.323 2.2 2.2 0 0 1-.216.963 3.76 3.76 0 0 1-.828 1.031l-1.683 1.6zM69.4-.62a3.549 3.549 0 0 1-1.724-.419A3.085 3.085 0 0 1 66.474-2.2a3.209 3.209 0 0 1-.437-1.665 3.183 3.183 0 0 1 .443-1.665 3.118 3.118 0 0 1 1.211-1.155 3.549 3.549 0 0 1 1.724-.415 3.6 3.6 0 0 1 1.413.272 2.882 2.882 0 0 1 1.08.783l-.758.71a2.2 2.2 0 0 0-1.68-.741 2.36 2.36 0 0 0-1.161.283 2.042 2.042 0 0 0-.8.787 2.263 2.263 0 0 0-.288 1.143 2.263 2.263 0 0 0 .288 1.143 2.042 2.042 0 0 0 .8.789 2.36 2.36 0 0 0 1.164.283 2.193 2.193 0 0 0 1.683-.747l.756.72a2.875 2.875 0 0 1-1.087.783 3.628 3.628 0 0 1-1.42.27zm14.24 0a3.549 3.549 0 0 1-1.724-.419 3.085 3.085 0 0 1-1.206-1.155 3.208 3.208 0 0 1-.437-1.665 3.183 3.183 0 0 1 .441-1.665 3.118 3.118 0 0 1 1.215-1.156 3.549 3.549 0 0 1 1.724-.42 3.6 3.6 0 0 1 1.413.272 2.882 2.882 0 0 1 1.08.783l-.756.708a2.2 2.2 0 0 0-1.683-.738 2.36 2.36 0 0 0-1.161.283 2.042 2.042 0 0 0-.8.787 2.263 2.263 0 0 0-.288 1.143 2.263 2.263 0 0 0 .288 1.143 2.043 2.043 0 0 0 .8.786 2.36 2.36 0 0 0 1.161.283 2.193 2.193 0 0 0 1.683-.747l.756.72a2.875 2.875 0 0 1-1.087.783 3.628 3.628 0 0 1-1.415.27zm7.7-1.08v.99H86.7v-.783l2.5-2.378a2.749 2.749 0 0 0 .571-.707 1.346 1.346 0 0 0 .149-.6.809.809 0 0 0-.3-.675 1.389 1.389 0 0 0-.873-.234 1.762 1.762 0 0 0-1.476.659l-.819-.63a2.426 2.426 0 0 1 .995-.773 3.448 3.448 0 0 1 1.4-.272 2.561 2.561 0 0 1 1.638.486 1.6 1.6 0 0 1 .615 1.324 2.2 2.2 0 0 1-.216.963 3.758 3.758 0 0 1-.832 1.03L88.37-1.7zm4.042 1.08a3.549 3.549 0 0 1-1.724-.419 3.085 3.085 0 0 1-1.206-1.155 3.208 3.208 0 0 1-.437-1.665 3.183 3.183 0 0 1 .441-1.665 3.118 3.118 0 0 1 1.211-1.156 3.549 3.549 0 0 1 1.724-.42 3.6 3.6 0 0 1 1.409.27 2.882 2.882 0 0 1 1.08.783l-.756.711a2.2 2.2 0 0 0-1.683-.738 2.36 2.36 0 0 0-1.161.283 2.042 2.042 0 0 0-.8.787 2.263 2.263 0 0 0-.28 1.145 2.263 2.263 0 0 0 .288 1.143 2.043 2.043 0 0 0 .8.786 2.36 2.36 0 0 0 1.161.283 2.193 2.193 0 0 0 1.683-.747l.756.72a2.875 2.875 0 0 1-1.088.783 3.629 3.629 0 0 1-1.415.27z" transform="translate(52.096 43.504)" style="stroke:transparent;fill:#fff"/>
        <path data-name="Path 2518" d="M24.74-7.42h1.035v6.481H24.74zm26.329 0H52.1v6.481h-1.031zm26.824 0h1.035v6.481h-1.035z" transform="translate(49.72 43.823)" style="stroke:transparent;fill:#fff"/>
        <path data-name="Line 379" transform="translate(52.726 32.663)" style="stroke:#fff;fill:none" d="M0 0h149.481"/>
    </g>
</svg>
