<svg xmlns="http://www.w3.org/2000/svg" width="8.001" height="7.001" viewBox="0 0 8.001 7.001">
    <path data-name="Path 115" d="M8.146 4.646a.5.5 0 0 1 .708 0l3 3a.5.5 0 0 1 0 .708l-3 3a.5.5 0 0 1-.708-.708L10.793 8 8.146 5.354a.5.5 0 0 1 0-.708z" style="fill:#ff0606;fill-rule:evenodd" transform="translate(-4 -4.499)"/>
    <path data-name="Path 116" d="M4 8a.5.5 0 0 1 .5-.5H11a.5.5 0 0 1 0 1H4.5A.5.5 0 0 1 4 8z" style="fill:#ff0606;fill-rule:evenodd" transform="translate(-4 -4.499)"/>
</svg>
