<svg xmlns="http://www.w3.org/2000/svg" width="20.73" height="24" viewBox="0 0 20.73 24">
    <g data-name="play (8)">
        <g data-name="Group 13765">
            <path data-name="Path 3033" d="M54.054 9.23 39.879.493a3.278 3.278 0 0 0-5 2.791v17.4A3.312 3.312 0 0 0 38.153 24h.015a3.289 3.289 0 0 0 1.7-.511.936.936 0 1 0-.975-1.6 1.436 1.436 0 0 1-.729.237 1.454 1.454 0 0 1-1.409-1.448V3.284a1.406 1.406 0 0 1 2.142-1.2l14.175 8.738a1.406 1.406 0 0 1-.006 2.4L42.817 19.5a.936.936 0 0 0 .977 1.6l10.247-6.274a3.278 3.278 0 0 0 .012-5.589z" transform="translate(-34.883)" style="fill:#fff"/>
        </g>
    </g>
</svg>
