<svg xmlns="http://www.w3.org/2000/svg" width="70" height="70" viewBox="0 0 70 70">
    <path data-name="cancel (2)" d="M48.828 24.765 38.8 34.795l10.029 10.03a2.734 2.734 0 1 1-3.867 3.867l-10.03-10.03L24.9 48.691a2.734 2.734 0 0 1-3.867-3.867l10.029-10.03-10.027-10.029A2.734 2.734 0 0 1 24.9 20.9l10.03 10.029L44.961 20.9a2.734 2.734 0 0 1 3.867 3.867zm10.921-14.514a35 35 0 0 0-49.5 49.5 35.013 35.013 0 0 0 42.861 5.205 2.734 2.734 0 1 0-2.833-4.677 29.792 29.792 0 1 1 9.247-8.888 2.734 2.734 0 0 0 4.546 3.039 34.915 34.915 0 0 0-4.322-44.179zm0 0" style="fill:#f83939"/>
</svg>
