<svg xmlns="http://www.w3.org/2000/svg" width="40.5" height="25.591" viewBox="0 0 40.5 25.591">
    <path data-name="Path 2742" d="M41.578 12.625a5.222 5.222 0 0 0-3.884-1.716H8.851a5.178 5.178 0 0 0-5.215 5.142V21.4a5.091 5.091 0 0 1 9.818 1.876v3.2a2.182 2.182 0 0 1 1.091 1.891v6.182a1.985 1.985 0 0 1 0 .364h23.15a5.178 5.178 0 0 0 5.215-5.142v-13.72a5.091 5.091 0 0 0-1.332-3.426z" style="fill:#c8efc5;stroke:#a0d89b" transform="translate(-2.909 -10.409)"/>
    <g data-name="Group 2340">
        <path data-name="Path 2743" d="M14.545 15.273a.727.727 0 0 0-.727-.727H9.527a.727.727 0 0 0-.8.727v2.255a.727.727 0 0 0 .764.691h4.327a.727.727 0 0 0 .727-.727v-2.219a.727.727 0 0 0-.727-.727H9.527a.727.727 0 0 0-.8.727" style="fill:#047600" transform="translate(-2.909 -10.409)"/>
        <path data-name="Path 2744" d="M35.956 15.353h-4.727a.727.727 0 0 1 0-1.455h4.727a.727.727 0 1 1 0 1.455z" style="fill:#047600" transform="translate(-2.909 -10.409)"/>
        <path data-name="Path 2745" d="M37.535 18.56h-6.306a.727.727 0 1 1 0-1.455h6.305a.727.727 0 0 1 0 1.455z" style="fill:#047600" transform="translate(-2.909 -10.409)"/>
        <path data-name="Path 2746" d="M28.073 30.175h-1.578a.727.727 0 1 1 0-1.455h1.578a.727.727 0 1 1 0 1.455z" style="fill:#047600" transform="translate(-2.909 -10.409)"/>
        <path data-name="Path 2747" d="M23.324 30.175h-1.571a.727.727 0 0 1 0-1.455h1.571a.727.727 0 0 1 0 1.455z" style="fill:#047600" transform="translate(-2.909 -10.409)"/>
        <path data-name="Path 2748" d="M32.8 30.175h-1.571a.727.727 0 0 1 0-1.455H32.8a.727.727 0 0 1 0 1.455z" style="fill:#047600" transform="translate(-2.909 -10.409)"/>
        <path data-name="Path 2749" d="M37.535 30.175h-1.579a.727.727 0 0 1 0-1.455h1.578a.727.727 0 0 1 0 1.455z" style="fill:#047600" transform="translate(-2.909 -10.409)"/>
        <path data-name="Path 2750" d="M12.72 26.953a.1.1 0 0 0 0-.044v-3.636a4.364 4.364 0 1 0-8.727 0v3.636a.1.1 0 0 0 0 .044 1.455 1.455 0 0 0-1.084 1.411v6.182A1.455 1.455 0 0 0 4.364 36h8a1.455 1.455 0 0 0 1.455-1.455v-6.181a1.455 1.455 0 0 0-1.099-1.411zm-7.265-.044v-3.636a2.909 2.909 0 0 1 5.818 0v3.636z" style="fill:#047600" transform="translate(-2.909 -10.409)"/>
    </g>
    <path data-name="Path 2751" d="M8.364 32.829a1.375 1.375 0 1 1 1.375-1.375 1.375 1.375 0 0 1-1.375 1.375z" style="fill:#e6e7e8" transform="translate(-2.909 -10.409)"/>
</svg>
