<svg xmlns="http://www.w3.org/2000/svg" width="70" height="70" viewBox="0 0 70 70">
    <path data-name="check (19)" d="M70 35.5a34.862 34.862 0 0 1-5.93 19.43 2.734 2.734 0 0 1-4.546-3.039A29.457 29.457 0 0 0 63.6 28.115a2.734 2.734 0 0 1 5.3-1.363A35.126 35.126 0 0 1 70 35.5zM50.276 60.779a29.532 29.532 0 1 1 1.489-49.593 2.734 2.734 0 1 0 3.109-4.5 35 35 0 0 0-44.623 53.563 35.013 35.013 0 0 0 42.859 5.207 2.734 2.734 0 1 0-2.834-4.677zm-15.012-17.35a1.559 1.559 0 0 1-1.151-.436L19.792 29.414a2.734 2.734 0 1 0-3.763 3.968l14.318 13.577a6.983 6.983 0 0 0 4.846 1.94c.1 0 .194 0 .292-.006a6.989 6.989 0 0 0 4.965-2.34 1.97 1.97 0 0 0 .094-.111L69.4 10.553a2.734 2.734 0 0 0-4.262-3.427l-28.8 35.819a1.563 1.563 0 0 1-1.074.484zm0 0" transform="translate(0 -.5)" style="fill:#068e06"/>
</svg>
