<svg xmlns="http://www.w3.org/2000/svg" width="41.125" height="40.5" viewBox="0 0 41.125 40.5">
    <g data-name="1">
        <path data-name="Path 2607" d="M41.856 39.676a7.667 7.667 0 0 1-6.419 3.456H10.832A7.688 7.688 0 0 1 3.956 32l3.321-6.649a5.465 5.465 0 0 1 4.2-3.314 5.446 5.446 0 0 1 4.8 2.367l.43.536a4.01 4.01 0 0 0 3.418 1.772A4.037 4.037 0 0 0 23.19 24.4l3.649-6.568c1.361-2.455 3.161-3.764 5.013-3.663s3.5 1.567 4.613 4.15l6.04 14.1a7.668 7.668 0 0 1-.648 7.262z" style="fill:#c8efc5;stroke:#a0d89b" transform="translate(-2.566 -3.133)"/>
        <path data-name="Path 2608" d="M20 9.639a6.506 6.506 0 1 1-6.5-6.506A6.506 6.506 0 0 1 20 9.639z" style="fill:#047600" transform="translate(-2.566 -3.133)"/>
    </g>
</svg>
