<svg xmlns="http://www.w3.org/2000/svg" width="274" height="468" viewBox="0 0 274 468">
    <g data-name="Group 2054" transform="translate(-184 -954)">
        <path data-name="Rectangle 4561" transform="translate(184 954)" style="fill:#464646;mix-blend-mode:soft-light;isolation:isolate" d="M0 0h274v468H0z"/>
        <circle data-name="Ellipse 379" cx="24" cy="24" r="24" transform="translate(301 1164)" style="fill:#fff"/>
        <path data-name="Path 2512" d="M18.263 11.776c2.2 1.8 3.3 2.693 3.3 4.229s-1.1 2.433-3.3 4.229c-.608.5-1.21.962-1.764 1.351-.486.341-1.036.694-1.606 1.04-2.2 1.335-3.294 2-4.278 1.264S9.541 21.6 9.362 18.507c-.051-.875-.083-1.733-.083-2.5s.032-1.627.083-2.5c.179-3.095.268-4.642 1.253-5.382s2.083-.072 4.278 1.264c.57.346 1.12.7 1.606 1.04.554.384 1.157.851 1.764 1.347z" transform="translate(309.454 1172.186)" style="fill:#fff"/>
    </g>
</svg>
