<svg xmlns="http://www.w3.org/2000/svg" xmlns:xlink="http://www.w3.org/1999/xlink" width="32" height="32" viewBox="0 0 32 32">
  <defs>
    <clipPath id="clip-path">
      <rect id="Rectangle_3960" data-name="Rectangle 3960" width="32" height="32" transform="translate(383 1688)" fill="#027600"/>
    </clipPath>
  </defs>
  <g id="Mask_Group_226" data-name="Mask Group 226" transform="translate(-383 -1688)" clip-path="url(#clip-path)">
    <g id="cubes" transform="translate(383 1688)">
      <path id="Path_2309" data-name="Path 2309" d="M31.718,17.4a.936.936,0,0,0-.422-.287l-7.328-2.442L16,17.328V29.4l7.672,2.557a.938.938,0,0,0,.593,0L31.3,29.609a.937.937,0,0,0,.641-.889V18A.937.937,0,0,0,31.718,17.4Z" fill="rgba(2,118,0,0.75)"/>
      <path id="Path_2310" data-name="Path 2310" d="M23.969,19.983V32a.937.937,0,0,0,.3-.048L31.3,29.609a.937.937,0,0,0,.641-.889V18a.937.937,0,0,0-.219-.6Z" fill="rgba(2,118,0,0.5)"/>
      <path id="Path_2311" data-name="Path 2311" d="M16,17.328V29.4l7.672,2.557a.937.937,0,0,0,.3.048V19.983Z" fill="#027600"/>
      <g id="Group_1750" data-name="Group 1750">
        <path id="Path_2312" data-name="Path 2312" d="M23.749,2.678a.936.936,0,0,0-.422-.287L16.3.048a.937.937,0,0,0-.593,0L8.672,2.391a.938.938,0,0,0-.641.889V14.672L16,17.328l7.969-2.656V3.281a.936.936,0,0,0-.219-.6Z" fill="rgba(2,118,0,0.75)"/>
        <path id="Path_2313" data-name="Path 2313" d="M23.969,3.281a.937.937,0,0,0-.219-.6L16,5.26V17.328l7.969-2.656Z" fill="rgba(2,118,0,0.5)"/>
        <g id="Group_1749" data-name="Group 1749">
          <path id="Path_2314" data-name="Path 2314" d="M16,5.26,8.251,2.678a.937.937,0,0,0-.219.6V14.672L16,17.328Z" fill="#027600"/>
          <path id="Path_2315" data-name="Path 2315" d="M23.749,2.678a.936.936,0,0,0-.422-.287L16.3.048A.937.937,0,0,0,16,0V5.26Z" fill="#027600"/>
        </g>
      </g>
      <g id="Group_1751" data-name="Group 1751">
        <path id="Path_2316" data-name="Path 2316" d="M8.031,14.672.7,17.114A.938.938,0,0,0,.063,18V28.719a.938.938,0,0,0,.641.889l7.031,2.343a.938.938,0,0,0,.593,0L16,29.4V17.328Z" fill="rgba(2,118,0,0.75)"/>
        <path id="Path_2317" data-name="Path 2317" d="M.282,17.4a.937.937,0,0,0-.219.6V28.719a.938.938,0,0,0,.641.889l7.031,2.343a.937.937,0,0,0,.3.048V19.983Z" fill="#027600"/>
        <path id="Path_2318" data-name="Path 2318" d="M8.031,19.983V32a.937.937,0,0,0,.3-.048L16,29.4V17.328Z" fill="rgba(2,118,0,0.5)"/>
      </g>
    </g>
  </g>
</svg>
