<svg xmlns="http://www.w3.org/2000/svg" xmlns:xlink="http://www.w3.org/1999/xlink" width="32" height="32" viewBox="0 0 32 32">
  <defs>
    <clipPath id="clip-path">
      <rect id="Rectangle_3975" data-name="Rectangle 3975" width="32" height="32" transform="translate(383 1688)" fill="#027600"/>
    </clipPath>
  </defs>
  <g id="Mask_Group_228" data-name="Mask Group 228" transform="translate(-383 -1688)" clip-path="url(#clip-path)">
    <g id="cubes" transform="translate(383 1688)">
      <path id="Path_2329" data-name="Path 2329" d="M31.718,17.4a.936.936,0,0,0-.422-.287l-7.328-2.442L16,17.328V29.4l7.672,2.557a.938.938,0,0,0,.593,0L31.3,29.609a.937.937,0,0,0,.641-.889V18A.937.937,0,0,0,31.718,17.4Z" fill="rgba(85,85,85,0.75)"/>
      <path id="Path_2330" data-name="Path 2330" d="M23.969,19.983V32a.937.937,0,0,0,.3-.048L31.3,29.609a.937.937,0,0,0,.641-.889V18a.937.937,0,0,0-.219-.6Z" fill="rgba(85,85,85,0.5)"/>
      <path id="Path_2331" data-name="Path 2331" d="M16,17.328V29.4l7.672,2.557a.937.937,0,0,0,.3.048V19.983Z" fill="#555"/>
      <g id="Group_1756" data-name="Group 1756">
        <path id="Path_2332" data-name="Path 2332" d="M23.749,2.678a.936.936,0,0,0-.422-.287L16.3.048a.937.937,0,0,0-.593,0L8.672,2.391a.938.938,0,0,0-.641.889V14.672L16,17.328l7.969-2.656V3.281a.936.936,0,0,0-.219-.6Z" fill="rgba(85,85,85,0.75)"/>
        <path id="Path_2333" data-name="Path 2333" d="M23.969,3.281a.937.937,0,0,0-.219-.6L16,5.26V17.328l7.969-2.656Z" fill="rgba(85,85,85,0.5)"/>
        <g id="Group_1755" data-name="Group 1755">
          <path id="Path_2334" data-name="Path 2334" d="M16,5.26,8.251,2.678a.937.937,0,0,0-.219.6V14.672L16,17.328Z" fill="#555"/>
          <path id="Path_2335" data-name="Path 2335" d="M23.749,2.678a.936.936,0,0,0-.422-.287L16.3.048A.937.937,0,0,0,16,0V5.26Z" fill="#555"/>
        </g>
      </g>
      <g id="Group_1757" data-name="Group 1757">
        <path id="Path_2336" data-name="Path 2336" d="M8.031,14.672.7,17.114A.938.938,0,0,0,.063,18V28.719a.938.938,0,0,0,.641.889l7.031,2.343a.938.938,0,0,0,.593,0L16,29.4V17.328Z" fill="rgba(85,85,85,0.75)"/>
        <path id="Path_2337" data-name="Path 2337" d="M.282,17.4a.937.937,0,0,0-.219.6V28.719a.938.938,0,0,0,.641.889l7.031,2.343a.937.937,0,0,0,.3.048V19.983Z" fill="#555"/>
        <path id="Path_2338" data-name="Path 2338" d="M8.031,19.983V32a.937.937,0,0,0,.3-.048L16,29.4V17.328Z" fill="rgba(85,85,85,0.5)"/>
      </g>
    </g>
  </g>
</svg>
