<svg xmlns="http://www.w3.org/2000/svg" width="15" height="15" viewBox="0 0 15 15">
    <g data-name="Path 2771" style="fill:none">
        <path d="M14.75 2H4.25A2.256 2.256 0 0 0 2 4.25v10.5A2.256 2.256 0 0 0 4.25 17h10.5A2.256 2.256 0 0 0 17 14.75V4.25A2.256 2.256 0 0 0 14.75 2z" style="stroke:none" transform="translate(-2 -2)"/>
        <path d="M4.25 3C3.56 3 3 3.56 3 4.25v10.5c0 .69.56 1.25 1.25 1.25h10.5c.69 0 1.25-.56 1.25-1.25V4.25C16 3.56 15.44 3 14.75 3H4.25m0-1h10.5A2.256 2.256 0 0 1 17 4.25v10.5A2.256 2.256 0 0 1 14.75 17H4.25A2.256 2.256 0 0 1 2 14.75V4.25A2.256 2.256 0 0 1 4.25 2z" style="fill:#1b1a1c;stroke:none" transform="translate(-2 -2)"/>
    </g>
</svg>
