<svg xmlns="http://www.w3.org/2000/svg" width="13" height="13" viewBox="0 0 13 13">
    <defs>
        <linearGradient id="gcc82s9f8b" x1="1" y1=".389" x2="0" y2=".381" gradientUnits="objectBoundingBox">
            <stop offset="0" stop-color="#366a96"/>
            <stop offset="1" stop-color="#3679b0"/>
        </linearGradient>
        <linearGradient id="mhns4o4v9c" x1="1" y1=".5" x2="-.976" y2=".5" gradientUnits="objectBoundingBox">
            <stop offset="0" stop-color="#ffc836"/>
            <stop offset="1" stop-color="#ffe873"/>
        </linearGradient>
        <clipPath id="sipbje7h1a">
            <path data-name="Rectangle 14" transform="translate(296 344)" style="stroke:#707070;fill:#fff" d="M0 0h13v13H0z"/>
        </clipPath>
    </defs>
    <g data-name="Mask Group 4" transform="translate(-296 -344)" style="clip-path:url(#sipbje7h1a)">
        <path data-name="Path 2" d="M84.168 63.224c0-.876.24-1.353 1.567-1.58a10.022 10.022 0 0 1 3.134 0 1.721 1.721 0 0 1 1.567 1.58v2.891a1.554 1.554 0 0 1-1.567 1.543h-3.134a1.965 1.965 0 0 0-1.96 1.889v1.387H82.7a1.732 1.732 0 0 1-1.665-1.542 5.5 5.5 0 0 1 0-3.084 1.947 1.947 0 0 1 1.959-1.542H87.3v-.386h-3.132v-1.156z" transform="translate(215.188 282.614)" style="fill:url(#gcc82s9f8b)"/>
        <path data-name="Path 3" d="M93.276 75.223c0 .876-.778 1.32-1.567 1.542a5.415 5.415 0 0 1-3.134 0c-.829-.236-1.567-.719-1.567-1.542v-2.891a1.573 1.573 0 0 1 1.567-1.543h3.134a1.982 1.982 0 0 0 1.96-1.928v-1.348h1.175c.913 0 1.342.663 1.567 1.542a5.048 5.048 0 0 1 0 3.084c-.317.924-.656 1.542-1.567 1.542h-4.7v.386h3.134v1.157z" transform="translate(212.348 279.868)" style="fill:url(#mhns4o4v9c)"/>
        <path data-name="Path 4" d="M88.454 63.821a.588.588 0 1 1 .588.578.583.583 0 0 1-.588-.578zm3.526 9.637a.588.588 0 1 1 .588.579.583.583 0 0 1-.588-.579z" transform="translate(211.685 281.825)" style="fill:#fff"/>
    </g>
</svg>
