<svg xmlns="http://www.w3.org/2000/svg" width="40" height="39.251" viewBox="0 0 40 39.251">
    <g data-name="Group 2308">
        <path data-name="Path 2600" d="M29.91 33.9H11.076a3.885 3.885 0 0 1-3.856-3.855V11.211a3.885 3.885 0 0 1 3.857-3.857H29.91a3.885 3.885 0 0 1 3.857 3.857v18.834A3.885 3.885 0 0 1 29.91 33.9z" style="fill:#c8efc5" transform="translate(-.448 -.98)"/>
        <path data-name="Path 2601" d="M29.91 34.753H11.076a4.708 4.708 0 0 1-4.709-4.709V11.211A4.708 4.708 0 0 1 11.076 6.5H29.91a4.708 4.708 0 0 1 4.709 4.709v18.836a4.766 4.766 0 0 1-4.709 4.708zM11.031 8.161a3.052 3.052 0 0 0-3.049 3.049v18.835a3.052 3.052 0 0 0 3.049 3.049h18.834a3.052 3.052 0 0 0 3.049-3.049V11.211a3.052 3.052 0 0 0-3.049-3.049z" style="fill:#c8efc5" transform="translate(-.448 -.98)"/>
    </g>
    <g data-name="Group 2309">
        <path data-name="Path 2602" d="M2.422 13.946A1.11 1.11 0 0 1 1.3 12.825V4.888A3.407 3.407 0 0 1 4.709 1.48h8.52A1.11 1.11 0 0 1 14.35 2.6a1.073 1.073 0 0 1-1.076 1.121H4.753a1.158 1.158 0 0 0-1.166 1.167v7.937a1.18 1.18 0 0 1-1.165 1.121z" style="stroke:#a0d89b;fill:#c8efc5" transform="translate(-.448 -.98)"/>
        <path data-name="Path 2603" d="M13.274 39.731H4.753a3.407 3.407 0 0 1-3.408-3.408v-7.13a1.121 1.121 0 1 1 2.242 0v7.13a1.187 1.187 0 0 0 1.166 1.166h8.52a1.121 1.121 0 0 1 0 2.242z" style="stroke:#a0d89b;fill:#c8efc5" transform="translate(-.448 -.98)"/>
        <path data-name="Path 2604" d="M36.143 39.731h-8.161a1.121 1.121 0 1 1 0-2.242h8.206a1.187 1.187 0 0 0 1.166-1.166v-7.534a1.121 1.121 0 1 1 2.242 0v7.534a3.445 3.445 0 0 1-3.453 3.408z" style="stroke:#a0d89b;fill:#c8efc5" transform="translate(-.448 -.98)"/>
        <path data-name="Path 2605" d="M38.475 13.946a1.11 1.11 0 0 1-1.121-1.121V4.888a1.187 1.187 0 0 0-1.166-1.166h-8.206a1.121 1.121 0 0 1 0-2.242h8.206A3.407 3.407 0 0 1 39.6 4.888v7.937a1.171 1.171 0 0 1-1.125 1.121z" style="stroke:#a0d89b;fill:#c8efc5" transform="translate(-.448 -.98)"/>
    </g>
    <path data-name="Path 2606" d="M39.327 21.7H1.57a1.121 1.121 0 1 1 0-2.242h37.757a1.121 1.121 0 0 1 0 2.242z" style="fill:#047600" transform="translate(-.448 -.98)"/>
</svg>
