<svg xmlns="http://www.w3.org/2000/svg" width="41.113" height="41.019" viewBox="0 0 41.113 41.019">
    <path data-name="Path 2661" d="M42.768 29a12.38 12.38 0 1 0-13.481 13.8c.391.036.784.055 1.174.055a12.4 12.4 0 0 0 5.289-1.18 1.035 1.035 0 0 1 .709-.083l2.917.809a1.9 1.9 0 0 0 2.374-2.226l-.617-2.928a1.039 1.039 0 0 1 .133-.715A12.325 12.325 0 0 0 42.768 29z" style="fill:#c8efc5;stroke:#a0d89b" transform="translate(-2.25 -2.334)"/>
    <path data-name="Path 2662" d="M35.236 36.188a.952.952 0 0 1-.857-.527l-3.9-7.82-3.9 7.82a.953.953 0 1 1-1.7-.851l4.762-9.523a.992.992 0 0 1 1.7 0l4.762 9.523a.952.952 0 0 1-.857 1.378z" style="fill:#047401" transform="translate(-2.25 -2.334)"/>
    <path data-name="Path 2663" d="M27.121 33.476a.952.952 0 0 1-.018-1.9l6.707-.125a.952.952 0 1 1 .035 1.9l-6.707.125z" style="fill:#047401" transform="translate(-2.25 -2.334)"/>
    <path data-name="Path 2664" d="M25.627 6.772a13.328 13.328 0 0 0-21.026 16 1.015 1.015 0 0 1 .132.709l-.707 3.361A1.9 1.9 0 0 0 6.4 29.068l3.34-.928a1.023 1.023 0 0 1 .713.084 13.289 13.289 0 0 0 5.744 1.3 13.809 13.809 0 0 0 2.014-.149 13.333 13.333 0 0 0 7.416-22.6z" style="fill:#c8efc5;stroke:#a0d89b" transform="translate(-2.25 -2.334)"/>
    <g data-name="Group 2327">
        <path data-name="Path 2665" d="M16.19 21.9a5.714 5.714 0 1 1 5.71-5.71 5.714 5.714 0 0 1-5.71 5.71zm0-9.523A3.809 3.809 0 1 0 20 16.19a3.809 3.809 0 0 0-3.81-3.81z" style="fill:#047401" transform="translate(-2.25 -2.334)"/>
        <path data-name="Path 2666" d="M20.951 22.856a.952.952 0 0 1-.673-.279l-3.809-3.809a.952.952 0 1 1 1.347-1.347l3.809 3.809a.952.952 0 0 1-.673 1.626z" style="fill:#047401" transform="translate(-2.25 -2.334)"/>
    </g>
</svg>
