<svg xmlns="http://www.w3.org/2000/svg" width="40" height="40" viewBox="0 0 40 40">
    <defs>
        <clipPath id="tqjkjaxkba">
            <path data-name="Rectangle 4829" transform="translate(812 2675)" style="fill:#fff;stroke:#707070" d="M0 0h40v40H0z"/>
        </clipPath>
    </defs>
    <g data-name="Mask Group 320" transform="translate(-812 -2675)" style="clip-path:url(#tqjkjaxkba)">
        <g data-name="eye (2)">
            <g data-name="Group 2406">
                <g data-name="Group 2405">
                    <g data-name="Path 2837" style="fill:#c8efc5">
                        <path d="M20 32.834c-4.024 0-7.975-1.243-11.425-3.594C5.284 26.997 2.517 23.806.56 20c1.956-3.806 4.723-6.997 8.014-9.24C12.025 8.41 15.976 7.168 20 7.168c4.024 0 7.975 1.242 11.425 3.594 3.291 2.242 6.058 5.433 8.014 9.239-1.956 3.806-4.723 6.997-8.014 9.24-3.45 2.35-7.4 3.594-11.425 3.594zm0-21.667c-4.87 0-8.833 3.962-8.833 8.833 0 4.87 3.962 8.833 8.833 8.833 4.87 0 8.833-3.962 8.833-8.833 0-4.87-3.962-8.833-8.833-8.833z" style="stroke:none" transform="translate(812 2675)"/>
                        <path d="M20 7.667c-3.923 0-7.777 1.212-11.143 3.507C5.7 13.324 3.035 16.369 1.124 20c1.91 3.631 4.576 6.676 7.732 8.827 3.367 2.294 7.22 3.507 11.144 3.507 3.923 0 7.777-1.213 11.144-3.507C34.3 26.676 36.965 23.63 38.876 20c-1.91-3.63-4.576-6.675-7.733-8.826C27.777 8.879 23.923 7.667 20 7.667m0 21.666c-5.147 0-9.333-4.186-9.333-9.333s4.186-9.333 9.333-9.333 9.333 4.186 9.333 9.333-4.186 9.333-9.333 9.333m0-22.666c8.551 0 16 5.37 20 13.333-4 7.964-11.449 13.334-20 13.334S4 27.964 0 20C4 12.038 11.449 6.667 20 6.667zm0 21.666A8.333 8.333 0 0 0 28.333 20 8.333 8.333 0 0 0 20 11.667 8.333 8.333 0 0 0 11.667 20 8.333 8.333 0 0 0 20 28.333z" style="fill:#a1d89c;stroke:none" transform="translate(812 2675)"/>
                    </g>
                </g>
            </g>
            <g data-name="Group 2408">
                <g data-name="Group 2407" transform="translate(812 2675)">
                    <circle data-name="Ellipse 415" cx="5" cy="5" r="5" transform="translate(15 15)" style="fill:#047600"/>
                </g>
            </g>
        </g>
    </g>
</svg>
