<svg xmlns="http://www.w3.org/2000/svg" width="316" height="400" viewBox="0 0 316 400">
    <defs>
        <linearGradient id="bnh81hw3ha" y1=".5" x2="1" y2=".5" gradientUnits="objectBoundingBox">
            <stop offset="0" stop-color="#c6ffda"/>
            <stop offset="1" stop-color="#f2fff7"/>
        </linearGradient>
        <linearGradient id="z5uwzy5p4b" x1="1.626" y1="-.673" x2="9.502" y2="-8.874" gradientUnits="objectBoundingBox">
            <stop offset="0" stop-color="#41b76b"/>
            <stop offset="1" stop-color="#136f33"/>
        </linearGradient>
        <linearGradient id="jqiz85az2c" y1=".5" x2="1" y2=".5" gradientUnits="objectBoundingBox">
            <stop offset="0" stop-color="#17893f"/>
            <stop offset="1" stop-color="#92e2ae"/>
        </linearGradient>
        <linearGradient id="iej414it3d" x1=".005" y1=".996" x2=".997" y2=".002" gradientUnits="objectBoundingBox">
            <stop offset="0" stop-color="#b5f2cb"/>
            <stop offset="1" stop-color="#f4fff8"/>
        </linearGradient>
        <linearGradient id="k0278frl5e" x1=".267" y1="2.41" x2="1.422" y2="2.41" gradientUnits="objectBoundingBox">
            <stop offset="0" stop-color="#117132"/>
            <stop offset="1" stop-color="#428058"/>
        </linearGradient>
        <linearGradient id="733aq1nb7f" x1=".267" y1="2.41" x2="1.422" y2="2.41" gradientUnits="objectBoundingBox">
            <stop offset="0" stop-color="#10602c"/>
            <stop offset="1" stop-color="#276c40"/>
        </linearGradient>
        <linearGradient id="5cre31lzjg" x1="-.15" y1="1" x2="1.005" y2="1" gradientUnits="objectBoundingBox">
            <stop offset="0" stop-color="#38ff7e"/>
            <stop offset="1" stop-color="#7ce3a0"/>
        </linearGradient>
        <linearGradient id="r6pj68zhwh" y1=".5" x2="1" y2=".5" gradientUnits="objectBoundingBox">
            <stop offset="0" stop-color="#289d51"/>
            <stop offset=".38" stop-color="#29c460"/>
            <stop offset="1" stop-color="#17893f"/>
        </linearGradient>
        <linearGradient id="qho7a48v6i" y1=".5" x2="1" y2=".5" gradientUnits="objectBoundingBox">
            <stop offset="0" stop-color="#bbdefb"/>
            <stop offset="1" stop-color="#f2f5ff"/>
        </linearGradient>
        <linearGradient id="8etymnhqpj" y1=".5" x2="1" y2=".5" gradientUnits="objectBoundingBox">
            <stop offset="0" stop-color="#89dea7"/>
            <stop offset="1" stop-color="#92d1a8"/>
        </linearGradient>
        <linearGradient id="2bhybgh3lk" y1=".5" x2="1" y2=".5" gradientUnits="objectBoundingBox">
            <stop offset="0" stop-color="#a3e5ba"/>
            <stop offset="1" stop-color="#b8eaca"/>
        </linearGradient>
    </defs>
    <g data-name="Layer 2" style="isolation:isolate">
        <g data-name="Layer 1">
            <g data-name="Group 2385" style="opacity:.361;mix-blend-mode:multiply;isolation:isolate">
                <path data-name="Path 2918" d="M306.876 303.42 136.511 407.263a1.648 1.648 0 0 1-1.487 0L2.346 333.328c-.463-.252-.512-.648-.106-.89l177.423-102.653a1.561 1.561 0 0 1 1.458.068l125.658 72.706c.415.261.454.641.097.861z" transform="translate(-.068 -7.439)" style="fill:rgba(23,137,63,.01)"/>
                <path data-name="Path 2919" d="M306.876 302.82 136.511 406.663a1.61 1.61 0 0 1-1.487 0L2.346 332.738c-.463-.252-.512-.648-.106-.89L179.663 229.2a1.561 1.561 0 0 1 1.458.068l125.62 72.725c.453.237.492.614.135.827z" transform="translate(-.068 -7.42)" style="fill:rgba(23,137,63,.01)"/>
                <path data-name="Path 2920" d="M306.876 302.23 136.511 406.053a1.619 1.619 0 0 1-1.487 0L2.346 332.148c-.463-.261-.512-.658-.106-.89L179.663 228.6a1.619 1.619 0 0 1 1.458.068L306.74 301.4c.454.24.493.617.136.83z" transform="translate(-.068 -7.401)" style="fill:rgba(23,137,63,.01)"/>
                <path data-name="Path 2921" d="M306.876 301.639 136.511 405.482a1.648 1.648 0 0 1-1.487 0L2.346 331.529c-.463-.261-.512-.658-.106-.89L179.663 228a1.59 1.59 0 0 1 1.458.068l125.62 72.725c.453.256.492.624.135.846z" transform="translate(-.068 -7.381)" style="fill:rgba(23,137,63,.01)"/>
                <path data-name="Path 2922" d="M306.876 301.05 136.511 404.893a1.648 1.648 0 0 1-1.487 0L2.346 330.958c-.463-.252-.512-.648-.106-.89l177.423-102.653a1.561 1.561 0 0 1 1.458.068l125.62 72.725c.453.242.492.619.135.842z" transform="translate(-.068 -7.363)" style="fill:rgba(23,137,63,.01)"/>
                <path data-name="Path 2923" d="M306.876 300.45 136.511 404.293a1.61 1.61 0 0 1-1.487 0L2.346 330.368c-.463-.252-.512-.648-.106-.89l177.423-102.653a1.561 1.561 0 0 1 1.458.068l125.62 72.725c.453.242.492.619.135.832z" transform="translate(-.068 -7.343)" style="fill:rgba(23,137,63,.01)"/>
                <path data-name="Path 2924" d="M306.876 299.86 136.511 403.7a1.619 1.619 0 0 1-1.487 0L2.346 329.778c-.463-.261-.512-.658-.106-.89l177.423-102.663a1.619 1.619 0 0 1 1.458.068l125.62 72.735c.453.242.492.619.135.832z" transform="translate(-.068 -7.324)" style="fill:rgba(23,137,63,.01)"/>
                <path data-name="Path 2925" d="M306.876 299.27 136.511 403.113a1.648 1.648 0 0 1-1.487 0L2.346 329.188c-.463-.261-.512-.658-.106-.89l177.423-102.663a1.59 1.59 0 0 1 1.458.068l125.62 72.725c.453.251.492.619.135.842z" transform="translate(-.068 -7.305)" style="fill:rgba(23,137,63,.01)"/>
                <path data-name="Path 2926" d="M306.876 298.68 136.511 402.523a1.648 1.648 0 0 1-1.487 0L2.346 328.588c-.463-.252-.512-.648-.106-.89l177.423-102.653a1.561 1.561 0 0 1 1.458.068l125.62 72.725c.453.242.492.619.135.842z" transform="translate(-.068 -7.286)" style="fill:rgba(23,137,63,.01)"/>
                <path data-name="Path 2927" d="M306.876 298.08 136.511 401.923a1.61 1.61 0 0 1-1.487 0L2.346 328c-.463-.252-.512-.648-.106-.89l177.423-102.655a1.561 1.561 0 0 1 1.458.068l125.62 72.725c.453.242.492.619.135.832z" transform="translate(-.068 -7.267)" style="fill:rgba(23,137,63,.01)"/>
                <path data-name="Path 2928" d="m306.876 297.528-170.364 103.8a1.619 1.619 0 0 1-1.487 0L2.346 327.408c-.463-.261-.512-.658-.106-.89l177.423-102.663a1.619 1.619 0 0 1 1.458.068l125.62 72.735c.453.242.492.619.135.87z" transform="translate(-.068 -7.247)" style="fill:rgba(23,137,63,.01)"/>
                <path data-name="Path 2929" d="M306.876 296.9 136.511 400.743a1.648 1.648 0 0 1-1.487 0L2.346 326.818c-.463-.261-.512-.658-.106-.89l177.423-102.663a1.59 1.59 0 0 1 1.458.068l125.62 72.725c.453.251.492.619.135.842z" transform="translate(-.068 -7.228)" style="fill:rgba(23,137,63,.01)"/>
                <path data-name="Path 2930" d="M306.876 296.31 136.511 400.153a1.648 1.648 0 0 1-1.487 0L2.346 326.218c-.463-.252-.512-.648-.106-.89l177.423-102.653a1.561 1.561 0 0 1 1.458.068l125.62 72.725c.453.242.492.619.135.842z" transform="translate(-.068 -7.209)" style="fill:rgba(23,137,63,.01)"/>
                <path data-name="Path 2931" d="M306.876 295.71 136.511 399.553a1.61 1.61 0 0 1-1.487 0L2.346 325.628c-.463-.252-.512-.648-.106-.89l177.423-102.653a1.561 1.561 0 0 1 1.458.068l125.62 72.725c.453.242.492.658.135.832z" transform="translate(-.068 -7.19)" style="fill:rgba(23,137,63,.01)"/>
                <path data-name="Path 2932" d="M306.876 295.12 136.511 398.963a1.619 1.619 0 0 1-1.487 0L2.346 325.038c-.463-.261-.512-.658-.106-.89l177.423-102.663a1.619 1.619 0 0 1 1.458.068l125.62 72.735c.453.261.492.619.135.832z" transform="translate(-.068 -7.171)" style="fill:rgba(23,137,63,.01)"/>
                <path data-name="Path 2933" d="M306.876 294.53 136.511 398.373a1.648 1.648 0 0 1-1.487 0L2.346 324.448c-.463-.261-.512-.658-.106-.89L179.663 220.9a1.59 1.59 0 0 1 1.458.068l125.62 72.725c.453.246.492.614.135.837z" transform="translate(-.068 -7.151)" style="fill:rgba(23,137,63,.01)"/>
                <path data-name="Path 2934" d="M306.876 293.94 136.511 397.783a1.648 1.648 0 0 1-1.487 0L2.346 323.848c-.463-.252-.512-.648-.106-.89l177.423-102.653a1.561 1.561 0 0 1 1.458.068L306.74 293.1c.454.24.493.617.136.84z" transform="translate(-.068 -7.132)" style="fill:rgba(23,137,63,.01)"/>
                <path data-name="Path 2935" d="M306.876 293.34 136.511 397.183a1.61 1.61 0 0 1-1.487 0L2.346 323.258c-.463-.252-.512-.648-.106-.89l177.423-102.653a1.561 1.561 0 0 1 1.458.068l125.658 72.773c.415.194.454.571.097.784z" transform="translate(-.068 -7.113)" style="fill:rgba(23,137,63,.01)"/>
                <path data-name="Path 2936" d="M306.876 292.75 136.511 396.593a1.619 1.619 0 0 1-1.487 0L2.346 322.668c-.463-.261-.512-.658-.106-.89l177.423-102.663a1.619 1.619 0 0 1 1.458.068l125.62 72.735c.453.242.492.619.135.832z" transform="translate(-.068 -7.094)" style="fill:rgba(23,137,63,.01)"/>
                <path data-name="Path 2937" d="M306.876 292.16 136.511 396.051a1.648 1.648 0 0 1-1.487 0L2.346 322.078c-.463-.261-.512-.658-.106-.89l177.423-102.663a1.59 1.59 0 0 1 1.458.068l125.62 72.725c.453.232.492.619.135.842z" transform="translate(-.068 -7.075)" style="fill:rgba(23,137,63,.01)"/>
                <path data-name="Path 2938" d="M306.876 291.531 136.511 395.413a1.648 1.648 0 0 1-1.487 0L2.346 321.526c-.463-.252-.512-.648-.106-.89l177.422-102.7a1.561 1.561 0 0 1 1.458.068l125.62 72.725c.454.241.493.618.136.802z" transform="translate(-.068 -7.055)" style="fill:rgba(23,137,63,.01)"/>
                <path data-name="Path 2939" d="M306.876 290.97 136.511 394.813a1.61 1.61 0 0 1-1.487 0L2.346 320.888c-.463-.252-.512-.648-.106-.89l177.423-102.653a1.561 1.561 0 0 1 1.458.068l125.62 72.725c.453.242.492.619.135.832z" transform="translate(-.068 -7.036)" style="fill:rgba(23,137,63,.01)"/>
                <path data-name="Path 2940" d="M306.876 290.38 136.511 394.223a1.619 1.619 0 0 1-1.487 0L2.346 320.3c-.463-.261-.512-.658-.106-.89l177.423-102.665a1.619 1.619 0 0 1 1.458.068l125.658 72.744c.415.233.454.61.097.823z" transform="translate(-.068 -7.017)" style="fill:rgba(23,137,63,.01)"/>
                <path data-name="Path 2941" d="M306.876 289.79 136.511 393.633a1.648 1.648 0 0 1-1.487 0L2.346 319.708c-.463-.261-.512-.658-.106-.89l177.423-102.663a1.59 1.59 0 0 1 1.458.068l125.62 72.725c.453.252.492.59.135.842z" transform="translate(-.068 -6.998)" style="fill:rgba(23,137,63,.01)"/>
                <path data-name="Path 2942" d="M306.876 289.2 136.511 393.052a1.648 1.648 0 0 1-1.487 0L2.346 319.108c-.463-.252-.512-.648-.106-.89l177.423-102.653a1.561 1.561 0 0 1 1.458.068l125.62 72.725c.453.242.492.619.135.842z" transform="translate(-.068 -6.979)" style="fill:rgba(23,137,63,.01)"/>
                <path data-name="Path 2943" d="M306.876 288.6 136.511 392.444a1.61 1.61 0 0 1-1.487 0L2.346 318.528c-.463-.252-.512-.648-.106-.89L179.663 215a1.561 1.561 0 0 1 1.458.068l125.62 72.725c.453.217.492.595.135.807z" transform="translate(-.068 -6.96)" style="fill:rgba(23,137,63,.01)"/>
                <path data-name="Path 2944" d="M306.876 288.01 136.511 391.853a1.619 1.619 0 0 1-1.487 0L2.346 317.928c-.463-.261-.512-.658-.106-.89l177.423-102.663a1.619 1.619 0 0 1 1.458.068l125.62 72.735c.453.242.492.622.135.832z" transform="translate(-.068 -6.94)" style="fill:rgba(23,137,63,.01)"/>
                <path data-name="Path 2945" d="M306.876 287.42 136.511 391.263a1.648 1.648 0 0 1-1.487 0L2.346 317.338c-.463-.261-.512-.658-.106-.89l177.423-102.663a1.59 1.59 0 0 1 1.458.068l125.658 72.706c.415.27.454.641.097.861z" transform="translate(-.068 -6.921)" style="fill:rgba(23,137,63,.01)"/>
                <path data-name="Path 2946" d="M306.876 286.83 136.511 390.673a1.648 1.648 0 0 1-1.487 0L2.346 316.738c-.463-.252-.512-.648-.106-.89L179.663 213.2a1.561 1.561 0 0 1 1.458.068l125.62 72.725c.453.237.492.614.135.837z" transform="translate(-.068 -6.902)" style="fill:rgba(23,137,63,.01)"/>
                <path data-name="Path 2947" d="M306.876 286.23 136.511 390.054a1.61 1.61 0 0 1-1.487 0L2.346 316.148c-.463-.252-.512-.648-.106-.89l177.423-102.653a1.561 1.561 0 0 1 1.458.068L306.74 285.4c.454.24.493.617.136.83z" transform="translate(-.068 -6.883)" style="fill:rgba(23,137,63,.01)"/>
                <path data-name="Path 2948" d="M306.876 285.639 136.511 389.482a1.619 1.619 0 0 1-1.487 0L2.346 315.529c-.463-.261-.512-.658-.106-.89L179.663 212a1.619 1.619 0 0 1 1.458.068L306.74 284.8c.454.249.493.627.136.839z" transform="translate(-.068 -6.863)" style="fill:rgba(23,137,63,.01)"/>
                <path data-name="Path 2949" d="M306.876 285.05 136.511 388.893a1.648 1.648 0 0 1-1.487 0L2.346 314.968c-.463-.261-.512-.658-.106-.89l177.423-102.663a1.59 1.59 0 0 1 1.458.068l125.62 72.725c.453.251.492.619.135.842z" transform="translate(-.068 -6.844)" style="fill:rgba(23,137,63,.01)"/>
                <path data-name="Path 2950" d="M306.876 284.46 136.511 388.3a1.648 1.648 0 0 1-1.487 0L2.346 314.368c-.463-.252-.512-.648-.106-.89l177.423-102.653a1.561 1.561 0 0 1 1.458.068l125.62 72.725c.453.242.492.619.135.842z" transform="translate(-.068 -6.825)" style="fill:rgba(23,137,63,.01)"/>
                <path data-name="Path 2951" d="M306.876 283.86 136.511 387.7a1.61 1.61 0 0 1-1.487 0L2.346 313.778c-.463-.252-.512-.648-.106-.89l177.423-102.653a1.561 1.561 0 0 1 1.458.068l125.62 72.725c.453.242.492.619.135.832z" transform="translate(-.068 -6.806)" style="fill:rgba(23,137,63,.01)"/>
                <path data-name="Path 2952" d="M306.876 283.27 136.511 387.113a1.619 1.619 0 0 1-1.487 0L2.346 313.188c-.463-.261-.512-.658-.106-.89l177.423-102.663a1.619 1.619 0 0 1 1.458.068l125.62 72.735c.453.242.492.619.135.832z" transform="translate(-.068 -6.787)" style="fill:rgba(23,137,63,.01)"/>
                <path data-name="Path 2953" d="M306.876 282.68 136.511 386.523a1.648 1.648 0 0 1-1.487 0L2.346 312.6c-.463-.261-.512-.658-.106-.89l177.423-102.665a1.59 1.59 0 0 1 1.458.068l125.62 72.725c.453.251.492.619.135.842z" transform="translate(-.068 -6.767)" style="fill:rgba(23,137,63,.01)"/>
                <path data-name="Path 2954" d="M306.876 282.09 136.511 385.933a1.648 1.648 0 0 1-1.487 0L2.346 312c-.463-.252-.512-.648-.106-.89l177.423-102.655a1.561 1.561 0 0 1 1.458.068l125.62 72.725c.453.242.492.619.135.842z" transform="translate(-.068 -6.748)" style="fill:rgba(23,137,63,.01)"/>
                <path data-name="Path 2955" d="m306.876 281.529-170.364 103.8a1.61 1.61 0 0 1-1.487 0L2.346 311.408c-.463-.252-.512-.648-.106-.89l177.423-102.653a1.561 1.561 0 0 1 1.458.068l125.62 72.725c.453.242.492.619.135.871z" transform="translate(-.068 -6.729)" style="fill:rgba(23,137,63,.01)"/>
                <path data-name="Path 2956" d="M306.876 280.9 136.511 384.743a1.619 1.619 0 0 1-1.487 0L2.346 310.818c-.463-.261-.512-.658-.106-.89l177.423-102.663a1.619 1.619 0 0 1 1.458.068l125.62 72.735c.453.242.492.619.135.832z" transform="translate(-.068 -6.71)" style="fill:rgba(23,137,63,.01)"/>
                <path data-name="Path 2957" d="M306.876 280.31 136.511 384.153a1.648 1.648 0 0 1-1.487 0L2.346 310.228c-.463-.261-.512-.658-.106-.89l177.423-102.663a1.59 1.59 0 0 1 1.458.068l125.62 72.725c.453.251.492.619.135.842z" transform="translate(-.068 -6.691)" style="fill:rgba(23,137,63,.01)"/>
                <path data-name="Path 2958" d="M306.876 279.72 136.511 383.563a1.648 1.648 0 0 1-1.487 0L2.346 309.628c-.463-.252-.512-.648-.106-.89l177.423-102.653a1.561 1.561 0 0 1 1.458.068l125.62 72.725c.453.242.492.658.135.842z" transform="translate(-.068 -6.671)" style="fill:rgba(23,137,63,.01)"/>
                <path data-name="Path 2959" d="M306.876 279.12 136.511 382.963a1.61 1.61 0 0 1-1.487 0L2.346 309.038c-.463-.252-.512-.648-.106-.89L179.663 205.5a1.561 1.561 0 0 1 1.458.068l125.62 72.725c.453.256.492.614.135.827z" transform="translate(-.068 -6.652)" style="fill:rgba(23,137,63,.01)"/>
            </g>
            <path data-name="Path 2960" d="M306.876 274.26 136.511 378.1a1.619 1.619 0 0 1-1.487 0L2.346 304.178c-.463-.252-.512-.658-.106-.89l177.423-102.663a1.619 1.619 0 0 1 1.458.068l125.62 72.735c.453.242.492.619.135.832z" transform="translate(-.068 -6.495)" style="fill:url(#bnh81hw3ha)"/>
            <path data-name="Path 2961" d="m58.937 306.47-8.314 4.838a.964.964 0 0 1-.869 0l-8.082-4.49c-.251-.145-.28-.368-.058-.493l8.352-4.838a.964.964 0 0 1 .859 0l8.062 4.528c.253.106.272.329.05.455z" transform="translate(-1.428 -9.764)" style="fill:url(#z5uwzy5p4b)"/>
            <path data-name="Path 2962" d="m70.74 299.6-8.285 4.838a.964.964 0 0 1-.859 0l-8.043-4.538c-.251-.135-.28-.358-.058-.493l8.314-4.838a.964.964 0 0 1 .859 0l8.014 4.528c.251.143.27.366.058.503z" transform="translate(-1.837 -9.54)" style="fill:url(#z5uwzy5p4b)"/>
            <path data-name="Path 2963" d="m82.469 292.749-8.342 4.838a.964.964 0 0 1-.85 0l-8.014-4.528c-.251-.145-.28-.368-.058-.493l8.381-4.838a.964.964 0 0 1 .85 0l7.947 4.528c.279.144.308.367.086.493z" transform="translate(-2.24 -9.319)" style="fill:url(#z5uwzy5p4b)"/>
            <path data-name="Path 2964" d="m94.045 286-8.2 4.79a.964.964 0 0 1-.85 0l-8-4.548c-.251-.145-.27-.368 0-.493l8.227-4.838a.964.964 0 0 1 .85 0l7.947 4.528c.219.209.248.393.026.561z" transform="translate(-2.645 -9.098)" style="fill:url(#z5uwzy5p4b)"/>
            <path data-name="Path 2965" d="m105.665 279.219-8.265 4.838a.964.964 0 0 1-.84 0l-7.937-4.528c-.251-.135-.27-.358 0-.484l8.294-4.838a.964.964 0 0 1 .84 0l7.908 4.528a.266.266 0 0 1 0 .484z" transform="translate(-3.045 -8.881)" style="fill:url(#z5uwzy5p4b)"/>
            <path data-name="Path 2966" d="m117.132 272.529-8.12 4.751a.964.964 0 0 1-.84 0l-7.9-4.528c-.241-.145-.27-.358 0-.484l8.149-4.751a.964.964 0 0 1 .84 0l7.869 4.528c.195.145.253.355.002.484z" transform="translate(-3.446 -8.664)" style="fill:url(#z5uwzy5p4b)"/>
            <path data-name="Path 2967" d="m128.645 265.829-8.082 4.722a.964.964 0 0 1-.84 0l-7.85-4.528c-.251-.145-.27-.358-.058-.484l8.111-4.722a.9.9 0 0 1 .84 0l7.831 4.528c.241.126.26.348.048.484z" transform="translate(-3.845 -8.447)" style="fill:url(#z5uwzy5p4b)"/>
            <path data-name="Path 2968" d="m140.094 259.129-8.14 4.77a.964.964 0 0 1-.83 0l-7.821-4.528c-.251-.145-.27-.368-.058-.493l8.178-4.761a.964.964 0 0 1 .83 0l7.792 4.528c.242.194.271.355.049.484z" transform="translate(-4.239 -8.23)" style="fill:url(#z5uwzy5p4b)"/>
            <path data-name="Path 2969" d="m151.4 252.548-8 4.674a.906.906 0 0 1-.83 0l-7.782-4.528c-.241-.145-.27-.358 0-.484l8.034-4.683a.887.887 0 0 1 .821 0l7.725 4.528c.226.145.245.368.032.493z" transform="translate(-4.635 -8.016)" style="fill:url(#z5uwzy5p4b)"/>
            <path data-name="Path 2970" d="m162.741 245.93-8.053 4.741a.964.964 0 0 1-.821 0l-7.725-4.528c-.241-.145-.261-.358-.048-.484l8.091-4.722a.964.964 0 0 1 .83 0l7.725 4.528a.251.251 0 0 1 .001.465z" transform="translate(-5.026 -7.803)" style="fill:url(#z5uwzy5p4b)"/>
            <path data-name="Path 2971" d="m173.936 239.4-7.927 4.635a.964.964 0 0 1-.821 0l-7.725-4.528c-.241-.145-.261-.358 0-.484l7.956-4.635a.964.964 0 0 1 .821 0l7.725 4.528a.278.278 0 0 1-.029.484z" transform="translate(-5.416 -7.591)" style="fill:url(#z5uwzy5p4b)"/>
            <path data-name="Path 2972" d="m185.179 232.829-7.889 4.615a.964.964 0 0 1-.821 0l-7.676-4.528c-.241-.145-.261-.358-.048-.484l7.918-4.615a.964.964 0 0 1 .821 0l7.647 4.528c.269.155.269.378.048.484z" transform="translate(-5.806 -7.378)" style="fill:url(#z5uwzy5p4b)"/>
            <path data-name="Path 2973" d="m196.263 226.378-7.85 4.586a.964.964 0 0 1-.821 0l-7.6-4.557c-.232-.145-.261-.358-.048-.484l7.879-4.586a.964.964 0 0 1 .821 0l7.609 4.528c.155.174.222.387.01.513z" transform="translate(-6.192 -7.168)" style="fill:url(#z5uwzy5p4b)"/>
            <path data-name="Path 2974" d="m87.1 303.267-8.323 4.886a.964.964 0 0 1-.859 0l-8.091-4.567c-.251-.135-.28-.358-.058-.484l8.362-4.9a.964.964 0 0 1 .85 0l8.072 4.567c.237.15.314.372.047.498z" transform="translate(-2.397 -9.658)" style="fill:url(#z5uwzy5p4b)"/>
            <path data-name="Path 2975" d="m98.653 296.5-8.188 4.838a.964.964 0 0 1-.84 0l-8.062-4.567c-.251-.135-.27-.358-.058-.484l8.217-4.838a.964.964 0 0 1 .85 0l8.033 4.567c.241.133.27.356.048.484z" transform="translate(-2.802 -9.439)" style="fill:url(#z5uwzy5p4b)"/>
            <path data-name="Path 2976" d="m110.253 289.7-8.246 4.838a.964.964 0 0 1-.85 0l-8.014-4.567c-.251-.135-.27-.358-.058-.484l8.285-4.838a.964.964 0 0 1 .84 0l7.985 4.567c.251.133.28.356.058.484z" transform="translate(-3.2 -9.219)" style="fill:url(#z5uwzy5p4b)"/>
            <path data-name="Path 2977" d="m121.7 282.988-8.111 4.761a.9.9 0 0 1-.84 0l-7.976-4.567c-.251-.145-.27-.358-.058-.484l8.14-4.761a.964.964 0 0 1 .84 0l7.947 4.567c.25.145.269.329.058.484z" transform="translate(-3.601 -9.001)" style="fill:url(#z5uwzy5p4b)"/>
            <path data-name="Path 2978" d="M133.192 276.258 125.12 281a.906.906 0 0 1-.83 0l-7.947-4.567c-.251-.135-.27-.358-.058-.484l8.1-4.741a.964.964 0 0 1 .84 0l7.908 4.567c.252.134.252.357.059.483z" transform="translate(-3.999 -8.783)" style="fill:url(#z5uwzy5p4b)"/>
            <path data-name="Path 2979" d="m144.621 269.557-8.13 4.77a.964.964 0 0 1-.83 0l-7.908-4.567c-.241-.145-.27-.358-.048-.493l8.159-4.77a.906.906 0 0 1 .83 0l7.879 4.567c.241.145.261.367.048.493z" transform="translate(-4.392 -8.566)" style="fill:url(#z5uwzy5p4b)"/>
            <path data-name="Path 2980" d="m155.9 262.949-7.985 4.722a.906.906 0 0 1-.83 0l-7.869-4.567c-.241-.135-.27-.358-.048-.484l8.014-4.693a.964.964 0 0 1 .83 0l7.84 4.567c.239.116.258.339.048.455z" transform="translate(-4.787 -8.353)" style="fill:url(#z5uwzy5p4b)"/>
            <path data-name="Path 2981" d="m167.227 256.308-8.053 4.732a.887.887 0 0 1-.821 0l-7.84-4.567c-.241-.145-.261-.358-.048-.484l8.082-4.732a.887.887 0 0 1 .821 0l7.8 4.557c.223.155.271.368.059.494z" transform="translate(-5.176 -8.137)" style="fill:url(#z5uwzy5p4b)"/>
            <path data-name="Path 2982" d="m184.766 245.9-14.281 8.389a.964.964 0 0 1-.821 0l-7.792-4.586c-.241-.145-.27-.358-.058-.484l14.339-8.389a.9.9 0 0 1 .811 0l7.725 4.557c.261.171.29.384.077.513z" transform="translate(-5.567 -7.799)" style="fill:url(#z5uwzy5p4b)"/>
            <path data-name="Path 2983" d="m196.179 239.338-7.85 4.615a.867.867 0 0 1-.811 0l-7.725-4.567c-.241-.135-.261-.358-.048-.474l7.879-4.615a.964.964 0 0 1 .821 0l7.725 4.567c.23.145.23.358.009.474z" transform="translate(-6.185 -7.588)" style="fill:url(#z5uwzy5p4b)"/>
            <path data-name="Path 2984" d="m207.21 232.877-7.811 4.586a.867.867 0 0 1-.811 0l-7.725-4.567c-.232-.135-.261-.358 0-.474l7.85-4.625a.877.877 0 0 1 .8 0l7.676 4.557c.211.184.211.397.021.523z" transform="translate(-6.566 -7.377)" style="fill:url(#z5uwzy5p4b)"/>
            <path data-name="Path 2985" d="m105.285 305.67-8.265 4.838a.964.964 0 0 1-.85 0l-7.937-4.49c-.251-.145-.27-.358 0-.493l8.294-4.838a.964.964 0 0 1 .84 0l7.908 4.48c.203.155.225.367.01.503z" transform="translate(-3.032 -9.739)" style="fill:url(#z5uwzy5p4b)"/>
            <path data-name="Path 2986" d="m116.753 298.917-8.072 4.751a.964.964 0 0 1-.85 0l-7.9-4.49c-.241-.145-.27-.358 0-.484l8.149-4.838a.964.964 0 0 1 .85 0l7.86 4.48c.156.233.176.494-.037.581z" transform="translate(-3.435 -9.517)" style="fill:url(#z5uwzy5p4b)"/>
            <path data-name="Path 2987" d="m128.261 292.14-8.188 4.838a.964.964 0 0 1-.83 0l-7.86-4.49c-.251-.145-.27-.358-.058-.493l8.217-4.838a.964.964 0 0 1 .84 0l7.831 4.49c.241.193.27.353.048.493z" transform="translate(-3.829 -9.3)" style="fill:url(#z5uwzy5p4b)"/>
            <path data-name="Path 2988" d="m139.617 285.451-8.043 4.751a.906.906 0 0 1-.83 0l-7.821-4.49c-.251-.135-.27-.358-.058-.484l8.072-4.741a.964.964 0 0 1 .84 0l7.792 4.49c.241.135.27.348.048.474z" transform="translate(-4.226 -9.084)" style="fill:url(#z5uwzy5p4b)"/>
            <path data-name="Path 2989" d="m151.03 278.74-8 4.722a.906.906 0 0 1-.83 0l-7.792-4.49c-.241-.135-.27-.358 0-.484l8.034-4.722a.906.906 0 0 1 .83 0l7.725 4.49c.217.136.246.358.033.484z" transform="translate(-4.622 -8.866)" style="fill:url(#z5uwzy5p4b)"/>
            <path data-name="Path 2990" d="m162.4 272.05-8.072 4.761a.964.964 0 0 1-.83 0l-7.725-4.49c-.241-.145-.27-.358-.058-.484l8.1-4.761a.906.906 0 0 1 .83 0l7.725 4.48c.194.155.223.368.03.494z" transform="translate(-5.013 -8.65)" style="fill:url(#z5uwzy5p4b)"/>
            <path data-name="Path 2991" d="m184.43 258.831-18.742 11.1a.887.887 0 0 1-.821 0l-7.725-4.49c-.241-.135-.261-.358-.048-.484l18.857-11.079a.867.867 0 0 1 .811 0l7.647 4.49c.204.132.233.347.021.463z" transform="translate(-5.405 -8.222)" style="fill:url(#z5uwzy5p4b)"/>
            <path data-name="Path 2992" d="m195.9 252.311-7.85 4.644a.964.964 0 0 1-.821 0l-7.638-4.48c-.241-.145-.261-.358 0-.484l7.879-4.635a.964.964 0 0 1 .821 0l7.609 4.49a.253.253 0 0 1 0 .465z" transform="translate(-6.178 -8.011)" style="fill:url(#z5uwzy5p4b)"/>
            <path data-name="Path 2993" d="m109.766 316.192-8.246 4.886a.964.964 0 0 1-.85 0l-7.918-4.47c-.251-.145-.28-.358-.058-.493l8.285-4.838a.964.964 0 0 1 .84 0l7.889 4.47c.251.097.27.319.058.445z" transform="translate(-3.187 -10.082)" style="fill:url(#z5uwzy5p4b)"/>
            <path data-name="Path 2994" d="m121.213 309.421-8.111 4.838a.964.964 0 0 1-.84 0l-7.879-4.47c-.251-.135-.27-.358-.058-.484l8.14-4.838a.964.964 0 0 1 .84 0l7.86 4.47c.221.136.27.363.048.484z" transform="translate(-3.588 -9.861)" style="fill:url(#z5uwzy5p4b)"/>
            <path data-name="Path 2995" d="m132.707 302.62-8.024 4.78a.9.9 0 0 1-.84 0l-7.85-4.48c-.241-.145-.27-.358 0-.493l8.1-4.78a.964.964 0 0 1 .83 0l7.821 4.47a.3.3 0 0 1-.037.503z" transform="translate(-3.988 -9.64)" style="fill:url(#z5uwzy5p4b)"/>
            <path data-name="Path 2996" d="m144.048 295.92-8.033 4.751a.906.906 0 0 1-.83 0l-7.811-4.461c-.241-.145-.27-.358-.058-.493l8.062-4.761a.906.906 0 0 1 .83 0l7.782 4.47c.242.146.271.407.058.494z" transform="translate(-4.379 -9.423)" style="fill:url(#z5uwzy5p4b)"/>
            <path data-name="Path 2997" d="m155.4 289.181-7.995 4.741a.906.906 0 0 1-.83 0l-7.725-4.461c-.241-.145-.261-.358-.048-.484l8.024-4.741a.964.964 0 0 1 .83 0l7.725 4.47c.244.137.263.35.019.475z" transform="translate(-4.775 -9.206)" style="fill:url(#z5uwzy5p4b)"/>
            <path data-name="Path 2998" d="m166.76 282.481-8.072 4.77a.964.964 0 0 1-.83 0l-7.725-4.47c-.241-.135-.27-.358-.048-.484l8.082-4.77a.906.906 0 0 1 .821 0l7.725 4.47c.23.136.259.358.047.484z" transform="translate(-5.163 -8.988)" style="fill:url(#z5uwzy5p4b)"/>
            <path data-name="Path 2999" d="m177.936 275.831-7.918 4.693a.887.887 0 0 1-.821 0l-7.725-4.461c-.251-.145-.27-.358-.058-.484l7.947-4.693a.887.887 0 0 1 .821 0l7.667 4.461c.27.184.299.397.087.484z" transform="translate(-5.554 -8.773)" style="fill:url(#z5uwzy5p4b)"/>
            <path data-name="Path 3000" d="m195.587 265.291-14.406 8.544a.887.887 0 0 1-.821 0l-7.667-4.47c-.241-.135-.261-.348 0-.474l14.483-8.554a.964.964 0 0 1 .821 0l7.609 4.47a.275.275 0 0 1-.019.484z" transform="translate(-5.94 -8.431)" style="fill:url(#z5uwzy5p4b)"/>
            <path data-name="Path 3001" d="m206.864 258.761-7.821 4.635a.9.9 0 0 1-.811 0l-7.609-4.47c-.232-.135-.261-.348 0-.474l7.85-4.635a.867.867 0 0 1 .811 0l7.57 4.461c.194.144.213.357.01.483z" transform="translate(-6.558 -8.22)" style="fill:url(#z5uwzy5p4b)"/>
            <path data-name="Path 3002" d="m209.33 234.248-18.655 10.963a.184.184 0 0 0 0 .348l18.452 10.886a.636.636 0 0 0 .589 0l7.947-4.712a.184.184 0 0 0 0-.348l-9.945-5.893c-.164-.087-.154-.242 0-.339l10.013-5.912a.184.184 0 0 0 0-.348l-7.821-4.644a.636.636 0 0 0-.579 0z" transform="translate(-6.562 -7.587)" style="fill:url(#z5uwzy5p4b)"/>
            <path data-name="Path 3003" d="m122.183 321.731-13.952 8.3a.963.963 0 0 1-.84 0l-7.9-4.451c-.251-.135-.27-.358-.058-.484l14-8.312a.964.964 0 0 1 .84 0l7.85 4.451c.254.148.283.37.06.496z" transform="translate(-3.419 -10.26)" style="fill:url(#z5uwzy5p4b)"/>
            <path data-name="Path 3004" d="m133.886 314.9-8.062 4.838a.964.964 0 0 1-.84 0l-7.84-4.451c-.241-.135-.27-.358-.048-.484l8.091-4.838a.964.964 0 0 1 .84 0l7.811 4.451c.241.137.27.36.048.484z" transform="translate(-4.027 -10.039)" style="fill:url(#z5uwzy5p4b)"/>
            <path data-name="Path 3005" d="m183.048 284.832-45.893 27.344a.964.964 0 0 1-.84 0l-7.8-4.451c-.241-.135-.27-.358-.048-.484l46.065-27.341a.964.964 0 0 1 .821 0l7.647 4.448c.28.164.3.377.048.484z" transform="translate(-4.419 -9.065)" style="fill:url(#z5uwzy5p4b)"/>
            <path data-name="Path 3006" d="m195.541 278.262-7.85 4.683a.887.887 0 0 1-.821 0l-7.638-4.441c-.241-.145-.27-.358-.058-.484l7.889-4.683a.9.9 0 0 1 .811 0l7.618 4.451c.242.135.262.348.049.474z" transform="translate(-6.165 -8.852)" style="fill:url(#z5uwzy5p4b)"/>
            <path data-name="Path 3007" d="m206.681 271.642-7.918 4.722a.964.964 0 0 1-.811 0l-7.609-4.451c-.241-.135-.261-.348 0-.474l7.947-4.722a.9.9 0 0 1 .811 0l7.58 4.451c.183.132.212.348 0 .474z" transform="translate(-6.548 -8.638)" style="fill:url(#z5uwzy5p4b)"/>
            <path data-name="Path 3008" d="m217.667 265.112-7.782 4.635a.867.867 0 0 1-.8 0l-7.57-4.451c-.241-.135-.261-.358-.058-.474l7.811-4.635a.887.887 0 0 1 .811 0l7.541 4.451c.24.135.259.348.047.474z" transform="translate(-6.933 -8.426)" style="fill:url(#z5uwzy5p4b)"/>
            <path data-name="Path 3009" d="m228.71 258.552-7.725 4.615a.848.848 0 0 1-.8 0l-7.531-4.441c-.241-.145-.261-.358-.058-.474l7.782-4.615a.848.848 0 0 1 .8 0l7.5 4.441c.216.145.235.358.032.474z" transform="translate(-7.316 -8.214)" style="fill:url(#z5uwzy5p4b)"/>
            <path data-name="Path 3010" d="m239.221 251.884-7.725 4.586a.848.848 0 0 1-.8 0l-17.9-10.644c-.232-.135-.261-.348-.048-.474l7.773-4.6a.877.877 0 0 1 .8 0l17.851 10.648c.228.146.251.358.049.484z" transform="translate(-7.321 -7.797)" style="fill:url(#z5uwzy5p4b)"/>
            <path data-name="Path 3011" d="m75.209 310.128-12.968 7.625a.964.964 0 0 1-.859 0l-8.149-4.567c-.251-.145-.28-.368-.058-.493l13.016-7.615a.964.964 0 0 1 .859 0l8.159 4.567c.203.134.232.355 0 .483z" transform="translate(-1.826 -9.881)" style="fill:url(#z5uwzy5p4b)"/>
            <path data-name="Path 3012" d="m92.991 312.7-19.214 11.34a.964.964 0 0 1-.85 0l-8.014-4.49c-.251-.135-.27-.358-.048-.493l19.311-11.331a.964.964 0 0 1 .85 0l7.947 4.49a.3.3 0 0 1 .018.484z" transform="translate(-2.228 -9.967)" style="fill:url(#z5uwzy5p4b)"/>
            <path data-name="Path 3013" d="m98 323.059-12.745 7.518a.964.964 0 0 1-.85 0l-7.976-4.47c-.251-.145-.27-.358-.058-.493l12.794-7.557a.964.964 0 0 1 .85 0l7.927 4.47c.274.184.274.397.058.532z" transform="translate(-2.625 -10.301)" style="fill:url(#z5uwzy5p4b)"/>
            <path data-name="Path 3014" d="m104.788 332.191-8.159 4.838a.964.964 0 0 1-.85 0l-7.937-4.441c-.251-.145-.27-.358-.058-.493l8.2-4.838a.964.964 0 0 1 .85 0l7.908 4.451c.239.135.268.358.046.483z" transform="translate(-3.018 -10.599)" style="fill:url(#z5uwzy5p4b)"/>
            <path data-name="Path 3015" d="m251.422 303.779-62.974 38.249-.743.455a.964.964 0 0 1-.879 0l-38.314-21.8c-.261-.155-.28-.387-.058-.523l64.693-38.7a.964.964 0 0 1 .869 0l.753.435 36.556 21.374c.29.142.31.375.097.51z" transform="translate(-5.107 -9.115)" style="fill:url(#z5uwzy5p4b)"/>
            <path data-name="Path 3016" d="m306.875 276.718-3.254 1.935-167.11 101.908a1.638 1.638 0 0 1-1.5 0L5.629 308.5l-3.312-1.848a.609.609 0 0 1-.367-.493v4.683a.609.609 0 0 0 .367.493l132.7 73.915a1.639 1.639 0 0 0 1.5 0l170.358-103.82a.455.455 0 0 0 .241-.377v-4.7a.436.436 0 0 1-.241.365z" transform="translate(-.067 -8.953)" style="fill:url(#jqiz85az2c)"/>
            <path data-name="Path 3017" d="M179.3 195.661 2.195 298.12c-.386.232-.7 0-.7-.523V144.861a1.685 1.685 0 0 1 .7-1.3L179.3 41.057c.386-.223.7 0 .7.532v152.727a1.675 1.675 0 0 1-.7 1.345z" transform="translate(-.051 -1.327)" style="fill:url(#iej414it3d)"/>
            <path data-name="Path 3018" d="M9.47 285.047V149.389a.968.968 0 0 1 .415-.8L172.1 54.728c.232-.135.425 0 .425.319v135.629a.968.968 0 0 1-.425.8L9.885 285.337c-.232.155-.415.019-.415-.29z" transform="translate(-.326 -1.771)" style="fill:#17893f"/>
            <path data-name="Path 3019" d="M179.769 41.052a.424.424 0 0 0-.521 0l-1.641.968L2.144 143.55a1.685 1.685 0 0 0-.7 1.335v152.7a.717.717 0 0 0 .135.464l-1.39-1.393a1.23 1.23 0 0 1-.189-.525V143.4a1.685 1.685 0 0 1 .7-1.345L176.2 40.568a.964.964 0 0 1 .628 0z" transform="translate(0 -1.313)" style="fill:url(#jqiz85az2c)"/>
            <g data-name="Group 2386" style="mix-blend-mode:screen;isolation:isolate">
                <path data-name="Path 3020" d="m249.079 111.591-30.029 17.368v-24.171l30.029-17.368z" transform="translate(-7.543 -2.832)" style="fill:url(#k0278frl5e)"/>
                <path data-name="Path 3021" d="m219.05 104.788 15.015 4.19 15.014-21.558z" transform="translate(-7.543 -2.832)" style="fill:url(#733aq1nb7f)"/>
            </g>
            <g data-name="Group 2387" style="mix-blend-mode:screen;isolation:isolate">
                <path data-name="Path 3022" d="m305.392 156.162-20.7 11.979v-16.672l20.7-11.979z" transform="translate(-9.804 -4.519)" style="fill:url(#k0278frl5e)"/>
                <path data-name="Path 3023" d="m284.69 151.469 10.351 2.883 10.351-14.862z" transform="translate(-9.804 -4.519)" style="fill:url(#733aq1nb7f)"/>
            </g>
            <g data-name="Group 2388" style="mix-blend-mode:screen;isolation:isolate">
                <path data-name="Path 3024" d="m310.445 77.405-15.015 8.689V74.009l15.015-8.689z" transform="translate(-10.174 -2.116)" style="fill:url(#k0278frl5e)"/>
                <path data-name="Path 3025" d="m295.43 74.009 7.5 2.09 7.512-10.779z" transform="translate(-10.174 -2.116)" style="fill:url(#733aq1nb7f)"/>
            </g>
            <path data-name="Path 3026" d="m204.987 197.01-53.067 30.7v-42.72l53.067-30.7z" transform="translate(-5.232 -4.999)" style="fill:url(#5cre31lzjg)"/>
            <path data-name="Path 3027" d="m151.92 184.992 26.534 9.8 26.534-40.5z" transform="translate(-5.232 -4.999)" style="fill:url(#r6pj68zhwh)"/>
            <path data-name="Path 3028" d="m151.92 184.992 26.534 7.4 26.534-38.1z" transform="translate(-5.232 -4.999)" style="fill:url(#5cre31lzjg)"/>
            <path data-name="Path 3029" d="m221.153 108.681-37.783 21.868v-30.421l37.783-21.868z" transform="translate(-6.315 -2.535)" style="fill:url(#5cre31lzjg)"/>
            <path data-name="Path 3030" d="m183.37 100.128 18.9 6.976 18.883-28.844z" transform="translate(-6.315 -2.535)" style="fill:url(#r6pj68zhwh)"/>
            <path data-name="Path 3031" d="m183.37 100.128 18.9 5.264 18.883-27.132z" transform="translate(-6.315 -2.535)" style="fill:url(#5cre31lzjg)"/>
            <path data-name="Path 3032" d="m286.456 126.9-31.236 18.073v-25.138l31.236-18.075z" transform="translate(-8.789 -3.297)" style="fill:url(#5cre31lzjg)"/>
            <path data-name="Path 3033" d="m255.22 119.835 15.613 5.767 15.623-23.842z" transform="translate(-8.789 -3.297)" style="fill:url(#r6pj68zhwh)"/>
            <path data-name="Path 3034" d="m255.22 119.835 15.613 4.354 15.623-22.429z" transform="translate(-8.789 -3.297)" style="fill:url(#5cre31lzjg)"/>
            <path data-name="Path 3035" d="m223.786 52.787-24.226 14.02V47.3l24.226-14.02z" transform="translate(-6.872 -1.078)" style="fill:url(#5cre31lzjg)"/>
            <path data-name="Path 3036" d="m199.56 47.3 12.118 4.48 12.108-18.5z" transform="translate(-6.872 -1.078)" style="fill:url(#r6pj68zhwh)"/>
            <path data-name="Path 3037" d="m199.56 47.3 12.118 3.377 12.108-17.4z" transform="translate(-6.872 -1.078)" style="fill:url(#5cre31lzjg)"/>
            <g data-name="Group 2389" style="mix-blend-mode:screen;isolation:isolate">
                <path data-name="Path 3038" d="M250.431 16.894 229.44 29.047v-16.9L250.431 0z" transform="translate(-7.901)" style="fill:url(#k0278frl5e)"/>
                <path data-name="Path 3039" d="m229.44 12.143 10.5 2.932L250.431 0z" transform="translate(-7.901)" style="fill:url(#733aq1nb7f)"/>
            </g>
            <path data-name="Path 3040" d="m279.021 48.619-23.8 13.769V43.229l23.8-13.769z" transform="translate(-8.789 -.954)" style="fill:url(#5cre31lzjg)"/>
            <path data-name="Path 3041" d="m255.22 43.229 11.9 4.393 11.901-18.162z" transform="translate(-8.789 -.954)" style="fill:url(#r6pj68zhwh)"/>
            <path data-name="Path 3042" d="m255.22 43.229 11.9 3.319 11.901-17.088z" transform="translate(-8.789 -.954)" style="fill:url(#5cre31lzjg)"/>
            <path data-name="Path 3043" d="M326.632 79.858 308.749 90.24l-.019-14.408 17.882-10.382z" transform="translate(-10.632 -2.12)" style="fill:url(#5cre31lzjg)"/>
            <path data-name="Path 3044" d="m308.73 75.832 8.951 3.3 8.931-13.682z" transform="translate(-10.632 -2.12)" style="fill:url(#r6pj68zhwh)"/>
            <path data-name="Path 3045" d="m308.73 75.832 8.951 2.487 8.931-12.869z" transform="translate(-10.632 -2.12)" style="fill:url(#5cre31lzjg)"/>
            <path data-name="Path 3046" d="m257.1 194.878-29.392 17.01v-23.667l29.392-17z" transform="translate(-7.842 -5.547)" style="fill:url(#5cre31lzjg)"/>
            <path data-name="Path 3047" d="m227.71 188.221 14.7 5.438 14.7-22.439z" transform="translate(-7.842 -5.547)" style="fill:url(#r6pj68zhwh)"/>
            <path data-name="Path 3048" d="m227.71 188.221 14.7 4.1 14.7-21.1z" transform="translate(-7.842 -5.547)" style="fill:url(#5cre31lzjg)"/>
            <path data-name="Path 3049" d="m165.315 78.189-54.545 31.564v-43.92l54.545-31.563z" transform="translate(-3.815 -1.11)" style="fill:url(#5cre31lzjg)"/>
            <path data-name="Path 3050" d="m110.77 65.833 27.268 10.082 27.277-41.645z" transform="translate(-3.815 -1.11)" style="fill:url(#r6pj68zhwh)"/>
            <path data-name="Path 3051" d="m110.77 65.833 27.268 7.605 27.277-39.168z" transform="translate(-3.815 -1.11)" style="fill:url(#5cre31lzjg)"/>
            <path data-name="Path 3052" d="M135.829 181.494 49.16 231.635v-69.764l86.669-50.141z" transform="translate(-1.693 -3.62)" style="fill:url(#qho7a48v6i)"/>
            <path data-name="Path 3053" d="M137.379 182.074 50.72 232.215v-69.764l86.659-50.141z" transform="translate(-1.747 -3.639)" style="fill:url(#iej414it3d)"/>
            <path data-name="Path 3054" d="m50.72 162.451 43.325 16.014 43.334-66.155z" transform="translate(-1.747 -3.639)" style="fill:url(#8etymnhqpj)"/>
            <path data-name="Path 3055" d="m50.72 162.451 43.325 12.085 43.334-62.226z" transform="translate(-1.747 -3.639)" style="fill:url(#iej414it3d)"/>
            <path data-name="Path 3056" d="m50.666 232.2-1.506-.561v-69.768l86.669-50.141 1.5.561-86.663 50.141z" transform="translate(-1.693 -3.62)" style="fill:url(#2bhybgh3lk)"/>
        </g>
    </g>
</svg>
