<svg xmlns="http://www.w3.org/2000/svg" width="32" height="32" viewBox="0 0 32 32">
    <defs>
        <radialGradient id="i7z8k7vmwa" cx=".5" cy=".5" r=".5" gradientTransform="matrix(1 0 0 17.949 0 -8.475)" gradientUnits="objectBoundingBox">
            <stop offset="0" stop-color="#178c40"/>
            <stop offset="1" stop-color="#1a672c"/>
        </radialGradient>
        <clipPath id="dgd8uje6tb">
            <path data-name="Rectangle 4890" transform="translate(976 749)" style="fill:url(#i7z8k7vmwa);stroke:#383838;stroke-width:1.5px" d="M0 0h32v32H0z"/>
        </clipPath>
    </defs>
    <g data-name="Mask Group 413" transform="translate(-976 -749)" style="clip-path:url(#dgd8uje6tb)">
        <path data-name="Path 3082" d="M17.86 8.924a4.471 4.471 0 1 1-4.47 4.476 4.476 4.476 0 0 1 4.47-4.476zm0 7.442a2.971 2.971 0 1 0-2.97-2.966 2.974 2.974 0 0 0 2.97 2.966z" style="fill:url(#i7z8k7vmwa)" transform="translate(974.139 747.14)"/>
        <path data-name="Path 3083" d="M21.906 33.494h-8.09c-4.68 0-7.029 0-8.107-1.6a3.459 3.459 0 0 1-.265-.469c-.781-1.676.4-3.49 2.543-6.552a.75.75 0 0 1 1.228.861c-1.784 2.54-2.836 4.149-2.415 5.056a1.954 1.954 0 0 0 .15.265c.632.939 2.845.939 6.863.939h8.09c4.018 0 6.231 0 6.863-.939a1.972 1.972 0 0 0 .15-.266c.423-.907-.629-2.515-2.412-5.057a.75.75 0 0 1 1.228-.861c2.147 3.062 3.324 4.876 2.543 6.552a3.48 3.48 0 0 1-.265.469c-1.075 1.602-3.424 1.602-8.104 1.602z" style="fill:url(#i7z8k7vmwa)" transform="translate(974.139 747.14)"/>
        <path data-name="Path 3084" d="M17.861 27.541a3.431 3.431 0 0 1-2.392-.963c-.372-.36-.744-.715-1.139-1.09a32.773 32.773 0 0 1-6.123-7.031 10.052 10.052 0 0 1-.664-9.362 11.157 11.157 0 0 1 16.47-5.006 11.078 11.078 0 0 1 4.164 5.006 10.075 10.075 0 0 1-.686 9.406 33 33 0 0 1-6.17 7.057c-.371.352-.721.684-1.069 1.02a3.431 3.431 0 0 1-2.391.963zm0-23.814A9.765 9.765 0 0 0 8.929 9.67a8.649 8.649 0 0 0-.7 4.28 9.453 9.453 0 0 0 1.278 3.762 31.7 31.7 0 0 0 5.858 6.688c.38.361.772.735 1.147 1.1a1.95 1.95 0 0 0 2.7 0c.353-.34.721-.689 1.078-1.027a31.926 31.926 0 0 0 5.9-6.716 9.512 9.512 0 0 0 1.3-3.783 8.647 8.647 0 0 0-.694-4.3 9.765 9.765 0 0 0-8.935-5.947z" style="fill:url(#i7z8k7vmwa)" transform="translate(974.139 747.14)"/>
    </g>
</svg>
