<svg xmlns="http://www.w3.org/2000/svg" width="32" height="32" viewBox="0 0 32 32">
    <defs>
        <clipPath id="kkiqqh41da">
            <path data-name="Rectangle 4886" transform="translate(976 605)" style="stroke:#383838;stroke-width:1.5px;fill:#fff" d="M0 0h32v32H0z"/>
        </clipPath>
    </defs>
    <g data-name="Mask Group 409" transform="translate(-976 -605)" style="clip-path:url(#kkiqqh41da)">
        <g data-name="mail-01-stroke-rounded (1)">
            <path data-name="Path 3072" d="m2.977 8.93 10.289 5.83c3.793 2.149 5.4 2.149 9.189 0l10.289-5.83" style="fill:none;stroke-linejoin:round;stroke:#178c40;stroke-width:1.5px" transform="translate(974.139 603.14)"/>
            <path data-name="Path 3073" d="M3 20.057c.1 4.563.146 6.844 1.829 8.534s4.027 1.749 8.713 1.866c2.888.073 5.748.073 8.636 0 4.686-.118 7.029-.177 8.713-1.866s1.732-3.971 1.829-8.534a103.72 103.72 0 0 0 0-4.392c-.1-4.563-.146-6.844-1.829-8.534s-4.027-1.749-8.713-1.867a170.302 170.302 0 0 0-8.636 0c-4.686.117-7.029.176-8.712 1.866S3.1 11.1 3 15.664a103.767 103.767 0 0 0 0 4.393z" style="fill:none;stroke-linejoin:round;stroke:#178c40;stroke-width:1.5px" transform="translate(974.139 603.14)"/>
        </g>
    </g>
</svg>
