<svg xmlns="http://www.w3.org/2000/svg" width="439.883" height="434" viewBox="0 0 439.883 434">
    <g data-name="Group 2385" style="mix-blend-mode:soft-light;isolation:isolate">
        <path data-name="Path 2945" d="m679.281 521.908 10.752-18.622-10.752-18.616h-21.5l-10.751 18.616 10.747 18.622z" transform="translate(-612.305 -213.392)" style="fill:#fff"/>
        <path data-name="Path 2946" d="m680.769 520.953 8.166-14.144-8.166-14.138h-16.333l-8.166 14.138 8.166 14.144z" transform="translate(-616.379 -216.914)" style="fill:#18ded9"/>
        <path data-name="Path 2947" d="m591.385 254.44 18.292 31.68-18.292 31.68H554.8l-18.29-31.68 18.29-31.68z" transform="translate(-470.088 -112.025)" style="fill:#fff"/>
        <path data-name="Path 2949" d="m558.312 340.354 16.926-29.324H541.38z" transform="translate(-438.375 -136.941)" style="fill:#fff"/>
        <path data-name="Path 2951" d="m575.237 287.964-16.925-29.324-16.932 29.324z" transform="translate(-438.375 -113.875)" style="fill:#fff"/>
        <path data-name="Path 2954" d="m759.415 341.476 6.386-11.06-6.386-11.066h-12.773l-6.392 11.066 6.392 11.06z" transform="translate(-740.25 -140.604)" style="fill:#fff"/>
        <path data-name="Path 2955" d="m760.9 340.52 3.8-6.582-3.8-6.588h-7.61l-3.8 6.588 3.8 6.582z" transform="translate(-744.318 -144.126)" style="fill:#18ded9"/>
        <path data-name="Path 2956" d="m707.64 173.483 14.1-24.432-14.1-24.432h-28.215l-14.1 24.432 14.1 24.432z" transform="translate(-654.254 -54.868)" style="fill:#fff"/>
        <path data-name="Path 2957" d="m709.123 172.528 11.519-19.954-11.519-19.954h-23.044l-11.519 19.954 11.519 19.954z" transform="translate(-658.323 -58.39)" style="fill:#18ded9"/>
        <path data-name="Path 2965" d="m352.377 185.865 8.564-14.833L369.5 156.2l-17.123-29.66h-34.255l-8.564 14.827L301 156.2l17.122 29.665z" transform="translate(-98.097 -55.713)" style="fill:#fff"/>
        <path data-name="Path 2966" d="m353.864 184.909 14.542-25.187-14.542-25.182h-29.083l-14.541 25.182 14.542 25.187z" transform="translate(-102.17 -59.235)" style="fill:#18ded9"/>
        <path data-name="Path 2968" d="M32.251 187.544 43 168.916 32.251 150.3h-21.5L0 168.916l10.752 18.627z" transform="translate(396.879 -66.174)" style="fill:#fff"/>
        <path data-name="Path 2969" d="m33.733 186.588 8.166-14.15-8.166-14.138H17.406L9.24 172.438l8.166 14.15z" transform="translate(392.811 -69.697)" style="fill:#18ded9"/>
        <path data-name="Path 2971" d="m403.429 397.726 6.386-11.06-6.386-11.066h-12.773l-6.386 11.066 6.386 11.06z" transform="translate(-185.016 -165.37)" style="fill:#fff"/>
        <path data-name="Path 2972" d="m404.907 396.77 3.806-6.582-3.806-6.588h-7.6l-3.806 6.588 3.806 6.582z" transform="translate(-189.08 -168.892)" style="fill:#18ded9"/>
        <path data-name="Path 2974" d="m277.169 755.765 3.952-6.845-3.952-6.84h-7.9l-3.952 6.84 3.952 6.845z" transform="translate(10.257 -326.724)" style="fill:#fff"/>
        <path data-name="Path 2975" d="m278.647 754.81 1.366-2.368-1.366-2.362h-2.731l-1.366 2.362 1.366 2.368z" transform="translate(6.199 -330.247)" style="fill:#18ded9"/>
        <path data-name="Path 2976" d="m209.253 594.57 15.112-26.17-15.112-26.18h-30.23L163.91 568.4l15.112 26.172z" transform="translate(123.774 -238.729)" style="fill:#fff"/>
        <path data-name="Path 2977" d="m210.735 593.615 12.527-21.695-12.527-21.7h-25.059l-12.526 21.7 12.526 21.695z" transform="translate(119.706 -242.252)" style="fill:#18ded9"/>
        <path data-name="Path 2979" d="m68.853 451.734 11.519-19.954-11.519-19.96H45.809L34.29 431.78l11.519 19.954z" transform="translate(340.318 -181.317)" style="fill:#18ded9"/>
        <path data-name="Path 2981" d="m161.183 0 17.133 29.671-17.133 29.67h-34.26l-17.133-29.67L126.923 0z" transform="translate(200.115)" style="fill:#fff"/>
        <path data-name="Path 2982" d="m161.919 3.95 15.851 27.46-15.851 27.46h-31.708L114.36 31.41l15.851-27.46z" transform="translate(198.103 -1.739)" style="fill:#f1f2f2"/>
        <path data-name="Path 2988" d="m318.686 447.48 10.735 18.594-10.735 18.594h-21.471l-10.735-18.594 10.735-18.594z" transform="translate(-49.887 -197.017)" style="fill:#fff"/>
        <path data-name="Path 2990" d="m299.275 497.9 9.935-17.211h-19.87z" transform="translate(-31.276 -211.639)" style="fill:#fff"/>
        <path data-name="Path 2992" d="m309.21 467.151-9.935-17.211-9.935 17.211z" transform="translate(-31.276 -198.101)" style="fill:#fff"/>
        <path data-name="Path 2995" d="m67.65 688.1 14.1 24.426-14.1 24.432H39.435l-14.1-24.432 14.1-24.426z" transform="translate(343.95 -302.958)" style="fill:#fff"/>
        <path data-name="Path 3003" d="m141.841 286.61-15.851 27.454 15.851 27.465h31.708l15.851-27.465-15.851-27.454z" transform="translate(179.963 -126.189)" style="fill:#f1f2f2"/>
        <path data-name="Path 3009" d="m314.815 684.85-6.985 12.1 6.985 12.1h13.965l6.985-12.1-6.985-12.1z" transform="translate(-68.181 -301.527)" style="fill:#fff"/>
        <path data-name="Path 3010" d="m316.155 686.46-6.465 11.194 6.465 11.194h12.924l6.465-11.194-6.465-11.194z" transform="translate(-69 -302.236)" style="fill:#f1f2f2"/>
        <path data-name="Path 3016" d="m311.459 75.451 3.952-6.845-3.952-6.845h-7.9l-3.946 6.845 3.946 6.845z" transform="translate(-43.225 -27.192)" style="fill:#fff"/>
        <path data-name="Path 3017" d="m312.947 74.5 1.366-2.368-1.366-2.368h-2.731l-1.366 2.368 1.366 2.368z" transform="translate(-47.299 -30.714)" style="fill:#18ded9"/>
        <path data-name="Path 3019" d="m205.479 187.921 6.386-11.066-6.386-11.066h-12.773l-6.386 11.066 6.386 11.066z" transform="translate(123.73 -72.994)" style="fill:#fff"/>
        <path data-name="Path 3020" d="m206.957 186.966 3.806-6.588-3.806-6.588h-7.6l-3.806 6.588 3.806 6.588z" transform="translate(119.667 -76.517)" style="fill:#18ded9"/>
        <path data-name="Path 3022" d="m69.5 557.96-7.84 13.584 7.84 13.585h15.685l7.842-13.584-7.842-13.585z" transform="translate(312.344 -245.66)" style="fill:#fff"/>
        <path data-name="Path 3023" d="m71 559.77-7.25 12.571L71 584.913h14.523l7.254-12.571-7.254-12.572z" transform="translate(311.424 -246.457)" style="fill:#f1f2f2"/>
    </g>
</svg>
