<svg xmlns="http://www.w3.org/2000/svg" xmlns:xlink="http://www.w3.org/1999/xlink" width="13" height="13" viewBox="0 0 13 13">
    <defs>
        <clipPath id="6e2t98l3wb">
            <path data-name="Rectangle 13" transform="translate(576 296)" style="stroke:#707070;fill:#fff" d="M0 0h13v13H0z"/>
        </clipPath>
        <clipPath id="ba16nx8l8c">
            <path d="m30.048-44.978 9.458-.642.728-9.537-2.882 5.841-7.3 4.337z" transform="translate(-30.048 55.156)"/>
        </clipPath>
        <clipPath id="2kg93knjde">
            <path d="m42.141-44.88 3.027 2.687-.813-5.607-2.214 2.92z" transform="translate(-42.141 47.804)"/>
        </clipPath>
        <clipPath id="knyhodkpgf">
            <path d="m30.107-37.052 9.453-.636-5.96-.468-3.5 1.1z" transform="translate(-30.107 38.156)"/>
        </clipPath>
        <clipPath id="3513q5ld8h">
            <path d="m26.773-44.526 1.786 4.174 1.488-4.874-3.274.7z" transform="translate(-26.773 45.226)"/>
        </clipPath>
        <clipPath id="d9ypepgi9j">
            <path d="m32.222-48.675 5.286 1.69-1.368-5.362z" transform="translate(-32.222 52.347)"/>
        </clipPath>
        <clipPath id="1w55wo0dfl">
            <path d="m39.693-54.546 4.734-.309-3.7-3.025z" transform="translate(-39.693 57.879)"/>
        </clipPath>
        <clipPath id="8fvck60wxn">
            <path d="m38.662-59.933 3.552.016-2.178 1.2-1.374-1.22z" transform="translate(-38.662 59.933)"/>
        </clipPath>
        <clipPath id="46cyiyxz3p">
            <path d="m25.331-47.686-.174 3.646.912-1.664-.738-1.982z" transform="translate(-25.157 47.686)"/>
        </clipPath>
        <clipPath id="rjv9lbxw9r">
            <path d="M28.277-57c1.9-1.884 4.35-3 5.29-2.049s-.057 3.254-1.957 5.137-4.32 3.058-5.259 2.11.026-3.313 1.926-5.198z" transform="translate(-25.987 59.393)"/>
        </clipPath>
        <clipPath id="5ahx9w0tht">
            <path d="m30.123-40.369 1.477-4.89 4.9 1.575a10.729 10.729 0 0 1-6.378 3.314z" transform="translate(-30.123 45.259)"/>
        </clipPath>
        <clipPath id="dyai6hqlqv">
            <path d="m39.76-51.927 1.258 4.985a13.876 13.876 0 0 0 3.46-5.3l-4.719.316z" transform="translate(-39.76 52.243)"/>
        </clipPath>
        <clipPath id="3r3fjxrd0x">
            <path d="M45.344-55.792c.5-1.52.62-3.7-1.755-4.105l-1.949 1.076z" transform="translate(-41.64 59.898)"/>
        </clipPath>
        <clipPath id="wwfrimo5hz">
            <path d="M39.774-51.91c1.138.7 3.431 2.1 3.477 2.13a8.02 8.02 0 0 0 1.2-2.441l-4.674.312z" transform="translate(-39.774 52.221)"/>
        </clipPath>
        <clipPath id="0bgogg71jB">
            <path d="m32.889-45.259 1.973 3.807a12.759 12.759 0 0 0 2.917-2.23z" transform="translate(-32.889 45.259)"/>
        </clipPath>
        <clipPath id="6ptu67mqeD">
            <path d="m26.529-43.863-.28 3.329a2.039 2.039 0 0 0 2.015.727c-.551-1.371-1.651-4.112-1.735-4.056z" transform="translate(-26.249 43.864)"/>
        </clipPath>
        <clipPath id="2nofeoc93F">
            <path d="m41.619-58.815 3.92.55a2.142 2.142 0 0 0-1.947-1.635l-1.973 1.087z" transform="translate(-41.619 59.902)"/>
        </clipPath>
        <linearGradient id="k5g06wwiqd" x1="-1.572" y1="2.889" x2="-1.566" y2="2.889" gradientUnits="objectBoundingBox">
            <stop offset="0" stop-color="#fb7655"/>
            <stop offset=".41" stop-color="#e42b1e"/>
            <stop offset=".99" stop-color="#900"/>
            <stop offset="1" stop-color="#900"/>
        </linearGradient>
        <linearGradient id="pz5qafmoaa" x1="-7.421" y1="4.542" x2="-7.4" y2="4.542" gradientUnits="objectBoundingBox">
            <stop offset="0" stop-color="#871101"/>
            <stop offset=".99" stop-color="#911209"/>
            <stop offset="1" stop-color="#911209"/>
        </linearGradient>
        <linearGradient id="1rwcwuakpg" x1="-1.698" y1="18.431" x2="-1.691" y2="18.431" xlink:href="#pz5qafmoaa"/>
        <linearGradient id="gyujge3phi" x1="-4.359" y1="4.946" x2="-4.34" y2="4.946" gradientUnits="objectBoundingBox">
            <stop offset="0" stop-color="#fff"/>
            <stop offset=".23" stop-color="#e57252"/>
            <stop offset=".46" stop-color="#de3b20"/>
            <stop offset=".99" stop-color="#a60003"/>
            <stop offset="1" stop-color="#a60003"/>
        </linearGradient>
        <linearGradient id="tq2cxqfxpk" x1="-3.249" y1="5.204" x2="-3.237" y2="5.204" gradientUnits="objectBoundingBox">
            <stop offset="0" stop-color="#fff"/>
            <stop offset=".23" stop-color="#e4714e"/>
            <stop offset=".56" stop-color="#be1a0d"/>
            <stop offset=".99" stop-color="#a80d00"/>
            <stop offset="1" stop-color="#a80d00"/>
        </linearGradient>
        <linearGradient id="uq1ljfofdm" x1="-4.469" y1="9.255" x2="-4.456" y2="9.255" gradientUnits="objectBoundingBox">
            <stop offset="0" stop-color="#fff"/>
            <stop offset=".18" stop-color="#e46342"/>
            <stop offset=".4" stop-color="#c82410"/>
            <stop offset=".99" stop-color="#a80d00"/>
            <stop offset="1" stop-color="#a80d00"/>
        </linearGradient>
        <linearGradient id="kw4upfqlxo" x1="-5.802" y1="26.192" x2="-5.784" y2="26.192" gradientUnits="objectBoundingBox">
            <stop offset="0" stop-color="#fff"/>
            <stop offset=".54" stop-color="#c81f11"/>
            <stop offset=".99" stop-color="#bf0905"/>
            <stop offset="1" stop-color="#bf0905"/>
        </linearGradient>
        <linearGradient id="49vw9a0ebq" x1="-14.698" y1="6.971" x2="-14.627" y2="6.971" gradientUnits="objectBoundingBox">
            <stop offset="0" stop-color="#fff"/>
            <stop offset=".31" stop-color="#de4024"/>
            <stop offset=".99" stop-color="#bf190b"/>
            <stop offset="1" stop-color="#bf190b"/>
        </linearGradient>
        <linearGradient id="y0z57tln5s" x1="-1.745" y1="3.994" x2="-1.737" y2="3.994" gradientUnits="objectBoundingBox">
            <stop offset="0" stop-color="#bd0012"/>
            <stop offset=".07" stop-color="#fff"/>
            <stop offset=".27" stop-color="#c82f1c"/>
            <stop offset=".33" stop-color="#820c01"/>
            <stop offset=".46" stop-color="#a31601"/>
            <stop offset=".72" stop-color="#b31301"/>
            <stop offset=".99" stop-color="#e82609"/>
            <stop offset="1" stop-color="#e82609"/>
        </linearGradient>
        <linearGradient id="kk8mvuhlvu" x1="-2.518" y1="4.934" x2="-2.507" y2="4.934" gradientUnits="objectBoundingBox">
            <stop offset="0" stop-color="#8c0c01"/>
            <stop offset=".54" stop-color="#990c00"/>
            <stop offset=".99" stop-color="#a80d0e"/>
            <stop offset="1" stop-color="#a80d0e"/>
        </linearGradient>
        <linearGradient id="498ad8tg9w" x1="-4.492" y1="5.254" x2="-4.478" y2="5.254" gradientUnits="objectBoundingBox">
            <stop offset="0" stop-color="#7e110b"/>
            <stop offset=".99" stop-color="#9e0c00"/>
            <stop offset="1" stop-color="#9e0c00"/>
        </linearGradient>
        <linearGradient id="10bhhp1dzy" x1="-5.549" y1="7.777" x2="-5.532" y2="7.777" gradientUnits="objectBoundingBox">
            <stop offset="0" stop-color="#79130d"/>
            <stop offset=".99" stop-color="#9e120b"/>
            <stop offset="1" stop-color="#9e120b"/>
        </linearGradient>
        <linearGradient id="zvudmzbwvE" x1="-6.946" y1="5.741" x2="-6.914" y2="5.741" gradientUnits="objectBoundingBox">
            <stop offset="0" stop-color="#8b2114"/>
            <stop offset=".43" stop-color="#9e100a"/>
            <stop offset=".99" stop-color="#b3100c"/>
            <stop offset="1" stop-color="#b3100c"/>
        </linearGradient>
        <linearGradient id="d3fa168oaG" x1="-5.659" y1="19.5" x2="-5.643" y2="19.5" gradientUnits="objectBoundingBox">
            <stop offset="0" stop-color="#b31000"/>
            <stop offset=".44" stop-color="#910f08"/>
            <stop offset=".99" stop-color="#791c12"/>
            <stop offset="1" stop-color="#791c12"/>
        </linearGradient>
        <radialGradient id="f3csjit9fA" cx=".668" cy="1.068" r="1.332" gradientTransform="matrix(.523 0 0 1 -2.163 0)" gradientUnits="objectBoundingBox">
            <stop offset="0" stop-color="#a80d00"/>
            <stop offset=".99" stop-color="#7e0e08"/>
            <stop offset="1" stop-color="#7e0e08"/>
        </radialGradient>
        <radialGradient id="98d0njufxC" cx=".577" cy=".976" r="1.135" gradientTransform="matrix(.778 0 0 1 -.793 0)" gradientUnits="objectBoundingBox">
            <stop offset="0" stop-color="#a30c00"/>
            <stop offset=".99" stop-color="#800e08"/>
            <stop offset="1" stop-color="#800e08"/>
        </radialGradient>
    </defs>
    <g data-name="Mask Group 3" transform="translate(-576 -296)" style="clip-path:url(#6e2t98l3wb)">
        <g style="clip-path:url(#ba16nx8l8c)" transform="translate(578.607 298.598)">
            <path d="m30.048-44.978 9.458-.642.728-9.537-2.882 5.841-7.3 4.337z" transform="translate(-30.048 55.156)" style="fill:url(#k5g06wwiqd);fill-rule:evenodd"/>
        </g>
        <g style="clip-path:url(#2kg93knjde)" transform="translate(585.054 302.517)">
            <path d="m42.141-44.88 3.027 2.687-.813-5.607-2.214 2.92z" transform="translate(-42.141 47.804)" style="fill:url(#pz5qafmoaa);fill-rule:evenodd"/>
        </g>
        <g style="clip-path:url(#knyhodkpgf)" transform="translate(578.639 307.66)">
            <path d="m30.107-37.052 9.453-.636-5.96-.468-3.5 1.1z" transform="translate(-30.107 38.156)" style="fill:url(#1rwcwuakpg);fill-rule:evenodd"/>
        </g>
        <g style="clip-path:url(#3513q5ld8h)" transform="translate(576.861 303.891)">
            <path d="m26.773-44.526 1.786 4.174 1.488-4.874-3.274.7z" transform="translate(-26.773 45.226)" style="fill:url(#gyujge3phi);fill-rule:evenodd"/>
        </g>
        <g style="clip-path:url(#d9ypepgi9j)" transform="translate(579.766 300.095)">
            <path d="m32.222-48.675 5.286 1.69-1.368-5.362z" transform="translate(-32.222 52.347)" style="fill:url(#tq2cxqfxpk);fill-rule:evenodd"/>
        </g>
        <g style="clip-path:url(#1w55wo0dfl)" transform="translate(583.749 297.146)">
            <path d="m39.693-54.546 4.734-.309-3.7-3.025z" transform="translate(-39.693 57.879)" style="fill:url(#uq1ljfofdm);fill-rule:evenodd"/>
        </g>
        <g style="clip-path:url(#8fvck60wxn)" transform="translate(583.199 296.052)">
            <path d="m38.662-59.933 3.552.016-2.178 1.2-1.374-1.22z" transform="translate(-38.662 59.933)" style="fill:url(#kw4upfqlxo);fill-rule:evenodd"/>
        </g>
        <g style="clip-path:url(#46cyiyxz3p)" transform="translate(576 302.58)">
            <path d="m25.331-47.686-.174 3.646.912-1.664-.738-1.982z" transform="translate(-25.157 47.686)" style="fill:url(#49vw9a0ebq);fill-rule:evenodd"/>
        </g>
        <path d="m25.392-53.5.743 2.106 3.227-.724 3.684-3.424 1.04-3.3L32.448-60l-2.783 1.042c-.877.816-2.578 2.429-2.64 2.46S25.9-54.455 25.392-53.5z" transform="translate(550.733 356.014)" style="fill-rule:evenodd;fill:#fff"/>
        <g style="clip-path:url(#rjv9lbxw9r)" transform="translate(576.443 296.339)">
            <path d="M28.277-57c1.9-1.884 4.35-3 5.29-2.049s-.057 3.254-1.957 5.137-4.32 3.058-5.259 2.11.026-3.313 1.926-5.198z" transform="translate(-25.987 59.393)" style="fill:url(#y0z57tln5s);fill-rule:evenodd"/>
        </g>
        <g style="clip-path:url(#5ahx9w0tht)" transform="translate(578.647 303.874)">
            <path d="m30.123-40.369 1.477-4.89 4.9 1.575a10.729 10.729 0 0 1-6.378 3.314z" transform="translate(-30.123 45.259)" style="fill:url(#kk8mvuhlvu);fill-rule:evenodd"/>
        </g>
        <g style="clip-path:url(#dyai6hqlqv)" transform="translate(583.785 300.151)">
            <path d="m39.76-51.927 1.258 4.985a13.876 13.876 0 0 0 3.46-5.3l-4.719.316z" transform="translate(-39.76 52.243)" style="fill:url(#498ad8tg9w);fill-rule:evenodd"/>
        </g>
        <g style="clip-path:url(#3r3fjxrd0x)" transform="translate(584.787 296.07)">
            <path d="M45.344-55.792c.5-1.52.62-3.7-1.755-4.105l-1.949 1.076z" transform="translate(-41.64 59.898)" style="fill:url(#10bhhp1dzy);fill-rule:evenodd"/>
        </g>
        <path d="M25.157-42.281a2.345 2.345 0 0 0 2.651 2.568l-1.781-4.159-.87 1.591z" transform="translate(550.843 348.485)" style="fill:#9e1209;fill-rule:evenodd"/>
        <g style="clip-path:url(#wwfrimo5hz)" transform="translate(583.792 300.162)">
            <path d="M39.774-51.91c1.138.7 3.431 2.1 3.477 2.13a8.02 8.02 0 0 0 1.2-2.441l-4.674.312z" transform="translate(-39.774 52.221)" style="fill:url(#f3csjit9fA);fill-rule:evenodd"/>
        </g>
        <g style="clip-path:url(#0bgogg71jB)" transform="translate(580.122 303.874)">
            <path d="m32.889-45.259 1.973 3.807a12.759 12.759 0 0 0 2.917-2.23z" transform="translate(-32.889 45.259)" style="fill:url(#98d0njufxC);fill-rule:evenodd"/>
        </g>
        <g style="clip-path:url(#6ptu67mqeD)" transform="translate(576.582 304.617)">
            <path d="m26.529-43.863-.28 3.329a2.039 2.039 0 0 0 2.015.727c-.551-1.371-1.651-4.112-1.735-4.056z" transform="translate(-26.249 43.864)" style="fill:url(#zvudmzbwvE);fill-rule:evenodd"/>
        </g>
        <g style="clip-path:url(#2nofeoc93F)" transform="translate(584.775 296.068)">
            <path d="m41.619-58.815 3.92.55a2.142 2.142 0 0 0-1.947-1.635l-1.973 1.087z" transform="translate(-41.619 59.902)" style="fill:url(#d3fa168oaG);fill-rule:evenodd"/>
        </g>
    </g>
</svg>
