<svg xmlns="http://www.w3.org/2000/svg" width="41.001" height="31.133" viewBox="0 0 41.001 31.133">
    <path data-name="Union 6" d="M-6429.37-3896.868a.573.573 0 0 1-.631-.487v-1.157a.86.86 0 0 1 .31-.641l3.739-3.318a1.448 1.448 0 0 1 .95-.333h30a1.449 1.449 0 0 1 .951.333l3.737 3.318a.861.861 0 0 1 .312.641v1.157a.572.572 0 0 1-.631.487zm15.083-1.893h9.016l-1.08-1.462h-6.853zm-10.875-6.207a2.1 2.1 0 0 1-2.094-2.1v-17.843a2.1 2.1 0 0 1 2.094-2.095h30.322a2.1 2.1 0 0 1 2.1 2.095v17.843a2.1 2.1 0 0 1-2.1 2.1zm1.109-3.308h28.1v-15.909h-28.1z" transform="translate(6430.5 3927.501)" style="fill:#c8efc5;stroke:#a0d89b"/>
    <path data-name="Path 2658" d="m14.777 15.7-.347-.049c-.889-.124-1.207-.434-1.207-.887 0-.511.366-.878 1.033-.878a2.771 2.771 0 0 1 1.573.511l.135-.029.464-.715-.02-.134a3.6 3.6 0 0 0-2.123-.656 1.982 1.982 0 0 0-2.22 1.978c0 1.09.714 1.7 1.978 1.872l.348.048c.907.125 1.2.434 1.2.907 0 .549-.453.946-1.235.946a2.937 2.937 0 0 1-1.785-.694l-.135.009-.6.7.019.145a3.705 3.705 0 0 0 2.413.867c1.632 0 2.472-.867 2.472-2.035-.003-1.135-.699-1.734-1.963-1.906z" style="fill:#047401" transform="translate(.5 -4.433)"/>
    <path data-name="Path 2659" d="m17.963 12.968-.1.1v6.372l.1.1h4.111l.1-.1v-.83l-.1-.1h-3.01l-.058-.059V16.79l.058-.058H21.6l.1-.1v-.83l-.1-.1h-2.536l-.058-.059v-1.6l.058-.058h3.011l.1-.1v-.83l-.1-.1z" style="fill:#047401" transform="translate(.5 -4.433)"/>
    <path data-name="Path 2660" d="M25.667 12.863a2.252 2.252 0 0 0-2.317 1.582 5.315 5.315 0 0 0-.174 1.805 5.316 5.316 0 0 0 .174 1.805 2.252 2.252 0 0 0 2.317 1.582 2.255 2.255 0 0 0 2.325-1.582 5.3 5.3 0 0 0 .175-1.805 5.3 5.3 0 0 0-.175-1.805 2.255 2.255 0 0 0-2.325-1.582zm1.225 4.892a1.3 1.3 0 0 1-2.442 0 5.257 5.257 0 0 1-.116-1.505 5.218 5.218 0 0 1 .116-1.506 1.3 1.3 0 0 1 2.442 0 5.2 5.2 0 0 1 .117 1.506 5.239 5.239 0 0 1-.117 1.505z" style="fill:#047401" transform="translate(.5 -4.433)"/>
</svg>
