<svg xmlns="http://www.w3.org/2000/svg" width="72" height="72" viewBox="0 0 72 72">
    <g data-name="Group 13854">
        <g data-name="Group 13853">
            <path data-name="Path 3355" d="M23319.926 2940.537h30.531l6.1-5.932h33.527s-.559 56.412-1.082 57.358-65.9.973-67.883 0-1.193-51.426-1.193-51.426z" style="fill:#fff" transform="translate(-23318.926 -2922.11)"/>
            <path d="M.967 0h-26.141l-4.357 35.146H5.324z" transform="translate(48.103 27.141)" style="stroke:#047600;fill:none;stroke-linecap:round;stroke-linejoin:round;stroke-miterlimit:10;stroke-width:1.6px"/>
            <path d="M.322 0v3.631a5.083 5.083 0 0 1-5.083 5.083 5.083 5.083 0 0 1-5.083-5.083V0" transform="translate(40.762 35.854)" style="stroke:#047600;fill:none;stroke-linecap:round;stroke-linejoin:round;stroke-miterlimit:10;stroke-width:1.6px"/>
            <path data-name="Path 3378" d="M23320.762 2940.537h28.822l6.6-5.87h33.682v-7.72s-.818-3.823-4.146-3.91-62.252 0-62.252 0-3.344.758-3.7 3.91 0 13.59 0 13.59z" transform="translate(-23318.612 -2922.11)" style="fill:#c8efc4"/>
            <path d="M.138.069A2.178 2.178 0 0 1-2.04 2.248 2.178 2.178 0 0 1-4.219.069 2.178 2.178 0 0 1-2.04-2.109 2.178 2.178 0 0 1 .138.069" transform="translate(11.754 9.644)" style="fill:#a0d99b"/>
            <path d="M.138.069A2.178 2.178 0 0 1-2.04 2.248 2.178 2.178 0 0 1-4.219.069 2.178 2.178 0 0 1-2.04-2.109 2.178 2.178 0 0 1 .138.069" transform="translate(20.469 9.644)" style="fill:#a0d99b"/>
            <path d="M.138.069A2.178 2.178 0 0 1-2.04 2.248 2.178 2.178 0 0 1-4.219.069 2.178 2.178 0 0 1-2.04-2.109 2.178 2.178 0 0 1 .138.069" transform="translate(29.182 9.644)" style="fill:#a0d99b"/>
            <path d="M2.219 0h-33.693l-5.809 5.809h-30.5" transform="translate(68.781 12.618)" style="stroke:#a0d99b;fill:none;stroke-linecap:round;stroke-linejoin:round;stroke-miterlimit:10;stroke-width:1.6px"/>
            <path d="M2.081 2.219h-61.287a4.357 4.357 0 0 1-4.357-4.357v-61.286a4.357 4.357 0 0 1 4.357-4.357H2.081a4.357 4.357 0 0 1 4.357 4.357v61.287a4.357 4.357 0 0 1-4.357 4.356z" transform="translate(64.563 68.78)" style="stroke:#a0d99b;fill:none;stroke-linecap:round;stroke-linejoin:round;stroke-miterlimit:10;stroke-width:1.6px"/>
        </g>
    </g>
</svg>
