<svg xmlns="http://www.w3.org/2000/svg" width="21.2" height="18.2" viewBox="0 0 21.2 18.2">
    <g data-name="mail-01-stroke-rounded (3)">
        <path data-name="Path 1559" d="m2 6 6.913 3.917c2.549 1.444 3.625 1.444 6.174 0L22 6" style="fill:none;stroke:#02ad02;stroke-linejoin:round;stroke-width:1.2px" transform="translate(-1.4 -2.9)"/>
        <path data-name="Path 1560" d="M2.016 13.476c.065 3.066.1 4.6 1.229 5.734S5.95 20.384 9.1 20.463c1.94.049 3.862.049 5.8 0 3.148-.079 4.723-.119 5.854-1.254s1.164-2.668 1.229-5.734c.021-.986.021-1.965 0-2.951-.065-3.066-.1-4.6-1.229-5.734S18.05 3.616 14.9 3.537a114.44 114.44 0 0 0-5.8 0c-3.148.079-4.723.119-5.854 1.254s-1.165 2.668-1.23 5.733a69.169 69.169 0 0 0 0 2.952z" style="fill:none;stroke:#02ad02;stroke-linejoin:round;stroke-width:1.2px" transform="translate(-1.4 -2.9)"/>
    </g>
</svg>
