<svg xmlns="http://www.w3.org/2000/svg" width="6.186" height="14" viewBox="0 0 6.186 14">
    <g data-name="Group 2370">
        <g data-name="info (9)">
            <path data-name="Path 1555" d="m37.14 12.489-.2.8q-.88.347-1.4.529a3.705 3.705 0 0 1-1.219.182 2.432 2.432 0 0 1-1.657-.52 1.682 1.682 0 0 1-.591-1.32 4.671 4.671 0 0 1 .044-.635q.045-.325.143-.734l.733-2.6q.1-.373.165-.707a3.072 3.072 0 0 0 .067-.608.941.941 0 0 0-.205-.694 1.159 1.159 0 0 0-.784-.2 2.056 2.056 0 0 0-.583.089c-.2.059-.37.116-.513.169l.2-.8q.721-.293 1.379-.5a4.124 4.124 0 0 1 1.247-.209 2.372 2.372 0 0 1 1.632.512 1.7 1.7 0 0 1 .573 1.329 7.5 7.5 0 0 1-.04.6 3.984 3.984 0 0 1-.147.783l-.73 2.585a6.87 6.87 0 0 0-.16.712 3.666 3.666 0 0 0-.071.6.871.871 0 0 0 .23.7 1.3 1.3 0 0 0 .8.187 2.307 2.307 0 0 0 .6-.093 3.378 3.378 0 0 0 .487-.157zm.185-10.854a1.513 1.513 0 0 1-.511 1.151 1.739 1.739 0 0 1-1.23.476 1.759 1.759 0 0 1-1.236-.476 1.51 1.51 0 0 1-.516-1.151A1.525 1.525 0 0 1 34.347.48a1.825 1.825 0 0 1 2.466 0 1.527 1.527 0 0 1 .512 1.155z" transform="translate(-31.139)" style="fill:#d9d9d9"/>
        </g>
    </g>
</svg>
