<svg xmlns="http://www.w3.org/2000/svg" width="21.2" height="19.2" viewBox="0 0 21.2 19.2">
    <g data-name="user-multiple-02-stroke-rounded (2)">
        <path data-name="Path 1561" d="M13 7a4 4 0 1 1-4-4 4 4 0 0 1 4 4z" style="fill:none;stroke:#02ad02;stroke-width:1.2px" transform="translate(-1.4 -2.4)"/>
        <path data-name="Path 1562" d="M15 11a4 4 0 0 0 0-8" style="stroke-linejoin:round;stroke-linecap:round;fill:none;stroke:#02ad02;stroke-width:1.2px" transform="translate(-1.4 -2.4)"/>
        <path data-name="Path 1563" d="M11 14H7a5 5 0 0 0-5 5 2 2 0 0 0 2 2h10a2 2 0 0 0 2-2 5 5 0 0 0-5-5z" style="stroke-linejoin:round;fill:none;stroke:#02ad02;stroke-width:1.2px" transform="translate(-1.4 -2.4)"/>
        <path data-name="Path 1564" d="M17 14a5 5 0 0 1 5 5 2 2 0 0 1-2 2h-1.5" style="stroke-linejoin:round;stroke-linecap:round;fill:none;stroke:#02ad02;stroke-width:1.2px" transform="translate(-1.4 -2.4)"/>
    </g>
</svg>
