<svg xmlns="http://www.w3.org/2000/svg" width="17" height="17" viewBox="0 0 17 17">
    <defs>
        <clipPath id="yabutfxo0a">
            <path data-name="Rectangle 5169" style="fill:#fff;stroke:#707070" d="M0 0h17v17H0z"/>
        </clipPath>
    </defs>
    <g data-name="Mask Group 451" style="clip-path:url(#yabutfxo0a)">
        <path data-name="Path 1571" d="M3.778 3.778h6.139a7.066 7.066 0 0 1 2.5.216 2.833 2.833 0 0 1 1.533 1.533 7.066 7.066 0 0 1 .216 2.5v.708a.708.708 0 0 1-.708.708h-.236a1.889 1.889 0 1 0 0 3.778h.236a.708.708 0 0 1 .708.708v.708a7.067 7.067 0 0 1-.216 2.5 2.833 2.833 0 0 1-1.533 1.533 7.065 7.065 0 0 1-2.5.216H3.778v-.944A.944.944 0 0 0 2.833 17v-1.889a.944.944 0 0 0 .944-.944v-.944a.944.944 0 0 0-.944-.944v-1.89a.944.944 0 0 0 .944-.944V8.5a.944.944 0 0 0-.944-.944V5.667a.944.944 0 0 0 .944-.944z" transform="translate(2.833 -2.834)" style="fill-rule:evenodd;fill:#bbc1cb"/>
        <path data-name="Path 1572" d="M19.833 5.667v1.889a.944.944 0 0 0-.944.944v.944a.944.944 0 0 0 .944.944v1.889a.944.944 0 0 0-.944.944v.944a.944.944 0 0 0 .944.944V17a.944.944 0 0 0-.944.944v.944h-.472a7.065 7.065 0 0 1-2.5-.216 2.833 2.833 0 0 1-1.533-1.533 7.066 7.066 0 0 1-.216-2.5v-.708a.708.708 0 0 1 .708-.708h.236a1.889 1.889 0 1 0 0-3.778h-.236a.708.708 0 0 1-.708-.708v-.709a7.065 7.065 0 0 1 .216-2.5 2.833 2.833 0 0 1 1.533-1.533 7.067 7.067 0 0 1 2.5-.216h.472v.944a.944.944 0 0 0 .944.944z" transform="translate(-14.167 -2.834)" style="fill:#333;fill-rule:evenodd"/>
    </g>
</svg>
