<svg xmlns="http://www.w3.org/2000/svg" width="17.2" height="21.2" viewBox="0 0 17.2 21.2">
    <g data-name="google-doc-stroke-rounded (2)">
        <path data-name="Path 1556" d="M15 2.5V4c0 1.414 0 2.121.439 2.561S16.586 7 18 7h1.5" style="fill:none;stroke:#02ad02;stroke-linecap:round;stroke-linejoin:round;stroke-width:1.2px" transform="translate(-3.4 -1.4)"/>
        <path data-name="Path 1557" d="M4 16V8c0-2.828 0-4.243.879-5.121S7.172 2 10 2h4.172a2.128 2.128 0 0 1 .8.076 2.128 2.128 0 0 1 .617.51l3.828 3.828a2.128 2.128 0 0 1 .51.617 2.128 2.128 0 0 1 .076.8V16c0 2.828 0 4.243-.879 5.121S16.828 22 14 22h-4c-2.828 0-4.243 0-5.121-.879S4 18.828 4 16z" style="fill:none;stroke:#02ad02;stroke-linecap:round;stroke-linejoin:round;stroke-width:1.2px" transform="translate(-3.4 -1.4)"/>
        <path data-name="Path 1558" d="M8 11h8m-8 3h8m-8 3h4.171" style="fill:none;stroke:#02ad02;stroke-linecap:round;stroke-linejoin:round;stroke-width:1.2px" transform="translate(-3.4 -1.4)"/>
    </g>
</svg>
