<svg xmlns="http://www.w3.org/2000/svg" width="17" height="17" viewBox="0 0 17 17">
    <defs>
        <clipPath id="jqa0pj1tea">
            <path data-name="Rectangle 5172" transform="translate(342 315)" style="fill:#fff;stroke:#707070" d="M0 0h17v17H0z"/>
        </clipPath>
    </defs>
    <g data-name="Mask Group 452" transform="translate(-342 -315)" style="clip-path:url(#jqa0pj1tea)">
        <path data-name="thumbs-up (1)" d="M3.453 7.437H.8a.8.8 0 0 0-.8.8V16.2a.8.8 0 0 0 .8.8h2.653a.8.8 0 0 0 .8-.8V8.234a.8.8 0 0 0-.8-.797zm-1.328 8.235a.8.8 0 1 1 .8-.8.8.8 0 0 1-.8.8zM12.75 2.7c0 1.408-.862 2.2-1.1 3.139h3.378A1.984 1.984 0 0 1 17 7.773a2.4 2.4 0 0 1-.645 1.633 2.774 2.774 0 0 1-.309 2.639 2.626 2.626 0 0 1-.544 2.482 1.763 1.763 0 0 1-.2 1.482c-.678.974-2.357.987-3.778.987h-.094a9.532 9.532 0 0 1-3.97-1.053 5.225 5.225 0 0 0-1.76-.534.4.4 0 0 1-.391-.4v-7.1a.4.4 0 0 1 .118-.283c1.315-1.3 1.881-2.676 2.959-3.756a4.021 4.021 0 0 0 .843-1.956C9.38 1.3 9.689 0 10.359 0c.8 0 2.391.266 2.391 2.7z" transform="translate(342 315)" style="fill:#bbc1cb"/>
        <path data-name="thumbs-up (1)" d="M3.453 7.437H.8a.8.8 0 0 0-.8.8V16.2a.8.8 0 0 0 .8.8h2.653a.8.8 0 0 0 .8-.8V8.234a.8.8 0 0 0-.8-.797zm-1.328 8.235a.8.8 0 1 1 .8-.8.8.8 0 0 1-.8.8zM10.359 0z" transform="translate(342 315)" style="fill:#333"/>
    </g>
</svg>
