<svg xmlns="http://www.w3.org/2000/svg" width="41.472" height="48" viewBox="0 0 41.472 48">
    <g data-name="play (8)">
        <g data-name="Group 13765">
            <path data-name="Path 3033" d="M73.236 18.459 44.881.982a6.557 6.557 0 0 0-10 5.583v34.806A6.625 6.625 0 0 0 41.428 48h.03a6.579 6.579 0 0 0 3.4-1.022 1.874 1.874 0 0 0-1.95-3.2 2.872 2.872 0 0 1-1.458.474 2.909 2.909 0 0 1-2.818-2.9V6.565a2.812 2.812 0 0 1 4.285-2.4l28.354 17.479a2.812 2.812 0 0 1-.012 4.8L50.758 39a1.875 1.875 0 1 0 1.954 3.2l20.5-12.55a6.557 6.557 0 0 0 .024-11.18z" transform="translate(-34.879 -.004)" style="fill:#fff"/>
        </g>
    </g>
</svg>
