<svg xmlns="http://www.w3.org/2000/svg" width="72" height="72.126" viewBox="0 0 72 72.126">
    <g data-name="Group 13836">
        <path data-name="Path 3300" d="M298.881 107.746a32.594 32.594 0 0 0 4.919-62.62" transform="translate(-256.653 -39.688)" style="stroke-miterlimit:10;stroke-linecap:round;stroke-linejoin:round;stroke-width:1.6px;stroke:#a0d99b;fill:none"/>
        <path data-name="Path 3301" d="M57.9 35.692a32.594 32.594 0 0 0-4.919 62.62" transform="translate(-28.129 -31.624)" style="stroke-miterlimit:10;stroke-linecap:round;stroke-linejoin:round;stroke-width:1.6px;stroke:#a0d99b;fill:none"/>
        <path data-name="Path 3302" d="m171.468 436.75 2.783 5.967-5.967 2.783" transform="translate(-145.021 -374.437)" style="stroke-miterlimit:10;stroke-linecap:round;stroke-linejoin:round;stroke-width:1.6px;stroke:#a0d99b;fill:none"/>
        <path data-name="Path 3303" d="m305.41 23.75-2.783-5.967L308.594 15" transform="translate(-259.855 -13.937)" style="stroke-miterlimit:10;stroke-linecap:round;stroke-linejoin:round;stroke-width:1.6px;stroke:#a0d99b;fill:none"/>
        <g data-name="9022434_currency_circle_dollar_duotone_icon" transform="translate(-16 -15.937)">
            <circle data-name="Ellipse 390" cx="20" cy="20" r="20" transform="translate(32 32)" style="fill:#c8efc4"/>
            <path data-name="Line 526" transform="translate(52 40.333)" style="stroke:#047600;stroke-linecap:round;stroke-linejoin:round;stroke-width:1.6px;fill:none" d="M0 0v3.333"/>
            <path data-name="Line 527" transform="translate(52 60.333)" style="stroke:#047600;stroke-linecap:round;stroke-linejoin:round;stroke-width:1.6px;fill:none" d="M0 0v3.333"/>
            <circle data-name="Ellipse 391" cx="20" cy="20" r="20" transform="translate(32 32)" style="stroke-linecap:round;stroke-linejoin:round;stroke-width:1.6px;stroke:#a0d99b;fill:none"/>
            <path data-name="Path 3299" d="M97.667 104.667h7.5a4.167 4.167 0 1 0 0-8.333h-5a4.167 4.167 0 0 1 0-8.333h7.5" transform="translate(-50.667 -44.333)" style="stroke:#047600;stroke-linecap:round;stroke-linejoin:round;stroke-width:1.6px;fill:none"/>
        </g>
    </g>
</svg>
