<svg xmlns="http://www.w3.org/2000/svg" width="152" height="120" viewBox="0 0 152 120">
    <g data-name="Group 335">
        <g data-name="Group 288">
            <g data-name="Group 285" transform="translate(39.603 52)">
                <circle data-name="Ellipse 2" cx="34" cy="34" r="34" style="fill:#068e06"/>
            </g>
            <g data-name="Group 287">
                <g data-name="Group 286">
                    <path data-name="Path 172" d="M280.259 205.514c.438.355-5.951 8.947-14.267 19.187l-5.036 6.11-.688.836-.739-.763c-6.493-6.69-10.927-11.66-10.612-11.973s5.282 4.119 11.973 10.612l-1.426.074c1.535-1.92 3.2-4.006 4.945-6.183 8.315-10.24 15.413-18.254 15.85-17.9z" transform="translate(-189.828 -133.928)" style="fill:#fff"/>
                </g>
            </g>
        </g>
        <g data-name="Group 289">
            <path data-name="Path 173" d="M298.538 206.773c-1.015-3.593-5.683-3.244-5.683-3.244l.128 2.5c2.7-.466 4.377 2.7 4.377 2.7z" transform="translate(-176.007 -134.509)" style="fill:#068e06"/>
        </g>
        <g data-name="Group 290">
            <path data-name="Path 174" d="M222.706 212.54c-1.014-3.593-5.682-3.244-5.682-3.244l.128 2.5c2.7-.465 4.375 2.7 4.375 2.7z" transform="translate(-199.611 -132.718)" style="fill:#e0e0e0"/>
        </g>
        <g data-name="Group 291">
            <path data-name="Path 175" d="M263.5 175.253c5.415 1.64 8.785-4.605 8.785-4.605l-3.294-1.877c-1.612 3.826-7.019 3.383-7.019 3.383z" transform="translate(-185.588 -145.299)" style="fill:#e0e0e0"/>
        </g>
        <g data-name="Group 292">
            <path data-name="Path 176" d="M240.794 178.881c-2.519.268-2.821 3.432-2.821 3.432l1.687.2c0-1.86 2.305-2.62 2.305-2.62z" transform="translate(-193.049 -142.162)" style="fill:#068e06"/>
        </g>
        <g data-name="Group 293">
            <path data-name="Path 177" d="M320.428 197.435c.366-2.508-2.624-3.584-2.624-3.584l-.613 1.584c1.8.458 1.966 2.884 1.966 2.884z" transform="translate(-168.459 -137.512)" style="fill:#e0e0e0"/>
        </g>
        <g data-name="Group 294">
            <path data-name="Path 178" d="M252.15 154.447c.366-2.508-2.625-3.585-2.625-3.585l-.611 1.584c1.8.46 1.966 2.884 1.966 2.884z" transform="translate(-189.654 -150.862)" style="fill:#068e06"/>
        </g>
        <g data-name="Group 295">
            <path data-name="Path 179" d="M203.72 184.965c-.453 3.931 4.756 4.885 4.756 4.885l.94-2.573c-3.126-.283-3.576-3.964-3.576-3.964z" transform="translate(-203.692 -140.782)" style="fill:#068e06"/>
        </g>
        <g data-name="Group 296">
            <path data-name="Path 180" d="M292.705 174.466c2.531.145 3.34-2.928 3.34-2.928l-1.631-.472c-.3 1.835-2.7 2.213-2.7 2.213z" transform="translate(-176.365 -144.589)" style="fill:#068e06"/>
        </g>
        <g data-name="Group 315">
            <g data-name="Group 301">
                <g data-name="Group 298">
                    <g data-name="Group 297">
                        <path data-name="Path 181" d="M304.036 181.616a10.743 10.743 0 0 1-4.178 0 10.813 10.813 0 0 1 4.178 0z" transform="translate(-173.765 -141.387)" style="fill:#e0e0e0"/>
                    </g>
                </g>
                <g data-name="Group 300">
                    <g data-name="Group 299">
                        <path data-name="Path 182" d="M304.8 177.217a11.13 11.13 0 0 1 0 4.24 11.128 11.128 0 0 1 0-4.24z" transform="translate(-172.313 -142.671)" style="fill:#e0e0e0"/>
                    </g>
                </g>
            </g>
            <g data-name="Group 306">
                <g data-name="Group 303">
                    <g data-name="Group 302">
                        <path data-name="Path 183" d="M306.565 181.512a10.811 10.811 0 0 1 4.178 0 10.813 10.813 0 0 1-4.178 0z" transform="translate(-171.712 -141.419)" style="fill:#e0e0e0"/>
                    </g>
                </g>
                <g data-name="Group 305">
                    <g data-name="Group 304">
                        <path data-name="Path 184" d="M304.914 186.809a11.13 11.13 0 0 1 0-4.24 11.128 11.128 0 0 1 0 4.24z" transform="translate(-172.28 -141.033)" style="fill:#e0e0e0"/>
                    </g>
                </g>
            </g>
            <g data-name="Group 308">
                <g data-name="Group 307">
                    <path data-name="Path 185" d="M307.8 184.368c-.088.072-.49-.268-.9-.759s-.673-.948-.586-1.02.49.268.9.759.676.952.586 1.02z" transform="translate(-171.792 -141.03)" style="fill:#e0e0e0"/>
                </g>
            </g>
            <g data-name="Group 310">
                <g data-name="Group 309">
                    <path data-name="Path 186" d="M307.667 179.018c.08.078-.2.491-.626.921s-.836.713-.917.635.2-.492.627-.922.836-.714.916-.634z" transform="translate(-171.851 -142.124)" style="fill:#e0e0e0"/>
                </g>
            </g>
            <g data-name="Group 312">
                <g data-name="Group 311">
                    <path data-name="Path 187" d="M303.983 180.563c-.073.086-.46-.118-.865-.455s-.677-.682-.6-.768.46.116.865.455.672.681.6.768z" transform="translate(-172.955 -142.027)" style="fill:#e0e0e0"/>
                </g>
            </g>
            <g data-name="Group 314">
                <g data-name="Group 313">
                    <path data-name="Path 188" d="M303.824 182.449c.084.077-.163.482-.55.906s-.767.707-.85.631.162-.482.549-.906.767-.707.851-.631z" transform="translate(-172.985 -141.074)" style="fill:#e0e0e0"/>
                </g>
            </g>
        </g>
        <g data-name="Group 334">
            <g data-name="Group 320">
                <g data-name="Group 317">
                    <g data-name="Group 316">
                        <path data-name="Path 189" d="M216.921 172.7a10.745 10.745 0 0 1-4.178 0 10.811 10.811 0 0 1 4.178 0z" transform="translate(-200.921 -144.157)" style="fill:#068e06"/>
                    </g>
                </g>
                <g data-name="Group 319">
                    <g data-name="Group 318">
                        <path data-name="Path 190" d="M217.688 168.3a11.058 11.058 0 0 1 0 4.24 11.128 11.128 0 0 1 0-4.24z" transform="translate(-199.47 -145.441)" style="fill:#068e06"/>
                    </g>
                </g>
            </g>
            <g data-name="Group 325">
                <g data-name="Group 322">
                    <g data-name="Group 321">
                        <path data-name="Path 191" d="M219.45 172.6a10.812 10.812 0 0 1 4.178 0 10.812 10.812 0 0 1-4.178 0z" transform="translate(-198.868 -144.189)" style="fill:#068e06"/>
                    </g>
                </g>
                <g data-name="Group 324">
                    <g data-name="Group 323">
                        <path data-name="Path 192" d="M217.8 177.895a11.128 11.128 0 0 1 0-4.24 11.13 11.13 0 0 1 0 4.24z" transform="translate(-199.436 -143.803)" style="fill:#068e06"/>
                    </g>
                </g>
            </g>
            <g data-name="Group 327">
                <g data-name="Group 326">
                    <path data-name="Path 193" d="M220.688 175.454c-.086.072-.488-.268-.9-.759s-.673-.948-.586-1.02.488.268.9.759.672.948.586 1.02z" transform="translate(-198.948 -143.8)" style="fill:#068e06"/>
                </g>
            </g>
            <g data-name="Group 329">
                <g data-name="Group 328">
                    <path data-name="Path 194" d="M220.552 170.1c.08.078-.2.491-.627.921s-.836.713-.916.635.2-.492.626-.922.836-.71.917-.634z" transform="translate(-199.007 -144.894)" style="fill:#068e06"/>
                </g>
            </g>
            <g data-name="Group 331">
                <g data-name="Group 330">
                    <path data-name="Path 195" d="M216.867 171.649c-.072.086-.458-.118-.865-.455s-.675-.68-.6-.768.46.118.865.455.672.681.6.768z" transform="translate(-200.111 -144.797)" style="fill:#068e06"/>
                </g>
            </g>
            <g data-name="Group 333">
                <g data-name="Group 332">
                    <path data-name="Path 196" d="M216.708 173.535c.084.077-.162.482-.549.906s-.768.707-.852.631.163-.482.55-.906.769-.707.851-.631z" transform="translate(-200.141 -143.844)" style="fill:#068e06"/>
                </g>
            </g>
        </g>
    </g>
</svg>
