<svg xmlns="http://www.w3.org/2000/svg" width="40.026" height="40" viewBox="0 0 40.026 40">
    <g data-name="Path 2718" style="fill:#c8efc5">
        <path d="m13.473 41.942-.207-.005c-1-.012-1.937-.41-2.64-1.121a3.756 3.756 0 0 1-1.091-2.652V4.385a2.42 2.42 0 0 0-.47-1.443h26.256a2.876 2.876 0 0 1 2.857 2.86v28.79c-6.567 2.11-22.811 7.233-24.6 7.346h-.007l-.008.002a1.092 1.092 0 0 1-.09.002z" style="stroke:none" transform="translate(-2.179 -2.442)"/>
        <path d="M9.883 3.442c.1.3.153.618.152.943v33.779c.001.867.337 1.684.947 2.3.61.617 1.423.963 2.29.973l.246.005.029-.003c.393-.025 2.461-.44 13.156-3.751 4.703-1.457 9.276-2.917 10.975-3.461V5.804a2.375 2.375 0 0 0-2.357-2.362H9.883m-2.786-1H35.32A3.37 3.37 0 0 1 38.678 5.8v29.156s-22.786 7.336-25.068 7.481c-.048.005-.096.005-.145.005h-.206v-.005a4.278 4.278 0 0 1-4.224-4.272V4.385a1.94 1.94 0 0 0-1.938-1.943z" style="fill:#a0d89b;stroke:none" transform="translate(-2.179 -2.442)"/>
    </g>
    <path data-name="Path 2719" d="M9.035 23.721c-.233 0-.466.013-.69.035a6.359 6.359 0 0 0 0 12.642 5.961 5.961 0 0 0 .69.039 6.358 6.358 0 0 0 0-12.716z" style="stroke:#a0d89b;fill:#c8efc5" transform="translate(-2.179 -2.442)"/>
    <path data-name="Path 2720" d="M7.1 2.444a.512.512 0 0 0-.084 0 1.932 1.932 0 0 0-1.289.561 1.958 1.958 0 0 0-.567 1.374v6.368a1.119 1.119 0 0 0 1.117 1.117h2.759V4.383A1.94 1.94 0 0 0 7.1 2.444z" style="fill:#bae5b6" transform="translate(-2.179 -2.442)"/>
    <path data-name="Path 2721" d="M17.612 38.013a4.381 4.381 0 0 1-4 4.424h-.145 24.085a4.651 4.651 0 0 0 4.648-4.644v-2.836H17.612z" style="fill:#bae5b6" transform="translate(-2.179 -2.442)"/>
    <path data-name="Path 2722" d="M8.336 28.273h2.078a.614.614 0 1 0 0-1.227H9.65v-.953a.614.614 0 0 0-1.227 0v.953h-.087a1.293 1.293 0 0 0-1.291 1.291V29.4a1.292 1.292 0 0 0 1.291 1.291h1.4a.063.063 0 0 1 .063.063v1.064a.063.063 0 0 1-.063.063H7.659a.614.614 0 0 0 0 1.227h.763v.953a.614.614 0 0 0 1.227 0v-.953h.086a1.292 1.292 0 0 0 1.291-1.291v-1.062a1.292 1.292 0 0 0-1.291-1.291h-1.4a.063.063 0 0 1-.063-.063v-1.064a.064.064 0 0 1 .063-.064z" style="fill:#047600" transform="translate(-2.179 -2.442)"/>
    <g data-name="Group 2337">
        <g data-name="Group 2336">
            <path data-name="Path 2723" d="M18.944 5.729h-4.49a.614.614 0 0 0 0 1.227h1.631v4.912a.614.614 0 0 0 1.227 0V6.957h1.631a.614.614 0 1 0 0-1.227z" style="fill:#047600" transform="translate(-2.179 -2.442)"/>
            <path data-name="Path 2724" d="M24.942 9.816 23.337 6.1a.646.646 0 0 0-.586-.371.613.613 0 0 0-.563.371l-1.6 3.712-.782 1.81a.614.614 0 0 0 1.127.487l.624-1.445h2.42l.623 1.446a.614.614 0 0 0 1.126-.487zm-2.86-.377.68-1.575.68 1.575z" style="fill:#047600" transform="translate(-2.179 -2.442)"/>
            <path data-name="Path 2725" d="M31.875 5.852a.613.613 0 0 0-.859.124l-1.573 2.1-1.573-2.1a.614.614 0 1 0-.982.735l1.788 2.4-1.788 2.389a.614.614 0 1 0 .982.735l1.573-2.1 1.573 2.1A.614.614 0 1 0 32 11.5l-1.791-2.394L32 6.71a.613.613 0 0 0-.123-.859z" style="fill:#047600" transform="translate(-2.179 -2.442)"/>
        </g>
        <path data-name="Path 2726" d="M33.585 17.456H13.777a.614.614 0 0 0 0 1.227h19.808a.614.614 0 1 0 0-1.227z" style="fill:#047600" transform="translate(-2.179 -2.442)"/>
        <path data-name="Path 2727" d="M33.585 21.2H13.777a.614.614 0 1 0 0 1.227h19.808a.614.614 0 1 0 0-1.227z" style="fill:#047600" transform="translate(-2.179 -2.442)"/>
        <path data-name="Path 2728" d="M33.585 24.945H18.9a.614.614 0 0 0 0 1.227h14.685a.614.614 0 1 0 0-1.227z" style="fill:#047600" transform="translate(-2.179 -2.442)"/>
        <path data-name="Path 2729" d="M33.585 28.689H18.9a.614.614 0 0 0 0 1.227h14.685a.614.614 0 1 0 0-1.227z" style="fill:#047600" transform="translate(-2.179 -2.442)"/>
    </g>
</svg>
