<svg xmlns="http://www.w3.org/2000/svg" width="148" height="32" viewBox="0 0 148 32">
  <defs>
    <style>
      .cls-1 {
        fill: #fff;
        stroke: #707070;
        opacity: 0;
      }

      .cls-2 {
        fill: #a7a5a6;
      }

      .cls-3 {
        fill: #e90810;
      }

      .cls-4 {
        stroke: none;
      }

      .cls-5 {
        fill: none;
      }
    </style>
  </defs>
  <g id="Group_2382" data-name="Group 2382" transform="translate(-532 -3064)">
    <g id="Rectangle_4841" data-name="Rectangle 4841" class="cls-1" transform="translate(532 3064)">
      <rect class="cls-4" width="148" height="32"/>
      <rect class="cls-5" x="0.5" y="0.5" width="147" height="31"/>
    </g>
    <g id="g939" transform="translate(538.613 3064)">
      <g id="g931" transform="translate(1.02 0) rotate(1.885)">
        <g id="g926" transform="translate(0 0)">
          <path id="path31718" class="cls-2" d="M0,11.28,11.1,8.163l7.3.385L23.15,21.425l-1.185,9.563L26.96,21.44,24.3,9.087l3.456-.04,2.792,3.632-2.822-8.33-4.591-.165L22.29.8,15.195,0l1.282,3.843-4.995-.112Z" transform="translate(0 0)"/>
          <path id="path31206-9" class="cls-3" d="M0,2.4,2.444,4.948l4.111.1L5.535,1.308,11.3,0l1.767,5.378,6.364.115,10.4-1.6-9.775,7.289L15.037,10.7l1.876,6.2,4.443,4.986L11.014,16.98,8.6,10.008,2.373,9.669Z" transform="translate(0.254 9.122)"/>
        </g>
      </g>
      <g id="text868" transform="translate(32.795 14.217)">
        <path id="path870" d="M40.625,30.787h2.894l2.07-11.014h3.618l.482-2.532H39.62l-.5,2.532H42.7Z" transform="translate(-39.118 -17.02)"/>
        <path id="path872" d="M60.1,22.607H55.274l.563-2.894h5.1l.482-2.472H53.405L50.832,30.787h8.3l.462-2.472H54.189l.623-3.276h4.824Z" transform="translate(-41.205 -17.02)"/>
        <path id="path874" d="M63.477,30.787h8.1l.482-2.532H66.853l2.09-11.014H66.049Z" transform="translate(-43.459 -17.02)"/>
        <path id="path876" d="M75.387,30.787h2.854l.864-4.522L80.552,24.9l2.271,5.889h3.135l-3.135-7.7,5.487-5.849H84.693l-3.758,4.5c-.382.482-.8.965-1.206,1.548h-.06l1.146-6.05H77.96Z" transform="translate(-45.581 -17.02)"/>
        <path id="path878" d="M96.862,16.972A7.1,7.1,0,0,0,91.917,18.9a9.023,9.023,0,0,0-2.492,6.411c0,3.155,1.97,5.648,5.487,5.648a7.031,7.031,0,0,0,5-1.95,9.055,9.055,0,0,0,2.412-6.391C102.328,19.383,100.439,16.972,96.862,16.972Zm-.342,2.412c2.13,0,2.733,1.628,2.733,3.316a7.729,7.729,0,0,1-1.648,4.864,3.306,3.306,0,0,1-2.271.985c-1.97,0-2.834-1.427-2.834-3.336a7.361,7.361,0,0,1,1.688-4.8A3.211,3.211,0,0,1,96.52,19.383Z" transform="translate(-48.083 -16.972)"/>
        <path id="path880" d="M120.017,30.787l1.829-13.546h-3.919l-2.512,5.145a44.393,44.393,0,0,0-1.829,4.321h-.08c-.02-1.507-.161-3.055-.241-4.321l-.422-5.145h-3.879l-3.4,13.546h2.653l1.347-5.587c.342-1.467.744-3.5,1.126-5.286h.04c.08,1.809.181,3.678.3,5.165l.482,5.487h2.251l2.774-5.547c.744-1.487,1.588-3.356,2.331-5.1h.06c-.382,1.95-.683,3.819-.9,5.286l-.824,5.587Z" transform="translate(-50.96 -17.02)"/>
        <path id="path882" d="M135.925,28.026a7.1,7.1,0,0,1-2.573.442,3.288,3.288,0,0,1-3.6-3.6,5.484,5.484,0,0,1,1.869-4.361,4.84,4.84,0,0,1,3.1-1.045,5.988,5.988,0,0,1,2.452.442l.784-2.352A6.427,6.427,0,0,0,135,16.972a8.466,8.466,0,0,0-4.984,1.447,7.894,7.894,0,0,0-3.417,6.773c0,3.578,2.412,5.748,5.989,5.748a9.268,9.268,0,0,0,3.577-.583Z" transform="translate(-54.708 -16.972)"/>
        <path id="path884" d="M149.389,22.607h-4.824l.563-2.894h5.1l.482-2.472H142.7l-2.573,13.546h8.3l.462-2.472H143.48l.623-3.276h4.824Z" transform="translate(-57.118 -17.02)"/>
        <path id="path886" d="M152.768,30.787h8.1l.482-2.532h-5.205l2.09-11.014h-2.894Z" transform="translate(-59.371 -17.02)"/>
      </g>
    </g>
  </g>
</svg>
