<svg xmlns="http://www.w3.org/2000/svg" width="41.049" height="38.069" viewBox="0 0 41.049 38.069">
    <g data-name="Group 2352">
        <path d="m39.757 34.8-3.1-5.361a.626.626 0 0 0-.541-.313H3.89a.626.626 0 0 0-.541.313L.253 34.8a1.852 1.852 0 0 0 1.6 2.777h36.3a1.852 1.852 0 0 0 1.6-2.777zM6.236 26.31h27.538a.625.625 0 0 0 .541-.938l-3.9-6.758a.624.624 0 0 0-.541-.313H10.137a.624.624 0 0 0-.541.313l-3.9 6.758a.625.625 0 0 0 .541.938z" transform="translate(.519 -.005)" style="fill-rule:evenodd;fill:#c8efc5;stroke:#a0d89b"/>
        <path data-name="pyramid" d="M12.484 15.488h15.042a.625.625 0 0 0 .541-.938L21.608 3.362a1.851 1.851 0 0 0-3.206 0l-6.46 11.188a.625.625 0 0 0 .541.938z" transform="translate(.519 -2.436)" style="fill:#047600;fill-rule:evenodd"/>
    </g>
</svg>
