<svg xmlns="http://www.w3.org/2000/svg" width="40.5" height="41.001" viewBox="0 0 40.5 41.001">
    <path data-name="Path 2581" d="M7.031 24.688v4.688a1.172 1.172 0 0 1-2.344 0v-4.688a1.172 1.172 0 0 1 2.344 0zm0 0" style="fill:#047600" transform="translate(.5 .501)"/>
    <path data-name="Path 2583" d="M7.031 10.547v4.766a1.172 1.172 0 0 1-2.344 0v-4.766a1.172 1.172 0 0 1 2.344 0zm0 0" style="fill:#047600" transform="translate(.5 .501)"/>
    <path data-name="Union 4" d="m-6424.656-3526.118-4.688-2.343a1.2 1.2 0 0 1-.657-1.055v-4.765a1.2 1.2 0 0 1 .657-1.054l4.688-2.345a1.256 1.256 0 0 1 .515-.116 1.267 1.267 0 0 1 .517.116l4.688 2.345a1.2 1.2 0 0 1 .655 1.054v4.765a1.2 1.2 0 0 1-.655 1.055l-4.687 2.343a1.268 1.268 0 0 1-.517.118 1.258 1.258 0 0 1-.516-.118zm0-14.139-4.688-2.345a1.2 1.2 0 0 1-.657-1.054v-4.688a1.2 1.2 0 0 1 .657-1.055l4.688-2.343a1.258 1.258 0 0 1 .515-.118 1.269 1.269 0 0 1 .517.118l4.688 2.343a1.2 1.2 0 0 1 .655 1.055v4.688a1.2 1.2 0 0 1-.655 1.054l-4.687 2.345a1.3 1.3 0 0 1-.517.116 1.284 1.284 0 0 1-.516-.116zm0-14.141-4.688-2.345a1.2 1.2 0 0 1-.657-1.054v-4.688a1.2 1.2 0 0 1 .657-1.055l4.688-2.343a1.261 1.261 0 0 1 .515-.118 1.272 1.272 0 0 1 .517.118l4.688 2.343a1.2 1.2 0 0 1 .655 1.055v4.688a1.2 1.2 0 0 1-.655 1.054l-4.687 2.345a1.291 1.291 0 0 1-.517.116 1.28 1.28 0 0 1-.516-.118z" transform="translate(6430.5 3566.501)" style="fill:#c8efc5;stroke:#a0d89b"/>
    <g data-name="Group 2307">
        <path data-name="Path 2591" d="M38.828 4.688H15.234a1.172 1.172 0 0 1 0-2.344h23.594a1.172 1.172 0 0 1 0 2.344zm0 0" style="fill:#047600" transform="translate(.5 .501)"/>
        <path data-name="Path 2592" d="M27.031 9.375h-11.8a1.172 1.172 0 0 1 0-2.344h11.8a1.172 1.172 0 0 1 0 2.344zm0 0" style="fill:#047600" transform="translate(.5 .501)"/>
        <path data-name="Path 2593" d="M27.031 23.516h-11.8a1.172 1.172 0 0 1 0-2.344h11.8a1.172 1.172 0 0 1 0 2.344zm0 0" style="fill:#047600" transform="translate(.5 .501)"/>
        <path data-name="Path 2594" d="M27.031 37.578h-11.8a1.172 1.172 0 0 1 0-2.344h11.8a1.172 1.172 0 0 1 0 2.344zm0 0" style="fill:#047600" transform="translate(.5 .501)"/>
        <path data-name="Path 2595" d="M38.828 18.828H15.234a1.172 1.172 0 0 1 0-2.344h23.594a1.172 1.172 0 0 1 0 2.344zm0 0" style="fill:#047600" transform="translate(.5 .501)"/>
        <path data-name="Path 2596" d="M38.828 32.891H15.234a1.172 1.172 0 0 1 0-2.344h23.594a1.172 1.172 0 0 1 0 2.344zm0 0" style="fill:#047600" transform="translate(.5 .501)"/>
    </g>
    <path data-name="Path 2597" d="M7.031 5.859a1.172 1.172 0 1 1-1.172-1.171 1.16 1.16 0 0 1 1.172 1.171zm0 0" style="fill:#fff" transform="translate(.5 .501)"/>
    <path data-name="Path 2598" d="M7.031 20a1.172 1.172 0 1 1-1.172-1.172A1.16 1.16 0 0 1 7.031 20zm0 0" style="fill:#fff" transform="translate(.5 .501)"/>
    <path data-name="Path 2599" d="M7.031 34.063a1.172 1.172 0 1 1-1.172-1.172 1.16 1.16 0 0 1 1.172 1.172zm0 0" style="fill:#fff" transform="translate(.5 .501)"/>
</svg>
