<svg xmlns="http://www.w3.org/2000/svg" xmlns:xlink="http://www.w3.org/1999/xlink" width="32" height="32" viewBox="0 0 32 32">
  <defs>
    <clipPath id="clip-path">
      <rect id="Rectangle_3977" data-name="Rectangle 3977" width="32" height="32" transform="translate(597 1688)" fill="#fff"/>
    </clipPath>
  </defs>
  <g id="Mask_Group_231" data-name="Mask Group 231" transform="translate(-597 -1688)" clip-path="url(#clip-path)">
    <g id="new" transform="translate(598.86 1688)">
      <path id="Path_2351" data-name="Path 2351" d="M18.28,20.013H17.86L16.3,20.89a4.86,4.86,0,0,1-2.054.687h-.023a6.366,6.366,0,0,1-2.7-.65l-1.177-.894H9.887a7.54,7.54,0,0,0-6.036,7.374v3.139H24.428V27.409a7.54,7.54,0,0,0-6.148-7.4Zm0,0" transform="translate(0 1.401)" fill="rgba(85,85,85,0.75)"/>
      <path id="Path_2352" data-name="Path 2352" d="M16.356,18.044l-1.187.436a4.528,4.528,0,0,1-3.626-.207l-.67-.362L9.664,20.236l1.453.84a6.366,6.366,0,0,0,2.7.65h.023a4.86,4.86,0,0,0,2.054-.687l1.976-.811Zm0,0" transform="translate(0.407 1.254)" fill="#555"/>
      <path id="Path_2353" data-name="Path 2353" d="M6.515,9.046A2.341,2.341,0,0,0,7.662,13.5L6.624,9.154" transform="translate(0.092 0.633)" fill="rgba(85,85,85,0.75)"/>
      <path id="Path_2354" data-name="Path 2354" d="M20.768,9.16c.86.222,1.3,1.392.982,2.612a2.332,2.332,0,0,1-2.438,1.808Zm0,0" transform="translate(1.083 0.641)" fill="rgba(85,85,85,0.75)"/>
      <path id="Path_2355" data-name="Path 2355" d="M21.572,5.354a7.451,7.451,0,0,0-2.39-3.7A7.349,7.349,0,0,0,14.475.05a7.946,7.946,0,0,0-6.437,2,2,2,0,0,0-.555,2.692c-.306.264-.612.521-.917.785-.036.085-.087.212-.141.368A6.89,6.89,0,0,0,6.18,9.189H6.166c.03.174.062.343.094.511.005.029.01.059.015.087.051.295.125.644.232,1.034a20.258,20.258,0,0,0,2.479,5.925c1.607,2.567,2.818,3.146,3.532,3.389a5.074,5.074,0,0,0,3.179,0c.887-.306,1.9-.968,3.267-3.253a20.911,20.911,0,0,0,1.845-3.995c0,.035,0,.074-.007.108a12.152,12.152,0,0,0,1.019-3.732,8.947,8.947,0,0,0-.25-3.91Zm0,0" transform="translate(0.157 0)" fill="rgba(85,85,85,0.5)"/>
      <path id="Path_2356" data-name="Path 2356" d="M7.2,10.168a9.907,9.907,0,0,1,.546-2.23,4.631,4.631,0,0,1,.93-1.558,4.383,4.383,0,0,1,2.431-1.195,6.259,6.259,0,0,1,3.436.385c1.287.465,1.384.873,2.374,1.161a5.385,5.385,0,0,0,3.331-.224c.188.793.308,1.483.386,2.029a21.522,21.522,0,0,1,.218,2.556c.015.764-.016,1.414-.055,1.9a12.152,12.152,0,0,0,1.019-3.732,8.946,8.946,0,0,0-.249-3.91,7.451,7.451,0,0,0-2.39-3.7A7.349,7.349,0,0,0,14.475.05a7.946,7.946,0,0,0-6.437,2,2,2,0,0,0-.555,2.692c-.306.264-.612.521-.917.785-.036.085-.087.212-.141.368a7.484,7.484,0,0,0-.148,3.89,10.079,10.079,0,0,0,.575,2.269c.087-.78.269-1.413.353-1.888Zm0,0" transform="translate(0.157 0)" fill="rgba(85,85,85,0.75)"/>
    </g>
  </g>
</svg>
