<svg xmlns="http://www.w3.org/2000/svg" width="148" height="32" viewBox="0 0 148 32">
  <defs>
    <style>
      .cls-1 {
        fill: #fff;
        stroke: #707070;
        opacity: 0;
      }

      .cls-2 {
        fill: #0d2234;
      }

      .cls-3 {
        fill: #ee2737;
      }

      .cls-4 {
        stroke: none;
      }

      .cls-5 {
        fill: none;
      }
    </style>
  </defs>
  <g id="Group_2379" data-name="Group 2379" transform="translate(-204 -3064)">
    <g id="Rectangle_4843" data-name="Rectangle 4843" class="cls-1" transform="translate(204 3064)">
      <rect class="cls-4" width="148" height="32"/>
      <rect class="cls-5" x="0.5" y="0.5" width="147" height="31"/>
    </g>
    <g id="venturedive-logo" transform="translate(204 3072.292)">
      <path id="Path_2834" data-name="Path 2834" class="cls-2" d="M56.666,9.814H59.36a.407.407,0,0,1,.392.282L63.56,21.261,67.343,10.1a.421.421,0,0,1,.392-.282h2.688a.41.41,0,0,1,.392.551L65.439,24.655a.423.423,0,0,1-.392.27H62.036a.415.415,0,0,1-.392-.27L56.268,10.366A.416.416,0,0,1,56.666,9.814Z" transform="translate(-23.602 -9.747)"/>
      <path id="Path_2835" data-name="Path 2835" class="cls-2" d="M79.966,22.534a2.8,2.8,0,0,0,2.98,2.089,7.519,7.519,0,0,0,3.217-.717.413.413,0,0,1,.6.368v1.961a.417.417,0,0,1-.249.374,9.394,9.394,0,0,1-3.814.748,5.556,5.556,0,0,1-5.8-5.778,5.558,5.558,0,0,1,5.618-5.754,5.078,5.078,0,0,1,5.258,5.263,6.68,6.68,0,0,1-.112,1.109.412.412,0,0,1-.411.337Zm.56-2.286h3.8a.41.41,0,0,0,.392-.545,2.215,2.215,0,0,0-2.221-1.366,2.56,2.56,0,0,0-2.346,1.33A.41.41,0,0,0,80.526,20.248Z" transform="translate(-31.137 -11.939)"/>
      <path id="Path_2836" data-name="Path 2836" class="cls-2" d="M98.92,17.451a3.306,3.306,0,0,1,2.843-1.618,4.013,4.013,0,0,1,4.082,4.013v6.863a.414.414,0,0,1-.417.411h-2.259a.414.414,0,0,1-.417-.411V20.833a1.869,1.869,0,0,0-1.916-2.047A1.841,1.841,0,0,0,98.92,20.7v6.011a.414.414,0,0,1-.417.411h-2.24a.414.414,0,0,1-.417-.411V16.458a.414.414,0,0,1,.417-.411H98.5a.414.414,0,0,1,.417.411Z" transform="translate(-38.049 -11.942)"/>
      <path id="Path_2837" data-name="Path 2837" class="cls-2" d="M114.553,24.475V16.393h-1.3a.414.414,0,0,1-.417-.411V14.224a.413.413,0,0,1,.417-.411h1.481V10.107a.414.414,0,0,1,.323-.4l2.06.012a.424.424,0,0,1,.51.4v3.695h1.48a.414.414,0,0,1,.417.411v1.759a.414.414,0,0,1-.417.411h-1.48v8.076a.414.414,0,0,1-.417.411h-2.24A.413.413,0,0,1,114.553,24.475Z" transform="translate(-44.247 -9.708)"/>
      <path id="Path_2838" data-name="Path 2838" class="cls-2" d="M132.071,25.856a3.261,3.261,0,0,1-2.955,1.624,3.874,3.874,0,0,1-3.927-4.154V16.579a.414.414,0,0,1,.417-.41h2.24a.414.414,0,0,1,.417.41v5.876a1.91,1.91,0,1,0,3.814.153V16.573a.414.414,0,0,1,.417-.411h2.239a.414.414,0,0,1,.417.411V26.818a.414.414,0,0,1-.417.411h-2.239a.414.414,0,0,1-.417-.411v-.962Z" transform="translate(-48.753 -12.063)"/>
      <path id="Path_2839" data-name="Path 2839" class="cls-2" d="M146.472,17.246a3.043,3.043,0,0,1,2.662-1.422c.137,0,.324.006.5.018a.411.411,0,0,1,.379.41v2.273a.41.41,0,0,1-.522.392,4.122,4.122,0,0,0-1.126-.141,1.852,1.852,0,0,0-1.9,1.912V26.7a.413.413,0,0,1-.416.41h-2.24a.414.414,0,0,1-.417-.41V16.455a.414.414,0,0,1,.417-.411h2.24a.413.413,0,0,1,.416.411v.79Z" transform="translate(-55.394 -11.939)"/>
      <path id="Path_2840" data-name="Path 2840" class="cls-2" d="M157.534,22.534a2.8,2.8,0,0,0,2.98,2.089,7.519,7.519,0,0,0,3.217-.717.413.413,0,0,1,.6.368v1.961a.416.416,0,0,1-.249.374,9.4,9.4,0,0,1-3.814.748,5.556,5.556,0,0,1-5.8-5.778,5.558,5.558,0,0,1,5.619-5.754,5.079,5.079,0,0,1,5.258,5.263,6.679,6.679,0,0,1-.113,1.109.412.412,0,0,1-.41.337Zm.56-2.286h3.8a.41.41,0,0,0,.392-.545,2.214,2.214,0,0,0-2.221-1.366,2.559,2.559,0,0,0-2.346,1.33A.412.412,0,0,0,158.093,20.248Z" transform="translate(-59.433 -11.939)"/>
      <path id="Path_2841" data-name="Path 2841" class="cls-2" d="M173.422,10.215a.414.414,0,0,1,.417-.411h5.27a7.14,7.14,0,0,1,7.578,7.555,7.143,7.143,0,0,1-7.578,7.555h-5.27a.414.414,0,0,1-.417-.411Zm3.2,2.635v9.02h2.457c2.775,0,4.287-1.93,4.287-4.51,0-2.555-1.512-4.51-4.287-4.51Z" transform="translate(-66.349 -9.744)"/>
      <path id="Path_2842" data-name="Path 2842" class="cls-2" d="M197.567,9.814a1.682,1.682,0,1,1-1.7,1.691A1.657,1.657,0,0,1,197.567,9.814Zm1.119,15.11h-2.239a.414.414,0,0,1-.417-.411V14.269a.414.414,0,0,1,.417-.411h2.239a.414.414,0,0,1,.418.411V24.514A.414.414,0,0,1,198.686,24.925Z" transform="translate(-74.537 -9.747)"/>
      <path id="Path_2843" data-name="Path 2843" class="cls-2" d="M206.219,16.447l2.52,7.034,2.538-7.04a.41.41,0,0,1,.392-.27h2.352a.405.405,0,0,1,.385.551l-3.944,10.251a.417.417,0,0,1-.386.263h-2.65a.405.405,0,0,1-.386-.263l-3.926-10.245a.409.409,0,0,1,.385-.552h2.333A.414.414,0,0,1,206.219,16.447Z" transform="translate(-77.171 -12.066)"/>
      <path id="Path_2844" data-name="Path 2844" class="cls-2" d="M223.8,22.534a2.8,2.8,0,0,0,2.98,2.089A7.519,7.519,0,0,0,230,23.906a.413.413,0,0,1,.6.368v1.961a.416.416,0,0,1-.249.374,9.394,9.394,0,0,1-3.813.748,5.555,5.555,0,0,1-5.8-5.778,5.558,5.558,0,0,1,5.618-5.754,5.078,5.078,0,0,1,5.258,5.263A6.762,6.762,0,0,1,231.5,22.2a.414.414,0,0,1-.411.337Zm.566-2.286h3.8a.41.41,0,0,0,.392-.545,2.215,2.215,0,0,0-2.222-1.366,2.559,2.559,0,0,0-2.346,1.33A.408.408,0,0,0,224.365,20.248Z" transform="translate(-83.608 -11.939)"/>
      <path id="Path_2845" data-name="Path 2845" class="cls-3" d="M21.979,9.778h-5.9a1.8,1.8,0,0,0-1.588,2.7l2.3,3.92a1.966,1.966,0,0,0,1.7.965h3.088l-2.341-4h2.746a4.061,4.061,0,0,1,4.277,4,4.145,4.145,0,0,1-4.407,4.151H18.639a4.392,4.392,0,0,1-3.965-2.172L9.621,10.722a1.924,1.924,0,0,0-1.661-.944h-3.1l6.164,10.551c2.405,4.127,5.416,4.69,7.45,4.783h3.624a7.789,7.789,0,0,0,7.82-7.306A7.807,7.807,0,0,0,21.979,9.778Z" transform="translate(-4.854 -9.732)"/>
    </g>
  </g>
</svg>
