<svg xmlns="http://www.w3.org/2000/svg" width="40" height="38" viewBox="0 0 40 38">
    <g data-name="Group 12">
        <g data-name="Group 11">
            <path data-name="Path 32" d="M125 160.083a3.123 3.123 0 0 0 3.077 3.167h33.846a3.123 3.123 0 0 0 3.077-3.167v-31.666a3.123 3.123 0 0 0-3.077-3.167h-33.846a3.123 3.123 0 0 0-3.077 3.167zm1.538-31.667a1.561 1.561 0 0 1 1.538-1.583h33.846a1.561 1.561 0 0 1 1.538 1.583v31.667a1.561 1.561 0 0 1-1.538 1.583h-33.845a1.561 1.561 0 0 1-1.538-1.583zm0 0" transform="translate(-125 -125.25)" style="fill:#6d6d6d"/>
            <path data-name="Path 33" d="M187.5 187.75h1.538v1.538H187.5zm0 0" transform="translate(-184.423 -184.502)" style="fill:#6d6d6d"/>
            <path data-name="Path 34" d="M250 187.75h1.538v1.538H250zm0 0" transform="translate(-243.846 -184.502)" style="fill:#6d6d6d"/>
            <path data-name="Path 35" d="M312.5 187.75h1.538v1.538H312.5zm0 0" transform="translate(-303.269 -184.502)" style="fill:#6d6d6d"/>
            <path data-name="Path 36" d="M187.5 250.25h33.846v1.538H187.5zm0 0" transform="translate(-184.423 -243.814)" style="fill:#6d6d6d"/>
            <path data-name="Path 37" d="M187.5 328.375h6.154v1.538H187.5zm0 0" transform="translate(-184.423 -317.988)" style="fill:#6d6d6d"/>
        </g>
        <g data-name="Group 10">
            <path data-name="Path 58" d="M18.307 41.148a.821.821 0 0 0 .8.621h14.765a.821.821 0 0 0 .8-.621L37.95 28.02a.821.821 0 0 0-.8-1.02H15.821a.821.821 0 0 0-.8 1.02zm15.95-5.122h-2.73l.615-3.282h2.935zm-4.4 0h-2.55v-3.282h3.166zM27.308 31.1v-2.459h3.938l-.462 2.459zm-1.641 0h-3.474l-.461-2.462h3.934zm0 1.641v3.282h-2.55l-.617-3.279zm-4.219 3.282h-2.73l-.818-3.279h2.935zm-2.32 1.641h2.626l.461 2.462h-2.472zm4.759 2.462-.462-2.462h2.242v2.462zm3.421-2.462h2.242l-.462 2.462h-1.78zm3.446 2.462.462-2.462h2.626l-.615 2.462zm4.73-9.026h-3.036l.461-2.462H36.1zm-15.426-2.459.462 2.459h-3.035l-.615-2.462z" transform="translate(-10 -13.718)" style="fill:#6d6d6d"/>
            <path data-name="Path 59" d="M16.653 42.692a.821.821 0 1 0 0 1.641h3.239a2.462 2.462 0 1 0 3.643 0h6.2a2.462 2.462 0 1 0 3.643 0h3.239a.821.821 0 0 0 .8-.625l4.673-19.067h4.238a.821.821 0 0 0 0-1.641h-4.88a.821.821 0 0 0-.8.625l-4.671 19.067zm5.061 4.1a.821.821 0 1 1 .821-.821.821.821 0 0 1-.822.824zm9.846 0a.821.821 0 1 1 .821-.821.821.821 0 0 1-.821.824z" transform="translate(-10.149 -13)" style="fill:#6d6d6d"/>
        </g>
    </g>
</svg>
