<svg xmlns="http://www.w3.org/2000/svg" width="240" height="126" viewBox="0 0 240 126">
    <defs>
        <clipPath id="flaer0xeaa">
            <rect data-name="Rectangle 4828" width="240" height="126" rx="8" transform="translate(1160 2030)" style="fill:#fff;stroke:#707070"/>
        </clipPath>
    </defs>
    <g data-name="Mask Group 390" transform="translate(-1160 -2030)" style="clip-path:url(#flaer0xeaa)">
        <g data-name="Dedicated Portal" transform="translate(1160 2030)">
            <rect data-name="Rectangle 4833" width="240" height="126" rx="11.813" style="fill:#f5dc73"/>
            <path data-name="Rectangle 4852" d="M130.33 21.487c0-3.56 2.066-6.212 5.6-5.463a49.511 49.511 0 0 0 33.643-5.052l3.038-1.738a11.739 11.739 0 0 1 11.637 0l3.039 1.738a49.511 49.511 0 0 0 33.643 5.052c3.535-.749 5.6 1.9 5.6 5.463v38.462c0 10.386 0 15.579-1.218 20.357a32.774 32.774 0 0 1-10.381 16.654c-5.5 4.922-21.5 17.227-29.113 20.71a18.632 18.632 0 0 1-14.775 0c-8.112-3.484-24.564-14.761-30.529-20.63-4.583-4.51-7.385-10.529-8.966-16.734-1.218-4.778-1.218-9.971-1.218-20.357z" transform="translate(2.069)" style="fill:#b69626"/>
            <rect data-name="Rectangle 4850" width="91.852" height="90.416" rx="3.938" transform="translate(10.979 17.792)" style="fill:none;stroke:#0f0f0f;stroke-width:1.969px;stroke-dasharray:4 4"/>
            <path data-name="Vector 2109" d="m130.416 62.885-10-5.683v11.366zm-28.379.984h1.774V61.9h-1.774zm5.321 0h3.547V61.9h-3.547zm7.095 0H118V61.9h-3.547zm7.1 0h3.541V61.9h-3.547z"/>
            <path d="M56.359 22.853a3.761 3.761 0 0 1 5.136 3.987l-4.257 28.871a3.79 3.79 0 0 1-6.075 2.389L27.89 40.032a3.691 3.691 0 0 1 .939-6.372zm14.189 40.49a16.215 16.215 0 0 1-6.2-22.3 16.754 16.754 0 0 1 22.659-6.1 16.215 16.215 0 0 1 6.2 22.3 16.754 16.754 0 0 1-22.66 6.1zM87.552 71.4a3.718 3.718 0 0 1 2.9 4.415l-5.387 24.706a3.777 3.777 0 0 1-4.485 2.855l-25.1-5.3a3.718 3.718 0 0 1-2.9-4.415l5.39-24.712a3.777 3.777 0 0 1 4.485-2.854zm-66.664-7.217a16.215 16.215 0 0 0 6.2 22.3 16.754 16.754 0 0 0 22.659-6.1 16.215 16.215 0 0 0-6.2-22.3 16.754 16.754 0 0 0-22.659 6.1z" transform="translate(.297)" style="fill-rule:evenodd;fill:#fff7d4" data-name="Group 2326"/>
            <path d="M200 30.3a3.583 3.583 0 0 0-6.156 0l-14.239 24.278a3.5 3.5 0 0 0 3.078 5.248h28.483a3.5 3.5 0 0 0 3.078-5.248zm-38.449 29.567a15.617 15.617 0 1 0-15.863-15.615 15.74 15.74 0 0 0 15.863 15.615zm-12.309 4.171a3.526 3.526 0 0 0-3.554 3.5V91.77a3.526 3.526 0 0 0 3.554 3.5h24.618a3.526 3.526 0 0 0 3.554-3.5V67.537a3.526 3.526 0 0 0-3.554-3.5zm63.546 15.615a15.865 15.865 0 1 1-15.863-15.615 15.74 15.74 0 0 1 15.863 15.615z" transform="translate(2.313)" style="fill:#ffd527;fill-rule:evenodd"/>
        </g>
    </g>
</svg>
