<svg data-name="youtube (6)" xmlns="http://www.w3.org/2000/svg" width="68.556" height="48" viewBox="0 0 68.556 48">
    <path data-name="Path 1511" d="M67.143 7.511A8.589 8.589 0 0 0 61.1 1.468C55.736 0 34.277 0 34.277 0S12.819 0 7.454 1.412a8.765 8.765 0 0 0-6.042 6.1C0 12.875 0 24 0 24s0 11.181 1.412 16.489a8.591 8.591 0 0 0 6.043 6.043C12.875 48 34.278 48 34.278 48s21.458 0 26.822-1.412a8.589 8.589 0 0 0 6.043-6.042c1.412-5.365 1.412-16.489 1.412-16.489s.057-11.182-1.412-16.546zm0 0" style="fill:red"/>
    <path data-name="Path 1512" d="m204.969 123.04 17.844-10.278-17.844-10.278zm0 0" transform="translate(-177.524 -88.762)" style="fill:#fff"/>
</svg>
